<?xml version="1.0" encoding="UTF-8" standalone="no"?>
<!-- Generator: Adobe Illustrator 16.0.0, SVG Export Plug-In . SVG Version: 6.00 Build 0)  -->

<svg
   xmlns:dc="http://purl.org/dc/elements/1.1/"
   xmlns:cc="http://creativecommons.org/ns#"
   xmlns:rdf="http://www.w3.org/1999/02/22-rdf-syntax-ns#"
   xmlns:svg="http://www.w3.org/2000/svg"
   xmlns="http://www.w3.org/2000/svg"
   xmlns:sodipodi="http://sodipodi.sourceforge.net/DTD/sodipodi-0.dtd"
   xmlns:inkscape="http://www.inkscape.org/namespaces/inkscape"
   version="1.1"
   x="0px"
   y="0px"
   width="1400"
   height="1400"
   viewBox="0 0 1400 1400"
   enable-background="new 0 0 8000 8000"
   xml:space="preserve"
   id="svg6957"
   sodipodi:docname="model-monetize.svg"
   inkscape:version="0.92.2 5c3e80d, 2017-08-06"><metadata
     id="metadata6963"><rdf:RDF><cc:Work
         rdf:about=""><dc:format>image/svg+xml</dc:format><dc:type
           rdf:resource="http://purl.org/dc/dcmitype/StillImage" /><dc:title /></cc:Work></rdf:RDF></metadata><defs
     id="defs6961" /><sodipodi:namedview
     pagecolor="#ffffff"
     bordercolor="#666666"
     borderopacity="1"
     objecttolerance="10"
     gridtolerance="10"
     guidetolerance="10"
     inkscape:pageopacity="0"
     inkscape:pageshadow="2"
     inkscape:window-width="1920"
     inkscape:window-height="983"
     id="namedview6959"
     showgrid="false"
     inkscape:zoom="0.472"
     inkscape:cx="244.3087"
     inkscape:cy="649.21106"
     inkscape:window-x="0"
     inkscape:window-y="1"
     inkscape:window-maximized="1"
     inkscape:current-layer="svg6957" /><g
     id="Layer_3"
     style="display:inline"
     transform="translate(-1858.1694,-2624.1525)"><circle
       id="Background_2_13_"
       cx="2566.9431"
       cy="3324.6299"
       r="531.99902"
       style="fill:#e8e8e8" /><g
       id="Data_Management_2_"
       style="display:none"><g
         id="Line_4_"><polygon
           points="2299.543,3574.487 2779.602,3574.487 2779.602,3022.736 2672.867,2911.245 2299.543,2911.245 "
           id="polygon5711"
           style="fill:#a0e1e6" /><polygon
           points="2704.674,2975.177 2674.869,3019.422 2783.215,3127.768 2783.215,3019.422 "
           id="polygon5713"
           style="opacity:0.1" /><polygon
           points="2672.861,2911.245 2779.602,3022.736 2672.861,3024.409 "
           id="polygon5715"
           style="fill:#e8e8e8" /><g
           id="g5729"><rect
             x="2366.074"
             y="3039.689"
             width="60.797001"
             height="60.800999"
             id="rect5717"
             style="fill:#0f3854" /><rect
             x="2366.074"
             y="3114.0901"
             width="60.797001"
             height="13.678"
             id="rect5719"
             style="fill:#00b09e" /><rect
             x="2426.8711"
             y="3114.0901"
             width="82.402"
             height="13.678"
             id="rect5721"
             style="fill:#dd3401" /><rect
             x="2509.2729"
             y="3114.0901"
             width="84.338997"
             height="13.678"
             id="rect5723"
             style="fill:#0f3854" /><rect
             x="2448.4729"
             y="3039.689"
             width="60.800999"
             height="60.800999"
             id="rect5725"
             style="opacity:0.8;fill:#0f3854" /><rect
             x="2532.812"
             y="3039.689"
             width="60.800999"
             height="60.800999"
             id="rect5727"
             style="opacity:0.7;fill:#0f3854" /></g></g><g
         id="Chart"><path
           d="m 2629.052,3683.706 c 0,7.019 -5.687,12.702 -12.705,12.702 h -618.929 c -7.016,0 -12.702,-5.684 -12.702,-12.702 V 3338.23 c 0,-7.018 5.687,-12.708 12.702,-12.708 h 618.929 c 7.018,0 12.705,5.69 12.705,12.708 z"
           id="path5732"
           inkscape:connector-curvature="0"
           style="fill:#fdb940" /><rect
           x="2035.058"
           y="3364.865"
           width="543.65198"
           height="292.20001"
           id="rect5734"
           style="fill:#efefef" /><g
           id="g5764"><rect
             x="2064.5471"
             y="3548.1069"
             width="32.818001"
             height="73.053001"
             id="rect5736"
             style="fill:#e74c3c" /><rect
             x="2138.6521"
             y="3527.814"
             width="32.819"
             height="93.346001"
             id="rect5738"
             style="fill:#e74c3c" /><rect
             x="2211.7019"
             y="3503.4651"
             width="32.819"
             height="117.695"
             id="rect5740"
             style="fill:#e74c3c" /><rect
             x="2288.7891"
             y="3475.0601"
             width="32.819"
             height="146.10001"
             id="rect5742"
             style="fill:#e74c3c" /><rect
             x="2366.074"
             y="3451.5901"
             width="32.819"
             height="169.57001"
             id="rect5744"
             style="fill:#e74c3c" /><rect
             x="2445.4709"
             y="3428.302"
             width="32.819"
             height="192.858"
             id="rect5746"
             style="fill:#e74c3c" /><rect
             x="2516.4021"
             y="3400.7759"
             width="32.819"
             height="220.384"
             id="rect5748"
             style="fill:#e74c3c" /><rect
             x="2080.957"
             y="3548.1069"
             width="16.409"
             height="73.053001"
             id="rect5750"
             style="opacity:0.1;fill:#231f20" /><rect
             x="2153.6521"
             y="3527.814"
             width="17.819"
             height="93.346001"
             id="rect5752"
             style="opacity:0.1;fill:#231f20" /><rect
             x="2228.1121"
             y="3503.4651"
             width="16.409"
             height="117.695"
             id="rect5754"
             style="opacity:0.1;fill:#231f20" /><rect
             x="2305.198"
             y="3475.0601"
             width="16.41"
             height="146.10001"
             id="rect5756"
             style="opacity:0.1;fill:#231f20" /><rect
             x="2382.4829"
             y="3451.5901"
             width="16.41"
             height="169.57001"
             id="rect5758"
             style="opacity:0.1;fill:#231f20" /><rect
             x="2461.8811"
             y="3428.302"
             width="16.41"
             height="192.858"
             id="rect5760"
             style="opacity:0.1;fill:#231f20" /><rect
             x="2532.812"
             y="3400.7759"
             width="16.409"
             height="220.384"
             id="rect5762"
             style="opacity:0.1;fill:#231f20" /></g><rect
           x="2041.884"
           y="3404.748"
           width="9.5240002"
           height="220.202"
           id="rect5766"
           style="fill:#ff910b" /><rect
           x="2041.884"
           y="3621.4199"
           width="528.271"
           height="10.059"
           id="rect5768"
           style="fill:#00b09e" /><rect
           x="2041.884"
           y="3621.4199"
           width="528.271"
           height="5.033"
           id="rect5770"
           style="opacity:0.1;fill:#231f20" /></g><g
         id="Data_4_"><path
           d="m 3002.652,3745.984 -45.853,-59.668 c -39.385,32.949 -90.104,52.787 -145.469,52.787 -27.109,0 -53.105,-4.759 -77.207,-13.483 l -20.384,72.565 c 30.615,10.442 63.438,16.12 97.591,16.12 72.608,0 139.229,-25.625 191.322,-68.321 z"
           id="path5773"
           inkscape:connector-curvature="0"
           style="fill:#44baca" /><path
           d="m 2956.799,3686.316 45.853,59.668 c 67.598,-55.391 110.739,-139.525 110.739,-233.737 0,-39.902 -7.754,-77.988 -21.81,-112.858 l -73.799,18.705 c 13.102,28.678 20.41,60.56 20.41,94.154 0,69.928 -31.65,132.454 -81.393,174.068 z"
           id="path5775"
           inkscape:connector-curvature="0"
           style="fill:#fdb940" /><path
           d="m 2709.599,3309.435 -29.938,-69.108 c -100.853,48.926 -170.387,152.298 -170.387,271.921 0,132.669 85.534,245.352 204.466,285.938 l 20.384,-72.565 c -87.278,-31.588 -149.651,-115.195 -149.651,-213.372 -10e-4,-88.712 50.923,-165.522 125.126,-202.814 z"
           id="path5777"
           inkscape:connector-curvature="0"
           style="fill:#42536c" /><path
           d="m 2811.331,3285.385 c 91.703,0 170.687,54.414 206.452,132.708 l 73.799,-18.705 c -44.707,-110.918 -153.327,-189.206 -280.251,-189.206 -47.2,0 -91.872,10.84 -131.67,30.143 l 29.938,69.108 c 30.599,-15.376 65.153,-24.048 101.732,-24.048 z"
           id="path5779"
           inkscape:connector-curvature="0"
           style="fill:#f47f74" /></g><g
         id="Document_2_"><g
           id="g5800"><path
             d="m 3069.885,2966.206 h -137.063 c -0.586,-0.026 -1.172,-0.045 -1.816,-0.045 -30.322,0 -60.645,0 -90.96,0 -7.725,0 -14.056,6.334 -14.056,14.056 V 3110.1 c 0,7.721 6.332,14.049 14.056,14.049 h 222.591 c 7.721,0 14.056,-6.328 14.056,-14.049 v -125.326 -11.764 c 0,-3.751 -3.064,-6.804 -6.808,-6.804 z m -135.003,0.13 c 0,0 0,0 -0.01,0 0,0 0,0 0.01,0 z m 1.817,0.228 c -0.01,0 -0.013,0 -0.017,0 0,0 0.01,0 0.017,0 z m 11.142,14.707 c 0.049,0.059 0.091,0.117 0.149,0.176 -0.058,-0.059 -0.1,-0.117 -0.149,-0.176 z m -0.97,-1.413 c 0.013,0.026 0.026,0.052 0.033,0.072 -0.01,-0.02 -0.02,-0.046 -0.033,-0.072 z m 0.426,0.716 c 0.033,0.052 0.062,0.098 0.095,0.143 -0.033,-0.045 -0.062,-0.091 -0.095,-0.143 z m 1.205,1.348 c 0.075,0.065 0.14,0.13 0.218,0.195 -0.078,-0.065 -0.143,-0.13 -0.218,-0.195 z m 0.814,0.612 c 0.094,0.065 0.182,0.13 0.29,0.195 -0.108,-0.065 -0.196,-0.13 -0.29,-0.195 z m 0.97,0.553 c 0.127,0.059 0.238,0.124 0.371,0.182 -0.13,-0.058 -0.244,-0.123 -0.371,-0.182 z m 1.155,0.489 c 0.153,0.052 0.296,0.117 0.459,0.169 -0.162,-0.052 -0.306,-0.118 -0.459,-0.169 z m 1.361,0.416 c 0.186,0.045 0.352,0.098 0.547,0.143 -0.195,-0.045 -0.361,-0.097 -0.547,-0.143 z m 1.579,0.332 c 0.215,0.039 0.414,0.084 0.641,0.117 -0.228,-0.032 -0.426,-0.078 -0.641,-0.117 z m 1.865,0.254 c 0.231,0.026 0.439,0.052 0.68,0.072 -0.24,-0.02 -0.449,-0.046 -0.68,-0.072 z m 2.23,0.156 c 0.215,0.013 0.407,0.026 0.625,0.033 -0.218,-0.01 -0.41,-0.019 -0.625,-0.033 z"
             id="path5782"
             inkscape:connector-curvature="0"
             style="clip-rule:evenodd;fill:#f47f74;fill-rule:evenodd" /><path
             d="m 3069.885,2966.206 h -137.063 c 23.372,0.886 1.406,19.063 28.73,18.568 h 115.14 v -11.764 c 0,-3.751 -3.063,-6.804 -6.807,-6.804 z"
             id="path5784"
             inkscape:connector-curvature="0"
             style="clip-rule:evenodd;opacity:0.1;fill:#020202;fill-rule:evenodd" /><path
             d="m 2961.552,2984.773 h 102.441 c -2.142,-7.22 -8.854,-12.539 -16.748,-12.539 h -102.37 c 1.889,5.554 -0.777,12.858 16.677,12.539 z"
             id="path5786"
             inkscape:connector-curvature="0"
             style="clip-rule:evenodd;fill:#fabe00;fill-rule:evenodd" /><rect
             x="2895.875"
             y="3010.594"
             width="110.915"
             height="64.564003"
             id="rect5788"
             style="clip-rule:evenodd;fill:#e6e8e8;fill-rule:evenodd" /><rect
             x="2905.751"
             y="3032.501"
             width="91.162003"
             height="4.29"
             id="rect5790"
             style="clip-rule:evenodd;fill-rule:evenodd" /><rect
             x="2905.751"
             y="3039.676"
             width="91.162003"
             height="4.2969999"
             id="rect5792"
             style="clip-rule:evenodd;fill-rule:evenodd" /><rect
             x="2905.751"
             y="3046.8501"
             width="91.162003"
             height="4.2969999"
             id="rect5794"
             style="clip-rule:evenodd;fill-rule:evenodd" /><rect
             x="2905.751"
             y="3054.031"
             width="91.162003"
             height="4.2909999"
             id="rect5796"
             style="clip-rule:evenodd;fill-rule:evenodd" /><path
             d="m 3025.344,3124.148 h 37.292 c 7.721,0 14.056,-6.328 14.056,-14.049 v -78.776 c -9.788,31.419 -26.559,72.624 -51.348,92.825 z"
             id="path5798"
             inkscape:connector-curvature="0"
             style="opacity:0.2" /></g><g
           id="Document_3_"><path
             d="M 3167.434,3029.129 H 3003.15 c -0.703,-0.026 -1.406,-0.045 -2.178,-0.045 -36.338,0 -72.682,0 -109.023,0 -9.258,0 -16.846,7.116 -16.846,15.807 v 146.087 c 0,8.685 7.588,15.807 16.846,15.807 h 266.797 c 9.251,0 16.842,-7.123 16.842,-15.807 v -140.957 -13.236 c 0,-4.219 -3.668,-7.656 -8.154,-7.656 z m -161.813,0.15 c 0,0 0,0 -0.01,0 0,0 0,0 0.01,0 z m 2.174,0.254 c -0.01,0 -0.013,0 -0.013,0 0,0 0.01,0 0.013,0 z m 13.353,16.543 c 0.059,0.065 0.117,0.13 0.182,0.195 -0.064,-0.065 -0.123,-0.13 -0.182,-0.195 z m -1.158,-1.589 c 0.016,0.033 0.029,0.059 0.042,0.085 -0.013,-0.027 -0.026,-0.059 -0.042,-0.085 z m 0.51,0.807 c 0.039,0.052 0.075,0.104 0.114,0.156 -0.038,-0.052 -0.074,-0.104 -0.114,-0.156 z m 1.449,1.517 c 0.084,0.072 0.166,0.15 0.257,0.215 -0.091,-0.065 -0.172,-0.143 -0.257,-0.215 z m 0.97,0.684 c 0.117,0.072 0.221,0.15 0.348,0.222 -0.126,-0.072 -0.23,-0.151 -0.348,-0.222 z m 1.165,0.625 c 0.15,0.065 0.287,0.144 0.446,0.208 -0.159,-0.065 -0.296,-0.143 -0.446,-0.208 z m 1.387,0.547 c 0.183,0.065 0.352,0.13 0.547,0.189 -0.195,-0.059 -0.364,-0.124 -0.547,-0.189 z m 1.628,0.468 c 0.218,0.052 0.42,0.111 0.654,0.163 -0.234,-0.052 -0.436,-0.11 -0.654,-0.163 z m 1.895,0.378 c 0.254,0.039 0.491,0.091 0.765,0.13 -0.274,-0.039 -0.511,-0.091 -0.765,-0.13 z m 2.236,0.286 c 0.28,0.026 0.524,0.059 0.817,0.078 -0.293,-0.019 -0.537,-0.051 -0.817,-0.078 z m 2.672,0.176 c 0.257,0.01 0.485,0.026 0.746,0.033 -0.261,-0.01 -0.488,-0.026 -0.746,-0.033 z"
             id="path5802"
             inkscape:connector-curvature="0"
             style="clip-rule:evenodd;fill:#fdb940;fill-rule:evenodd" /><path
             d="M 3167.434,3029.129 H 3003.15 c 28.011,0.996 1.686,21.445 34.437,20.892 h 138.001 v -13.236 c 0,-4.219 -3.668,-7.656 -8.154,-7.656 z"
             id="path5804"
             inkscape:connector-curvature="0"
             style="clip-rule:evenodd;opacity:0.1;fill:#020202;fill-rule:evenodd" /><path
             d="m 3037.587,3050.021 h 122.783 c -2.565,-8.125 -10.609,-14.115 -20.078,-14.115 H 3017.6 c 2.266,6.25 -0.931,14.467 19.987,14.115 z"
             id="path5806"
             inkscape:connector-curvature="0"
             style="clip-rule:evenodd;fill:#f9623e;fill-rule:evenodd" /><rect
             x="2958.8669"
             y="3079.064"
             width="132.942"
             height="72.616997"
             id="rect5808"
             style="clip-rule:evenodd;fill:#e6e8e8;fill-rule:evenodd" /><rect
             x="2970.7061"
             y="3103.699"
             width="109.265"
             height="4.8309999"
             id="rect5810"
             style="clip-rule:evenodd;fill:#ff3e03;fill-rule:evenodd" /><rect
             x="2970.7061"
             y="3111.772"
             width="109.265"
             height="4.8239999"
             id="rect5812"
             style="clip-rule:evenodd;fill:#ff3e03;fill-rule:evenodd" /><rect
             x="2970.7061"
             y="3119.845"
             width="109.265"
             height="4.8309999"
             id="rect5814"
             style="clip-rule:evenodd;fill:#ff3e03;fill-rule:evenodd" /><rect
             x="2970.7061"
             y="3127.9121"
             width="109.265"
             height="4.8309999"
             id="rect5816"
             style="clip-rule:evenodd;fill:#ff3e03;fill-rule:evenodd" /></g></g><g
         id="Controlling"><g
           id="Correction_1_"><g
             id="Active_4_"><g
               id="Active1_2_"><path
                 d="m 2816.243,3569.259 c 6.101,2.22 11.703,5.475 16.605,9.563 l 23.031,-9.485 15.479,26.81 -19.284,15.983 c 0.563,3.203 0.85,6.471 0.85,9.817 0,2.962 -0.221,5.859 -0.67,8.685 l 20.065,15.462 -15.475,26.803 -23.138,-8.568 c -4.805,4.193 -10.345,7.565 -16.387,9.909 l -3.265,24.473 h -30.964 l -4.098,-24.076 c -6.097,-2.201 -11.712,-5.462 -16.611,-9.564 l -23.037,9.486 -15.472,-26.803 19.291,-15.996 c -0.56,-3.184 -0.859,-6.465 -0.859,-9.812 0,-2.962 0.231,-5.859 0.674,-8.698 l -20.062,-15.443 15.476,-26.81 23.125,8.567 c 4.814,-4.192 10.354,-7.565 16.406,-9.896 l 3.249,-24.473 h 30.967 z"
                 id="path5820"
                 inkscape:connector-curvature="0"
                 style="clip-rule:evenodd;fill:#f05161;fill-rule:evenodd" /><path
                 d="m 2797.604,3662.182 c 22.178,0 40.264,-18.073 40.264,-40.234 0,-22.174 -18.086,-40.234 -40.264,-40.234 -22.158,0 -40.248,18.06 -40.248,40.234 0,22.161 18.089,40.234 40.248,40.234 z"
                 id="path5822"
                 inkscape:connector-curvature="0"
                 style="clip-rule:evenodd;opacity:0.5;fill-rule:evenodd" /><path
                 d="m 2797.613,3648.634 c 14.707,0 26.696,-11.992 26.696,-26.687 0,-14.7 -11.989,-26.68 -26.696,-26.68 -14.697,0 -26.686,11.979 -26.686,26.68 0,14.695 11.989,26.687 26.686,26.687 z"
                 id="path5824"
                 inkscape:connector-curvature="0"
                 style="clip-rule:evenodd;opacity:0.5;fill:#ffffff;fill-rule:evenodd" /></g><g
               id="Active_5_"><path
                 d="m 2871.816,3340.301 c 9.619,0.345 18.994,2.396 27.767,5.938 l 28.174,-23.854 34.014,30.774 -19.925,31.322 c 2.239,4.251 4.147,8.73 5.664,13.457 1.344,4.167 2.344,8.366 3.004,12.565 l 35.322,12.663 -9.642,44.85 -36.526,-1.576 c -4.876,8.112 -11.156,15.384 -18.61,21.419 l 6.511,36.009 -43.669,14.069 -16.729,-32.09 c -9.6,-0.332 -18.997,-2.376 -27.773,-5.931 l -28.17,23.854 -34.027,-30.775 19.945,-31.328 c -2.24,-4.238 -4.147,-8.724 -5.67,-13.444 -1.345,-4.187 -2.331,-8.379 -3.005,-12.578 l -35.319,-12.663 9.645,-44.844 36.53,1.569 c 4.866,-8.105 11.146,-15.378 18.606,-21.406 l -6.52,-36.016 43.668,-14.069 z"
                 id="path5827"
                 inkscape:connector-curvature="0"
                 style="clip-rule:evenodd;fill:#fdb940;fill-rule:evenodd" /><path
                 d="m 2869.482,3487.957 c 35.752,0 64.909,-29.16 64.909,-64.883 0,-35.742 -29.157,-64.87 -64.909,-64.87 -35.736,0 -64.89,29.127 -64.89,64.87 0,35.723 29.154,64.883 64.89,64.883 z"
                 id="path5829"
                 inkscape:connector-curvature="0"
                 style="clip-rule:evenodd;opacity:0.5;fill-rule:evenodd" /><path
                 d="m 2881.617,3460.717 c 20.752,-6.686 32.217,-29.049 25.534,-49.778 -6.68,-20.736 -29.049,-32.181 -49.788,-25.501 -20.732,6.686 -32.204,29.037 -25.518,49.779 6.676,20.728 29.043,32.18 49.772,25.5 z"
                 id="path5831"
                 inkscape:connector-curvature="0"
                 style="clip-rule:evenodd;opacity:0.5;fill:#ffffff;fill-rule:evenodd" /></g></g><g
             id="Active_1_"><g
               id="Active1_1_"><path
                 d="m 2690.27,3522.169 c 2.49,-1.055 5.121,-1.647 7.773,-1.791 l 4.326,-9.408 12.308,3.783 -1.354,10.332 c 1.074,0.82 2.087,1.738 3.037,2.76 0.833,0.892 1.592,1.843 2.256,2.832 l 10.482,-0.963 2.877,12.545 -9.482,3.933 c -0.276,2.643 -1.012,5.234 -2.19,7.656 l 5.931,8.385 -9.434,8.756 -8.06,-6.172 c -2.484,1.062 -5.117,1.647 -7.771,1.784 l -4.333,9.407 -12.305,-3.789 1.354,-10.332 c -1.071,-0.807 -2.09,-1.731 -3.037,-2.747 -0.836,-0.905 -1.588,-1.849 -2.259,-2.839 l -10.485,0.977 -2.864,-12.552 9.473,-3.939 c 0.276,-2.637 1.012,-5.234 2.19,-7.656 l -5.934,-8.379 9.443,-8.756 z"
                 id="path5835"
                 inkscape:connector-curvature="0"
                 style="clip-rule:evenodd;fill:#e74c3c;fill-rule:evenodd" /><path
                 d="m 2710.888,3555.756 c 6.754,-6.276 7.151,-16.901 0.882,-23.659 -6.272,-6.751 -16.897,-7.142 -23.655,-0.859 -6.751,6.263 -7.152,16.888 -0.882,23.646 6.275,6.751 16.9,7.149 23.655,0.872 z"
                 id="path5837"
                 inkscape:connector-curvature="0"
                 style="clip-rule:evenodd;opacity:0.5;fill-rule:evenodd" /><path
                 d="m 2707.057,3551.623 c 4.482,-4.16 4.736,-11.211 0.58,-15.684 -4.157,-4.479 -11.201,-4.74 -15.681,-0.58 -4.482,4.16 -4.743,11.205 -0.586,15.684 4.157,4.486 11.204,4.746 15.687,0.58 z"
                 id="path5839"
                 inkscape:connector-curvature="0"
                 style="clip-rule:evenodd;opacity:0.5;fill:#ffffff;fill-rule:evenodd" /></g><g
               id="Active_3_"><path
                 d="m 2642.418,3436.668 c 3.027,-2.624 6.465,-4.642 10.143,-6.048 l 1.839,-15.247 19.072,-0.248 2.793,15.182 c 1.881,0.664 3.73,1.491 5.531,2.507 1.592,0.885 3.079,1.881 4.473,2.975 l 14.346,-6.139 9.752,16.406 -11.576,9.856 c 0.808,3.848 0.951,7.839 0.384,11.791 l 12.178,9.127 -9.326,16.641 -14.176,-5.045 c -3.018,2.624 -6.465,4.655 -10.144,6.048 l -1.836,15.247 -19.079,0.254 -2.787,-15.195 c -1.881,-0.657 -3.733,-1.484 -5.534,-2.493 -1.588,-0.892 -3.08,-1.895 -4.469,-2.976 l -14.353,6.133 -9.749,-16.399 11.575,-9.857 c -0.811,-3.854 -0.954,-7.845 -0.384,-11.797 l -12.175,-9.121 9.323,-16.647 z"
                 id="path5842"
                 inkscape:connector-curvature="0"
                 style="clip-rule:evenodd;fill:#42536c;fill-rule:evenodd" /><path
                 d="m 2683.486,3482.326 c 10.901,-10.117 11.536,-27.259 1.422,-38.138 -10.114,-10.898 -27.24,-11.523 -38.131,-1.406 -10.892,10.111 -11.537,27.24 -1.423,38.131 10.114,10.885 27.25,11.523 38.132,1.413 z"
                 id="path5844"
                 inkscape:connector-curvature="0"
                 style="clip-rule:evenodd;opacity:0.5;fill-rule:evenodd" /><path
                 d="m 2679.482,3470.587 c 4.43,-7.91 1.595,-17.969 -6.306,-22.396 -7.903,-4.427 -17.956,-1.588 -22.386,6.322 -4.434,7.903 -1.602,17.956 6.305,22.389 7.898,4.428 17.963,1.582 22.387,-6.315 z"
                 id="path5846"
                 inkscape:connector-curvature="0"
                 style="clip-rule:evenodd;opacity:0.5;fill:#ffffff;fill-rule:evenodd" /></g></g></g></g></g></g><g
     id="Creat_Idea_2_"
     style="display:inline"
     transform="matrix(0.92254141,0,0,0.95791786,-1131.7659,-4011.8029)"><g
       id="Laptop_1_"
       transform="matrix(1,0,0,1.0205748,-2014.1853,4126.5912)"><g
         id="g3842"><rect
           x="3740.7971"
           y="705.96301"
           width="523.66803"
           height="24.316"
           id="rect3826"
           style="clip-rule:evenodd;fill:#003333;fill-rule:evenodd" /><path
           d="M 4391.836,410.052 H 3604.18 c -36.104,0 -47.25,22.67 -40.28,49.46 -0.01,-0.332 0.046,-0.645 0.059,-0.97 -0.068,1.81 0.075,3.646 0.57,5.521 l 57.005,215.176 c 8.613,32.676 16.341,33.691 58.841,33.626 l 658.577,-0.065 c 34.199,0 50.866,0.065 57.637,-32.734 l 44.401,-216.002 c 0.169,-0.82 0.234,-1.641 0.3,-2.461 0.01,0.02 0.013,0.039 0.013,0.059 l 2.155,-18.301 c 3.039,-26.278 -31.544,-33.309 -51.622,-33.309 z m -827.533,45.625 c -0.101,0.508 -0.199,1.016 -0.257,1.53 0.058,-0.515 0.156,-1.022 0.257,-1.53 z m 1.709,-5.006 c -0.121,0.247 -0.264,0.488 -0.377,0.742 0.114,-0.254 0.257,-0.495 0.377,-0.742 z m -0.973,2.33 c -0.146,0.417 -0.306,0.827 -0.423,1.25 0.12,-0.423 0.277,-0.833 0.423,-1.25 z m 32.151,-21.067 c 1.188,-0.104 2.38,-0.163 3.568,-0.163 -1.188,0 -2.379,0.058 -3.568,0.163 z m -21.9,8.144 c 0.082,-0.059 0.16,-0.124 0.244,-0.183 -0.082,0.059 -0.163,0.125 -0.244,0.183 z m 2.584,-1.731 c 0.169,-0.104 0.329,-0.209 0.501,-0.313 -0.172,0.104 -0.332,0.208 -0.501,0.313 z m 2.822,-1.589 c 0.251,-0.13 0.498,-0.261 0.752,-0.384 -0.254,0.123 -0.504,0.254 -0.752,0.384 z m 3.028,-1.419 c 0.332,-0.144 0.661,-0.273 0.996,-0.41 -0.335,0.136 -0.664,0.266 -0.996,0.41 z m 3.187,-1.218 c 0.426,-0.144 0.856,-0.267 1.286,-0.403 -0.43,0.13 -0.86,0.26 -1.286,0.403 z m 3.326,-0.983 c 0.537,-0.137 1.078,-0.247 1.611,-0.364 -0.533,0.117 -1.074,0.227 -1.611,0.364 z m 3.438,-0.742 c 0.693,-0.117 1.394,-0.195 2.087,-0.279 -0.694,0.083 -1.394,0.161 -2.087,0.279 z"
           id="path3828"
           inkscape:connector-curvature="0"
           style="clip-rule:evenodd;fill:#34495e;fill-rule:evenodd" /><path
           d="m 3604.18,410.052 h 787.656 c 20.078,0 54.661,7.031 51.621,33.308 l -2.155,18.301 c -2.903,-13.613 -19.883,-29.89 -36.536,-29.89 h -804.007 c -18.112,0 -37.051,12.539 -36.859,27.741 -6.97,-26.79 4.176,-49.46 40.28,-49.46 z"
           id="path3830"
           inkscape:connector-curvature="0"
           style="clip-rule:evenodd;opacity:0.5;fill-rule:evenodd" /><polygon
           points="3603.987,446.973 4405.833,446.081 4362.578,696.719 3654.277,696.907 "
           id="polygon3832"
           style="clip-rule:evenodd;opacity:0.8;fill:#ffffff;fill-rule:evenodd" /><path
           d="m 3643.385,720.208 h 723.119 c 11.973,0 21.79,9.818 21.79,21.784 v 398.743 c 0,11.973 -9.817,21.791 -21.79,21.791 h -723.119 c -11.973,0 -21.787,-9.818 -21.787,-21.791 V 741.992 c 0,-11.966 9.815,-21.784 21.787,-21.784 z"
           id="path3834"
           inkscape:connector-curvature="0"
           style="clip-rule:evenodd;fill:#cccccc;fill-rule:evenodd" /><rect
           x="3902.5"
           y="1027.6429"
           width="204.83"
           height="107.213"
           id="rect3836"
           style="clip-rule:evenodd;fill:#003333;fill-rule:evenodd" /><rect
           x="3659.616"
           y="757.565"
           width="690.65802"
           height="251.05499"
           id="rect3838"
           style="clip-rule:evenodd;opacity:0.3;fill-rule:evenodd" /><path
           d="m 4088.294,1082.246 c 0,25.527 -4.414,46.237 -9.856,46.237 h -152.021 c -5.449,0 -9.863,-20.709 -9.863,-46.237 v 0 c 0,-25.521 4.414,-46.224 9.863,-46.224 h 152.021 c 5.442,0 9.856,20.703 9.856,46.224 z"
           id="path3840"
           inkscape:connector-curvature="0"
           style="opacity:0.3" /></g><g
         id="Light_1_"><polygon
           points="3865.752,696.797 4093.457,446.113 3924.538,446.081 3747.464,696.855 "
           id="polygon3844"
           style="opacity:0.5;fill:#ffffff" /><polygon
           points="4258.111,446.14 4177.188,446.328 3956.878,696.797 3980.56,696.797 "
           id="polygon3846"
           style="opacity:0.5;fill:#ffffff" /></g><g
         id="Keyboard_4_"><path
           d="m 3674.567,772.409 h 32.064 c 1.895,0 3.398,2.025 3.398,4.466 v 34.524 c 0,2.448 -1.504,4.466 -3.398,4.466 h -32.064 c -1.901,0 -3.47,-2.018 -3.47,-4.466 v -34.524 c 0,-2.441 1.569,-4.466 3.47,-4.466 z"
           id="path3849"
           inkscape:connector-curvature="0"
           style="clip-rule:evenodd;fill:#333333;fill-rule:evenodd" /><path
           d="m 3726.585,772.409 h 32.058 c 1.897,0 3.467,2.025 3.467,4.466 v 34.524 c 0,2.448 -1.569,4.466 -3.467,4.466 h -32.058 c -1.897,0 -3.467,-2.018 -3.467,-4.466 v -34.524 c 0,-2.441 1.57,-4.466 3.467,-4.466 z"
           id="path3851"
           inkscape:connector-curvature="0"
           style="clip-rule:evenodd;fill:#333333;fill-rule:evenodd" /><path
           d="m 3778.668,772.409 h 31.992 c 1.895,0 3.467,2.025 3.467,4.466 v 34.524 c 0,2.448 -1.572,4.466 -3.467,4.466 h -31.992 c -1.901,0 -3.473,-2.018 -3.473,-4.466 v -34.524 c 0,-2.441 1.573,-4.466 3.473,-4.466 z"
           id="path3853"
           inkscape:connector-curvature="0"
           style="clip-rule:evenodd;fill:#333333;fill-rule:evenodd" /><path
           d="m 3830.68,772.409 h 31.996 c 1.963,0 3.467,2.025 3.467,4.466 v 34.524 c 0,2.448 -1.504,4.466 -3.467,4.466 h -31.996 c -1.898,0 -3.467,-2.018 -3.467,-4.466 v -34.524 c 0,-2.441 1.569,-4.466 3.467,-4.466 z"
           id="path3855"
           inkscape:connector-curvature="0"
           style="clip-rule:evenodd;fill:#333333;fill-rule:evenodd" /><path
           d="m 3882.695,772.409 h 32.063 c 1.898,0 3.467,2.025 3.467,4.466 v 34.524 c 0,2.448 -1.569,4.466 -3.467,4.466 h -32.063 c -1.898,0 -3.467,-2.018 -3.467,-4.466 v -34.524 c 10e-4,-2.441 1.569,-4.466 3.467,-4.466 z"
           id="path3857"
           inkscape:connector-curvature="0"
           style="clip-rule:evenodd;fill:#333333;fill-rule:evenodd" /><path
           d="m 3934.778,772.409 h 31.999 c 1.895,0 3.463,2.025 3.463,4.466 v 34.524 c 0,2.448 -1.569,4.466 -3.463,4.466 h -31.999 c -1.897,0 -3.467,-2.018 -3.467,-4.466 v -34.524 c 10e-4,-2.441 1.57,-4.466 3.467,-4.466 z"
           id="path3859"
           inkscape:connector-curvature="0"
           style="clip-rule:evenodd;fill:#333333;fill-rule:evenodd" /><path
           d="m 3986.797,772.409 h 31.992 c 1.966,0 3.463,2.025 3.463,4.466 v 34.524 c 0,2.448 -1.497,4.466 -3.463,4.466 h -31.992 c -1.898,0 -3.467,-2.018 -3.467,-4.466 v -34.524 c 0,-2.441 1.569,-4.466 3.467,-4.466 z"
           id="path3861"
           inkscape:connector-curvature="0"
           style="clip-rule:evenodd;fill:#333333;fill-rule:evenodd" /><path
           d="m 4038.809,772.409 h 32.063 c 1.895,0 3.464,2.025 3.464,4.466 v 34.524 c 0,2.448 -1.569,4.466 -3.464,4.466 h -32.063 c -1.895,0 -3.464,-2.018 -3.464,-4.466 v -34.524 c 0,-2.441 1.569,-4.466 3.464,-4.466 z"
           id="path3863"
           inkscape:connector-curvature="0"
           style="clip-rule:evenodd;fill:#333333;fill-rule:evenodd" /><path
           d="m 4090.898,772.409 h 31.992 c 1.895,0 3.463,2.025 3.463,4.466 v 34.524 c 0,2.448 -1.568,4.466 -3.463,4.466 h -31.992 c -1.973,0 -3.477,-2.018 -3.477,-4.466 v -34.524 c 0,-2.441 1.505,-4.466 3.477,-4.466 z"
           id="path3865"
           inkscape:connector-curvature="0"
           style="clip-rule:evenodd;fill:#333333;fill-rule:evenodd" /><path
           d="m 4142.91,772.409 h 31.998 c 1.96,0 3.471,2.025 3.471,4.466 v 34.524 c 0,2.448 -1.511,4.466 -3.471,4.466 h -31.998 c -1.901,0 -3.471,-2.018 -3.471,-4.466 v -34.524 c 0,-2.441 1.57,-4.466 3.471,-4.466 z"
           id="path3867"
           inkscape:connector-curvature="0"
           style="clip-rule:evenodd;fill:#333333;fill-rule:evenodd" /><path
           d="m 4194.922,772.409 h 32.07 c 1.895,0 3.457,2.025 3.457,4.466 v 34.524 c 0,2.448 -1.563,4.466 -3.457,4.466 h -32.07 c -1.895,0 -3.457,-2.018 -3.457,-4.466 v -34.524 c 0,-2.441 1.562,-4.466 3.457,-4.466 z"
           id="path3869"
           inkscape:connector-curvature="0"
           style="clip-rule:evenodd;fill:#333333;fill-rule:evenodd" /><path
           d="m 3752.688,832.715 h 31.999 c 1.897,0 3.463,2.018 3.463,4.466 v 34.525 c 0,2.441 -1.566,4.459 -3.463,4.459 h -31.999 c -1.901,0 -3.467,-2.018 -3.467,-4.459 v -34.525 c 0,-2.448 1.567,-4.466 3.467,-4.466 z"
           id="path3871"
           inkscape:connector-curvature="0"
           style="clip-rule:evenodd;fill:#333333;fill-rule:evenodd" /><path
           d="m 3804.7,832.715 h 32.064 c 1.901,0 3.47,2.018 3.47,4.466 v 34.525 c 0,2.441 -1.569,4.459 -3.47,4.459 H 3804.7 c -1.888,0 -3.46,-2.018 -3.46,-4.459 v -34.525 c 0,-2.448 1.573,-4.466 3.46,-4.466 z"
           id="path3873"
           inkscape:connector-curvature="0"
           style="clip-rule:evenodd;fill:#333333;fill-rule:evenodd" /><path
           d="m 3856.722,832.715 h 32.061 c 1.895,0 3.47,2.018 3.47,4.466 v 34.525 c 0,2.441 -1.576,4.459 -3.47,4.459 h -32.061 c -1.897,0 -3.401,-2.018 -3.401,-4.459 v -34.525 c -10e-4,-2.448 1.503,-4.466 3.401,-4.466 z"
           id="path3875"
           inkscape:connector-curvature="0"
           style="clip-rule:evenodd;fill:#333333;fill-rule:evenodd" /><path
           d="m 3908.802,832.715 h 31.996 c 1.898,0 3.467,2.018 3.467,4.466 v 34.525 c 0,2.441 -1.569,4.459 -3.467,4.459 h -31.996 c -1.897,0 -3.463,-2.018 -3.463,-4.459 v -34.525 c -10e-4,-2.448 1.565,-4.466 3.463,-4.466 z"
           id="path3877"
           inkscape:connector-curvature="0"
           style="clip-rule:evenodd;fill:#333333;fill-rule:evenodd" /><path
           d="m 3960.82,832.715 h 32.061 c 1.895,0 3.405,2.018 3.405,4.466 v 34.525 c 0,2.441 -1.51,4.459 -3.405,4.459 h -32.061 c -1.898,0 -3.467,-2.018 -3.467,-4.459 v -34.525 c 10e-4,-2.448 1.569,-4.466 3.467,-4.466 z"
           id="path3879"
           inkscape:connector-curvature="0"
           style="clip-rule:evenodd;fill:#333333;fill-rule:evenodd" /><path
           d="m 4012.838,832.715 h 32.058 c 1.901,0 3.47,2.018 3.47,4.466 v 34.525 c 0,2.441 -1.568,4.459 -3.47,4.459 h -32.058 c -1.9,0 -3.477,-2.018 -3.477,-4.459 v -34.525 c 0,-2.448 1.577,-4.466 3.477,-4.466 z"
           id="path3881"
           inkscape:connector-curvature="0"
           style="clip-rule:evenodd;fill:#333333;fill-rule:evenodd" /><path
           d="m 4064.922,832.715 h 31.992 c 1.895,0 3.463,2.018 3.463,4.466 v 34.525 c 0,2.441 -1.568,4.459 -3.463,4.459 h -31.992 c -1.901,0 -3.477,-2.018 -3.477,-4.459 v -34.525 c 0,-2.448 1.576,-4.466 3.477,-4.466 z"
           id="path3883"
           inkscape:connector-curvature="0"
           style="clip-rule:evenodd;fill:#333333;fill-rule:evenodd" /><path
           d="m 4116.927,832.715 h 32.07 c 1.888,0 3.398,2.018 3.398,4.466 v 34.525 c 0,2.441 -1.511,4.459 -3.398,4.459 h -32.07 c -1.895,0 -3.464,-2.018 -3.464,-4.459 v -34.525 c 0,-2.448 1.569,-4.466 3.464,-4.466 z"
           id="path3885"
           inkscape:connector-curvature="0"
           style="clip-rule:evenodd;fill:#333333;fill-rule:evenodd" /><path
           d="m 4168.945,832.715 h 32.063 c 1.895,0 3.457,2.018 3.457,4.466 v 34.525 c 0,2.441 -1.563,4.459 -3.457,4.459 h -32.063 c -1.895,0 -3.464,-2.018 -3.464,-4.459 v -34.525 c 0,-2.448 1.57,-4.466 3.464,-4.466 z"
           id="path3887"
           inkscape:connector-curvature="0"
           style="clip-rule:evenodd;fill:#333333;fill-rule:evenodd" /><path
           d="m 4221.028,832.715 h 32.005 c 1.895,0 3.457,2.018 3.457,4.466 v 34.525 c 0,2.441 -1.563,4.459 -3.457,4.459 h -32.005 c -1.901,0 -3.477,-2.018 -3.477,-4.459 v -34.525 c 10e-4,-2.448 1.576,-4.466 3.477,-4.466 z"
           id="path3889"
           inkscape:connector-curvature="0"
           style="clip-rule:evenodd;fill:#333333;fill-rule:evenodd" /><path
           d="m 4247.012,772.409 h 31.985 c 1.901,0 3.477,2.025 3.477,4.466 v 34.524 c 0,2.448 -1.575,4.466 -3.477,4.466 h -31.985 c -1.96,0 -3.471,-2.018 -3.471,-4.466 v -34.524 c 0,-2.441 1.511,-4.466 3.471,-4.466 z"
           id="path3891"
           inkscape:connector-curvature="0"
           style="clip-rule:evenodd;fill:#333333;fill-rule:evenodd" /><path
           d="m 4299.023,772.409 h 31.992 c 1.9,0 3.463,2.025 3.463,4.466 v 34.524 c 0,2.448 -1.563,4.466 -3.463,4.466 h -31.992 c -1.901,0 -3.471,-2.018 -3.471,-4.466 v -34.524 c 0,-2.441 1.57,-4.466 3.471,-4.466 z"
           id="path3893"
           inkscape:connector-curvature="0"
           style="clip-rule:evenodd;fill:#333333;fill-rule:evenodd" /><path
           d="m 4273.899,832.715 h 57.116 c 1.9,0 3.463,2.018 3.463,4.466 v 34.525 c 0,2.441 -1.563,4.459 -3.463,4.459 h -57.116 c -1.901,0 -3.483,-2.018 -3.483,-4.459 v -34.525 c 0,-2.448 1.582,-4.466 3.483,-4.466 z"
           id="path3895"
           inkscape:connector-curvature="0"
           style="clip-rule:evenodd;fill:#333333;fill-rule:evenodd" /><path
           d="m 3675.088,832.715 h 59.284 c 1.895,0 3.46,2.018 3.46,4.466 v 34.525 c 0,2.441 -1.566,4.459 -3.46,4.459 h -59.284 c -1.963,0 -3.467,-2.018 -3.467,-4.459 v -34.525 c 0,-2.448 1.504,-4.466 3.467,-4.466 z"
           id="path3897"
           inkscape:connector-curvature="0"
           style="clip-rule:evenodd;fill:#333333;fill-rule:evenodd" /><path
           d="m 3675.088,893.014 h 70.797 c 1.898,0 3.467,2.018 3.467,4.459 v 34.538 c 0,2.441 -1.569,4.459 -3.467,4.459 h -70.797 c -1.963,0 -3.467,-2.018 -3.467,-4.459 v -34.538 c 0,-2.441 1.504,-4.459 3.467,-4.459 z"
           id="path3899"
           inkscape:connector-curvature="0"
           style="clip-rule:evenodd;fill:#333333;fill-rule:evenodd" /><path
           d="m 3675.088,953.32 h 31.93 c 1.901,0 3.47,2.018 3.47,4.459 v 34.531 c 0,2.441 -1.569,4.466 -3.47,4.466 h -31.93 c -1.963,0 -3.467,-2.025 -3.467,-4.466 v -34.53 c 0,-2.442 1.504,-4.46 3.467,-4.46 z"
           id="path3901"
           inkscape:connector-curvature="0"
           style="clip-rule:evenodd;fill:#333333;fill-rule:evenodd" /><path
           d="m 3727.041,953.32 h 31.927 c 1.898,0 3.474,2.018 3.474,4.459 v 34.531 c 0,2.441 -1.576,4.466 -3.474,4.466 h -31.927 c -1.895,0 -3.467,-2.025 -3.467,-4.466 v -34.53 c 0,-2.442 1.572,-4.46 3.467,-4.46 z"
           id="path3903"
           inkscape:connector-curvature="0"
           style="clip-rule:evenodd;fill:#333333;fill-rule:evenodd" /><path
           d="m 3778.991,953.32 h 31.93 c 1.966,0 3.467,2.018 3.467,4.459 v 34.531 c 0,2.441 -1.5,4.466 -3.467,4.466 h -31.93 c -1.895,0 -3.463,-2.025 -3.463,-4.466 v -34.53 c -10e-4,-2.442 1.568,-4.46 3.463,-4.46 z"
           id="path3905"
           inkscape:connector-curvature="0"
           style="clip-rule:evenodd;fill:#333333;fill-rule:evenodd" /><path
           d="m 3830.944,953.32 h 332.702 c 1.96,0 3.477,2.018 3.477,4.459 v 34.531 c 0,2.441 -1.517,4.466 -3.477,4.466 h -332.702 c -1.898,0 -3.467,-2.025 -3.467,-4.466 v -34.53 c 0,-2.442 1.569,-4.46 3.467,-4.46 z"
           id="path3907"
           inkscape:connector-curvature="0"
           style="clip-rule:evenodd;fill:#333333;fill-rule:evenodd" /><path
           d="m 3765.12,893.606 h 31.992 c 1.904,0 3.47,2.019 3.47,4.46 v 34.531 c 0,2.441 -1.566,4.459 -3.47,4.459 h -31.992 c -1.901,0 -3.467,-2.018 -3.467,-4.459 v -34.531 c 0,-2.441 1.566,-4.46 3.467,-4.46 z"
           id="path3909"
           inkscape:connector-curvature="0"
           style="clip-rule:evenodd;fill:#333333;fill-rule:evenodd" /><path
           d="m 3817.139,893.606 h 32.057 c 1.898,0 3.467,2.019 3.467,4.46 v 34.531 c 0,2.441 -1.569,4.459 -3.467,4.459 h -32.057 c -1.898,0 -3.467,-2.018 -3.467,-4.459 v -34.531 c 0,-2.441 1.569,-4.46 3.467,-4.46 z"
           id="path3911"
           inkscape:connector-curvature="0"
           style="clip-rule:evenodd;fill:#333333;fill-rule:evenodd" /><path
           d="m 3869.153,893.606 h 32.061 c 1.898,0 3.47,2.019 3.47,4.46 v 34.531 c 0,2.441 -1.572,4.459 -3.47,4.459 h -32.061 c -1.897,0 -3.401,-2.018 -3.401,-4.459 v -34.531 c 0,-2.441 1.504,-4.46 3.401,-4.46 z"
           id="path3913"
           inkscape:connector-curvature="0"
           style="clip-rule:evenodd;fill:#333333;fill-rule:evenodd" /><path
           d="m 3921.233,893.606 h 31.999 c 1.895,0 3.463,2.019 3.463,4.46 v 34.531 c 0,2.441 -1.569,4.459 -3.463,4.459 h -31.999 c -1.897,0 -3.463,-2.018 -3.463,-4.459 v -34.531 c 0,-2.441 1.566,-4.46 3.463,-4.46 z"
           id="path3915"
           inkscape:connector-curvature="0"
           style="clip-rule:evenodd;fill:#333333;fill-rule:evenodd" /><path
           d="m 3973.252,893.606 h 32.061 c 1.9,0 3.398,2.019 3.398,4.46 v 34.531 c 0,2.441 -1.498,4.459 -3.398,4.459 h -32.061 c -1.895,0 -3.467,-2.018 -3.467,-4.459 v -34.531 c 0,-2.441 1.572,-4.46 3.467,-4.46 z"
           id="path3917"
           inkscape:connector-curvature="0"
           style="clip-rule:evenodd;fill:#333333;fill-rule:evenodd" /><path
           d="m 4025.273,893.606 h 32.051 c 1.895,0 3.47,2.019 3.47,4.46 v 34.531 c 0,2.441 -1.575,4.459 -3.47,4.459 h -32.051 c -1.901,0 -3.477,-2.018 -3.477,-4.459 v -34.531 c 0,-2.441 1.576,-4.46 3.477,-4.46 z"
           id="path3919"
           inkscape:connector-curvature="0"
           style="clip-rule:evenodd;fill:#333333;fill-rule:evenodd" /><path
           d="m 4077.344,893.606 h 32.005 c 1.888,0 3.464,2.019 3.464,4.46 v 34.531 c 0,2.441 -1.576,4.459 -3.464,4.459 h -32.005 c -1.901,0 -3.464,-2.018 -3.464,-4.459 v -34.531 c 0,-2.441 1.562,-4.46 3.464,-4.46 z"
           id="path3921"
           inkscape:connector-curvature="0"
           style="clip-rule:evenodd;fill:#333333;fill-rule:evenodd" /><path
           d="m 4129.361,893.606 h 32.058 c 1.901,0 3.411,2.019 3.411,4.46 v 34.531 c 0,2.441 -1.51,4.459 -3.411,4.459 h -32.058 c -1.9,0 -3.463,-2.018 -3.463,-4.459 v -34.531 c 0,-2.441 1.563,-4.46 3.463,-4.46 z"
           id="path3923"
           inkscape:connector-curvature="0"
           style="clip-rule:evenodd;fill:#333333;fill-rule:evenodd" /><path
           d="m 4181.38,893.606 h 59.603 c 1.895,0 3.477,2.019 3.477,4.46 v 34.531 c 0,2.441 -1.582,4.459 -3.477,4.459 h -59.603 c -1.901,0 -3.464,-2.018 -3.464,-4.459 v -34.531 c 0,-2.441 1.563,-4.46 3.464,-4.46 z"
           id="path3925"
           inkscape:connector-curvature="0"
           style="clip-rule:evenodd;fill:#333333;fill-rule:evenodd" /><path
           d="m 4259.817,893.014 h 70.872 c 1.895,0 3.471,2.018 3.471,4.459 v 34.538 c 0,2.441 -1.576,4.459 -3.471,4.459 h -70.872 c -1.888,0 -3.457,-2.018 -3.457,-4.459 v -34.538 c 0,-2.441 1.57,-4.459 3.457,-4.459 z"
           id="path3927"
           inkscape:connector-curvature="0"
           style="clip-rule:evenodd;fill:#333333;fill-rule:evenodd" /><path
           d="m 4266.185,953.32 h 26.692 c 0.651,0 1.244,0.677 1.244,1.504 v 11.966 c 0,0.84 -0.593,1.517 -1.244,1.517 h -26.692 c -0.657,0 -1.185,-0.677 -1.185,-1.517 v -11.966 c 0,-0.827 0.527,-1.504 1.185,-1.504 z"
           id="path3929"
           inkscape:connector-curvature="0"
           style="clip-rule:evenodd;fill:#333333;fill-rule:evenodd" /><path
           d="m 4266.185,979.336 h 26.692 c 0.651,0 1.244,0.677 1.244,1.523 v 11.875 c 0,0.84 -0.593,1.51 -1.244,1.51 h -26.692 c -0.657,0 -1.185,-0.67 -1.185,-1.51 v -11.875 c 0,-0.846 0.527,-1.523 1.185,-1.523 z"
           id="path3931"
           inkscape:connector-curvature="0"
           style="clip-rule:evenodd;fill:#333333;fill-rule:evenodd" /><path
           d="m 4226.588,979.336 h 26.699 c 0.658,0 1.244,0.677 1.244,1.523 v 11.875 c 0,0.84 -0.586,1.51 -1.244,1.51 h -26.699 c -0.65,0 -1.172,-0.67 -1.172,-1.51 v -11.875 c 0,-0.846 0.522,-1.523 1.172,-1.523 z"
           id="path3933"
           inkscape:connector-curvature="0"
           style="clip-rule:evenodd;fill:#333333;fill-rule:evenodd" /><path
           d="m 4305.696,979.336 h 26.692 c 0.658,0 1.179,0.677 1.179,1.523 v 11.875 c 0,0.84 -0.521,1.51 -1.179,1.51 h -26.692 c -0.657,0 -1.243,-0.67 -1.243,-1.51 v -11.875 c 0,-0.846 0.586,-1.523 1.243,-1.523 z"
           id="path3935"
           inkscape:connector-curvature="0"
           style="clip-rule:evenodd;fill:#333333;fill-rule:evenodd" /><path
           d="m 4180.13,953.32 h 32.07 c 1.901,0 3.47,2.018 3.47,4.459 v 34.531 c 0,2.441 -1.568,4.466 -3.47,4.466 h -32.07 c -1.888,0 -3.457,-2.025 -3.457,-4.466 v -34.53 c 0,-2.442 1.569,-4.46 3.457,-4.46 z"
           id="path3937"
           inkscape:connector-curvature="0"
           style="clip-rule:evenodd;fill:#333333;fill-rule:evenodd" /></g></g><g
       id="Hand"
       transform="translate(-2014.1853,4150.51)"><path
         d="m 3962.539,1107.246 0.114,10.299 c 0,0 -9.01,6.211 -9.769,6.166 l -0.045,-4.421 v -5.488 -124.069 c 0,-7.272 -5.895,-13.17 -13.174,-13.17 h -0.732 c -7.275,0 -13.174,5.898 -13.174,13.17 v 67.793 c -2.835,1.693 -6.458,1.732 -8.415,-0.619 V 953.874 c 0,-7.279 -5.902,-13.177 -13.177,-13.177 h -0.729 c -7.279,0 -13.177,5.898 -13.177,13.177 v 103.6 c -1.92,1.367 -5.111,1.126 -7.321,-0.032 v -75.755 c 0,-7.279 -5.898,-13.177 -13.174,-13.177 h -0.732 c -7.275,0 -13.174,5.898 -13.174,13.177 v 79.023 c -2.552,1.647 -5.983,1.51 -8.05,-0.221 v -41.478 c 0,-7.272 -5.898,-13.17 -13.177,-13.17 h -0.729 c -7.279,0 -13.177,5.898 -13.177,13.17 v 88.932 40.625 17.565 l 14.261,21.25 -0.117,101.055 c 30.316,13.008 62.516,22.454 96.078,27.832 l 0.713,-125.599 21.178,-24.538 v -12.871 c 9.398,-4.251 19.541,-13.744 28.822,-24.876 l -1.143,-37.604 c -9.061,-4.942 -18.253,6.314 -17.98,16.464 z"
         id="path3941"
         inkscape:connector-curvature="0"
         style="fill:#efc762" /><path
         d="m 4175.989,1071.438 h -0.729 c -7.278,0 -13.177,5.898 -13.177,13.177 v 41.478 c -2.07,1.725 -5.501,1.862 -8.054,0.215 v -79.023 c 0,-7.279 -5.898,-13.177 -13.17,-13.177 h -0.736 c -7.271,0 -13.17,5.898 -13.17,13.177 v 75.755 c -2.214,1.159 -5.404,1.4 -7.324,0.033 v -103.6 c 0,-7.279 -5.898,-13.177 -13.178,-13.177 h -0.729 c -7.272,0 -13.178,5.898 -13.178,13.177 v 103.034 c -1.959,2.35 -5.579,2.311 -8.418,0.619 v -67.787 c 0,-7.279 -5.892,-13.177 -13.17,-13.177 h -0.736 c -7.271,0 -13.17,5.898 -13.17,13.177 v 124.063 5.488 l -0.046,4.427 c -0.755,0.039 -9.766,-6.172 -9.766,-6.172 l 0.11,-10.293 c 0.273,-10.156 -8.919,-21.413 -17.975,-16.472 l -1.146,37.604 c 9.284,11.133 19.428,20.625 28.822,24.876 v 12.871 l 21.178,24.538 0.326,56.92 c 33.828,-6.901 66.146,-17.988 96.38,-32.669 l -0.032,-27.539 14.264,-21.25 v -17.565 -40.625 -88.926 c 0,-7.278 -5.897,-13.177 -13.176,-13.177 z"
         id="path3943"
         inkscape:connector-curvature="0"
         style="fill:#efc762" /><path
         d="m 3842.897,1025.332 c 0,4.792 -3.88,8.672 -8.668,8.672 v 0 c -4.785,0 -8.666,-3.88 -8.666,-8.672 v -6.4 c 0,-4.785 3.88,-8.666 8.666,-8.666 v 0 c 4.788,0 8.668,3.88 8.668,8.666 z"
         id="path3945"
         inkscape:connector-curvature="0"
         style="fill:#efefef" /><path
         d="m 3877.031,988.001 c 0,4.785 -3.884,8.666 -8.669,8.666 v 0 c -4.785,0 -8.668,-3.88 -8.668,-8.666 v -6.399 c 0,-4.785 3.883,-8.666 8.668,-8.666 v 0 c 4.785,0 8.669,3.88 8.669,8.666 z"
         id="path3947"
         inkscape:connector-curvature="0"
         style="fill:#efefef" /><path
         d="m 3912.764,961.602 c 0,4.785 -3.88,8.665 -8.669,8.665 v 0 c -4.785,0 -8.665,-3.88 -8.665,-8.665 v -6.4 c 0,-4.785 3.88,-8.666 8.665,-8.666 v 0 c 4.789,0 8.669,3.88 8.669,8.666 z"
         id="path3949"
         inkscape:connector-curvature="0"
         style="fill:#efefef" /><path
         d="m 3947.695,997.63 c 0,4.792 -3.877,8.666 -8.666,8.666 v 0 c -4.789,0 -8.666,-3.874 -8.666,-8.666 v -6.399 c 0,-4.785 3.877,-8.666 8.666,-8.666 v 0 c 4.789,0 8.666,3.88 8.666,8.666 z"
         id="path3951"
         inkscape:connector-curvature="0"
         style="fill:#efefef" /><path
         d="m 3972.995,1098.567 v 6.394 c 0,4.635 3.643,8.411 8.216,8.646 l -0.693,-22.825 c -0.404,-0.222 -0.804,-0.397 -1.205,-0.554 -3.643,1.022 -6.318,4.368 -6.318,8.339 z"
         id="path3953"
         inkscape:connector-curvature="0"
         style="fill:#efefef" /><path
         d="m 4036.92,1164.219 v 6.393 c 0,4.635 -3.639,8.412 -8.216,8.646 l 0.696,-22.826 c 0.404,-0.221 0.795,-0.397 1.198,-0.553 3.646,1.022 6.322,4.362 6.322,8.34 z"
         id="path3955"
         inkscape:connector-curvature="0"
         style="fill:#efefef" /><path
         d="m 4078.893,1064.297 c 0,4.792 -3.88,8.672 -8.665,8.672 v 0 c -4.785,0 -8.665,-3.88 -8.665,-8.672 v -6.4 c 0,-4.785 3.88,-8.666 8.665,-8.666 v 0 c 4.785,0 8.665,3.88 8.665,8.666 z"
         id="path3957"
         inkscape:connector-curvature="0"
         style="fill:#efefef" /><path
         d="m 4115.162,1027.5 c 0,4.785 -3.88,8.665 -8.665,8.665 v 0 c -4.792,0 -8.672,-3.88 -8.672,-8.665 v -6.4 c 0,-4.785 3.88,-8.666 8.672,-8.666 v 0 c 4.785,0 8.665,3.88 8.665,8.666 z"
         id="path3959"
         inkscape:connector-curvature="0"
         style="fill:#efefef" /><path
         d="m 4149.297,1054.7 c 0,4.785 -3.881,8.666 -8.672,8.666 v 0 c -4.779,0 -8.659,-3.88 -8.659,-8.666 v -6.399 c 0,-4.785 3.88,-8.666 8.659,-8.666 v 0 c 4.791,0 8.672,3.88 8.672,8.666 z"
         id="path3961"
         inkscape:connector-curvature="0"
         style="fill:#efefef" /><path
         d="m 4184.492,1093.099 c 0,4.785 -3.881,8.666 -8.666,8.666 v 0 c -4.785,0 -8.665,-3.88 -8.665,-8.666 v -6.399 c 0,-4.785 3.88,-8.666 8.665,-8.666 v 0 c 4.785,0 8.666,3.88 8.666,8.666 z"
         id="path3963"
         inkscape:connector-curvature="0"
         style="fill:#efefef" /></g><g
       id="Point"
       transform="translate(-2014.1853,4150.51)"><g
         id="g3978"
         style="display:inline;opacity:0.64383563"><polygon
           points="3304.954,864.44 3414.085,841.51 3415.977,849.622 3306.846,872.545 "
           id="polygon3966"
           style="fill:#f1c40f" /><polygon
           points="3346.95,750.67 3426.185,833.034 3420.381,838.717 3341.143,756.348 "
           id="polygon3968"
           style="fill:#f1c40f" /><polygon
           points="3340.508,767.109 3287.864,865.456 3280.615,861.354 3333.258,763.008 "
           id="polygon3970"
           style="fill:#f1c40f" /><path
           d="m 3304.297,853.17 c 9.899,13.438 7.356,32.116 -5.677,41.719 -13.033,9.603 -31.625,6.504 -41.527,-6.934 -9.899,-13.438 -7.356,-32.116 5.677,-41.719 13.033,-9.603 31.627,-6.497 41.527,6.934 z"
           id="path3972"
           inkscape:connector-curvature="0"
           style="fill:#f46464" /><path
           d="m 3363.708,740.684 c 8.223,11.159 6.11,26.68 -4.72,34.655 -10.827,7.982 -26.272,5.397 -34.495,-5.762 -8.226,-11.159 -6.113,-26.673 4.717,-34.655 10.826,-7.982 26.269,-5.398 34.498,5.762 z"
           id="path3974"
           inkscape:connector-curvature="0"
           style="fill:#f46464" /><path
           d="m 3466.829,818.288 c 12.487,16.953 9.281,40.508 -7.165,52.63 -16.442,12.116 -39.896,8.196 -52.379,-8.75 -12.49,-16.947 -9.284,-40.508 7.158,-52.624 16.446,-12.116 39.899,-8.203 52.386,8.744 z"
           id="path3976"
           inkscape:connector-curvature="0"
           style="fill:#f46464" /></g><g
         id="g3994"
         style="display:inline;opacity:0.69863012"><polygon
           points="3578.021,847.305 3546.104,826.152 3547.578,823.841 3579.489,844.987 "
           id="polygon3980"
           style="fill:#f1c40f" /><g
           id="g3992"><polygon
             points="3579.397,839.18 3573.372,801.478 3576.097,801.113 3582.125,838.809 "
             id="polygon3982"
             style="fill:#f1c40f" /><polygon
             points="3542.207,821.106 3570.732,797.096 3572.539,799.251 3544.01,823.268 "
             id="polygon3984"
             style="fill:#f1c40f" /><path
             d="m 3575.647,839.01 c 4.606,-2.891 10.771,-1.393 13.776,3.34 3.001,4.74 1.696,10.918 -2.91,13.809 -4.609,2.897 -10.775,1.406 -13.779,-3.333 -3.001,-4.734 -1.699,-10.919 2.913,-13.816 z"
             id="path3986"
             inkscape:connector-curvature="0"
             style="fill:#f46464" /><path
             d="m 3539.134,815.098 c 3.828,-2.402 8.952,-1.166 11.449,2.773 2.49,3.932 1.41,9.069 -2.418,11.471 -3.832,2.402 -8.952,1.166 -11.449,-2.767 -2.494,-3.932 -1.41,-9.075 2.418,-11.477 z"
             id="path3988"
             inkscape:connector-curvature="0"
             style="fill:#f46464" /><path
             d="m 3566.426,782.845 c 5.817,-3.646 13.597,-1.764 17.383,4.212 3.786,5.977 2.142,13.776 -3.669,17.422 -5.813,3.646 -13.597,1.764 -17.386,-4.206 -3.783,-5.976 -2.139,-13.782 3.672,-17.428 z"
             id="path3990"
             inkscape:connector-curvature="0"
             style="fill:#f46464" /></g></g><g
         id="g4008"
         style="opacity:0.73972605"><polygon
           points="3488.548,700.625 3483.685,701.276 3472.926,633.965 3477.786,633.313 "
           id="polygon3996"
           style="fill:#f1c40f" /><polygon
           points="3420.491,672.864 3417.275,669.004 3468.213,626.139 3471.429,629.993 "
           id="polygon3998"
           style="fill:#f1c40f" /><polygon
           points="3424.235,678.027 3426.855,673.899 3483.838,711.66 3481.227,715.794 "
           id="polygon4000"
           style="fill:#f1c40f" /><path
           d="m 3476.982,700.989 c 8.226,-5.163 19.238,-2.5 24.6,5.957 5.364,8.457 3.034,19.499 -5.195,24.668 -8.226,5.163 -19.242,2.5 -24.597,-5.957 -5.368,-8.463 -3.04,-19.505 5.192,-24.668 z"
           id="path4002"
           inkscape:connector-curvature="0"
           style="fill:#f46464" /><path
           d="m 3411.787,658.281 c 6.833,-4.291 15.983,-2.077 20.436,4.948 4.45,7.025 2.523,16.205 -4.313,20.495 -6.843,4.291 -15.99,2.07 -20.443,-4.948 -4.453,-7.031 -2.519,-16.205 4.32,-20.495 z"
           id="path4004"
           inkscape:connector-curvature="0"
           style="fill:#f46464" /><path
           d="m 3460.524,600.69 c 10.381,-6.51 24.274,-3.145 31.032,7.52 6.765,10.664 3.825,24.59 -6.549,31.107 -10.384,6.517 -24.284,3.157 -31.039,-7.507 -6.764,-10.671 -3.828,-24.603 6.556,-31.12 z"
           id="path4006"
           inkscape:connector-curvature="0"
           style="fill:#f46464" /></g></g><g
       id="Cup"
       transform="translate(-2014.1853,4150.51)"><path
         d="m 3577.301,1042.161 c 36.12,-29.512 41.475,-82.721 11.959,-118.841 -29.515,-36.113 -82.721,-41.472 -118.841,-11.953 -33.177,27.109 -40.31,74.18 -18.392,109.661 -0.596,0.332 -1.182,0.697 -1.725,1.146 l -19.284,15.749 c -5.045,4.128 -5.794,11.569 -1.67,16.621 4.131,5.052 11.572,5.801 16.618,1.673 l 19.284,-15.755 c 0.583,-0.475 1.09,-1.002 1.553,-1.549 30.433,27.994 77.549,30.175 110.498,3.248 z"
         id="path4076"
         inkscape:connector-curvature="0"
         style="display:inline;fill:#808080" /><path
         d="m 3568.008,1030.788 c -29.837,24.381 -73.789,19.961 -98.174,-9.876 -24.382,-29.837 -19.958,-73.789 9.879,-98.177 29.837,-24.375 73.792,-19.955 98.174,9.883 24.382,29.836 19.958,73.788 -9.879,98.17 z"
         id="path4078"
         inkscape:connector-curvature="0"
         style="fill:#88604a" /><path
         d="m 3548.646,1007.096 c -16.751,13.685 -41.426,11.205 -55.117,-5.547 -13.685,-16.751 -11.201,-41.432 5.547,-55.117 16.751,-13.685 41.426,-11.205 55.114,5.547 13.691,16.751 11.204,41.426 -5.544,55.117 z"
         id="path4080"
         inkscape:connector-curvature="0"
         style="fill:#785741" /><path
         d="m 3585.557,944.18 c -2.132,-4.023 -4.678,-7.904 -7.669,-11.563 -24.381,-29.837 -68.336,-34.258 -98.174,-9.883 -4.769,3.906 -8.815,8.34 -12.272,13.099 26.008,-4.856 70.947,-8.633 118.115,8.347 z"
         id="path4082"
         inkscape:connector-curvature="0"
         style="opacity:0.2" /></g></g><g
     style="display:inline;fill:#808000"
     display="inline"
     id="g14471"
     inkscape:label="money"
     transform="translate(499.1045,-3060.5294)"><path
       style="fill:#808000"
       inkscape:connector-curvature="0"
       id="path14463"
       d="m 728.828,3873.763 c -2.455,-5.684 -5.964,-10.527 -10.524,-14.538 -4.567,-4.004 -10.078,-7.513 -16.536,-10.521 -6.462,-3.001 -13.812,-6.061 -22.048,-9.186 -6.237,-2.227 -11.585,-4.342 -16.035,-6.348 -4.459,-2.005 -8.184,-4.173 -11.191,-6.517 -3.008,-2.337 -5.237,-4.948 -6.683,-7.845 -1.452,-2.891 -2.171,-6.23 -2.171,-10.026 0,-7.35 3.226,-12.747 9.688,-16.204 6.458,-3.451 14.033,-5.176 22.718,-5.176 10.02,0 18.594,0.95 25.723,2.838 7.125,1.895 12.36,3.73 15.7,5.514 l 5.68,-26.725 c -1.784,-0.67 -4.29,-1.445 -7.516,-2.337 -3.232,-0.885 -6.963,-1.725 -11.191,-2.506 -4.235,-0.775 -8.799,-1.445 -13.698,-2.005 -2.871,-0.325 -5.742,-0.54 -8.61,-0.677 V 3733.62 H 660.27 v 28.841 c -12.321,1.842 -22.549,5.97 -30.661,12.415 -11.361,9.017 -17.038,21.218 -17.038,36.582 0,7.8 1.335,14.362 4.007,19.707 2.676,5.345 6.234,9.916 10.693,13.698 4.45,3.789 9.736,7.077 15.866,9.856 6.126,2.787 12.526,5.515 19.209,8.184 13.806,5.573 23.718,10.58 29.733,15.033 6.012,4.459 9.02,10.469 9.02,18.041 0,7.35 -3.066,12.695 -9.186,16.035 -6.13,3.34 -15.537,5.006 -28.229,5.006 -12.92,0 -23.274,-1.328 -31.067,-4.004 -7.8,-2.676 -13.48,-4.674 -17.038,-6.016 l -5.68,26.725 c 3.115,1.341 9.02,3.294 17.705,5.847 8.379,2.467 19.893,3.737 34.486,3.828 v 28.626 h 21.862 v -29.98 c 12.484,-1.829 22.718,-5.481 30.677,-10.989 11.911,-8.236 17.874,-20.378 17.874,-36.413 0,-8.236 -1.227,-15.202 -3.675,-20.879 z" /><path
       style="fill:#808000"
       inkscape:connector-curvature="0"
       id="path14465"
       d="m 891.318,3730.41 c -1.641,-3.789 -3.981,-7.025 -7.028,-9.707 -3.053,-2.676 -6.735,-5.02 -11.048,-7.025 -4.316,-2.012 -9.226,-4.056 -14.727,-6.139 -4.17,-1.484 -7.738,-2.904 -10.713,-4.238 -2.979,-1.341 -5.469,-2.793 -7.478,-4.355 -2.005,-1.556 -3.493,-3.308 -4.463,-5.241 -0.967,-1.934 -1.448,-4.167 -1.448,-6.692 0,-4.916 2.155,-8.516 6.471,-10.827 4.313,-2.305 9.372,-3.457 15.172,-3.457 6.696,0 12.422,0.632 17.185,1.895 4.759,1.27 8.255,2.494 10.488,3.685 l 3.795,-17.852 c -1.195,-0.449 -2.868,-0.963 -5.023,-1.563 -2.158,-0.592 -4.651,-1.152 -7.477,-1.673 -2.826,-0.521 -5.879,-0.97 -9.147,-1.341 -1.917,-0.215 -3.838,-0.365 -5.752,-0.449 v -18.626 h -14.606 v 19.264 c -8.229,1.23 -15.059,3.991 -20.481,8.294 -7.585,6.022 -11.377,14.167 -11.377,24.434 0,5.208 0.892,9.596 2.676,13.164 1.787,3.574 4.163,6.621 7.142,9.154 2.972,2.526 6.507,4.72 10.599,6.582 4.088,1.862 8.369,3.678 12.832,5.469 9.222,3.717 15.843,7.063 19.86,10.039 4.017,2.975 6.025,6.992 6.025,12.051 0,4.909 -2.047,8.477 -6.136,10.709 -4.095,2.233 -10.378,3.346 -18.857,3.346 -8.63,0 -15.547,-0.892 -20.752,-2.676 -5.212,-1.784 -9.004,-3.125 -11.384,-4.017 l -3.792,17.852 c 2.08,0.892 6.025,2.194 11.829,3.906 5.593,1.647 13.288,2.493 23.034,2.552 v 19.128 h 14.606 v -20.033 c 8.336,-1.217 15.172,-3.659 20.492,-7.337 7.956,-5.501 11.937,-13.613 11.937,-24.323 0,-5.509 -0.82,-10.157 -2.454,-13.953 z" /><path
       style="fill:#808000"
       inkscape:connector-curvature="0"
       id="path14467"
       d="m 695.062,3550.059 c -1.305,-3.021 -3.174,-5.605 -5.602,-7.734 -2.432,-2.136 -5.368,-4.004 -8.805,-5.605 -3.441,-1.602 -7.354,-3.229 -11.742,-4.89 -3.32,-1.185 -6.166,-2.311 -8.539,-3.379 -2.37,-1.067 -4.355,-2.227 -5.957,-3.47 -1.602,-1.244 -2.786,-2.637 -3.558,-4.18 -0.772,-1.543 -1.156,-3.32 -1.156,-5.339 0,-3.913 1.719,-6.79 5.16,-8.626 3.438,-1.836 7.471,-2.761 12.096,-2.761 5.335,0 9.899,0.508 13.695,1.517 3.792,1.009 6.579,1.986 8.359,2.93 l 3.024,-14.225 c -0.951,-0.358 -2.285,-0.769 -4,-1.25 -1.722,-0.469 -3.708,-0.912 -5.96,-1.328 -2.252,-0.417 -4.688,-0.775 -7.292,-1.068 -1.53,-0.176 -3.06,-0.293 -4.583,-0.365 v -14.844 h -11.647 v 15.358 c -6.556,0.977 -12.002,3.177 -16.322,6.608 -6.048,4.805 -9.069,11.295 -9.069,19.479 0,4.147 0.709,7.644 2.132,10.495 1.423,2.845 3.317,5.273 5.69,7.292 2.373,2.019 5.188,3.763 8.45,5.248 3.259,1.484 6.67,2.936 10.228,4.355 7.35,2.969 12.63,5.631 15.83,8.008 3.203,2.37 4.801,5.573 4.801,9.603 0,3.913 -1.627,6.758 -4.889,8.542 -3.262,1.777 -8.271,2.663 -15.033,2.663 -6.878,0 -12.393,-0.709 -16.54,-2.135 -4.154,-1.419 -7.178,-2.487 -9.072,-3.197 l -3.024,14.225 c 1.66,0.716 4.801,1.751 9.427,3.119 4.46,1.309 10.593,1.986 18.363,2.031 v 15.248 h 11.641 v -15.97 c 6.647,-0.97 12.093,-2.917 16.334,-5.846 6.341,-4.388 9.515,-10.853 9.515,-19.388 10e-4,-4.39 -0.65,-8.094 -1.955,-11.121 z" /><path
       style="fill:#808000"
       inkscape:connector-curvature="0"
       id="path14469"
       d="m 821.481,3428.092 c -0.824,-1.908 -1.999,-3.535 -3.532,-4.876 -1.533,-1.348 -3.382,-2.526 -5.55,-3.535 -2.168,-1.009 -4.632,-2.038 -7.399,-3.079 -2.09,-0.749 -3.884,-1.458 -5.381,-2.136 -1.494,-0.67 -2.748,-1.399 -3.757,-2.181 -1.006,-0.788 -1.754,-1.66 -2.239,-2.637 -0.485,-0.97 -0.729,-2.09 -0.729,-3.359 0,-2.474 1.084,-4.284 3.249,-5.443 2.171,-1.159 4.71,-1.738 7.627,-1.738 3.362,0 6.237,0.326 8.629,0.957 2.393,0.638 4.147,1.25 5.27,1.849 l 1.904,-8.972 c -0.599,-0.221 -1.438,-0.481 -2.52,-0.781 -1.084,-0.299 -2.337,-0.579 -3.756,-0.846 -1.422,-0.254 -2.953,-0.482 -4.596,-0.67 -0.964,-0.104 -1.931,-0.176 -2.891,-0.228 v -9.355 h -7.334 v 9.681 c -4.134,0.618 -7.568,2.005 -10.293,4.167 -3.809,3.027 -5.716,7.116 -5.716,12.272 0,2.617 0.449,4.824 1.344,6.615 0.898,1.797 2.093,3.327 3.587,4.596 1.498,1.276 3.271,2.376 5.326,3.308 2.057,0.938 4.202,1.849 6.448,2.747 4.632,1.869 7.959,3.548 9.974,5.046 2.018,1.497 3.027,3.516 3.027,6.055 0,2.461 -1.029,4.258 -3.08,5.377 -2.057,1.12 -5.215,1.68 -9.476,1.68 -4.336,0 -7.81,-0.443 -10.427,-1.341 -2.614,-0.898 -4.521,-1.569 -5.716,-2.018 l -1.904,8.965 c 1.045,0.449 3.027,1.107 5.94,1.966 2.813,0.827 6.673,1.25 11.572,1.282 v 9.603 h 7.337 v -10.059 c 4.186,-0.612 7.621,-1.836 10.293,-3.685 3.998,-2.767 5.996,-6.842 5.996,-12.22 0.003,-2.768 -0.403,-5.099 -1.227,-7.007 z" /></g></svg>