<?xml version="1.0" encoding="UTF-8" standalone="no"?>
<!-- Generator: Adobe Illustrator 16.0.0, SVG Export Plug-In . SVG Version: 6.00 Build 0)  -->

<svg
   xmlns:dc="http://purl.org/dc/elements/1.1/"
   xmlns:cc="http://creativecommons.org/ns#"
   xmlns:rdf="http://www.w3.org/1999/02/22-rdf-syntax-ns#"
   xmlns:svg="http://www.w3.org/2000/svg"
   xmlns="http://www.w3.org/2000/svg"
   xmlns:sodipodi="http://sodipodi.sourceforge.net/DTD/sodipodi-0.dtd"
   xmlns:inkscape="http://www.inkscape.org/namespaces/inkscape"
   version="1.1"
   x="0px"
   y="0px"
   width="1300"
   height="1300"
   viewBox="0 0 1300 1300"
   enable-background="new 0 0 8000 8000"
   xml:space="preserve"
   id="svg6957"
   sodipodi:docname="model-training.svg"
   inkscape:version="0.92.2 5c3e80d, 2017-08-06"><metadata
     id="metadata6963"><rdf:RDF><cc:Work
         rdf:about=""><dc:format>image/svg+xml</dc:format><dc:type
           rdf:resource="http://purl.org/dc/dcmitype/StillImage" /><dc:title /></cc:Work></rdf:RDF></metadata><defs
     id="defs6961" /><sodipodi:namedview
     pagecolor="#ffffff"
     bordercolor="#666666"
     borderopacity="1"
     objecttolerance="10"
     gridtolerance="10"
     guidetolerance="10"
     inkscape:pageopacity="0"
     inkscape:pageshadow="2"
     inkscape:window-width="1920"
     inkscape:window-height="983"
     id="namedview6959"
     showgrid="false"
     inkscape:zoom="0.3337544"
     inkscape:cx="278.16271"
     inkscape:cy="338.47218"
     inkscape:window-x="0"
     inkscape:window-y="1"
     inkscape:window-maximized="1"
     inkscape:current-layer="svg6957" /><g
     id="Layer_2"
     style="display:inline"
     transform="translate(-3610.4392,-3455.099)"><g
       id="g5707"
       style="display:inline"><circle
         id="Background_2_4_"
         cx="4239.3169"
         cy="4091.668"
         r="531.99902"
         style="display:inline;fill:#e8e8e8" /><g
         id="Coding_3_"
         style="display:none"><g
           id="g5594"><path
             d="m 4613.32,4242.807 c 0,20.358 -16.504,36.862 -36.868,36.862 h -737.36 c -20.361,0 -36.868,-16.504 -36.868,-36.862 v -456.243 c 0,-20.364 16.507,-36.868 36.868,-36.868 h 737.36 c 20.364,0 36.868,16.504 36.868,36.868 z"
             id="path5586"
             inkscape:connector-curvature="0"
             style="clip-rule:evenodd;fill:#153151;fill-rule:evenodd" /><rect
             x="3838.4641"
             y="3784.656"
             width="741.75098"
             height="458.008"
             id="rect5588"
             style="clip-rule:evenodd;fill:#f8f8f8;fill-opacity:1;fill-rule:evenodd" /><path
             d="m 3643.613,4276.986 c -0.475,3.269 -0.738,6.635 -0.738,10.078 0,29.135 17.669,52.748 39.463,52.748 h 1053.997 c 21.797,0 39.466,-23.613 39.466,-52.748 0,-3.443 -0.267,-6.81 -0.742,-10.078 z"
             id="path5590"
             inkscape:connector-curvature="0"
             style="clip-rule:evenodd;fill:#a3a3a3;fill-rule:evenodd" /><path
             d="m 3646.264,4308.399 c 6.133,18.496 19.967,31.413 36.074,31.413 h 1053.997 c 16.113,0 29.948,-12.917 36.081,-31.413 z"
             id="path5592"
             inkscape:connector-curvature="0"
             style="fill:#153151" /></g></g><g
         id="Text_6_"
         style="display:none"><rect
           x="3888.8091"
           y="3822.26"
           width="262.26999"
           height="12.663"
           id="rect5597"
           style="clip-rule:evenodd;fill:#f39c12;fill-rule:evenodd" /><rect
           x="3888.8091"
           y="3840.3459"
           width="262.26999"
           height="12.663"
           id="rect5599"
           style="clip-rule:evenodd;fill:#f39c12;fill-rule:evenodd" /><rect
           x="3888.8091"
           y="3859.344"
           width="262.26999"
           height="12.656"
           id="rect5601"
           style="clip-rule:evenodd;fill:#f39c12;fill-rule:evenodd" /><rect
           x="3888.8091"
           y="3878.3279"
           width="262.26999"
           height="12.662"
           id="rect5603"
           style="clip-rule:evenodd;fill:#f39c12;fill-rule:evenodd" /></g><g
         id="Point_2_"
         style="display:none"><g
           id="g5618"><polygon
             points="4279.343,4090.541 4161.325,4115.333 4159.284,4106.57 4277.299,4081.771 "
             id="polygon5606"
             style="fill:#f1c40f" /><polygon
             points="4284.102,4078.751 4198.418,3989.676 4204.694,3983.536 4290.385,4072.605 "
             id="polygon5608"
             style="fill:#f1c40f" /><polygon
             points="4132.963,4103.236 4189.89,3996.876 4197.731,4001.31 4140.801,4107.664 "
             id="polygon5610"
             style="fill:#f1c40f" /><path
             d="m 4158.571,4094.383 c 10.706,14.531 7.959,34.727 -6.14,45.11 -14.095,10.391 -34.199,7.031 -44.905,-7.5 -10.703,-14.524 -7.956,-34.727 6.14,-45.11 14.095,-10.385 34.202,-7.026 44.905,7.5 z"
             id="path5612"
             inkscape:connector-curvature="0"
             style="fill:#34495e" /><path
             d="m 4222.816,3972.735 c 8.893,12.063 6.607,28.848 -5.102,37.474 -11.709,8.633 -28.414,5.84 -37.305,-6.23 -8.893,-12.07 -6.611,-28.841 5.098,-37.474 11.714,-8.626 28.413,-5.833 37.309,6.23 z"
             id="path5614"
             inkscape:connector-curvature="0"
             style="fill:#f46464" /><path
             d="m 4334.33,4056.661 c 13.509,18.327 10.039,43.802 -7.748,56.907 -17.773,13.1 -43.138,8.867 -56.641,-9.459 -13.502,-18.327 -10.039,-43.803 7.748,-56.908 17.774,-13.098 43.138,-8.867 56.641,9.46 z"
             id="path5616"
             inkscape:connector-curvature="0"
             style="fill:#14af95" /></g><g
           id="g5634"><polygon
             points="4454.577,4088.035 4420.059,4065.164 4421.654,4062.664 4456.166,4085.528 "
             id="polygon5620"
             style="fill:#f1c40f" /><g
             id="g5632"><polygon
               points="4449.551,4038.484 4452.494,4038.08 4459.018,4078.849 4456.062,4079.246 "
               id="polygon5622"
               style="fill:#f1c40f" /><polygon
               points="4446.693,4033.738 4448.646,4036.068 4417.793,4062.039 4415.847,4059.708 "
               id="polygon5624"
               style="fill:#f1c40f" /><path
               d="m 4452.012,4079.07 c 4.975,-3.125 11.641,-1.518 14.896,3.606 3.242,5.124 1.836,11.81 -3.151,14.935 -4.987,3.132 -11.653,1.518 -14.896,-3.6 -3.249,-5.123 -1.836,-11.81 3.151,-14.941 z"
               id="path5626"
               inkscape:connector-curvature="0"
               style="fill:#34495e" /><path
               d="m 4412.52,4053.204 c 4.141,-2.598 9.688,-1.257 12.383,3.001 2.695,4.252 1.523,9.812 -2.617,12.409 -4.14,2.597 -9.674,1.257 -12.383,-2.995 -2.689,-4.258 -1.524,-9.81 2.617,-12.415 z"
               id="path5628"
               inkscape:connector-curvature="0"
               style="fill:#f46464" /><path
               d="m 4442.038,4018.328 c 6.289,-3.945 14.7,-1.908 18.796,4.557 4.095,6.459 2.317,14.896 -3.965,18.842 -6.289,3.945 -14.707,1.907 -18.803,-4.551 -4.087,-6.459 -2.317,-14.903 3.972,-18.848 z"
               id="path5630"
               inkscape:connector-curvature="0"
               style="fill:#14af95" /></g></g><g
           id="g5648"><polygon
             points="4346.179,3856.629 4357.819,3929.422 4352.559,3930.125 4340.925,3857.325 "
             id="polygon5636"
             style="fill:#f1c40f" /><polygon
             points="4339.304,3853.035 4284.226,3899.396 4280.749,3895.223 4335.827,3848.868 "
             id="polygon5638"
             style="fill:#f1c40f" /><polygon
             points="4349.902,3945.821 4288.275,3904.981 4291.101,3900.516 4352.729,3941.355 "
             id="polygon5640"
             style="fill:#f1c40f" /><path
             d="m 4345.307,3929.813 c 8.906,-5.586 20.807,-2.702 26.607,6.445 5.801,9.146 3.281,21.087 -5.618,26.666 -8.894,5.586 -20.808,2.709 -26.602,-6.438 -5.794,-9.147 -3.281,-21.088 5.613,-26.673 z"
             id="path5642"
             inkscape:connector-curvature="0"
             style="fill:#34495e" /><path
             d="m 4274.812,3883.627 c 7.39,-4.642 17.278,-2.246 22.097,5.352 4.817,7.598 2.728,17.52 -4.662,22.162 -7.396,4.642 -17.291,2.239 -22.109,-5.352 -4.812,-7.598 -2.722,-17.519 4.674,-22.162 z"
             id="path5644"
             inkscape:connector-curvature="0"
             style="fill:#f46464" /><path
             d="m 4327.514,3821.349 c 11.23,-7.044 26.256,-3.405 33.561,8.132 7.318,11.536 4.135,26.595 -7.083,33.639 -11.224,7.051 -26.263,3.412 -33.567,-8.118 -7.313,-11.537 -4.142,-26.603 7.089,-33.653 z"
             id="path5646"
             inkscape:connector-curvature="0"
             style="fill:#14af95" /></g></g><g
         id="Concept_1_"
         style="display:none"><g
           id="Board_2_"><path
             d="m 4555.065,4004.174 h 286.595 c 10.82,0 19.648,9.538 19.648,21.218 v 374.245 c 0,11.68 -8.828,21.263 -19.648,21.263 h -286.595 c -10.781,0 -19.655,-9.583 -19.655,-21.263 v -374.245 c 0,-11.68 8.874,-21.218 19.655,-21.218 z"
             id="path5651"
             inkscape:connector-curvature="0"
             style="clip-rule:evenodd;fill:#f39c12;fill-rule:evenodd" /><rect
             x="4551.2568"
             y="4022.6841"
             width="294.245"
             height="379.668"
             id="rect5653"
             style="clip-rule:evenodd;fill:#e6e6e6;fill-rule:evenodd" /><polygon
             points="4752.676,4022.684 4752.676,3970.177 4643.679,3970.177 4643.679,4022.684 4637.279,4022.684 4637.279,3962.481 4759.486,3962.481 4759.486,4022.684 "
             id="polygon5655"
             style="clip-rule:evenodd;fill:#474646;fill-rule:evenodd" /><path
             d="m 4627.598,3998.354 h 141.537 c 2.955,0 5.345,2.631 5.345,5.82 v 26.992 c 0,3.197 -2.39,5.775 -5.345,5.775 h -141.537 c -2.916,0 -5.352,-2.578 -5.352,-5.775 v -26.992 c 0,-3.19 2.436,-5.82 5.352,-5.82 z"
             id="path5657"
             inkscape:connector-curvature="0"
             style="clip-rule:evenodd;fill:#d84848;fill-rule:evenodd" /><path
             d="m 4694.941,3998.354 h 74.193 c 2.955,0 5.345,2.631 5.345,5.82 v 26.992 c 0,3.197 -2.39,5.775 -5.345,5.775 h -74.193 z"
             id="path5659"
             inkscape:connector-curvature="0"
             style="clip-rule:evenodd;opacity:0.2;fill:#231f20;fill-rule:evenodd" /><path
             d="m 4694.941,4004.174 h 146.719 c 10.82,0 19.648,9.538 19.648,21.218 v 374.245 c 0,11.68 -8.828,21.263 -19.648,21.263 h -146.719 z"
             id="path5661"
             inkscape:connector-curvature="0"
             style="clip-rule:evenodd;opacity:0.1;fill:#231f20;fill-rule:evenodd" /></g><g
           id="Paragraph_2_"><rect
             x="4587.729"
             y="4093.6021"
             width="214.427"
             height="6.9530001"
             id="rect5664"
             style="clip-rule:evenodd;fill:#4d4d4d;fill-rule:evenodd" /><rect
             x="4587.729"
             y="4110.1768"
             width="214.427"
             height="6.96"
             id="rect5666"
             style="clip-rule:evenodd;fill:#336699;fill-rule:evenodd" /><rect
             x="4587.729"
             y="4125.6191"
             width="214.427"
             height="6.96"
             id="rect5668"
             style="clip-rule:evenodd;fill:#4d4d4d;fill-rule:evenodd" /><rect
             x="4587.729"
             y="4142.2012"
             width="214.427"
             height="6.96"
             id="rect5670"
             style="clip-rule:evenodd;fill:#4d4d4d;fill-rule:evenodd" /><rect
             x="4587.729"
             y="4158.4321"
             width="214.427"
             height="6.914"
             id="rect5672"
             style="clip-rule:evenodd;fill:#336699;fill-rule:evenodd" /><rect
             x="4587.729"
             y="4173.8359"
             width="214.427"
             height="6.9590001"
             id="rect5674"
             style="clip-rule:evenodd;fill:#4d4d4d;fill-rule:evenodd" /><rect
             x="4587.729"
             y="4190.457"
             width="214.427"
             height="6.914"
             id="rect5676"
             style="clip-rule:evenodd;fill:#4d4d4d;fill-rule:evenodd" /></g><g
           id="Diagram_2_"><rect
             x="4583.1709"
             y="4372.2148"
             width="214.427"
             height="5.7030001"
             id="rect5679"
             style="clip-rule:evenodd;fill:#4d4d4d;fill-rule:evenodd" /><path
             d="m 4602.377,4313.705 v 0 c 3.079,0 5.625,2.272 5.625,5.014 v 52.012 h -11.257 v -52.012 c 0,-2.741 2.507,-5.014 5.632,-5.014 z"
             id="path5681"
             inkscape:connector-curvature="0"
             style="clip-rule:evenodd;fill:#ff6633;fill-rule:evenodd" /><path
             d="m 4624.174,4307.527 v 0 c 3.079,0 5.631,2.525 5.631,5.56 v 57.644 h -11.256 v -57.644 c 0,-3.034 2.506,-5.56 5.625,-5.56 z"
             id="path5683"
             inkscape:connector-curvature="0"
             style="clip-rule:evenodd;fill:#0056a3;fill-rule:evenodd" /><path
             d="m 4645.971,4313.92 v 0 c 3.086,0 5.638,2.272 5.638,5.02 v 52.221 h -11.263 v -52.221 c 0,-2.748 2.506,-5.02 5.625,-5.02 z"
             id="path5685"
             inkscape:connector-curvature="0"
             style="clip-rule:evenodd;fill:#ff6633;fill-rule:evenodd" /><path
             d="m 4669.558,4284.305 v 0 c 3.079,0 5.632,3.431 5.632,7.617 v 79.238 h -11.264 v -79.238 c 0,-4.187 2.513,-7.617 5.632,-7.617 z"
             id="path5687"
             inkscape:connector-curvature="0"
             style="clip-rule:evenodd;fill:#0056a3;fill-rule:evenodd" /><path
             d="m 4692.409,4316.453 v 0 c 3.118,0 5.632,2.161 5.632,4.83 v 49.877 h -11.264 v -49.877 c 0,-2.669 2.553,-4.83 5.632,-4.83 z"
             id="path5689"
             inkscape:connector-curvature="0"
             style="clip-rule:evenodd;fill:#ff6633;fill-rule:evenodd" /><path
             d="m 4715.625,4338.445 h 0.046 c 3.079,0 5.586,1.295 5.586,2.884 v 29.831 h -11.224 v -29.831 c 0,-1.589 2.513,-2.884 5.592,-2.884 z"
             id="path5691"
             inkscape:connector-curvature="0"
             style="clip-rule:evenodd;fill:#0056a3;fill-rule:evenodd" /><path
             d="m 4739.577,4284.591 v 0 c 3.112,0 5.625,3.431 5.625,7.624 v 78.945 h -11.224 v -78.945 c 0,-4.194 2.513,-7.624 5.599,-7.624 z"
             id="path5693"
             inkscape:connector-curvature="0"
             style="clip-rule:evenodd;fill:#0056a3;fill-rule:evenodd" /><path
             d="m 4760.319,4290.333 v 0 c 3.079,0 5.638,3.216 5.638,7.116 v 73.711 h -11.27 v -73.711 c 0,-3.9 2.559,-7.116 5.632,-7.116 z"
             id="path5695"
             inkscape:connector-curvature="0"
             style="clip-rule:evenodd;fill:#33cc99;fill-rule:evenodd" /><path
             d="m 4779.245,4270.294 v 0 c 3.118,0 5.632,3.972 5.632,8.848 v 92.019 h -11.264 v -92.019 c 0,-4.876 2.553,-8.848 5.632,-8.848 z"
             id="path5697"
             inkscape:connector-curvature="0"
             style="clip-rule:evenodd;fill:#ff6633;fill-rule:evenodd" /><rect
             x="4810.9712"
             y="4288.7441"
             width="20.013"
             height="17.846001"
             id="rect5699"
             style="clip-rule:evenodd;fill:#ff6633;fill-rule:evenodd" /><rect
             x="4810.9712"
             y="4318.3599"
             width="20.013"
             height="17.844999"
             id="rect5701"
             style="clip-rule:evenodd;fill:#33cc99;fill-rule:evenodd" /><rect
             x="4810.9712"
             y="4348.627"
             width="20.013"
             height="17.839001"
             id="rect5703"
             style="clip-rule:evenodd;fill:#0056a3;fill-rule:evenodd" /></g></g></g></g><g
     id="g14059"
     transform="translate(241.66,-9835.395)"><g
       id="g13691"
       display="inline"
       style="display:inline"
       transform="translate(-3610.4392,3244.901)"><path
         d="m 4616.523,7459.642 c 0,59.226 -48.008,107.233 -107.24,107.233 -59.219,0 -107.232,-48.008 -107.232,-107.233 0,-59.225 48.014,-107.239 107.232,-107.239 59.233,0 107.24,48.013 107.24,107.239 z"
         id="path13637"
         inkscape:connector-curvature="0"
         style="fill:#424242" /><path
         d="m 4607.408,7453.443 c 0,59.226 -48.008,107.24 -107.239,107.24 -59.219,0 -107.239,-48.015 -107.239,-107.24 0,-59.225 48.021,-107.232 107.239,-107.232 59.231,0 107.239,48.008 107.239,107.232 z"
         id="path13639"
         inkscape:connector-curvature="0"
         style="fill:#f7674f" /><g
         id="g13689"><path
           d="m 4500.41,7428.86 c -3.503,-0.085 -34.486,0.124 -34.538,34.87 -0.02,13.685 18.894,42.024 18.894,42.024 h 15.318 0.651 15.306 c 0,0 18.92,-28.34 18.9,-42.024 -0.045,-34.746 -31.035,-34.955 -34.531,-34.87 z"
           id="path13641"
           inkscape:connector-curvature="0"
           style="fill:#fff064" /><g
           id="g13645"><path
             d="m 4504.766,7506.699 c -0.014,-0.059 -1.426,-6.484 -1.53,-18.451 -0.032,-3.457 0.254,-6.087 0.853,-7.864 -0.774,0.13 -1.653,0.149 -2.63,-0.02 -0.729,-0.137 -1.191,-0.43 -1.484,-0.762 -0.82,0.618 -1.914,0.97 -3.034,1.126 0.117,0.156 0.234,0.332 0.352,0.515 2.448,3.789 0.905,24.512 0.834,25.391 l -0.977,-0.071 c 0.455,-5.912 1.211,-21.869 -0.678,-24.785 -0.24,-0.371 -0.469,-0.69 -0.677,-0.957 -0.241,0.01 -0.481,0 -0.703,-0.01 -2.038,-0.091 -2.136,-0.664 -2.161,-0.853 -0.078,-0.463 0.182,-1.074 0.768,-1.303 0.547,-0.208 1.381,-0.117 2.526,1.159 0.677,-0.052 1.406,-0.176 2.09,-0.43 0.488,-0.183 0.886,-0.403 1.204,-0.677 0,-0.014 -0.01,-0.026 -0.013,-0.046 -0.208,-1.081 0.397,-2.272 0.886,-2.591 0.247,-0.156 0.521,-0.163 0.735,-0.01 0.332,0.247 0.384,0.729 0.137,1.653 -0.117,0.456 -0.325,0.859 -0.593,1.198 0.195,0.241 0.515,0.397 0.971,0.481 1.119,0.202 2.096,0.104 2.916,-0.123 0.326,-0.619 0.717,-1.068 1.179,-1.342 0.788,-0.481 1.575,-0.299 1.914,-0.11 l 0.573,0.313 -0.463,0.462 c -0.064,0.059 -0.963,0.951 -2.52,1.484 -0.572,1.283 -1.067,3.686 -1.028,8.158 0.11,11.861 1.491,18.184 1.511,18.248 z m -10.834,-27.031 c 0.183,0.064 0.482,0.117 0.859,0.149 -0.352,-0.247 -0.599,-0.293 -0.742,-0.247 -0.052,0.02 -0.091,0.059 -0.117,0.098 z"
             id="path13643"
             inkscape:connector-curvature="0"
             style="fill:#4f4e4f" /></g><path
           d="m 4484.766,7505.755 v 16.511 c 0,2.161 1.673,3.906 3.73,3.906 h 23.821 c 2.058,0 3.724,-1.745 3.724,-3.906 v -16.511 z"
           id="path13647"
           inkscape:connector-curvature="0"
           style="fill:#1e2f47" /><g
           id="g13665"><path
             d="m 4516.041,7508.281 c 0,0.586 -0.527,1.061 -1.178,1.061 h -28.906 c -0.658,0 -1.191,-0.475 -1.191,-1.061 v 0 c 0,-0.586 0.533,-1.055 1.191,-1.055 h 28.906 c 0.651,0 1.178,0.469 1.178,1.055 z"
             id="path13649"
             inkscape:connector-curvature="0"
             style="opacity:0.1;fill:#ffffff" /><path
             d="m 4516.041,7512.52 c 0,0.579 -0.527,1.061 -1.178,1.061 h -28.906 c -0.658,0 -1.191,-0.481 -1.191,-1.061 v 0 c 0,-0.586 0.533,-1.061 1.191,-1.061 h 28.906 c 0.651,0 1.178,0.475 1.178,1.061 z"
             id="path13651"
             inkscape:connector-curvature="0"
             style="opacity:0.1;fill:#ffffff" /><path
             d="m 4516.041,7516.752 c 0,0.585 -0.527,1.061 -1.178,1.061 h -28.906 c -0.658,0 -1.191,-0.476 -1.191,-1.061 v 0 c 0,-0.58 0.533,-1.063 1.191,-1.063 h 28.906 c 0.651,0 1.178,0.483 1.178,1.063 z"
             id="path13653"
             inkscape:connector-curvature="0"
             style="opacity:0.1;fill:#ffffff" /><path
             d="m 4516.041,7520.989 c 0,0.586 -0.527,1.055 -1.178,1.055 h -28.906 c -0.658,0 -1.191,-0.469 -1.191,-1.055 v 0 c 0,-0.586 0.533,-1.062 1.191,-1.062 h 28.906 c 0.651,0 1.178,0.476 1.178,1.062 z"
             id="path13655"
             inkscape:connector-curvature="0"
             style="opacity:0.1;fill:#ffffff" /><path
             d="m 4516.041,7510.396 c 0,0.586 -0.527,1.063 -1.178,1.063 h -28.906 c -0.658,0 -1.191,-0.477 -1.191,-1.063 v 0 c 0,-0.586 0.533,-1.055 1.191,-1.055 h 28.906 c 0.651,10e-4 1.178,0.47 1.178,1.055 z"
             id="path13657"
             inkscape:connector-curvature="0"
             style="opacity:0.1" /><path
             d="m 4516.041,7514.635 c 0,0.586 -0.527,1.055 -1.178,1.055 h -28.906 c -0.658,0 -1.191,-0.469 -1.191,-1.055 v 0 c 0,-0.586 0.533,-1.055 1.191,-1.055 h 28.906 c 0.651,0 1.178,0.469 1.178,1.055 z"
             id="path13659"
             inkscape:connector-curvature="0"
             style="opacity:0.1" /><path
             d="m 4516.041,7518.867 c 0,0.586 -0.527,1.061 -1.178,1.061 h -28.906 c -0.658,0 -1.191,-0.475 -1.191,-1.061 v 0 c 0,-0.58 0.533,-1.055 1.191,-1.055 h 28.906 c 0.651,0 1.178,0.475 1.178,1.055 z"
             id="path13661"
             inkscape:connector-curvature="0"
             style="opacity:0.1" /><path
             d="m 4516.041,7523.105 c 0,0.586 -0.527,1.061 -1.178,1.061 h -28.906 c -0.658,0 -1.191,-0.475 -1.191,-1.061 v 0 c 0,-0.586 0.533,-1.062 1.191,-1.062 h 28.906 c 0.651,0 1.178,0.477 1.178,1.062 z"
             id="path13663"
             inkscape:connector-curvature="0"
             style="opacity:0.1" /></g><path
           d="m 4510.137,7430.013 c 4.941,11.055 16.543,43.672 -0.854,75.808 h 6.758 c 0,0 18.92,-28.347 18.9,-42.031 -0.033,-23.751 -14.518,-31.362 -24.804,-33.777 z"
           id="path13667"
           inkscape:connector-curvature="0"
           style="opacity:0.1" /><path
           d="m 4483.919,7457.266 c 0.651,1.849 -1.094,4.141 -3.899,5.13 -2.807,0.983 -5.605,0.286 -6.25,-1.562 -0.645,-1.844 1.1,-4.142 3.899,-5.125 2.8,-0.982 5.599,-0.286 6.25,1.557 z"
           id="path13669"
           inkscape:connector-curvature="0"
           style="opacity:0.4;fill:#ffffff" /><path
           d="m 4495.645,7441.783 c 1.25,3.562 -2.116,7.988 -7.526,9.89 -5.41,1.902 -10.801,0.56 -12.058,-3.001 -1.256,-3.562 2.116,-7.995 7.52,-9.896 5.409,-1.901 10.807,-0.553 12.064,3.007 z"
           id="path13671"
           inkscape:connector-curvature="0"
           style="opacity:0.4;fill:#ffffff" /><g
           id="g13687"><polygon
             points="4477.617,7427.891 4476.536,7428.854 4447.396,7399.212 4448.477,7398.248 "
             id="polygon13673"
             style="fill:#fff064" /><polygon
             points="4457.988,7445.013 4457.786,7446.419 4415.853,7441.041 4416.055,7439.635 "
             id="polygon13675"
             style="fill:#fff064" /><polygon
             points="4458.672,7471.23 4458.971,7472.617 4417.513,7480.684 4417.22,7479.297 "
             id="polygon13677"
             style="fill:#fff064" /><polygon
             points="4519.83,7427.891 4520.911,7428.854 4550.045,7399.212 4548.971,7398.248 "
             id="polygon13679"
             style="fill:#fff064" /><polygon
             points="4542.356,7447.213 4542.559,7448.619 4584.492,7443.242 4584.297,7441.836 "
             id="polygon13681"
             style="fill:#fff064" /><polygon
             points="4540.494,7467.916 4540.195,7469.303 4581.653,7477.369 4581.953,7475.977 "
             id="polygon13683"
             style="fill:#fff064" /><polygon
             points="4499.102,7380.742 4500.599,7380.716 4501.393,7420.938 4499.902,7420.957 "
             id="polygon13685"
             style="fill:#fff064" /></g></g></g><g
       id="g13635"
       display="inline"
       style="display:inline"
       transform="translate(-3610.4392,3244.901)"><path
         d="m 4647.435,7202.708 c 0,59.226 -48.015,107.239 -107.239,107.239 -59.219,0 -107.24,-48.014 -107.24,-107.239 0,-59.225 48.021,-107.239 107.24,-107.239 59.224,0 107.239,48.013 107.239,107.239 z"
         id="path13583"
         inkscape:connector-curvature="0"
         style="fill:#424242" /><path
         d="m 4639.238,7195.313 c 0,59.225 -48.015,107.239 -107.24,107.239 -59.225,0 -107.232,-48.015 -107.232,-107.239 0,-59.226 48.008,-107.24 107.232,-107.24 59.226,0 107.24,48.014 107.24,107.24 z"
         id="path13585"
         inkscape:connector-curvature="0"
         style="fill:#d0edfa" /><g
         id="g13609"><path
           d="m 4576.445,7149.427 c 0,0 -62.695,-16.25 -98.295,41.367 l 12.305,17.858 12.299,17.857 c 66.517,-12.707 73.691,-77.082 73.691,-77.082 z"
           id="path13587"
           inkscape:connector-curvature="0"
           style="fill:#ff651f" /><path
           d="m 4491.38,7210 -0.273,-0.397 -12.956,-18.809 c 0,0 -2.799,8.938 -1.289,13.828 l 6.914,10.032 0.273,0.397 6.029,8.757 c 3.691,2.662 12.637,2.649 12.637,2.649 z"
           id="path13589"
           inkscape:connector-curvature="0"
           style="fill:#0051c4" /><polygon
           points="4484.121,7226.666 4471.328,7208.092 4476.705,7204.388 4489.492,7222.969 "
           id="polygon13591"
           style="fill:#e46400" /><polygon
           points="4480.26,7226.445 4470.156,7211.783 4472.676,7210.045 4482.773,7224.713 "
           id="polygon13593"
           style="fill:#c0003b" /><polygon
           points="4484.258,7192.949 4504.557,7168.736 4465.781,7168.04 "
           id="polygon13595"
           style="fill:#ffea50" /><polygon
           points="4503.574,7217.161 4533.438,7206.829 4520.26,7243.307 "
           id="polygon13597"
           style="fill:#ffea50" /><path
           d="m 4570.833,7170.045 c 4.622,-11.771 5.612,-20.618 5.612,-20.618 0,0 -8.613,-2.227 -21.264,-2.103 z"
           id="path13599"
           inkscape:connector-curvature="0"
           style="fill:#ff2c0d" /><polygon
           points="4483.711,7231.458 4475.208,7219.114 4466.705,7206.771 4460.273,7220.306 4453.834,7233.834 4468.775,7232.643 "
           id="polygon13601"
           style="fill:#ff1a2c" /><polygon
           points="4481.275,7227.93 4475.006,7218.821 4468.736,7209.713 4464.368,7219.434 4460,7229.153 4470.638,7228.541 "
           id="polygon13603"
           style="fill:#ff2c4d" /><polygon
           points="4479.192,7224.902 4474.922,7218.704 4470.65,7212.5 4469.205,7218.066 4467.76,7223.639 4473.477,7224.271 "
           id="polygon13605"
           style="fill:#ffd74c" /><path
           d="m 4570.833,7170.045 v 0 c 3.75,-9.557 5.104,-17.168 5.481,-19.7 0,-0.02 0.01,-0.026 0.014,-0.046 0.052,-0.357 0.084,-0.611 0.104,-0.748 0,-0.02 0,-0.026 0,-0.046 0.01,-0.046 0.014,-0.078 0.014,-0.078 0,0 -0.033,-0.01 -0.078,-0.013 -0.014,-0.01 -0.02,-0.01 -0.046,-0.014 -0.078,-0.02 -0.215,-0.052 -0.384,-0.091 l -121.797,83.887 -0.307,0.638 14.941,-1.191 14.936,-1.185 -2.436,-3.528 -1.016,-1.484 2.514,-1.732 1.348,1.953 5.371,-3.697 0.586,0.84 c 3.691,2.662 12.637,2.649 12.637,2.649 l 0.039,0.052 c 2.037,-0.391 4.017,-0.826 5.95,-1.309 l 11.556,18.105 9.401,-26.028 c 23.386,-12.312 35.254,-32.175 41.172,-47.234 z"
           id="path13607"
           inkscape:connector-curvature="0"
           style="opacity:0.2" /></g><g
         id="g13617"><path
           d="m 4522.278,7250.859 c -0.632,0 -1.237,0.078 -1.823,0.215 -1.855,-7.897 -7.936,-13.686 -15.156,-13.686 -5.318,0 -10.02,3.145 -12.864,7.963 -1.81,-0.886 -3.854,-1.387 -6.003,-1.387 -7.486,0 -13.541,5.996 -13.541,13.392 0,1.055 0.117,2.077 0.352,3.06 h 16.744 9.629 15 6.01 9.31 c 0.13,-0.566 0.208,-1.164 0.208,-1.777 0,-4.297 -3.53,-7.78 -7.866,-7.78 z"
           id="path13611"
           inkscape:connector-curvature="0"
           style="fill:#4c4c4b" /><path
           d="m 4518.509,7250.859 c -0.632,0 -1.237,0.078 -1.816,0.215 -1.855,-7.897 -7.937,-13.686 -15.156,-13.686 -5.325,0 -10.02,3.145 -12.864,7.963 -1.811,-0.886 -3.854,-1.387 -6.01,-1.387 -7.48,0 -13.541,5.996 -13.541,13.392 0,1.055 0.123,2.077 0.357,3.06 h 16.738 9.629 15 6.01 9.316 c 0.13,-0.566 0.201,-1.164 0.201,-1.777 0,-4.297 -3.521,-7.78 -7.864,-7.78 z"
           id="path13613"
           inkscape:connector-curvature="0"
           style="fill:#6cd2ea" /><path
           d="m 4518.509,7250.859 c -0.632,0 -1.237,0.078 -1.816,0.215 -1.855,-7.897 -7.937,-13.686 -15.156,-13.686 -0.222,0 -0.442,0.01 -0.664,0.02 v 23.008 h 9.974 6.01 9.316 c 0.13,-0.566 0.201,-1.164 0.201,-1.777 0,-4.297 -3.522,-7.78 -7.865,-7.78 z"
           id="path13615"
           inkscape:connector-curvature="0"
           style="opacity:0.2" /></g><g
         id="g13625"><path
           d="m 4543.313,7125.872 c -0.944,0 -1.868,0.11 -2.741,0.313 -2.806,-11.907 -11.979,-20.645 -22.871,-20.645 -8.027,0 -15.123,4.753 -19.42,12.012 -2.729,-1.335 -5.801,-2.083 -9.057,-2.083 -11.282,0 -20.436,9.043 -20.436,20.201 0,1.589 0.188,3.139 0.54,4.623 h 25.254 14.538 22.637 9.063 14.049 c 0.202,-0.866 0.313,-1.765 0.313,-2.683 0,-6.483 -5.313,-11.738 -11.869,-11.738 z"
           id="path13619"
           inkscape:connector-curvature="0"
           style="fill:#4c4c4b" /><path
           d="m 4537.63,7125.872 c -0.95,0 -1.862,0.11 -2.747,0.313 -2.793,-11.907 -11.967,-20.645 -22.865,-20.645 -8.021,0 -15.117,4.753 -19.414,12.012 -2.728,-1.335 -5.807,-2.083 -9.063,-2.083 -11.282,0 -20.43,9.043 -20.43,20.201 0,1.589 0.183,3.139 0.534,4.623 h 25.261 14.531 22.637 9.063 14.056 c 0.208,-0.866 0.306,-1.765 0.306,-2.683 0,-6.483 -5.319,-11.738 -11.869,-11.738 z"
           id="path13621"
           inkscape:connector-curvature="0"
           style="fill:#6cd2ea" /><path
           d="m 4537.63,7125.872 c -0.95,0 -1.862,0.11 -2.747,0.313 -2.793,-11.907 -11.967,-20.645 -22.865,-20.645 -0.338,0 -0.664,0.02 -1.002,0.032 v 34.721 h 15.059 9.063 14.056 c 0.208,-0.866 0.306,-1.765 0.306,-2.683 0,-6.483 -5.32,-11.738 -11.87,-11.738 z"
           id="path13623"
           inkscape:connector-curvature="0"
           style="opacity:0.2" /></g><g
         id="g13633"><path
           d="m 4624.017,7211.158 c -0.813,0 -1.595,0.098 -2.351,0.273 -2.408,-10.221 -10.286,-17.715 -19.629,-17.715 -6.888,0 -12.975,4.076 -16.673,10.307 -2.344,-1.146 -4.974,-1.791 -7.767,-1.791 -9.688,0 -17.546,7.761 -17.546,17.344 0,1.361 0.169,2.689 0.469,3.965 h 21.68 12.474 19.421 7.78 12.063 c 0.176,-0.742 0.267,-1.51 0.267,-2.305 0,-5.566 -4.563,-10.078 -10.188,-10.078 z"
           id="path13627"
           inkscape:connector-curvature="0"
           style="fill:#4c4c4b" /><path
           d="m 4619.141,7211.158 c -0.814,0 -1.602,0.098 -2.357,0.273 -2.396,-10.221 -10.273,-17.715 -19.622,-17.715 -6.888,0 -12.981,4.076 -16.667,10.307 -2.344,-1.146 -4.986,-1.791 -7.773,-1.791 -9.688,0 -17.539,7.761 -17.539,17.344 0,1.361 0.156,2.689 0.463,3.965 h 21.68 12.474 19.421 7.779 12.064 c 0.176,-0.742 0.267,-1.51 0.267,-2.305 0,-5.566 -4.565,-10.078 -10.19,-10.078 z"
           id="path13629"
           inkscape:connector-curvature="0"
           style="fill:#6cd2ea" /><path
           d="m 4619.141,7211.158 c -0.814,0 -1.602,0.098 -2.357,0.273 -2.396,-10.221 -10.273,-17.715 -19.622,-17.715 -0.286,0 -0.573,0.01 -0.866,0.02 v 29.805 h 12.924 7.779 12.064 c 0.176,-0.742 0.267,-1.51 0.267,-2.305 0,-5.566 -4.564,-10.078 -10.189,-10.078 z"
           id="path13631"
           inkscape:connector-curvature="0"
           style="opacity:0.2" /></g></g><g
       id="g13581"
       display="inline"
       style="display:inline"
       transform="translate(-3610.4392,3244.901)"><path
         d="m 4420.208,7319.219 c 0,59.225 -48.008,107.24 -107.239,107.24 -59.219,0 -107.233,-48.016 -107.233,-107.24 0,-59.226 48.015,-107.24 107.233,-107.24 59.231,0 107.239,48.014 107.239,107.24 z"
         id="path13569"
         inkscape:connector-curvature="0"
         style="fill:#424242" /><path
         d="m 4412.213,7312.818 c 0,59.226 -48.021,107.233 -107.239,107.233 -59.231,0 -107.239,-48.008 -107.239,-107.233 0,-59.225 48.008,-107.239 107.239,-107.239 59.218,0 107.239,48.015 107.239,107.239 z"
         id="path13571"
         inkscape:connector-curvature="0"
         style="fill:#f3ae1b" /><g
         id="g13579"><path
           d="m 4312.864,7241.888 h -14.479 c -0.787,0 -1.406,0.638 -1.406,1.406 v 7.52 c -9.231,1.309 -17.779,4.824 -25.162,10.032 l -7.077,-7.076 c -0.547,-0.541 -1.433,-0.541 -1.992,0 l -10.247,10.247 c -0.541,0.54 -0.541,1.438 0,1.985 l 6.751,6.745 c -4.798,6.062 -8.535,13.073 -10.911,20.749 l -9.727,-1.726 c -0.762,-0.13 -1.484,0.384 -1.635,1.14 l -2.5,14.277 c -0.143,0.755 0.365,1.497 1.12,1.634 l 9.883,1.731 c -0.013,0.762 -0.026,1.504 -0.026,2.272 0,5.833 0.756,11.478 2.168,16.829 l -8.906,4.167 c -0.689,0.319 -0.996,1.152 -0.677,1.855 l 6.126,13.138 c 0.326,0.697 1.166,1.003 1.869,0.684 l 8.255,-3.854 c 3.431,5.833 7.754,11.041 12.767,15.384 l -4.134,7.161 c -0.384,0.664 -0.163,1.523 0.515,1.908 l 12.552,7.252 c 0.664,0.385 1.523,0.156 1.927,-0.514 l 3.725,-6.459 c 6.25,2.813 13.053,4.519 20.195,4.922 l 0.625,7.168 c 0.064,0.769 0.755,1.335 1.523,1.27 l 14.439,-1.256 c 0.769,-0.078 1.348,-0.756 1.27,-1.523 l -0.638,-7.344 c 6.738,-1.726 13.008,-4.643 18.626,-8.522 l 5.352,6.387 c 0.508,0.586 1.394,0.664 1.979,0.176 l 11.106,-9.323 c 0.6,-0.501 0.678,-1.393 0.17,-1.973 l -5.925,-7.076 c 4.017,-4.975 7.305,-10.612 9.7,-16.732 l 9.922,2.65 c 0.742,0.201 1.511,-0.248 1.706,-0.99 l 3.75,-14.004 c 0.202,-0.742 -0.234,-1.523 -0.989,-1.719 l -10.313,-2.76 c 0.234,-2.266 0.352,-4.57 0.352,-6.901 0,-4.063 -0.365,-8.008 -1.055,-11.843 l 10.104,-3.672 c 0.717,-0.267 1.094,-1.074 0.834,-1.803 l -4.961,-13.613 c -0.261,-0.723 -1.074,-1.113 -1.797,-0.847 l -9.531,3.47 c -2.865,-5.911 -6.589,-11.275 -11.01,-15.918 l 5.346,-7.637 c 0.436,-0.638 0.286,-1.51 -0.346,-1.959 l -11.881,-8.314 c -0.632,-0.449 -1.504,-0.286 -1.94,0.352 l -4.805,6.836 c -5.859,-3.365 -12.324,-5.729 -19.18,-6.861 v -7.722 c 0,-0.769 -0.638,-1.406 -1.407,-1.406 z m -7.897,40.54 c 16.791,0 30.397,13.601 30.397,30.397 0,16.777 -13.606,30.391 -30.397,30.391 -16.777,0 -30.396,-13.613 -30.396,-30.391 0,-16.797 13.618,-30.397 30.396,-30.397 z"
           id="path13573"
           inkscape:connector-curvature="0"
           style="clip-rule:evenodd;fill:#0b2e44;fill-rule:evenodd" /><path
           d="m 4304.967,7270.709 c 23.262,0 42.109,18.848 42.109,42.116 0,23.249 -18.848,42.097 -42.109,42.097 -23.248,0 -42.103,-18.848 -42.103,-42.097 0,-23.268 18.855,-42.116 42.103,-42.116 z m 0,11.719 c 16.791,0 30.397,13.601 30.397,30.397 0,16.777 -13.606,30.391 -30.397,30.391 -16.777,0 -30.396,-13.613 -30.396,-30.391 0,-16.797 13.618,-30.397 30.396,-30.397 z"
           id="path13575"
           inkscape:connector-curvature="0"
           style="clip-rule:evenodd;opacity:0.2;fill:#ffffff;fill-rule:evenodd" /><path
           d="m 4374.453,7322.486 -10.313,-2.76 c 0.234,-2.266 0.352,-4.57 0.352,-6.901 0,-4.063 -0.365,-8.008 -1.055,-11.843 l 10.104,-3.672 c 0.717,-0.267 1.094,-1.074 0.834,-1.803 l -4.961,-13.613 c -0.261,-0.723 -1.074,-1.113 -1.797,-0.847 l -9.531,3.47 c -2.865,-5.911 -6.589,-11.275 -11.01,-15.918 l 5.346,-7.637 c 0.436,-0.638 0.286,-1.51 -0.346,-1.959 l -11.881,-8.314 c -0.632,-0.449 -1.504,-0.286 -1.94,0.352 l -4.805,6.836 c -5.859,-3.365 -12.324,-5.729 -19.18,-6.861 v -7.722 c 0,-0.769 -0.638,-1.406 -1.406,-1.406 h -7.891 v 40.54 c 16.79,0 30.391,13.601 30.391,30.397 0,16.777 -13.601,30.391 -30.391,30.391 v 40.437 l 13.45,-1.172 c 0.769,-0.078 1.348,-0.756 1.27,-1.523 l -0.638,-7.344 c 6.738,-1.726 13.008,-4.643 18.626,-8.522 l 5.352,6.387 c 0.508,0.586 1.394,0.664 1.979,0.176 l 11.106,-9.323 c 0.6,-0.501 0.678,-1.393 0.17,-1.973 l -5.925,-7.076 c 4.017,-4.975 7.305,-10.612 9.7,-16.732 l 9.922,2.65 c 0.742,0.201 1.511,-0.248 1.706,-0.99 l 3.75,-14.004 c 0.204,-0.744 -0.233,-1.525 -0.988,-1.721 z"
           id="path13577"
           inkscape:connector-curvature="0"
           style="opacity:0.1;fill:#ffffff" /></g></g><g
       id="g13543"
       display="inline"
       style="display:inline"
       inkscape:label="phone"
       transform="translate(-3610.4392,3244.901)"><path
         d="m 3643.636,7547.474 c 0,7.161 -5.804,12.962 -12.962,12.962 H 3436.82 c -7.158,0 -12.962,-5.801 -12.962,-12.962 v -356.478 c 0,-7.155 5.804,-12.963 12.962,-12.963 h 193.854 c 7.158,0 12.962,5.808 12.962,12.963 z"
         id="path13411"
         inkscape:connector-curvature="0"
         style="clip-rule:evenodd;fill:#0b2e44;fill-rule:evenodd" /><rect
         x="3444.127"
         y="7223.4038"
         width="179.235"
         height="261.41299"
         id="rect13413"
         style="clip-rule:evenodd;opacity:0.8;fill:#ffffff;fill-rule:evenodd" /><g
         id="g13539"><g
           id="g13427"><path
             d="m 3518.75,7352.604 c 0,16.635 -13.486,30.117 -30.121,30.117 -16.637,0 -30.124,-13.482 -30.124,-30.117 0,-16.641 13.486,-30.123 30.124,-30.123 16.635,0 30.121,13.482 30.121,30.123 z"
             id="path13415"
             inkscape:connector-curvature="0"
             style="fill:#424242" /><path
             d="m 3516.504,7350.807 c 0,16.635 -13.49,30.117 -30.124,30.117 -16.637,0 -30.124,-13.482 -30.124,-30.117 0,-16.641 13.486,-30.13 30.124,-30.13 16.634,0 30.124,13.489 30.124,30.13 z"
             id="path13417"
             inkscape:connector-curvature="0"
             style="fill:#f3ae1b" /><g
             id="g13425"><path
               d="m 3488.597,7330.879 h -4.069 c -0.218,0 -0.394,0.182 -0.394,0.396 v 2.109 c -2.591,0.371 -4.993,1.354 -7.067,2.819 l -1.989,-1.985 c -0.153,-0.156 -0.4,-0.156 -0.557,0 l -2.881,2.877 c -0.153,0.15 -0.153,0.404 0,0.561 l 1.897,1.888 c -1.348,1.706 -2.399,3.672 -3.066,5.833 l -2.731,-0.488 c -0.211,-0.032 -0.42,0.111 -0.459,0.32 l -0.703,4.016 c -0.042,0.209 0.104,0.417 0.316,0.456 l 2.773,0.488 c 0,0.208 -0.01,0.417 -0.01,0.638 0,1.635 0.212,3.223 0.612,4.727 l -2.503,1.172 c -0.192,0.085 -0.28,0.326 -0.192,0.521 l 1.722,3.685 c 0.095,0.202 0.329,0.286 0.524,0.195 l 2.321,-1.081 c 0.963,1.635 2.178,3.1 3.587,4.323 l -1.162,2.005 c -0.111,0.189 -0.046,0.43 0.143,0.541 l 3.529,2.037 c 0.182,0.104 0.426,0.039 0.537,-0.143 l 1.045,-1.816 c 1.761,0.787 3.668,1.27 5.677,1.38 l 0.173,2.012 c 0.02,0.222 0.215,0.378 0.43,0.364 l 4.053,-0.357 c 0.218,-0.02 0.381,-0.209 0.358,-0.43 l -0.176,-2.064 c 1.888,-0.481 3.652,-1.302 5.231,-2.389 l 1.501,1.79 c 0.143,0.169 0.391,0.188 0.557,0.052 l 3.118,-2.617 c 0.169,-0.143 0.192,-0.391 0.052,-0.56 l -1.667,-1.985 c 1.129,-1.394 2.051,-2.976 2.725,-4.701 l 2.786,0.749 c 0.208,0.052 0.423,-0.071 0.479,-0.28 l 1.055,-3.932 c 0.056,-0.209 -0.065,-0.43 -0.276,-0.482 l -2.897,-0.774 c 0.065,-0.638 0.098,-1.288 0.098,-1.94 0,-1.146 -0.101,-2.252 -0.296,-3.326 l 2.838,-1.035 c 0.199,-0.072 0.309,-0.3 0.234,-0.502 l -1.393,-3.828 c -0.075,-0.201 -0.303,-0.313 -0.508,-0.234 l -2.676,0.977 c -0.804,-1.66 -1.853,-3.17 -3.093,-4.473 l 1.504,-2.148 c 0.121,-0.176 0.082,-0.423 -0.098,-0.547 l -3.336,-2.337 c -0.179,-0.124 -0.423,-0.085 -0.547,0.098 l -1.348,1.921 c -1.647,-0.944 -3.463,-1.608 -5.387,-1.928 v -2.168 c 0,-0.218 -0.179,-0.4 -0.397,-0.4 z m -2.22,11.387 c 4.72,0 8.538,3.821 8.538,8.541 0,4.714 -3.818,8.535 -8.538,8.535 -4.71,0 -8.535,-3.821 -8.535,-8.535 0,-4.72 3.825,-8.541 8.535,-8.541 z"
               id="path13419"
               inkscape:connector-curvature="0"
               style="clip-rule:evenodd;fill:#0b2e44;fill-rule:evenodd" /><path
               d="m 3486.377,7338.978 c 6.536,0 11.829,5.293 11.829,11.829 0,6.53 -5.293,11.823 -11.829,11.823 -6.53,0 -11.823,-5.293 -11.823,-11.823 0,-6.536 5.293,-11.829 11.823,-11.829 z m 0,3.288 c 4.72,0 8.538,3.821 8.538,8.541 0,4.714 -3.818,8.535 -8.538,8.535 -4.71,0 -8.535,-3.821 -8.535,-8.535 0,-4.72 3.825,-8.541 8.535,-8.541 z"
               id="path13421"
               inkscape:connector-curvature="0"
               style="clip-rule:evenodd;opacity:0.2;fill:#ffffff;fill-rule:evenodd" /><path
               d="m 3505.898,7353.521 -2.897,-0.774 c 0.065,-0.638 0.098,-1.288 0.098,-1.94 0,-1.146 -0.101,-2.252 -0.296,-3.326 l 2.838,-1.035 c 0.199,-0.072 0.309,-0.3 0.234,-0.502 l -1.393,-3.828 c -0.075,-0.201 -0.303,-0.313 -0.508,-0.234 l -2.676,0.977 c -0.804,-1.66 -1.853,-3.17 -3.093,-4.473 l 1.504,-2.148 c 0.121,-0.176 0.082,-0.423 -0.098,-0.547 l -3.336,-2.337 c -0.179,-0.124 -0.423,-0.085 -0.547,0.098 l -1.348,1.921 c -1.647,-0.944 -3.463,-1.608 -5.387,-1.928 v -2.168 c 0,-0.215 -0.179,-0.396 -0.397,-0.396 h -2.217 v 11.387 c 4.717,0 8.535,3.821 8.535,8.541 0,4.714 -3.818,8.535 -8.535,8.535 v 11.361 l 3.776,-0.332 c 0.218,-0.02 0.381,-0.209 0.358,-0.43 l -0.176,-2.064 c 1.888,-0.481 3.652,-1.302 5.231,-2.389 l 1.501,1.79 c 0.143,0.169 0.391,0.188 0.557,0.052 l 3.118,-2.617 c 0.169,-0.143 0.192,-0.391 0.052,-0.56 l -1.667,-1.985 c 1.129,-1.394 2.051,-2.976 2.725,-4.701 l 2.786,0.749 c 0.208,0.052 0.423,-0.071 0.479,-0.28 l 1.055,-3.932 c 0.056,-0.211 -0.064,-0.432 -0.276,-0.485 z"
               id="path13423"
               inkscape:connector-curvature="0"
               style="opacity:0.1;fill:#ffffff" /></g></g><g
           id="g13481"><path
             d="m 3582.578,7319.877 c 0,16.633 -13.486,30.123 -30.124,30.123 -16.634,0 -30.124,-13.49 -30.124,-30.123 0,-16.635 13.49,-30.125 30.124,-30.125 16.638,0 30.124,13.49 30.124,30.125 z"
             id="path13429"
             inkscape:connector-curvature="0"
             style="fill:#424242" /><path
             d="m 3580.273,7317.799 c 0,16.635 -13.486,30.117 -30.121,30.117 -16.637,0 -30.124,-13.482 -30.124,-30.117 0,-16.641 13.486,-30.123 30.124,-30.123 16.635,0 30.121,13.482 30.121,30.123 z"
             id="path13431"
             inkscape:connector-curvature="0"
             style="fill:#d0edfa" /><g
             id="g13455"><path
               d="m 3562.637,7304.908 c 0,0 -17.611,-4.563 -27.611,11.621 l 3.454,5.014 3.457,5.02 c 18.685,-3.575 20.7,-21.655 20.7,-21.655 z"
               id="path13433"
               inkscape:connector-curvature="0"
               style="fill:#ff651f" /><path
               d="m 3538.74,7321.92 -0.075,-0.11 -3.639,-5.28 c 0,0 -0.785,2.507 -0.361,3.881 l 1.94,2.818 0.075,0.111 1.696,2.461 c 1.039,0.748 3.548,0.742 3.548,0.742 z"
               id="path13435"
               inkscape:connector-curvature="0"
               style="fill:#0051c4" /><polygon
               points="3534.619,7320.345 3538.213,7325.566 3536.702,7326.602 3533.108,7321.387 "
               id="polygon13437"
               style="fill:#e46400" /><rect
               x="3532.05"
               y="7323.8091"
               transform="matrix(0.5672,0.8236,-0.8236,0.5672,7561.6416,258.8242)"
               width="5.0040002"
               height="0.85900003"
               id="rect13439"
               style="fill:#c0003b" /><polygon
               points="3536.741,7317.135 3542.444,7310.332 3531.553,7310.137 "
               id="polygon13441"
               style="fill:#ffea50" /><polygon
               points="3542.168,7323.932 3550.557,7321.028 3546.855,7331.275 "
               id="polygon13443"
               style="fill:#ffea50" /><path
               d="m 3561.058,7310.703 c 1.299,-3.308 1.579,-5.795 1.579,-5.795 0,0 -2.422,-0.625 -5.974,-0.592 z"
               id="path13445"
               inkscape:connector-curvature="0"
               style="fill:#ff2c0d" /><polygon
               points="3536.585,7327.949 3534.199,7324.479 3531.81,7321.016 3530.003,7324.817 3528.196,7328.619 3532.389,7328.281 "
               id="polygon13447"
               style="fill:#ff1a2c" /><polygon
               points="3535.901,7326.959 3534.141,7324.4 3532.383,7321.842 3531.155,7324.57 3529.928,7327.305 3532.917,7327.129 "
               id="polygon13449"
               style="fill:#ff2c4d" /><polygon
               points="3535.319,7326.106 3534.118,7324.368 3532.92,7322.623 3532.513,7324.186 3532.106,7325.755 3533.711,7325.931 "
               id="polygon13451"
               style="fill:#ffd74c" /><path
               d="m 3561.058,7310.703 v 0 c 1.055,-2.689 1.436,-4.824 1.543,-5.541 0,0 0,-0.01 0,-0.01 0.013,-0.104 0.023,-0.176 0.026,-0.215 v -0.014 c 0,-0.013 0,-0.02 0,-0.02 0,0 -0.01,0 -0.02,-0.01 -0.01,0 -0.01,0 -0.017,0 -0.022,-0.01 -0.062,-0.02 -0.107,-0.025 l -34.212,23.561 -0.085,0.182 4.193,-0.338 4.196,-0.332 -0.684,-0.99 -0.283,-0.416 0.707,-0.488 0.377,0.547 1.511,-1.035 0.163,0.234 c 1.039,0.748 3.548,0.742 3.548,0.742 l 0.013,0.02 c 0.573,-0.111 1.13,-0.234 1.673,-0.371 l 3.246,5.084 2.637,-7.311 c 6.572,-3.457 9.905,-9.037 11.566,-13.262 z"
               id="path13453"
               inkscape:connector-curvature="0"
               style="opacity:0.2" /></g><g
             id="g13463"><path
               d="m 3547.418,7333.398 c -0.176,0 -0.348,0.025 -0.508,0.064 -0.524,-2.22 -2.233,-3.848 -4.258,-3.848 -1.494,0 -2.816,0.887 -3.617,2.233 -0.508,-0.247 -1.081,-0.384 -1.686,-0.384 -2.1,0 -3.802,1.68 -3.802,3.756 0,0.3 0.033,0.586 0.098,0.866 h 4.704 2.705 4.215 1.686 2.614 c 0.039,-0.163 0.059,-0.332 0.059,-0.501 10e-4,-1.203 -0.989,-2.186 -2.21,-2.186 z"
               id="path13457"
               inkscape:connector-curvature="0"
               style="fill:#4c4c4b" /><path
               d="m 3546.364,7333.398 c -0.179,0 -0.348,0.025 -0.514,0.064 -0.518,-2.22 -2.227,-3.848 -4.255,-3.848 -1.494,0 -2.815,0.887 -3.616,2.233 -0.508,-0.247 -1.081,-0.384 -1.687,-0.384 -2.1,0 -3.802,1.68 -3.802,3.756 0,0.3 0.036,0.586 0.098,0.866 h 4.704 2.705 4.212 1.689 2.617 c 0.039,-0.163 0.055,-0.332 0.055,-0.501 10e-4,-1.203 -0.989,-2.186 -2.206,-2.186 z"
               id="path13459"
               inkscape:connector-curvature="0"
               style="fill:#6cd2ea" /><path
               d="m 3546.364,7333.398 c -0.179,0 -0.348,0.025 -0.514,0.064 -0.518,-2.22 -2.227,-3.848 -4.255,-3.848 -0.065,0 -0.127,0 -0.188,0.01 v 6.465 h 2.803 1.689 2.617 c 0.039,-0.163 0.055,-0.332 0.055,-0.501 0,-1.204 -0.99,-2.187 -2.207,-2.187 z"
               id="path13461"
               inkscape:connector-curvature="0"
               style="opacity:0.2" /></g><g
             id="g13471"><path
               d="m 3553.33,7298.294 c -0.267,0 -0.524,0.026 -0.771,0.085 -0.788,-3.34 -3.366,-5.801 -6.423,-5.801 -2.256,0 -4.248,1.334 -5.456,3.372 -0.768,-0.371 -1.631,-0.586 -2.542,-0.586 -3.174,0 -5.742,2.546 -5.742,5.677 0,0.449 0.052,0.886 0.15,1.303 h 7.1 4.079 6.357 2.546 3.948 c 0.059,-0.248 0.088,-0.495 0.088,-0.756 0,-1.822 -1.495,-3.294 -3.334,-3.294 z"
               id="path13465"
               inkscape:connector-curvature="0"
               style="fill:#4c4c4b" /><path
               d="m 3551.735,7298.294 c -0.267,0 -0.524,0.026 -0.771,0.085 -0.788,-3.34 -3.363,-5.801 -6.422,-5.801 -2.256,0 -4.248,1.334 -5.456,3.372 -0.765,-0.371 -1.631,-0.586 -2.545,-0.586 -3.17,0 -5.739,2.546 -5.739,5.677 0,0.449 0.052,0.886 0.149,1.303 h 7.097 4.082 6.357 2.545 3.949 c 0.059,-0.248 0.088,-0.495 0.088,-0.756 -10e-4,-1.822 -1.495,-3.294 -3.334,-3.294 z"
               id="path13467"
               inkscape:connector-curvature="0"
               style="fill:#6cd2ea" /><path
               d="m 3551.735,7298.294 c -0.267,0 -0.524,0.026 -0.771,0.085 -0.788,-3.34 -3.363,-5.801 -6.422,-5.801 -0.095,0 -0.192,0.01 -0.283,0.013 v 9.753 h 4.229 2.545 3.949 c 0.059,-0.248 0.088,-0.495 0.088,-0.756 0,-1.822 -1.496,-3.294 -3.335,-3.294 z"
               id="path13469"
               inkscape:connector-curvature="0"
               style="opacity:0.2" /></g><g
             id="g13479"><path
               d="m 3575.999,7322.252 c -0.228,0 -0.449,0.026 -0.661,0.072 -0.677,-2.871 -2.887,-4.975 -5.514,-4.975 -1.934,0 -3.646,1.14 -4.681,2.891 -0.658,-0.318 -1.4,-0.501 -2.184,-0.501 -2.722,0 -4.925,2.181 -4.925,4.87 0,0.384 0.045,0.755 0.13,1.119 h 6.09 3.502 5.456 2.184 3.389 c 0.049,-0.208 0.075,-0.43 0.075,-0.65 0,-1.562 -1.282,-2.826 -2.861,-2.826 z"
               id="path13473"
               inkscape:connector-curvature="0"
               style="fill:#4c4c4b" /><path
               d="m 3574.629,7322.252 c -0.228,0 -0.449,0.026 -0.661,0.072 -0.674,-2.871 -2.887,-4.975 -5.511,-4.975 -1.937,0 -3.649,1.14 -4.681,2.891 -0.661,-0.318 -1.4,-0.501 -2.184,-0.501 -2.725,0 -4.929,2.181 -4.929,4.87 0,0.384 0.046,0.755 0.13,1.119 h 6.09 3.503 5.456 2.184 3.389 c 0.049,-0.208 0.075,-0.43 0.075,-0.65 0,-1.562 -1.279,-2.826 -2.861,-2.826 z"
               id="path13475"
               inkscape:connector-curvature="0"
               style="fill:#6cd2ea" /><path
               d="m 3574.629,7322.252 c -0.228,0 -0.449,0.026 -0.661,0.072 -0.674,-2.871 -2.887,-4.975 -5.511,-4.975 -0.085,0 -0.163,0 -0.244,0.01 v 8.372 h 3.629 2.184 3.389 c 0.049,-0.208 0.075,-0.43 0.075,-0.65 0,-1.562 -1.279,-2.826 -2.861,-2.826 z"
               id="path13477"
               inkscape:connector-curvature="0"
               style="opacity:0.2" /></g></g><g
           id="g13537"><path
             d="m 3573.893,7392.044 c 0,16.641 -13.486,30.124 -30.121,30.124 -16.637,0 -30.124,-13.483 -30.124,-30.124 0,-16.634 13.486,-30.124 30.124,-30.124 16.635,0 30.121,13.49 30.121,30.124 z"
             id="path13483"
             inkscape:connector-curvature="0"
             style="fill:#424242" /><path
             d="m 3571.334,7390.306 c 0,16.634 -13.486,30.124 -30.124,30.124 -16.638,0 -30.121,-13.49 -30.121,-30.124 0,-16.634 13.483,-30.124 30.121,-30.124 16.638,0 30.124,13.49 30.124,30.124 z"
             id="path13485"
             inkscape:connector-curvature="0"
             style="fill:#f7674f" /><g
             id="g13535"><path
               d="m 3541.279,7383.398 c -0.986,-0.026 -9.688,0.039 -9.701,9.798 -0.01,3.841 5.306,11.804 5.306,11.804 h 4.303 0.179 4.3 c 0,0 5.316,-7.963 5.31,-11.804 -0.013,-9.758 -8.717,-9.824 -9.697,-9.798 z"
               id="path13487"
               inkscape:connector-curvature="0"
               style="fill:#fff064" /><g
               id="g13491"><path
                 d="m 3542.5,7405.267 c 0,-0.02 -0.397,-1.823 -0.43,-5.188 -0.01,-0.971 0.075,-1.706 0.237,-2.207 -0.215,0.039 -0.462,0.045 -0.732,-0.01 -0.208,-0.039 -0.338,-0.117 -0.42,-0.208 -0.231,0.169 -0.54,0.273 -0.85,0.313 0.033,0.045 0.062,0.091 0.098,0.143 0.687,1.068 0.254,6.889 0.234,7.136 l -0.276,-0.026 c 0.13,-1.653 0.342,-6.139 -0.189,-6.959 -0.068,-0.104 -0.133,-0.189 -0.192,-0.268 -0.068,0 -0.134,0 -0.195,0 -0.573,-0.025 -0.603,-0.188 -0.609,-0.24 -0.023,-0.131 0.052,-0.3 0.215,-0.365 0.153,-0.059 0.391,-0.032 0.713,0.326 0.189,-0.014 0.394,-0.053 0.586,-0.124 0.133,-0.052 0.248,-0.117 0.338,-0.188 0,-0.01 0,-0.01 0,-0.014 -0.059,-0.305 0.11,-0.637 0.247,-0.729 0.072,-0.046 0.146,-0.046 0.208,0 0.094,0.071 0.104,0.201 0.039,0.462 -0.036,0.13 -0.091,0.241 -0.169,0.339 0.056,0.064 0.146,0.11 0.273,0.137 0.313,0.059 0.589,0.025 0.817,-0.033 0.094,-0.176 0.205,-0.299 0.332,-0.377 0.225,-0.137 0.442,-0.085 0.54,-0.033 l 0.16,0.085 -0.13,0.13 c -0.02,0.02 -0.27,0.268 -0.709,0.417 -0.16,0.364 -0.299,1.035 -0.287,2.292 0.029,3.333 0.42,5.11 0.423,5.131 z m -3.041,-7.598 c 0.049,0.02 0.137,0.032 0.241,0.046 -0.101,-0.072 -0.169,-0.085 -0.208,-0.072 -0.016,0.01 -0.026,0.019 -0.033,0.026 z"
                 id="path13489"
                 inkscape:connector-curvature="0"
                 style="fill:#4f4e4f" /></g><path
               d="m 3536.885,7405 v 4.635 c 0,0.605 0.469,1.101 1.045,1.101 h 6.692 c 0.576,0 1.045,-0.495 1.045,-1.101 V 7405 Z"
               id="path13493"
               inkscape:connector-curvature="0"
               style="fill:#1e2f47" /><g
               id="g13511"><path
                 d="m 3545.667,7405.709 c 0,0.163 -0.146,0.293 -0.329,0.293 h -8.119 c -0.186,0 -0.335,-0.13 -0.335,-0.293 v 0 c 0,-0.162 0.149,-0.299 0.335,-0.299 h 8.119 c 0.183,0 0.329,0.137 0.329,0.299 z"
                 id="path13495"
                 inkscape:connector-curvature="0"
                 style="opacity:0.1;fill:#ffffff" /><path
                 d="m 3545.667,7406.9 c 0,0.163 -0.146,0.293 -0.329,0.293 h -8.119 c -0.186,0 -0.335,-0.13 -0.335,-0.293 v 0 c 0,-0.169 0.149,-0.299 0.335,-0.299 h 8.119 c 0.183,0 0.329,0.13 0.329,0.299 z"
                 id="path13497"
                 inkscape:connector-curvature="0"
                 style="opacity:0.1;fill:#ffffff" /><path
                 d="m 3545.667,7408.086 c 0,0.169 -0.146,0.299 -0.329,0.299 h -8.119 c -0.186,0 -0.335,-0.13 -0.335,-0.299 v 0 c 0,-0.163 0.149,-0.3 0.335,-0.3 h 8.119 c 0.183,0 0.329,0.137 0.329,0.3 z"
                 id="path13499"
                 inkscape:connector-curvature="0"
                 style="opacity:0.1;fill:#ffffff" /><path
                 d="m 3545.667,7409.277 c 0,0.162 -0.146,0.299 -0.329,0.299 h -8.119 c -0.186,0 -0.335,-0.137 -0.335,-0.299 v 0 c 0,-0.163 0.149,-0.293 0.335,-0.293 h 8.119 c 0.183,0 0.329,0.13 0.329,0.293 z"
                 id="path13501"
                 inkscape:connector-curvature="0"
                 style="opacity:0.1;fill:#ffffff" /><path
                 d="m 3545.667,7406.302 c 0,0.169 -0.146,0.3 -0.329,0.3 h -8.119 c -0.186,0 -0.335,-0.131 -0.335,-0.3 v 0 c 0,-0.163 0.149,-0.3 0.335,-0.3 h 8.119 c 0.183,0 0.329,0.137 0.329,0.3 z"
                 id="path13503"
                 inkscape:connector-curvature="0"
                 style="opacity:0.1" /><path
                 d="m 3545.667,7407.493 c 0,0.163 -0.146,0.293 -0.329,0.293 h -8.119 c -0.186,0 -0.335,-0.13 -0.335,-0.293 v 0 c 0,-0.163 0.149,-0.3 0.335,-0.3 h 8.119 c 0.183,0 0.329,0.137 0.329,0.3 z"
                 id="path13505"
                 inkscape:connector-curvature="0"
                 style="opacity:0.1" /><path
                 d="m 3545.667,7408.685 c 0,0.163 -0.146,0.3 -0.329,0.3 h -8.119 c -0.186,0 -0.335,-0.137 -0.335,-0.3 v 0 c 0,-0.163 0.149,-0.3 0.335,-0.3 h 8.119 c 0.183,0 0.329,0.136 0.329,0.3 z"
                 id="path13507"
                 inkscape:connector-curvature="0"
                 style="opacity:0.1" /><path
                 d="m 3545.667,7409.869 c 0,0.17 -0.146,0.3 -0.329,0.3 h -8.119 c -0.186,0 -0.335,-0.13 -0.335,-0.3 v 0 c 0,-0.162 0.149,-0.293 0.335,-0.293 h 8.119 c 0.183,0 0.329,0.131 0.329,0.293 z"
                 id="path13509"
                 inkscape:connector-curvature="0"
                 style="opacity:0.1" /></g><path
               d="m 3544.01,7383.724 c 1.387,3.105 4.648,12.266 -0.238,21.289 h 1.895 c 0,0 5.316,-7.956 5.31,-11.804 -0.01,-6.673 -4.076,-8.809 -6.967,-9.485 z"
               id="path13513"
               inkscape:connector-curvature="0"
               style="opacity:0.1" /><path
               d="m 3536.644,7391.38 c 0.186,0.515 -0.306,1.159 -1.094,1.438 -0.788,0.28 -1.572,0.078 -1.754,-0.436 -0.182,-0.521 0.306,-1.166 1.094,-1.439 0.787,-0.279 1.571,-0.084 1.754,0.437 z"
               id="path13515"
               inkscape:connector-curvature="0"
               style="opacity:0.4;fill:#ffffff" /><path
               d="m 3539.938,7387.031 c 0.352,0.996 -0.592,2.239 -2.113,2.773 -1.52,0.533 -3.034,0.156 -3.385,-0.84 -0.352,-1.003 0.592,-2.246 2.113,-2.78 1.516,-0.534 3.033,-0.156 3.385,0.847 z"
               id="path13517"
               inkscape:connector-curvature="0"
               style="opacity:0.4;fill:#ffffff" /><g
               id="g13533"><polygon
                 points="3534.57,7383.398 3526.387,7375.071 3526.689,7374.805 3534.876,7383.125 "
                 id="polygon13519"
                 style="fill:#fff064" /><polygon
                 points="3529.307,7388.334 3517.526,7386.822 3517.581,7386.426 3529.362,7387.936 "
                 id="polygon13521"
                 style="fill:#fff064" /><polygon
                 points="3529.639,7395.689 3517.995,7397.955 3517.91,7397.564 3529.554,7395.299 "
                 id="polygon13523"
                 style="fill:#fff064" /><polygon
                 points="3547.034,7383.398 3555.221,7375.071 3554.918,7374.805 3546.735,7383.125 "
                 id="polygon13525"
                 style="fill:#fff064" /><polygon
                 points="3553.118,7388.951 3564.896,7387.435 3564.84,7387.044 3553.063,7388.555 "
                 id="polygon13527"
                 style="fill:#fff064" /><polygon
                 points="3552.454,7394.759 3564.098,7397.024 3564.183,7396.634 3552.539,7394.368 "
                 id="polygon13529"
                 style="fill:#fff064" /><rect
                 x="3541.0229"
                 y="7369.8789"
                 transform="matrix(0.9999,-0.0141,0.0141,0.9999,-103.2776,50.4829)"
                 width="0.417"
                 height="11.297"
                 id="rect13531"
                 style="fill:#fff064" /></g></g></g></g><polygon
         points="3623.362,7484.817 3623.362,7223.404 3620.039,7223.404 3444.127,7474.271 3444.127,7484.817 "
         id="polygon13541"
         style="clip-rule:evenodd;opacity:0.1;fill-rule:evenodd" /></g><g
       id="g13347"
       display="inline"
       style="display:inline"
       inkscape:label="lines"
       transform="translate(-3610.4392,3244.901)"><g
         id="g13329"
         style="display:inline"><polygon
           points="3548.076,7230.449 3548.076,7222.447 3755.537,7222.447 3755.537,7322.513 3922.35,7322.513 3922.35,7330.514 3747.539,7330.514 3747.539,7230.449 "
           id="polygon13327"
           style="fill:#808000" /></g><g
         id="g13333"
         style="display:inline"><polygon
           points="3895.869,6996.002 3903.867,6996.002 3903.867,7176.49 3980.954,7176.49 3980.954,7289.817 3972.952,7289.817 3972.952,7184.492 3895.869,7184.492 "
           id="polygon13331"
           style="fill:#808000" /></g><g
         id="g13337"
         style="display:inline"><polygon
           points="4205.735,7316.016 4111.705,7316.016 4111.705,7154.681 4489.57,7154.681 4489.57,7162.682 4119.707,7162.682 4119.805,7309.615 4205.735,7309.615 "
           id="polygon13335"
           style="fill:#808000" /></g><g
         id="g13341"
         style="display:inline"><polygon
           points="4251.998,7441.653 4189.088,7395.201 4111.705,7395.201 4111.705,7312.818 4119.707,7312.818 4119.707,7387.2 4191.719,7387.2 4260,7437.617 4260,7492.818 4424.766,7492.818 4424.766,7500.82 4251.998,7500.82 "
           id="polygon13339"
           style="fill:#808000" /></g><g
         id="g13345"
         style="display:inline"><rect
           x="3989.6121"
           y="7309.6152"
           width="122.093"
           height="6.4000001"
           id="rect13343"
           style="fill:#808000" /></g></g><g
       id="g13551"
       display="inline"
       style="display:inline"
       inkscape:label="button"
       transform="translate(-3610.4392,3244.901)"><path
         d="m 4048.619,7333.008 c 0,48.072 -38.971,87.044 -87.047,87.044 -48.076,0 -87.051,-38.972 -87.051,-87.044 0,-48.073 38.975,-87.051 87.051,-87.051 48.076,0 87.047,38.978 87.047,87.051 z"
         id="path13545"
         inkscape:connector-curvature="0"
         style="fill:#0b2e44" /><path
         d="m 4026.224,7333.008 c 0,35.703 -28.948,64.648 -64.651,64.648 -35.707,0 -64.652,-28.945 -64.652,-64.648 0,-35.703 28.945,-64.648 64.652,-64.648 35.702,-10e-4 64.651,28.945 64.651,64.648 z"
         id="path13547"
         inkscape:connector-curvature="0"
         style="fill:#bababa" /><path
         d="m 4004.759,7333.008 c 0,23.848 -19.336,43.184 -43.187,43.184 -23.851,0 -43.187,-19.336 -43.187,-43.184 0,-23.854 19.336,-43.19 43.187,-43.19 23.851,0 43.187,19.335 43.187,43.19 z"
         id="path13549"
         inkscape:connector-curvature="0"
         style="fill:#0b2e44" /></g><g
       id="g13409"
       display="inline"
       style="display:inline"
       transform="translate(-3610.4392,3244.901)"><path
         d="m 4244.648,7010.494 c 0,12.748 -10.339,23.08 -23.086,23.08 h -461.631 c -12.751,0 -23.083,-10.332 -23.083,-23.08 v -285.638 c 0,-12.747 10.332,-23.079 23.083,-23.079 h 461.631 c 12.747,0 23.086,10.332 23.086,23.079 z"
         id="path13349"
         inkscape:connector-curvature="0"
         style="clip-rule:evenodd;fill:#154f77;fill-rule:evenodd" /><rect
         x="3759.5381"
         y="6723.665"
         width="464.38101"
         height="286.73801"
         id="rect13351"
         style="clip-rule:evenodd;fill:#0d3858;fill-rule:evenodd" /><path
         d="m 3637.545,7031.895 c -0.296,2.044 -0.465,4.153 -0.465,6.309 0,18.242 11.067,33.021 24.713,33.021 h 659.873 c 13.646,0 24.707,-14.778 24.707,-33.021 0,-2.155 -0.162,-4.265 -0.462,-6.309 z"
         id="path13353"
         inkscape:connector-curvature="0"
         style="clip-rule:evenodd;fill:#fffefe;fill-rule:evenodd" /><path
         d="m 3639.206,7051.563 c 3.841,11.575 12.5,19.661 22.588,19.661 h 659.873 c 10.092,0 18.75,-8.086 22.592,-19.661 z"
         id="path13355"
         inkscape:connector-curvature="0"
         style="opacity:0.1;fill:#bababa;fill-opacity:1" /><g
         id="g13395"><rect
           x="3783.6001"
           y="6750.521"
           width="116.27"
           height="5.7810001"
           id="rect13357"
           style="fill:#aec647" /><rect
           x="3783.6001"
           y="6767.8638"
           width="116.27"
           height="5.7810001"
           id="rect13359"
           style="fill:#f3ae1b" /><rect
           x="3783.6001"
           y="6783.9258"
           width="116.27"
           height="5.7810001"
           id="rect13361"
           style="fill:#df3f11" /><rect
           x="3783.6001"
           y="6933.1699"
           width="116.27"
           height="5.7810001"
           id="rect13363"
           style="fill:#aec647" /><rect
           x="3783.6001"
           y="6914.1138"
           width="116.27"
           height="5.7810001"
           id="rect13365"
           style="fill:#aec647" /><rect
           x="3783.6001"
           y="6952.8638"
           width="116.27"
           height="5.7810001"
           id="rect13367"
           style="fill:#aec647" /><rect
           x="3922.354"
           y="6820.54"
           width="116.266"
           height="5.7810001"
           id="rect13369"
           style="fill:#f3ae1b" /><rect
           x="3799.658"
           y="6820.54"
           width="116.27"
           height="5.7810001"
           id="rect13371"
           style="fill:#aec647" /><rect
           x="3799.658"
           y="6836.6021"
           width="116.27"
           height="5.7810001"
           id="rect13373"
           style="fill:#f3ae1b" /><rect
           x="3922.354"
           y="6836.6021"
           width="54.599998"
           height="5.7810001"
           id="rect13375"
           style="fill:#aec647" /><rect
           x="3799.658"
           y="6867.6758"
           width="116.27"
           height="5.7810001"
           id="rect13377"
           style="fill:#aec647" /><rect
           x="3922.354"
           y="6867.6758"
           width="54.599998"
           height="5.7810001"
           id="rect13379"
           style="fill:#f3ae1b" /><rect
           x="4061.106"
           y="6852.0181"
           width="54.597"
           height="5.7810001"
           id="rect13381"
           style="fill:#f3ae1b" /><rect
           x="3799.658"
           y="6801.9141"
           width="251.168"
           height="5.7810001"
           id="rect13383"
           style="fill:#bcdede" /><rect
           x="3799.658"
           y="6852.0181"
           width="251.168"
           height="5.7810001"
           id="rect13385"
           style="fill:#bcdede" /><rect
           x="4061.106"
           y="6886.061"
           width="54.597"
           height="5.7810001"
           id="rect13387"
           style="fill:#aec647" /><rect
           x="3799.658"
           y="6886.061"
           width="251.168"
           height="5.7810001"
           id="rect13389"
           style="fill:#aec647" /><rect
           x="4045.0449"
           y="6968.9258"
           width="54.604"
           height="5.7810001"
           id="rect13391"
           style="fill:#c84119" /><rect
           x="3783.6001"
           y="6968.9258"
           width="251.166"
           height="5.7810001"
           id="rect13393"
           style="fill:#6bb5ce" /></g><g
         id="g13405"><path
           d="m 3789.759,7041.725 c 0,2.533 -2.047,4.577 -4.573,4.577 -2.529,0 -4.58,-2.044 -4.58,-4.577 0,-2.525 2.051,-4.576 4.58,-4.576 2.525,0 4.573,2.05 4.573,4.576 z"
           id="path13397"
           inkscape:connector-curvature="0"
           style="fill:#00d0e5" /><path
           d="m 3760.693,7041.725 c 0,2.533 -2.051,4.577 -4.577,4.577 -2.529,0 -4.58,-2.044 -4.58,-4.577 0,-2.525 2.051,-4.576 4.58,-4.576 2.527,0 4.577,2.05 4.577,4.576 z"
           id="path13399"
           inkscape:connector-curvature="0"
           style="fill:#ff81ed" /><path
           d="m 3774.983,7041.725 c 0,2.533 -2.047,4.577 -4.573,4.577 -2.529,0 -4.58,-2.044 -4.58,-4.577 0,-2.525 2.051,-4.576 4.58,-4.576 2.526,0 4.573,2.05 4.573,4.576 z"
           id="path13401"
           inkscape:connector-curvature="0"
           style="fill:#00c982" /><path
           d="m 3744.795,7041.725 c 0,2.305 -1.869,4.174 -4.177,4.174 h -35.654 c -2.301,0 -4.173,-1.869 -4.173,-4.174 v 0 c 0,-2.305 1.872,-4.173 4.173,-4.173 h 35.654 c 2.308,0 4.177,1.868 4.177,4.173 z"
           id="path13403"
           inkscape:connector-curvature="0"
           style="opacity:0.7" /></g><path
         d="m 3998.486,6712.623 c 0,3.73 -3.024,6.765 -6.758,6.765 -3.734,0 -6.761,-3.034 -6.761,-6.765 0,-3.731 3.027,-6.758 6.761,-6.758 3.734,0 6.758,3.028 6.758,6.758 z"
         id="path13407"
         inkscape:connector-curvature="0"
         style="opacity:0.4" /></g><g
       id="g13567"
       display="inline"
       style="display:inline"
       inkscape:label="push"
       transform="translate(-3610.4392,3244.901)"><path
         d="m 3867.529,7543.561 0.862,128.334 c 0,0 55.554,56.27 72.347,85.982 16.797,29.714 47.803,41.342 49.095,41.342 1.292,0 183.453,0 183.453,0 0,0 45.215,-12.917 46.511,-74.936 v -210.579 c 0,0 -27.565,-52.825 -54.265,0 h -16.797 v -32.298 c 0,0 -32.291,-50.385 -60.716,0 v 29.713 h -16.797 v -52.109 c 0,0 -32.298,-55.982 -59.427,0 v 52.109 h -18.086 v -157.617 c 0,0 -28.428,-60.716 -56.849,0 v 310.209 c 0,0 -7.969,-7.748 -13.135,-25.834 l -4.951,-60.872 c 0,0 -15.073,-62.188 -51.245,-33.444 z"
         id="path13553"
         inkscape:connector-curvature="0"
         style="fill:#f9b946" /><path
         d="m 3956.24,7328.658 c -6.228,3.301 -12.796,10.795 -19.378,24.844 v 313.939 l 19.378,-0.717 z"
         id="path13555"
         inkscape:connector-curvature="0"
         style="opacity:0.1" /><path
         d="m 4017.923,7448.372 c -2.063,3.001 -4.108,6.472 -6.126,10.638 v 52.109 h -18.086 v -157.617 c 0,0 -1.484,-3.15 -4.102,-7.291 v 2.916 169.89 h 28.313 v -70.645 z"
         id="path13557"
         inkscape:connector-curvature="0"
         style="opacity:0.1" /><path
         d="m 4091.992,7475.091 c -1.328,1.921 -2.656,3.978 -3.972,6.315 v 29.713 h -16.797 v -52.109 c 0,0 -2.278,-3.932 -6.113,-8.658 v 64.466 h 26.882 z"
         id="path13559"
         inkscape:connector-curvature="0"
         style="opacity:0.1" /><path
         d="m 4165.533,7513.704 h -16.797 v -32.298 c 0,0 -1.927,-2.988 -5.221,-6.777 v 44.388 h 27.617 v -14.837 c -1.861,2.708 -3.736,5.833 -5.599,9.524 z"
         id="path13561"
         inkscape:connector-curvature="0"
         style="opacity:0.1" /><path
         d="m 3879.153,7565.527 c -1.292,-16.146 -11.592,-18.08 -11.602,-18.086 l 0.215,31.646 h 11.387 z"
         id="path13563"
         inkscape:connector-curvature="0"
         style="opacity:0.4;fill:#ffffff" /><path
         d="m 3965,7338.002 c -9.499,0 -17.201,9.172 -17.201,20.5 h 34.401 c 0,-11.328 -7.701,-20.5 -17.2,-20.5 z"
         id="path13565"
         inkscape:connector-curvature="0"
         style="opacity:0.5;fill:#ffffff" /></g></g></svg>