<?xml version="1.0" encoding="UTF-8" standalone="no"?>
<!-- Generator: Adobe Illustrator 16.0.0, SVG Export Plug-In . SVG Version: 6.00 Build 0)  -->

<svg
   xmlns:dc="http://purl.org/dc/elements/1.1/"
   xmlns:cc="http://creativecommons.org/ns#"
   xmlns:rdf="http://www.w3.org/1999/02/22-rdf-syntax-ns#"
   xmlns:svg="http://www.w3.org/2000/svg"
   xmlns="http://www.w3.org/2000/svg"
   xmlns:sodipodi="http://sodipodi.sourceforge.net/DTD/sodipodi-0.dtd"
   xmlns:inkscape="http://www.inkscape.org/namespaces/inkscape"
   version="1.1"
   x="0px"
   y="0px"
   width="1300"
   height="1300"
   viewBox="0 0 1300 1300"
   enable-background="new 0 0 8000 8000"
   xml:space="preserve"
   id="svg6957"
   sodipodi:docname="usecase-banking.svg"
   inkscape:version="0.92.2 5c3e80d, 2017-08-06"><metadata
     id="metadata6963"><rdf:RDF><cc:Work
         rdf:about=""><dc:format>image/svg+xml</dc:format><dc:type
           rdf:resource="http://purl.org/dc/dcmitype/StillImage" /><dc:title /></cc:Work></rdf:RDF></metadata><defs
     id="defs6961" /><sodipodi:namedview
     pagecolor="#ffffff"
     bordercolor="#666666"
     borderopacity="1"
     objecttolerance="10"
     gridtolerance="10"
     guidetolerance="10"
     inkscape:pageopacity="0"
     inkscape:pageshadow="2"
     inkscape:window-width="1920"
     inkscape:window-height="983"
     id="namedview6959"
     showgrid="false"
     inkscape:zoom="0.3337544"
     inkscape:cx="1001.904"
     inkscape:cy="772.60495"
     inkscape:window-x="0"
     inkscape:window-y="1"
     inkscape:window-maximized="1"
     inkscape:current-layer="svg6957" /><g
     id="Layer_6"
     transform="translate(0,-6700)"><circle
       id="Background_2_26_"
       cx="627.06702"
       cy="7380.0269"
       r="531.99902"
       style="fill:#e8e8e8" /><g
       id="Acces_3_"
       transform="translate(-2234.1878,4241.6369)"><path
         d="m 2858.372,3277.048 h 122.455 l 52.666,121.797 v 283.75 h -251.488 v -51.354 c 0,0 -99.889,-72.441 -107.129,-130.378 0,0 32.975,-4.688 125.804,-6.003 92.829,-1.314 100.485,-51.907 151.836,-80.215 l -17.777,-59.251 c 0,0 -73.731,1.966 -76.367,-78.346 z"
         id="path6203"
         inkscape:connector-curvature="0"
         style="fill:#e2c59d" /><path
         d="m 2696.038,3199.933 c -6.67,11.256 -25.026,12.721 -40.996,3.268 l -42.178,-24.974 c -15.97,-9.46 -23.512,-26.257 -16.846,-37.52 l 4.027,-6.797 c 6.667,-11.263 25.022,-12.728 40.996,-3.268 l 42.174,24.974 c 15.973,9.453 23.516,26.25 16.846,37.513 z"
         id="path6205"
         inkscape:connector-curvature="0"
         style="fill:#f9d5a5" /><path
         d="m 2675.722,3505.831 c 1.377,6.549 3.832,13.242 7.113,19.967 h 263.558 l 10.576,-52.402 h -70.046 l -7.236,0.645 c -18.157,11.797 -41.702,20.287 -79.007,20.82 -65.316,0.925 -100.97,3.516 -116.384,4.975 z"
         id="path6207"
         inkscape:connector-curvature="0"
         style="opacity:0.2" /><path
         d="m 2683.215,3155.616 -14.206,-8.412 v 61.426 c 11.549,2.357 22.269,-0.664 27.028,-8.697 l 4.023,-6.804 c 6.671,-11.263 -0.872,-28.06 -16.845,-37.513 z"
         id="path6209"
         inkscape:connector-curvature="0"
         style="opacity:0.1" /><g
         id="Phone_7_"><path
           d="m 2985.646,3498.246 c 0,10.13 -8.212,18.347 -18.339,18.347 H 2693.03 c -10.127,0 -18.34,-8.217 -18.34,-18.347 v -504.362 c 0,-10.13 8.213,-18.34 18.34,-18.34 h 274.277 c 10.127,0 18.339,8.209 18.339,18.34 z"
           id="path6211"
           inkscape:connector-curvature="0"
           style="clip-rule:evenodd;fill:#0b2e44;fill-rule:evenodd" /><rect
           x="2703.3721"
           y="3039.7371"
           width="253.597"
           height="369.86301"
           id="rect6213"
           style="clip-rule:evenodd;opacity:0.8;fill:#39c3de;fill-rule:evenodd" /><polygon
           points="2952.262,3039.737 2703.372,3394.679 2703.372,3409.601 2956.969,3409.601 2956.969,3039.737 "
           id="polygon6215"
           style="clip-rule:evenodd;opacity:0.1;fill-rule:evenodd" /></g><g
         id="g6262"><rect
           x="2703.3721"
           y="3039.7371"
           width="253.597"
           height="369.86301"
           id="rect6218"
           style="fill:#efefef" /><rect
           x="2703.3721"
           y="3039.7371"
           width="253.597"
           height="52.251999"
           id="rect6220"
           style="fill:#4dabcf" /><rect
           x="2703.3721"
           y="3138.3899"
           width="253.597"
           height="94.400002"
           id="rect6222"
           style="fill:#d8472a" /><rect
           x="2718.856"
           y="3256.2539"
           width="27.201"
           height="27.200001"
           id="rect6224"
           style="fill:#d8472a" /><rect
           x="2718.856"
           y="3308.259"
           width="27.201"
           height="27.201"
           id="rect6226"
           style="fill:#d8472a" /><rect
           x="2718.856"
           y="3361.228"
           width="27.201"
           height="27.201"
           id="rect6228"
           style="fill:#d8472a" /><g
           id="g6238"><rect
             x="2765.52"
             y="3256.2539"
             width="126.67"
             height="2.937"
             id="rect6230"
             style="fill:#0093a2" /><rect
             x="2765.52"
             y="3263.4541"
             width="126.67"
             height="3.471"
             id="rect6232"
             style="fill:#0093a2" /><rect
             x="2765.52"
             y="3272.5171"
             width="126.67"
             height="2.9300001"
             id="rect6234"
             style="fill:#0093a2" /><rect
             x="2765.52"
             y="3280.5239"
             width="126.67"
             height="2.9300001"
             id="rect6236"
             style="fill:#0093a2" /></g><g
           id="g6248"><rect
             x="2765.52"
             y="3308.259"
             width="126.67"
             height="2.9300001"
             id="rect6240"
             style="fill:#0093a2" /><rect
             x="2765.52"
             y="3315.46"
             width="126.67"
             height="3.4630001"
             id="rect6242"
             style="fill:#0093a2" /><rect
             x="2765.52"
             y="3324.5161"
             width="126.67"
             height="2.937"
             id="rect6244"
             style="fill:#0093a2" /><rect
             x="2765.52"
             y="3332.5229"
             width="126.67"
             height="2.937"
             id="rect6246"
             style="fill:#0093a2" /></g><g
           id="g6258"><rect
             x="2765.52"
             y="3361.228"
             width="126.67"
             height="2.937"
             id="rect6250"
             style="fill:#0093a2" /><rect
             x="2765.52"
             y="3368.429"
             width="126.67"
             height="3.47"
             id="rect6252"
             style="fill:#0093a2" /><rect
             x="2765.52"
             y="3377.491"
             width="126.67"
             height="2.9300001"
             id="rect6254"
             style="fill:#0093a2" /><rect
             x="2765.52"
             y="3385.499"
             width="126.67"
             height="2.9300001"
             id="rect6256"
             style="fill:#0093a2" /></g><path
           d="m 2873.372,3185.59 c 0,23.86 -19.342,43.196 -43.2,43.196 -23.861,0 -43.2,-19.336 -43.2,-43.196 0,-23.86 19.339,-43.203 43.2,-43.203 23.857,0 43.2,19.342 43.2,43.203 z"
           id="path6260"
           inkscape:connector-curvature="0"
           style="fill:#e2614b" /></g><path
         d="m 3059.352,3398.845 -52.666,-121.797 h -122.455 c 2.637,80.313 76.367,78.347 76.367,78.347 l 17.777,59.251 c -51.351,28.308 -60.57,103.359 -60.57,103.359 0,0 -17.682,102.436 47.923,164.59 h 93.623 v -283.75 z"
         id="path6264"
         inkscape:connector-curvature="0"
         style="fill:#f9d5a5" /><g
         id="g6270"><path
           d="m 2696.038,3284.86 c -6.67,11.264 -21.208,14.98 -32.471,8.314 l -29.74,-17.611 c -11.263,-6.666 -14.987,-21.204 -8.317,-32.467 l 4.023,-6.797 c 6.67,-11.264 21.208,-14.987 32.471,-8.32 l 29.74,17.61 c 11.263,6.667 14.987,21.204 8.317,32.468 z"
           id="path6266"
           inkscape:connector-curvature="0"
           style="fill:#f9d5a5" /><path
           d="m 2688.473,3249.249 -2.875,-1.699 -22.813,39.16 2.594,1.543 c 9.232,5.462 21.146,2.408 26.611,-6.816 l 3.298,-5.58 c 5.466,-9.225 2.413,-21.139 -6.815,-26.608 z"
           id="path6268"
           inkscape:connector-curvature="0"
           style="opacity:0.5;fill:#ffffff" /></g><g
         id="g6276"><path
           d="m 2696.038,3363.2 c -6.67,11.264 -21.208,14.987 -32.471,8.32 l -29.74,-17.61 c -11.263,-6.667 -14.987,-21.204 -8.317,-32.468 l 4.023,-6.797 c 6.67,-11.263 21.208,-14.986 32.471,-8.32 l 29.74,17.611 c 11.263,6.666 14.987,21.204 8.317,32.467 z"
           id="path6272"
           inkscape:connector-curvature="0"
           style="fill:#f9d5a5" /><path
           d="m 2688.473,3327.595 -2.875,-1.705 -22.813,39.166 2.594,1.537 c 9.232,5.469 21.146,2.415 26.611,-6.816 l 3.298,-5.573 c 5.466,-9.232 2.413,-21.146 -6.815,-26.609 z"
           id="path6274"
           inkscape:connector-curvature="0"
           style="opacity:0.5;fill:#ffffff" /></g><g
         id="g6282"><path
           d="m 2690.129,3435.251 c -5.485,9.265 -17.438,12.324 -26.699,6.843 l -24.457,-14.479 c -9.258,-5.481 -12.321,-17.435 -6.839,-26.699 l 3.307,-5.586 c 5.485,-9.258 17.438,-12.324 26.699,-6.836 l 24.457,14.473 c 9.258,5.488 12.321,17.441 6.839,26.699 z"
           id="path6278"
           inkscape:connector-curvature="0"
           style="fill:#f9d5a5" /><path
           d="m 2683.905,3405.974 -2.363,-1.393 -18.756,32.2 2.135,1.263 c 7.588,4.492 17.386,1.986 21.878,-5.605 l 2.711,-4.583 c 4.496,-7.591 1.987,-17.383 -5.605,-21.882 z"
           id="path6280"
           inkscape:connector-curvature="0"
           style="opacity:0.5;fill:#ffffff" /></g><path
         d="m 2937.288,3278.591 c 0,-0.521 -0.045,-1.035 -0.104,-1.543 h -46.205 c -0.062,0.508 -0.107,1.022 -0.107,1.543 0,9.636 10.394,17.448 23.207,17.448 12.818,0 23.209,-7.812 23.209,-17.448 z"
         id="path6284"
         inkscape:connector-curvature="0"
         style="opacity:0.5;fill:#ffffff" /><g
         id="g6312"><path
           d="m 2787.682,3173.2 v 28.398 c 0,10.605 8.597,19.199 19.199,19.199 h 46.579 c 10.602,0 19.199,-8.594 19.199,-19.199 V 3173.2 Z"
           id="path6286"
           inkscape:connector-curvature="0"
           style="fill:#0b2e44" /><path
           d="m 2797.151,3208.07 c 0,1.101 -0.898,1.999 -2.002,1.999 v 0 c -1.107,0 -1.999,-0.898 -1.999,-1.999 v -26.934 c 0,-1.106 0.892,-2.005 1.999,-2.005 v 0 c 1.104,0 2.002,0.898 2.002,2.005 z"
           id="path6288"
           inkscape:connector-curvature="0"
           style="opacity:0.7;fill:#ffffff" /><path
           d="m 2801.148,3208.07 c 0,1.101 -0.896,1.999 -1.999,1.999 v 0 c -1.106,0 -1.999,-0.898 -1.999,-1.999 v -26.934 c 0,-1.106 0.892,-2.005 1.999,-2.005 v 0 c 1.104,0 1.999,0.898 1.999,2.005 z"
           id="path6290"
           inkscape:connector-curvature="0"
           style="opacity:0.7" /><path
           d="m 2816.75,3208.07 c 0,1.101 -0.898,1.999 -2.002,1.999 v 0 c -1.104,0 -1.999,-0.898 -1.999,-1.999 v -26.934 c 0,-1.106 0.895,-2.005 1.999,-2.005 v 0 c 1.104,0 2.002,0.898 2.002,2.005 z"
           id="path6292"
           inkscape:connector-curvature="0"
           style="opacity:0.7" /><path
           d="m 2832.35,3208.07 c 0,1.101 -0.898,1.999 -1.999,1.999 v 0 c -1.106,0 -2.002,-0.898 -2.002,-1.999 v -26.934 c 0,-1.106 0.896,-2.005 2.002,-2.005 v 0 c 1.101,0 1.999,0.898 1.999,2.005 z"
           id="path6294"
           inkscape:connector-curvature="0"
           style="opacity:0.7" /><path
           d="m 2849.016,3208.07 c 0,1.101 -0.895,1.999 -2.002,1.999 v 0 c -1.104,0 -1.999,-0.898 -1.999,-1.999 v -26.934 c 0,-1.106 0.895,-2.005 1.999,-2.005 v 0 c 1.107,0 2.002,0.898 2.002,2.005 z"
           id="path6296"
           inkscape:connector-curvature="0"
           style="opacity:0.7" /><path
           d="m 2865.396,3208.07 c 0,1.101 -0.892,1.999 -1.999,1.999 v 0 c -1.104,0 -1.999,-0.898 -1.999,-1.999 v -26.934 c 0,-1.106 0.895,-2.005 1.999,-2.005 v 0 c 1.107,0 1.999,0.898 1.999,2.005 z"
           id="path6298"
           inkscape:connector-curvature="0"
           style="opacity:0.7" /><path
           d="m 2812.75,3208.07 c 0,1.101 -0.898,1.999 -2.002,1.999 v 0 c -1.104,0 -1.999,-0.898 -1.999,-1.999 v -26.934 c 0,-1.106 0.896,-2.005 1.999,-2.005 v 0 c 1.104,0 2.002,0.898 2.002,2.005 z"
           id="path6300"
           inkscape:connector-curvature="0"
           style="opacity:0.7;fill:#ffffff" /><path
           d="m 2828.349,3208.07 c 0,1.101 -0.895,1.999 -1.999,1.999 v 0 c -1.107,0 -2.002,-0.898 -2.002,-1.999 v -26.934 c 0,-1.106 0.895,-2.005 2.002,-2.005 v 0 c 1.104,0 1.999,0.898 1.999,2.005 z"
           id="path6302"
           inkscape:connector-curvature="0"
           style="opacity:0.7;fill:#ffffff" /><path
           d="m 2845.016,3208.07 c 0,1.101 -0.896,1.999 -2.002,1.999 v 0 c -1.104,0 -1.999,-0.898 -1.999,-1.999 v -26.934 c 0,-1.106 0.896,-2.005 1.999,-2.005 v 0 c 1.106,0 2.002,0.898 2.002,2.005 z"
           id="path6304"
           inkscape:connector-curvature="0"
           style="opacity:0.7;fill:#ffffff" /><path
           d="m 2861.399,3208.07 c 0,1.101 -0.895,1.999 -2.002,1.999 v 0 c -1.104,0 -1.999,-0.898 -1.999,-1.999 v -26.934 c 0,-1.106 0.895,-2.005 1.999,-2.005 v 0 c 1.107,0 2.002,0.898 2.002,2.005 z"
           id="path6306"
           inkscape:connector-curvature="0"
           style="opacity:0.7;fill:#ffffff" /><path
           d="m 2879.55,3168.754 c 0,2.683 -2.174,4.856 -4.854,4.856 h -89.053 c -2.679,0 -4.85,-2.174 -4.85,-4.856 v 0 c 0,-2.676 2.171,-4.851 4.85,-4.851 h 89.053 c 2.679,0 4.854,2.175 4.854,4.851 z"
           id="path6308"
           inkscape:connector-curvature="0"
           style="fill:#19475e" /><path
           d="m 2865.575,3153.227 c 0.388,1.921 -0.859,3.789 -2.776,4.18 l -63.851,12.858 c -1.924,0.391 -3.795,-0.854 -4.183,-2.773 v 0 c -0.384,-1.928 0.859,-3.796 2.78,-4.18 l 63.851,-12.865 c 1.92,-0.384 3.792,0.859 4.179,2.78 z"
           id="path6310"
           inkscape:connector-curvature="0"
           style="fill:#0b2e44" /></g></g><g
       id="Search_4_"
       transform="translate(-2234.1878,4241.6369)"><path
         d="m 2932.528,3070.089 c 0,4.03 -3.268,7.298 -7.298,7.298 h -192.295 c -4.033,0 -7.302,-3.268 -7.302,-7.298 v -3.789 c 0,-4.03 3.269,-7.298 7.302,-7.298 h 192.295 c 4.03,0 7.298,3.268 7.298,7.298 z"
         id="path6315"
         inkscape:connector-curvature="0"
         style="fill:#eae8e8" /><path
         d="m 2925.23,3059.001 h -35.524 v 18.385 h 35.524 c 4.03,0 7.298,-3.268 7.298,-7.298 v -3.789 c 0,-4.029 -3.268,-7.298 -7.298,-7.298 z"
         id="path6317"
         inkscape:connector-curvature="0"
         style="fill:#0898af" /><g
         id="g6339"><path
           d="m 2737.975,3065.837 c -0.15,0.169 -0.319,0.352 -0.508,0.553 -0.192,0.202 -0.391,0.41 -0.599,0.619 -0.205,0.215 -0.41,0.423 -0.615,0.625 -0.202,0.208 -0.397,0.397 -0.576,0.573 0.208,0.144 0.43,0.326 0.664,0.541 0.234,0.208 0.462,0.436 0.687,0.684 0.221,0.241 0.433,0.488 0.631,0.742 0.195,0.254 0.361,0.495 0.492,0.723 h -0.833 c -0.143,-0.228 -0.313,-0.456 -0.504,-0.69 -0.189,-0.228 -0.388,-0.449 -0.599,-0.664 -0.215,-0.208 -0.426,-0.404 -0.645,-0.586 -0.215,-0.176 -0.426,-0.332 -0.631,-0.462 v 2.402 h -0.707 v -5.059 h 0.707 v 2.24 c 0.172,-0.169 0.358,-0.345 0.563,-0.547 0.205,-0.202 0.407,-0.404 0.605,-0.612 0.199,-0.202 0.391,-0.397 0.566,-0.586 0.176,-0.188 0.326,-0.352 0.449,-0.495 h 0.853 z"
           id="path6319"
           inkscape:connector-curvature="0"
           style="fill:#3f3f3f" /><path
           d="m 2738.821,3070.896 v -5.059 h 3.089 v 0.605 h -2.38 v 1.504 h 2.116 v 0.592 h -2.116 v 1.751 h 2.562 v 0.605 h -3.271 z"
           id="path6321"
           inkscape:connector-curvature="0"
           style="fill:#3f3f3f" /><path
           d="m 2744.192,3070.896 v -2.031 c -0.332,-0.514 -0.648,-1.029 -0.947,-1.537 -0.296,-0.508 -0.576,-1.002 -0.84,-1.491 h 0.833 c 0.182,0.397 0.391,0.807 0.622,1.217 0.228,0.41 0.465,0.808 0.707,1.185 0.241,-0.377 0.472,-0.775 0.703,-1.185 0.228,-0.41 0.436,-0.82 0.625,-1.217 h 0.791 c -0.267,0.488 -0.547,0.983 -0.843,1.484 -0.296,0.508 -0.609,1.016 -0.941,1.53 v 2.044 h -0.71 z"
           id="path6323"
           inkscape:connector-curvature="0"
           style="fill:#3f3f3f" /><path
           d="m 2751.809,3067.465 c -0.205,0.651 -0.414,1.257 -0.622,1.81 -0.208,0.56 -0.42,1.094 -0.628,1.621 h -0.709 c -0.257,-0.742 -0.485,-1.53 -0.681,-2.357 -0.198,-0.827 -0.381,-1.725 -0.553,-2.702 h 0.746 c 0.068,0.384 0.14,0.762 0.211,1.139 0.075,0.384 0.15,0.749 0.228,1.107 0.078,0.358 0.156,0.697 0.234,1.022 0.075,0.332 0.156,0.632 0.241,0.912 0.192,-0.514 0.4,-1.074 0.619,-1.686 0.218,-0.612 0.423,-1.244 0.615,-1.895 h 0.612 c 0.189,0.651 0.397,1.282 0.619,1.895 0.225,0.612 0.436,1.172 0.631,1.686 0.075,-0.273 0.153,-0.573 0.231,-0.898 0.078,-0.325 0.153,-0.67 0.231,-1.029 0.075,-0.358 0.146,-0.729 0.221,-1.106 0.075,-0.384 0.143,-0.762 0.215,-1.146 h 0.719 c -0.172,0.977 -0.361,1.875 -0.56,2.702 -0.195,0.827 -0.42,1.615 -0.674,2.357 h -0.707 c -0.215,-0.527 -0.426,-1.061 -0.628,-1.621 -0.204,-0.554 -0.409,-1.16 -0.611,-1.811 z"
           id="path6325"
           inkscape:connector-curvature="0"
           style="fill:#3f3f3f" /><path
           d="m 2755.5,3068.363 c 0,-0.43 0.065,-0.813 0.195,-1.146 0.127,-0.332 0.303,-0.605 0.524,-0.827 0.222,-0.221 0.479,-0.391 0.775,-0.501 0.293,-0.111 0.605,-0.169 0.938,-0.169 0.326,0 0.635,0.059 0.921,0.169 0.293,0.11 0.547,0.28 0.762,0.501 0.221,0.222 0.397,0.495 0.524,0.827 0.13,0.332 0.192,0.716 0.192,1.146 0,0.437 -0.062,0.814 -0.192,1.146 -0.127,0.332 -0.303,0.605 -0.524,0.833 -0.215,0.221 -0.469,0.384 -0.762,0.495 -0.287,0.111 -0.596,0.169 -0.921,0.169 -0.332,0 -0.645,-0.059 -0.938,-0.169 -0.296,-0.111 -0.553,-0.273 -0.775,-0.495 -0.221,-0.228 -0.397,-0.501 -0.524,-0.833 -0.13,-0.332 -0.195,-0.709 -0.195,-1.146 z m 0.746,0 c 0,0.306 0.039,0.586 0.117,0.833 0.078,0.254 0.188,0.469 0.329,0.645 0.146,0.176 0.319,0.306 0.527,0.404 0.208,0.098 0.439,0.143 0.7,0.143 0.257,0 0.485,-0.045 0.69,-0.143 0.205,-0.098 0.381,-0.228 0.524,-0.404 0.14,-0.176 0.254,-0.391 0.332,-0.645 0.078,-0.248 0.117,-0.527 0.117,-0.833 0,-0.306 -0.039,-0.586 -0.117,-0.833 -0.078,-0.248 -0.192,-0.469 -0.332,-0.638 -0.143,-0.176 -0.319,-0.313 -0.524,-0.41 -0.205,-0.091 -0.433,-0.137 -0.69,-0.137 -0.26,0 -0.491,0.045 -0.7,0.137 -0.208,0.098 -0.381,0.234 -0.527,0.41 -0.14,0.169 -0.25,0.391 -0.329,0.638 -0.078,0.247 -0.117,0.528 -0.117,0.833 z"
           id="path6327"
           inkscape:connector-curvature="0"
           style="fill:#3f3f3f" /><path
           d="m 2763.86,3068.78 c 0.078,0.098 0.176,0.221 0.293,0.384 0.121,0.163 0.244,0.332 0.371,0.527 0.127,0.189 0.25,0.391 0.375,0.599 0.124,0.208 0.231,0.41 0.319,0.605 h -0.775 c -0.098,-0.182 -0.202,-0.371 -0.319,-0.56 -0.114,-0.188 -0.228,-0.371 -0.345,-0.54 -0.117,-0.176 -0.234,-0.339 -0.348,-0.488 -0.114,-0.15 -0.215,-0.287 -0.309,-0.397 -0.062,0.01 -0.127,0.01 -0.192,0.01 -0.065,0 -0.133,0 -0.202,0 h -0.635 v 1.979 h -0.709 v -4.987 c 0.202,-0.046 0.423,-0.078 0.67,-0.098 0.244,-0.013 0.469,-0.02 0.674,-0.02 0.709,0 1.253,0.13 1.625,0.397 0.372,0.267 0.557,0.664 0.557,1.198 0,0.339 -0.088,0.625 -0.264,0.859 -0.181,0.242 -0.441,0.418 -0.786,0.535 z m -1.074,-2.37 c -0.303,0 -0.534,0.01 -0.693,0.02 v 1.908 h 0.504 c 0.241,0 0.462,-0.013 0.658,-0.039 0.192,-0.026 0.358,-0.065 0.492,-0.137 0.133,-0.072 0.237,-0.163 0.309,-0.293 0.072,-0.117 0.111,-0.287 0.111,-0.488 0,-0.189 -0.039,-0.352 -0.111,-0.475 -0.072,-0.13 -0.172,-0.228 -0.296,-0.3 -0.12,-0.071 -0.27,-0.124 -0.436,-0.156 -0.171,-0.027 -0.349,-0.04 -0.538,-0.04 z"
           id="path6329"
           inkscape:connector-curvature="0"
           style="fill:#3f3f3f" /><path
           d="m 2770.129,3068.363 c 0,0.443 -0.068,0.82 -0.205,1.146 -0.137,0.326 -0.329,0.586 -0.576,0.801 -0.247,0.215 -0.547,0.371 -0.892,0.475 -0.345,0.104 -0.726,0.156 -1.139,0.156 -0.202,0 -0.43,-0.01 -0.674,-0.026 -0.244,-0.02 -0.469,-0.052 -0.667,-0.098 v -4.909 c 0.199,-0.046 0.423,-0.078 0.667,-0.098 0.244,-0.013 0.472,-0.02 0.674,-0.02 0.414,0 0.794,0.045 1.139,0.156 0.345,0.098 0.645,0.26 0.892,0.475 0.248,0.208 0.439,0.475 0.576,0.801 0.137,0.321 0.205,0.705 0.205,1.141 z m -2.754,1.96 c 0.674,0 1.175,-0.176 1.504,-0.515 0.332,-0.345 0.498,-0.827 0.498,-1.445 0,-0.618 -0.166,-1.1 -0.498,-1.438 -0.329,-0.345 -0.83,-0.515 -1.504,-0.515 -0.199,0 -0.352,0 -0.462,0.01 -0.11,0.01 -0.186,0.01 -0.228,0.013 v 3.867 c 0.042,0.01 0.117,0.013 0.228,0.02 0.111,0 0.264,0.01 0.462,0.01 z"
           id="path6331"
           inkscape:connector-curvature="0"
           style="fill:#3f3f3f" /><path
           d="m 2771.698,3070.505 c 0,0.13 -0.045,0.241 -0.13,0.345 -0.091,0.091 -0.208,0.143 -0.358,0.143 -0.149,0 -0.27,-0.052 -0.358,-0.143 -0.088,-0.104 -0.13,-0.215 -0.13,-0.345 0,-0.137 0.042,-0.248 0.13,-0.345 0.088,-0.097 0.208,-0.143 0.358,-0.143 0.15,0 0.267,0.045 0.358,0.143 0.085,0.098 0.13,0.209 0.13,0.345 z"
           id="path6333"
           inkscape:connector-curvature="0"
           style="fill:#3f3f3f" /><path
           d="m 2773.492,3070.505 c 0,0.13 -0.042,0.241 -0.13,0.345 -0.088,0.091 -0.205,0.143 -0.358,0.143 -0.15,0 -0.271,-0.052 -0.358,-0.143 -0.088,-0.104 -0.13,-0.215 -0.13,-0.345 0,-0.137 0.042,-0.248 0.13,-0.345 0.088,-0.097 0.208,-0.143 0.358,-0.143 0.153,0 0.27,0.045 0.358,0.143 0.088,0.098 0.13,0.209 0.13,0.345 z"
           id="path6335"
           inkscape:connector-curvature="0"
           style="fill:#3f3f3f" /><path
           d="m 2775.289,3070.505 c 0,0.13 -0.042,0.241 -0.13,0.345 -0.088,0.091 -0.208,0.143 -0.358,0.143 -0.15,0 -0.271,-0.052 -0.358,-0.143 -0.088,-0.104 -0.13,-0.215 -0.13,-0.345 0,-0.137 0.042,-0.248 0.13,-0.345 0.088,-0.097 0.208,-0.143 0.358,-0.143 0.149,0 0.27,0.045 0.358,0.143 0.088,0.098 0.13,0.209 0.13,0.345 z"
           id="path6337"
           inkscape:connector-curvature="0"
           style="fill:#3f3f3f" /></g><g
         id="g6357"><path
           d="m 2897.073,3065.538 v 0.612 h -1.595 v 4.44 h -0.706 v -4.44 h -1.592 v -0.612 z"
           id="path6341"
           inkscape:connector-curvature="0"
           style="fill:#e0e0e0" /><path
           d="m 2899.228,3070.59 v -2.024 c -0.335,-0.521 -0.647,-1.035 -0.944,-1.543 -0.297,-0.508 -0.58,-1.003 -0.84,-1.484 h 0.83 c 0.186,0.397 0.394,0.801 0.619,1.211 0.231,0.41 0.469,0.807 0.713,1.185 0.234,-0.377 0.469,-0.774 0.7,-1.185 0.225,-0.41 0.436,-0.814 0.628,-1.211 h 0.788 c -0.267,0.481 -0.543,0.977 -0.84,1.484 -0.296,0.501 -0.612,1.009 -0.944,1.523 v 2.044 z"
           id="path6343"
           inkscape:connector-curvature="0"
           style="fill:#e0e0e0" /><path
           d="m 2903.733,3065.486 c 0.713,0 1.256,0.13 1.641,0.404 0.381,0.267 0.573,0.67 0.573,1.204 0,0.293 -0.052,0.541 -0.159,0.749 -0.104,0.208 -0.251,0.377 -0.449,0.508 -0.199,0.13 -0.437,0.221 -0.72,0.28 -0.283,0.059 -0.602,0.084 -0.954,0.084 h -0.563 v 1.875 h -0.71 v -4.98 c 0.199,-0.052 0.423,-0.084 0.667,-0.104 0.248,-0.014 0.472,-0.02 0.674,-0.02 z m 0.059,0.618 c -0.303,0 -0.531,0.01 -0.69,0.02 v 1.985 h 0.53 c 0.241,0 0.462,-0.013 0.658,-0.045 0.196,-0.032 0.358,-0.084 0.495,-0.163 0.13,-0.072 0.234,-0.176 0.306,-0.306 0.075,-0.137 0.111,-0.299 0.111,-0.508 0,-0.195 -0.039,-0.352 -0.111,-0.482 -0.078,-0.124 -0.179,-0.228 -0.306,-0.299 -0.13,-0.078 -0.283,-0.13 -0.449,-0.156 -0.173,-0.033 -0.353,-0.046 -0.544,-0.046 z"
           id="path6345"
           inkscape:connector-curvature="0"
           style="fill:#e0e0e0" /><path
           d="m 2906.829,3070.59 v -5.052 h 3.089 v 0.605 h -2.38 v 1.497 h 2.116 v 0.593 h -2.116 v 1.758 h 2.562 v 0.599 z"
           id="path6347"
           inkscape:connector-curvature="0"
           style="fill:#e0e0e0" /><path
           d="m 2916.063,3065.538 v 0.612 h -1.592 v 4.44 h -0.706 v -4.44 h -1.595 v -0.612 z"
           id="path6349"
           inkscape:connector-curvature="0"
           style="fill:#e0e0e0" /><path
           d="m 2916.809,3070.59 v -5.052 h 3.086 v 0.605 h -2.379 v 1.497 h 2.116 v 0.593 h -2.116 v 1.758 h 2.562 v 0.599 z"
           id="path6351"
           inkscape:connector-curvature="0"
           style="fill:#e0e0e0" /><path
           d="m 2924.013,3070.59 c -0.075,-0.143 -0.159,-0.306 -0.26,-0.481 -0.104,-0.176 -0.218,-0.365 -0.338,-0.56 -0.124,-0.189 -0.248,-0.377 -0.381,-0.573 -0.13,-0.195 -0.257,-0.371 -0.378,-0.547 -0.124,0.176 -0.25,0.352 -0.381,0.547 -0.133,0.195 -0.257,0.384 -0.377,0.573 -0.121,0.195 -0.228,0.384 -0.332,0.56 -0.107,0.176 -0.192,0.338 -0.27,0.481 h -0.781 c 0.221,-0.423 0.475,-0.859 0.765,-1.302 0.29,-0.443 0.599,-0.898 0.921,-1.367 l -1.618,-2.383 h 0.817 l 1.25,1.881 1.23,-1.881 h 0.811 l -1.588,2.356 c 0.329,0.469 0.641,0.931 0.931,1.38 0.293,0.443 0.55,0.885 0.778,1.315 h -0.799 z"
           id="path6353"
           inkscape:connector-curvature="0"
           style="fill:#e0e0e0" /><path
           d="m 2929.052,3065.538 v 0.612 h -1.585 v 4.44 h -0.71 v -4.44 h -1.592 v -0.612 z"
           id="path6355"
           inkscape:connector-curvature="0"
           style="fill:#e0e0e0" /></g><path
         d="m 2927.975,3062.484 c 0,0.632 -0.515,1.14 -1.143,1.14 h -33.685 c -0.628,0 -1.139,-0.508 -1.139,-1.14 v 0 c 0,-0.631 0.511,-1.139 1.139,-1.139 h 33.685 c 0.628,0 1.143,0.508 1.143,1.139 z"
         id="path6359"
         inkscape:connector-curvature="0"
         style="opacity:0.2;fill:#ffffff" /></g><g
       id="Money_1_"
       style="fill:#808000"
       transform="translate(-2234.1878,4241.6369)"><path
         d="m 2790.084,3012.152 c -2.455,-5.684 -5.964,-10.527 -10.524,-14.538 -4.567,-4.004 -10.078,-7.513 -16.536,-10.521 -6.462,-3.001 -13.812,-6.061 -22.048,-9.186 -6.237,-2.227 -11.585,-4.342 -16.035,-6.348 -4.459,-2.005 -8.184,-4.173 -11.191,-6.517 -3.008,-2.337 -5.237,-4.948 -6.683,-7.845 -1.452,-2.891 -2.171,-6.23 -2.171,-10.026 0,-7.35 3.226,-12.747 9.688,-16.204 6.458,-3.451 14.033,-5.176 22.718,-5.176 10.02,0 18.594,0.95 25.723,2.838 7.125,1.895 12.36,3.73 15.7,5.514 l 5.68,-26.725 c -1.784,-0.67 -4.29,-1.445 -7.516,-2.337 -3.232,-0.885 -6.963,-1.725 -11.191,-2.506 -4.235,-0.775 -8.799,-1.445 -13.698,-2.005 -2.871,-0.325 -5.742,-0.54 -8.61,-0.677 v -27.884 h -21.862 v 28.841 c -12.321,1.842 -22.549,5.97 -30.661,12.415 -11.361,9.017 -17.038,21.218 -17.038,36.582 0,7.8 1.335,14.362 4.007,19.707 2.676,5.345 6.234,9.916 10.693,13.698 4.45,3.789 9.736,7.077 15.866,9.856 6.126,2.787 12.526,5.515 19.209,8.184 13.806,5.573 23.718,10.58 29.733,15.033 6.012,4.459 9.02,10.469 9.02,18.041 0,7.35 -3.066,12.695 -9.186,16.035 -6.13,3.34 -15.537,5.006 -28.229,5.006 -12.92,0 -23.274,-1.328 -31.067,-4.004 -7.8,-2.676 -13.48,-4.674 -17.038,-6.016 l -5.68,26.725 c 3.115,1.341 9.02,3.294 17.705,5.847 8.379,2.467 19.893,3.737 34.486,3.828 v 28.626 h 21.862 v -29.98 c 12.484,-1.829 22.718,-5.481 30.677,-10.989 11.911,-8.236 17.874,-20.378 17.874,-36.413 0,-8.235 -1.229,-15.201 -3.677,-20.879 z"
         id="path6362"
         inkscape:connector-curvature="0"
         style="fill:#808000" /><path
         d="m 2952.574,2868.8 c -1.641,-3.789 -3.981,-7.025 -7.028,-9.707 -3.053,-2.676 -6.735,-5.02 -11.048,-7.025 -4.316,-2.012 -9.226,-4.056 -14.727,-6.139 -4.17,-1.484 -7.738,-2.904 -10.713,-4.238 -2.979,-1.341 -5.469,-2.793 -7.478,-4.355 -2.005,-1.556 -3.493,-3.308 -4.463,-5.241 -0.967,-1.934 -1.448,-4.167 -1.448,-6.692 0,-4.916 2.155,-8.516 6.471,-10.827 4.313,-2.305 9.372,-3.457 15.172,-3.457 6.696,0 12.422,0.632 17.185,1.895 4.759,1.27 8.255,2.494 10.488,3.685 l 3.795,-17.852 c -1.195,-0.449 -2.868,-0.963 -5.023,-1.563 -2.158,-0.592 -4.651,-1.152 -7.477,-1.673 -2.826,-0.521 -5.879,-0.97 -9.147,-1.341 -1.917,-0.215 -3.838,-0.365 -5.752,-0.449 v -18.626 h -14.606 v 19.264 c -8.229,1.23 -15.059,3.991 -20.481,8.294 -7.585,6.022 -11.377,14.167 -11.377,24.434 0,5.208 0.892,9.596 2.676,13.164 1.787,3.574 4.163,6.621 7.142,9.154 2.972,2.526 6.507,4.72 10.599,6.582 4.088,1.862 8.369,3.678 12.832,5.469 9.222,3.717 15.843,7.063 19.86,10.039 4.017,2.975 6.025,6.992 6.025,12.051 0,4.909 -2.047,8.477 -6.136,10.709 -4.095,2.233 -10.378,3.346 -18.857,3.346 -8.63,0 -15.547,-0.892 -20.752,-2.676 -5.212,-1.784 -9.004,-3.125 -11.384,-4.017 l -3.792,17.852 c 2.08,0.892 6.025,2.194 11.829,3.906 5.593,1.647 13.288,2.493 23.034,2.552 v 19.128 h 14.606 v -20.033 c 8.336,-1.217 15.172,-3.659 20.492,-7.337 7.956,-5.501 11.937,-13.613 11.937,-24.323 0,-5.509 -0.82,-10.158 -2.454,-13.953 z"
         id="path6364"
         inkscape:connector-curvature="0"
         style="fill:#808000" /><path
         d="m 2756.317,2688.448 c -1.305,-3.021 -3.174,-5.605 -5.602,-7.734 -2.432,-2.136 -5.368,-4.004 -8.805,-5.605 -3.441,-1.602 -7.354,-3.229 -11.742,-4.89 -3.32,-1.185 -6.166,-2.311 -8.539,-3.379 -2.37,-1.067 -4.355,-2.227 -5.957,-3.47 -1.602,-1.244 -2.786,-2.637 -3.558,-4.18 -0.772,-1.543 -1.156,-3.32 -1.156,-5.339 0,-3.913 1.719,-6.79 5.16,-8.626 3.438,-1.836 7.471,-2.761 12.096,-2.761 5.335,0 9.899,0.508 13.695,1.517 3.792,1.009 6.579,1.986 8.359,2.93 l 3.024,-14.225 c -0.951,-0.358 -2.285,-0.769 -4,-1.25 -1.722,-0.469 -3.708,-0.912 -5.96,-1.328 -2.252,-0.417 -4.688,-0.775 -7.292,-1.068 -1.53,-0.176 -3.06,-0.293 -4.583,-0.365 v -14.844 h -11.647 v 15.358 c -6.556,0.977 -12.002,3.177 -16.322,6.608 -6.048,4.805 -9.069,11.295 -9.069,19.479 0,4.147 0.709,7.644 2.132,10.495 1.423,2.845 3.317,5.273 5.69,7.292 2.373,2.019 5.188,3.763 8.45,5.248 3.259,1.484 6.67,2.936 10.228,4.355 7.35,2.969 12.63,5.631 15.83,8.008 3.203,2.37 4.801,5.573 4.801,9.603 0,3.913 -1.627,6.758 -4.889,8.542 -3.262,1.777 -8.271,2.663 -15.033,2.663 -6.878,0 -12.393,-0.709 -16.54,-2.135 -4.154,-1.419 -7.178,-2.487 -9.072,-3.197 l -3.024,14.225 c 1.66,0.716 4.801,1.751 9.427,3.119 4.46,1.309 10.593,1.986 18.363,2.031 v 15.248 h 11.641 v -15.97 c 6.647,-0.97 12.093,-2.917 16.334,-5.846 6.341,-4.388 9.515,-10.853 9.515,-19.388 0,-4.389 -0.649,-8.093 -1.955,-11.121 z"
         id="path6366"
         inkscape:connector-curvature="0"
         style="fill:#808000" /><path
         d="m 2882.737,2566.482 c -0.824,-1.908 -1.999,-3.535 -3.532,-4.876 -1.533,-1.348 -3.382,-2.526 -5.55,-3.535 -2.168,-1.009 -4.632,-2.038 -7.399,-3.079 -2.09,-0.749 -3.884,-1.458 -5.381,-2.136 -1.494,-0.67 -2.748,-1.399 -3.757,-2.181 -1.006,-0.788 -1.754,-1.66 -2.239,-2.637 -0.485,-0.97 -0.729,-2.09 -0.729,-3.359 0,-2.474 1.084,-4.284 3.249,-5.443 2.171,-1.159 4.71,-1.738 7.627,-1.738 3.362,0 6.237,0.326 8.629,0.957 2.393,0.638 4.147,1.25 5.27,1.849 l 1.904,-8.972 c -0.599,-0.221 -1.438,-0.481 -2.52,-0.781 -1.084,-0.299 -2.337,-0.579 -3.756,-0.846 -1.422,-0.254 -2.953,-0.482 -4.596,-0.67 -0.964,-0.104 -1.931,-0.176 -2.891,-0.228 v -9.355 h -7.334 v 9.681 c -4.134,0.618 -7.568,2.005 -10.293,4.167 -3.809,3.027 -5.716,7.116 -5.716,12.272 0,2.617 0.449,4.824 1.344,6.615 0.898,1.797 2.093,3.327 3.587,4.596 1.498,1.276 3.271,2.376 5.326,3.308 2.057,0.938 4.202,1.849 6.448,2.747 4.632,1.869 7.959,3.548 9.974,5.046 2.018,1.497 3.027,3.516 3.027,6.055 0,2.461 -1.029,4.258 -3.08,5.377 -2.057,1.12 -5.215,1.68 -9.476,1.68 -4.336,0 -7.81,-0.443 -10.427,-1.341 -2.614,-0.898 -4.521,-1.569 -5.716,-2.018 l -1.904,8.965 c 1.045,0.449 3.027,1.107 5.94,1.966 2.813,0.827 6.673,1.25 11.572,1.282 v 9.603 h 7.337 v -10.059 c 4.186,-0.612 7.621,-1.836 10.293,-3.685 3.998,-2.767 5.996,-6.842 5.996,-12.22 0,-2.769 -0.403,-5.099 -1.227,-7.007 z"
         id="path6368"
         inkscape:connector-curvature="0"
         style="fill:#808000" /></g><g
       id="Globe_11_"
       transform="translate(-2234.1878,4241.6369)"><g
         id="Globe_12_"><path
           d="m 3441.688,3242.088 c 0,87.682 -71.081,158.77 -158.77,158.77 -87.689,0 -158.773,-71.088 -158.773,-158.77 0,-87.689 71.084,-158.776 158.773,-158.776 87.688,0 158.77,71.086 158.77,158.776 z"
           id="path6371"
           inkscape:connector-curvature="0"
           style="fill:#008aac" /><path
           d="m 3374.347,3322.563 c -1.003,0 -2.207,-1.907 -3.513,-3.111 -1.305,-1.205 -8.297,0.338 -9.967,0.338 -1.677,0 -2.546,-0.742 -4.082,-1.68 -1.54,-0.938 -3.213,0.209 -4.414,0.469 -1.208,0.273 -1.742,-0.801 -1.006,-2.135 0.735,-1.342 -2.478,-1.01 -4.887,-0.541 -2.405,0.469 -1.471,1.674 -3.408,1.01 -1.943,-0.671 2.272,-2.885 3.679,-4.551 1.406,-1.674 -0.271,-4.486 -1.071,-4.753 -0.8,-0.267 -2.344,-2.676 -4.749,-4.551 -2.412,-1.875 -4.216,-0.469 -7.093,-0.469 -2.878,0 -3.549,-1.27 -4.887,-2.272 -1.338,-1.009 -0.938,-3.008 -6.289,-5.82 -5.354,-2.813 -3.076,-1.275 -2.744,-1.81 0.336,-0.534 0.873,-0.462 -1.002,-1.335 -1.875,-0.872 -3.412,1.003 -5.287,1.738 -1.871,0.736 -4.146,0.534 -4.951,0.332 -0.801,-0.201 -1.738,-2.135 -2.676,-2.545 -0.938,-0.397 -1.738,-1.27 -2.34,-2.207 -0.603,-0.932 -2.543,-0.534 -2.478,1.211 0.068,1.738 -0.935,2.74 -2.81,3.477 -1.871,0.735 -1.07,-2.07 -1.07,-2.943 0,-0.872 1.673,-1.744 1.807,-3.079 0.133,-1.341 -1.674,1.27 -3.412,3.145 -1.741,1.875 -2.942,0.13 -6.289,0.469 -3.346,0.339 -1.741,3.815 -1.741,5.755 0,1.94 -2.81,2.604 -3.278,2.143 -0.469,-0.476 -0.469,-1.537 -1.471,-1.537 -1.006,0 -1.273,-1.614 -1.54,-2.213 -0.267,-0.6 -3.682,-1.205 -4.951,1.204 -1.269,2.409 -2.607,0.469 -4.147,0 -1.543,-0.462 -4.551,-6.491 -3.883,-7.559 0.67,-1.067 0.67,-1.543 -0.065,-2.278 -0.735,-0.736 -0.4,-1.27 0.202,-2.409 0.602,-1.133 2.207,-2.207 -1.003,-4.277 -3.213,-2.077 -8.232,-0.267 -10.908,-0.54 -2.676,-0.268 -0.534,-2.207 0,-2.741 0.537,-0.534 1.604,-2.409 2.142,-4.017 0.534,-1.602 -0.469,-1.732 0.469,-3.881 0.935,-2.135 0.668,-3.613 -1.471,-3.743 -2.143,-0.13 -4.15,1.472 -4.284,4.551 -0.134,3.073 -3.213,2.942 -10.303,2.409 -7.093,-0.534 -6.426,-6.159 -7.227,-10.71 -0.801,-4.551 1.472,-8.431 1.604,-10.703 0.137,-2.272 2.946,-4.817 5.622,-6.829 2.676,-1.999 6.487,-1.484 6.487,-1.484 0,0 5.153,1.087 6.758,0.957 1.608,-0.137 0.271,-1.342 0.4,-2.949 0.137,-1.602 7.897,-0.534 9.235,-0.534 1.338,0 1.071,1.067 2.542,2.526 1.472,1.445 1.205,-1.459 2.68,-1.186 1.471,0.261 0.267,1.205 2.408,4.682 2.139,3.477 1.738,4.681 2.406,7.63 0.67,2.942 2.142,1.472 3.079,-0.938 0.937,-2.41 -1.071,-10.169 -1.604,-14.187 -0.537,-4.017 3.076,-2.545 6.556,-6.289 3.479,-3.75 7.09,-4.01 8.698,-6.692 1.604,-2.676 -0.134,-7.09 0.804,-4.681 0.935,2.408 1.071,-0.938 1.204,-3.477 0.131,-2.546 1.472,-3.613 2.139,-2.143 0.671,1.472 1.475,0.404 2.009,-2.142 0.537,-2.546 2.81,-5.149 3.88,-6.426 1.071,-1.27 3.21,-0.065 6.159,0 2.939,0.065 0.13,-0.534 -0.739,-3.477 -0.872,-2.942 1.875,-3.952 3.008,-3.952 1.14,0 6.022,-2.604 7.097,-3.274 1.071,-0.671 2.474,-0.605 4.349,0.801 1.872,1.406 -1.741,0.332 -2.942,2.409 -1.208,2.076 1.735,2.344 3.008,0.469 1.273,-1.875 4.082,-1.003 6.491,-3.412 2.408,-2.408 -2.744,-1.543 -3.881,-1.875 -1.136,-0.332 -1.839,-3.145 -1.738,-4.043 0.098,-0.904 -0.703,-3.216 -1.91,-4.219 -1.201,-1.002 -4.313,0.098 -7.025,1.205 -2.708,1.1 -3.512,2.109 -3.307,0.801 0.195,-1.303 4.713,-4.316 5.918,-4.512 1.207,-0.202 4.615,-1.608 6.224,-3.418 1.604,-1.804 6.221,0.299 8.33,0.501 2.106,0.202 5.117,1.406 6.221,-0.098 1.104,-1.504 2.009,-1.504 4.216,-1.81 2.21,-0.3 2.61,-3.51 1.104,-4.916 -1.504,-1.406 -3.715,-6.523 -6.823,-8.131 -3.112,-1.602 -1.907,-2.604 -0.901,-3.913 1.002,-1.302 -3.148,-4.519 -4.486,-7.858 -1.338,-3.346 0.134,-4.153 -1.471,-4.283 -1.605,-0.131 -0.537,2.408 -1.338,4.681 -0.805,2.278 -4.15,1.074 -4.685,0.938 -0.534,-0.13 -2.409,-2.409 -2.275,-4.551 0.137,-2.136 0.671,-4.011 0,-4.681 -0.667,-0.671 -2.139,-0.131 -2.942,-0.938 -0.805,-0.801 -1.875,-3.21 -3.08,-4.277 -1.201,-1.074 -3.88,-0.404 -5.752,-0.808 -1.875,-0.403 -3.616,0.267 -3.213,1.472 0.4,1.204 0.134,2.813 -0.533,7.096 -0.671,4.277 -2.009,2.006 -3.08,3.073 -1.07,1.067 0.671,1.341 1.608,4.421 0.935,3.072 -1.208,5.352 -2.142,6.289 -0.938,0.938 -4.014,1.602 -6.022,2.271 -2.009,0.671 0.134,3.21 0.4,5.352 0.271,2.143 -1.741,5.222 -2.81,5.625 -1.07,0.397 -4.551,-4.017 -4.817,-6.563 -0.271,-2.539 2.139,-5.352 1.071,-6.152 -1.071,-0.801 -5.219,-0.801 -9.102,-4.017 -3.881,-3.21 -8.564,-4.948 -10.17,-8.828 -1.604,-3.88 1.605,-7.363 2.946,-10.169 1.338,-2.813 4.014,-2.409 8.294,-4.018 4.284,-1.607 1.605,-3.079 2.68,-3.079 1.067,0 4.547,-0.534 5.352,-1.608 0.801,-1.067 2.676,-2.135 4.417,-3.072 1.738,-0.938 2.139,-2.813 2.81,-3.881 0.667,-1.074 2.542,1.472 4.684,1.205 2.139,-0.273 2.006,0.396 4.948,-0.938 2.946,-1.342 0.4,-2.143 0.137,-3.613 -0.271,-1.472 1.875,-1.074 1.204,-2.676 -0.67,-1.608 -3.613,-3.217 -5.557,-2.943 -1.939,0.268 0.605,2.136 -1.402,4.011 -2.009,1.875 -1.605,3.079 -2.275,3.347 -0.668,0.267 -3.61,-0.671 -3.61,-1.602 0,-0.938 1.335,-1.745 1.872,-2.148 0.533,-0.397 -0.404,-2.402 -0.671,-3.073 -0.267,-0.671 -1.472,0.801 -1.741,2.142 -0.264,1.335 -1.735,1.472 -1.335,0.268 0.397,-1.205 -1.074,-2.676 -2.142,-4.154 -1.071,-1.471 1.067,-1.334 2.275,-3.209 1.201,-1.869 0.804,-2.676 -0.805,-3.613 -1.604,-0.932 -3.479,0.533 -5.352,2.545 -1.871,2.006 -1.204,1.869 -0.537,4.414 0.668,2.539 0,0 0.4,2.409 0.404,2.409 -3.076,2.142 -3.076,2.142 0,0 -1.738,-0.137 -2.405,-0.403 -0.674,-0.267 0,-1.204 -1.475,-1.738 -1.472,-0.534 -2.139,1.875 -2.139,1.875 0,0 -4.017,-0.137 -5.622,-0.137 -1.607,0 -3.883,-0.801 -4.28,-1.472 -0.403,-0.67 -2.412,-2.005 -4.15,-2.005 -1.741,0 -2.409,1.472 -2.409,3.21 0,1.738 -2.942,1.875 -2.813,1.074 0.137,-0.808 -0.4,-3.613 -0.4,-3.613 l -1.604,0.938 c 0,0 -4.417,-0.273 -5.889,-0.404 -1.472,-0.137 -0.938,-2.012 -0.938,-2.012 l 2.942,-0.267 0.404,-0.671 c 0,0 -0.805,-0.801 -1.605,-1.067 -0.804,-0.267 -4.28,-0.938 -4.28,-0.938 l -1.074,-1.472 c 0,0 -1.604,0 -2.275,0 -0.667,0 -1.738,1.342 -2.272,1.342 -0.537,0 -0.537,-1.472 -0.537,-1.472 l 0.268,-1.204 c 0,0 0,0 -1.335,0.67 -1.341,0.664 -1.875,0.131 -1.875,0.131 l 0.534,-1.342 0.133,-1.471 c 0,0 -0.801,-0.938 -0.801,-0.268 0,0.671 -1.338,2.143 -2.542,2.012 -1.204,-0.137 -2.009,1.068 -3.747,0.664 -1.738,-0.396 -5.084,0.808 -6.959,2.409 -1.875,1.608 -3.076,2.142 -2.676,0.267 0.4,-1.868 -5.219,-1.602 -6.156,-2.005 -0.938,-0.397 -3.346,-0.671 -5.621,-0.938 -2.275,-0.267 -2.81,-2.142 -2.81,-2.142 l -0.928,-3.301 c -11.696,6.373 -22.493,14.18 -32.175,23.177 1.296,2.37 2.578,4.583 2.995,4.883 0.938,0.671 1.872,0 1.872,0 0,0 -3.744,2.546 -9.766,7.858 -6.025,5.313 -4.018,5.924 -4.018,7.93 0,2.012 1.208,1.211 1.208,1.211 0,0 -4.685,4.811 -6.025,6.152 -1.338,1.334 -3.747,3.209 -3.747,3.209 l -2.408,2.943 1.07,0.403 14.555,-12.214 c 0,0 0.901,-0.195 1.002,-0.703 0.098,-0.494 0.902,-2.207 1.201,-2.305 0.303,-0.098 1.608,-2.207 1.608,-2.207 0,0 0.905,-0.403 2.009,-1.406 1.104,-1.002 2.207,-2.506 3.108,-2.61 0.905,-0.104 0,1.302 -1.604,2.61 -1.608,1.303 -3.513,4.115 -3.513,4.115 0,0 5.319,-2.813 7.126,-4.018 1.807,-1.197 1.204,-3.008 1.907,-3.111 0.703,-0.098 2.308,1.406 2.81,2.91 0.504,1.51 1.106,-0.3 3.814,0 2.709,0.306 0.902,2.408 1.908,3.814 1.002,1.406 1.002,1.811 3.613,1.205 2.607,-0.6 -1.006,5.625 -1.006,5.625 l -0.199,2.005 c 0,0 1.003,1.406 1.003,1.608 0,0.195 -1.204,3.809 -1.204,3.809 h 2.008 c 0,0 -0.804,1.002 -1.807,1.607 -1.006,0.605 0.199,2.207 1.205,3.008 1.002,0.808 0,0 -1.406,3.217 -1.406,3.209 0,2.207 1.604,4.414 1.608,2.207 2.61,3.209 3.815,4.615 1.204,1.406 0,4.616 -1.205,4.818 -1.204,0.201 -3.814,-1.811 -3.814,-1.811 0.201,30.111 -1.807,10.039 -2.81,12.65 -1.006,2.61 -2.409,4.017 -2.409,5.618 0,1.608 0,4.017 -1.604,6.224 -1.608,2.207 -0.202,7.227 0,7.826 0.198,0.605 1.472,3.216 1.472,3.216 0,0 0,5.554 0,8.229 0,2.675 4.814,4.017 6.422,6.289 1.605,2.271 1.205,6.692 1.338,7.428 0.134,0.736 1.14,2.539 2.074,3.412 0.938,0.865 1.002,2.337 1.741,3.678 0.735,1.342 -1.14,0.873 -1.338,2.611 -0.202,1.738 1.673,1.803 2.676,2.207 1.003,0.403 2.005,1.002 1.472,2.877 -0.534,1.875 -0.268,1.205 0.738,2.272 1.003,1.074 0.534,0.403 1.068,2.409 0.533,2.012 1.875,1.139 1.875,1.139 0,0 0,0.873 0,1.205 0,0.332 1.201,0.67 1.201,0.67 l 0.804,-1.211 c 0,0 -0.603,-0.26 -0.603,-0.462 0,-0.202 -0.13,-1.204 -0.13,-1.204 l -1.807,-0.742 c 0,0 -0.271,-1.003 -0.271,-1.4 0,-0.403 0,-1.471 0,-1.738 0,-0.267 -0.67,-0.469 -0.67,-0.469 0,0 -0.065,-1.81 -0.065,-2.877 0,-1.068 -1.741,-2.077 -1.807,-2.539 -0.065,-0.476 -0.202,-2.012 -0.869,-3.015 -0.671,-1.009 -2.275,-3.145 -2.21,-5.417 0.068,-2.278 -0.534,-3.75 0.335,-3.75 0.872,0 2.344,2.207 2.744,2.611 0.403,0.396 0.065,3.079 1.738,5.547 1.673,2.48 6.006,7.564 5.605,7.969 -0.403,0.396 -1.507,0.247 -0.905,1.758 0.605,1.504 2.058,1.855 3.161,2.154 1.104,0.3 2.913,6.426 4.114,8.432 1.205,2.012 -0.299,2.012 -0.599,3.313 -0.303,1.302 0.101,2.005 2.106,2.91 2.008,0.905 1.604,3.112 3.916,3.815 2.305,0.703 6.822,3.639 8.027,3.912 1.204,0.268 1.07,1.342 2.676,1.484 1.604,0.15 1.875,0.658 2.676,1.191 0.804,0.534 3.613,-0.533 4.15,-0.938 0.533,-0.396 1.07,-0.267 2.542,0 1.472,0.268 5.755,4.818 7.09,6.152 1.338,1.342 2.409,-0.527 3.479,0 1.071,0.534 3.076,1.738 3.881,1.608 0.804,-0.137 0.804,-0.808 1.341,-0.808 0.534,0 0.13,1.074 2.139,3.62 2.009,2.539 1.608,3.073 1.608,3.477 0,0.404 0.934,2.409 2.271,2.142 1.338,-0.267 2.676,1.133 2.676,1.133 v 2.214 c 0,0 4.555,0.267 5.482,0.534 0.931,0.267 1.077,2.271 1.478,2.545 0.4,0.268 2.009,-1.607 1.741,-2.676 -0.27,-1.074 1.738,-1.607 2.539,-2.408 0.805,-0.808 1.875,0.931 2.543,1.738 0.67,0.801 2.145,2.806 2.145,4.414 0,1.607 -0.137,4.01 -0.137,6.556 0,2.539 -2.008,3.743 -3.477,5.488 -1.475,1.738 -2.813,2.539 -3.479,3.347 -0.671,0.801 -1.204,3.346 -0.938,4.817 0.266,1.471 2.139,0.13 2.139,1.875 0,1.738 -1.738,0.801 -3.747,2.402 -2.005,1.608 0.271,1.745 0.938,3.079 0.671,1.342 -0.938,0.268 -0.938,1.875 0,1.602 2.412,1.342 4.688,2.006 2.272,0.67 4.682,6.563 6.022,9.635 1.338,3.08 2.673,5.756 4.014,6.289 1.338,0.541 1.472,1.745 4.28,2.409 2.81,0.671 5.02,2.878 6.599,2.878 1.575,0 1.53,2.715 1.028,3.814 -0.501,1.107 -0.101,1.406 0.303,5.417 0.4,4.017 -0.904,13.047 -1.331,14.05 -0.43,1.009 -0.31,0.807 0.427,1.543 0.735,0.735 -1.201,3.945 -1.27,4.947 -0.068,1.01 -1.943,1.608 -2.328,2.546 -0.387,0.938 0.922,0.938 1.188,1.81 0.271,0.866 -0.534,3.008 0.271,3.815 0.801,0.801 1.536,0.534 1.744,1.804 0.212,1.27 -0.742,2.474 -2.08,2.474 -1.338,0 -1.341,1.406 -0.738,0.938 0.605,-0.469 1.406,0 1.406,0 l 1.077,1.895 c 3.278,-0.339 6.521,-0.781 9.736,-1.315 0.69,-0.794 1.282,-1.432 1.768,-1.517 1.604,-0.267 0.801,-1.868 -0.137,-5.215 -0.935,-3.347 2.275,-0.54 4.284,-1.341 2.008,-0.801 1.338,-3.477 4.146,-3.881 2.81,-0.403 5.889,-2.942 7.09,-4.817 1.208,-1.875 -0.53,-2.806 3.884,-2.278 4.417,0.54 8.431,-5.078 11.911,-9.232 3.479,-4.146 0.4,-5.481 6.556,-9.361 6.155,-3.887 16.126,-14.421 16.729,-17.734 0.599,-3.314 -1.106,-3.412 2.405,-5.723 3.516,-2.305 7.93,-8.73 8.334,-10.541 0.401,-1.8 -0.604,-4.508 -1.607,-4.508 z"
           id="path6373"
           inkscape:connector-curvature="0"
           style="fill:#e2e2e2" /><path
           d="m 3340.46,3102.4 c -5.085,0 -6.155,5.084 -1.604,5.885 4.547,0.808 13.912,0.808 15.521,7.494 1.604,6.692 -4.817,8.567 0,11.777 4.814,3.209 -1.067,6.692 -1.067,11.236 0,4.558 2.139,8.301 5.352,10.71 3.209,2.409 6.422,5.618 6.689,7.493 0.267,1.875 3.479,1.342 3.479,1.342 0,0 -0.271,-1.074 0,-2.676 0.267,-1.608 2.942,-3.483 2.942,-8.027 0,-4.551 2.39,-4.284 4.274,-4.018 1.882,0.268 5.628,-0.267 6.699,0 1.071,0.268 7.493,0.268 8.027,-2.949 0.537,-3.209 -4.28,-8.027 -4.28,-8.027 0,0 2.705,-4.479 2.679,-6.523 -0.01,-0.41 -0.29,-1.38 -0.755,-2.676 -12.907,-11.484 -27.692,-20.898 -43.852,-27.715 0,2.52 -0.562,6.674 -4.104,6.674 z"
           id="path6375"
           inkscape:connector-curvature="0"
           style="fill:#e2e2e2" /><path
           d="m 3435.47,3233.143 c -9.235,-7.631 -15.257,-7.631 -16.062,-5.625 -0.801,2.005 6.423,9.238 0,18.066 -6.419,8.834 -11.24,12.441 -8.828,19.674 2.409,7.221 -10.094,13.646 -0.631,20.072 9.459,6.419 7.454,6.419 14.28,6.021 6.706,-0.396 5.827,10.209 5.335,11.674 7.81,-18.764 12.123,-39.35 12.123,-60.938 0,-0.664 -0.014,-1.322 -0.02,-1.979 -1.129,-1.881 -2.86,-4.212 -6.197,-6.965 z"
           id="path6377"
           inkscape:connector-curvature="0"
           style="fill:#e2e2e2" /><path
           d="m 3297.611,3400.174 c 80.798,-7.416 144.076,-75.352 144.076,-158.086 0,-78.295 -56.66,-143.34 -131.211,-156.387 92.074,37.037 137.838,261.856 -12.865,314.473 z"
           id="path6379"
           inkscape:connector-curvature="0"
           style="opacity:0.1;fill:#231f20" /></g><g
         id="Loading_3_"><path
           d="m 3328.627,3358.865 c 0,0 -0.374,-1.289 -1.031,-3.542 -0.339,-1.14 -0.752,-2.52 -1.228,-4.108 -0.479,-1.588 -1.087,-3.34 -1.738,-5.293 -2.624,-7.786 -6.677,-18.209 -12.1,-28.561 -1.36,-2.578 -2.747,-5.195 -4.265,-7.702 -0.755,-1.27 -1.507,-2.532 -2.246,-3.776 -0.797,-1.23 -1.582,-2.441 -2.354,-3.639 -1.549,-2.416 -3.174,-4.688 -4.766,-6.862 -1.559,-2.194 -3.174,-4.192 -4.678,-6.067 -1.487,-1.889 -2.955,-3.562 -4.277,-5.046 -1.328,-1.478 -2.48,-2.819 -3.506,-3.841 -2.044,-2.09 -3.213,-3.288 -3.213,-3.288 0,0 0.378,0.735 1.042,2.019 0.645,1.289 1.585,3.092 2.591,5.306 1,2.22 2.119,4.792 3.229,7.526 1.067,2.786 2.132,5.729 3.115,8.639 0.938,2.963 1.797,5.893 2.542,8.607 0.71,2.76 1.299,5.318 1.777,7.486 0.488,2.148 0.801,3.998 1.032,5.261 0.222,1.263 0.345,1.985 0.345,1.985 0,0 -0.674,-0.396 -1.946,-1.152 -1.25,-0.774 -3.187,-1.771 -5.599,-3.099 -4.887,-2.565 -11.992,-6.062 -20.961,-9.212 -8.938,-3.164 -19.827,-5.834 -31.666,-6.726 -11.83,-0.918 -24.561,0.195 -36.615,3.425 -6.028,1.602 -11.9,3.665 -17.467,6.119 -5.563,2.461 -10.834,5.268 -15.739,8.256 -9.802,6.002 -18.125,12.721 -24.759,18.932 -6.65,6.205 -11.647,11.875 -14.99,15.957 -3.337,4.089 -5.017,6.589 -5.017,6.589 0,0 1.888,-2.351 5.544,-6.12 3.658,-3.756 9.088,-8.951 16.136,-14.479 7.024,-5.534 15.71,-11.381 25.608,-16.335 4.955,-2.468 10.205,-4.707 15.651,-6.575 5.446,-1.869 11.104,-3.32 16.807,-4.323 11.413,-2.024 23.018,-2.024 33.567,-0.286 10.563,1.719 20.065,4.928 27.842,8.457 7.797,3.509 13.93,7.213 18.142,9.902 2.083,1.399 3.747,2.435 4.827,3.242 1.091,0.781 1.677,1.197 1.677,1.197 0,0 -0.671,0.209 -1.839,0.573 -1.169,0.378 -2.81,0.879 -4.779,1.608 -1.963,0.709 -4.209,1.549 -6.563,2.513 -2.366,1.003 -4.827,2.116 -7.21,3.255 -2.405,1.211 -4.727,2.461 -6.833,3.652 -2.119,1.264 -4.023,2.475 -5.611,3.516 -1.586,1.062 -2.865,2.031 -3.747,2.676 -0.872,0.664 -1.37,1.042 -1.37,1.042 0,0 0.989,-0.319 2.721,-0.872 0.883,-0.3 1.96,-0.547 3.229,-0.873 1.27,-0.325 2.725,-0.684 4.343,-0.963 6.455,-1.296 15.745,-2.116 25.602,-1.66 9.831,0.384 20.072,1.985 27.793,3.606 1.928,0.403 3.73,0.769 5.297,1.146 1.572,0.385 2.942,0.723 4.072,1.003 2.28,0.573 3.582,0.905 3.582,0.905 z"
           id="path6382"
           inkscape:connector-curvature="0"
           style="fill:#ffd648" /><path
           d="m 3124.142,3396.02 c 0,0 0.378,1.283 1.035,3.542 0.339,1.133 0.752,2.513 1.224,4.102 0.485,1.589 1.094,3.34 1.742,5.3 2.627,7.779 6.676,18.203 12.1,28.555 1.36,2.584 2.75,5.195 4.264,7.708 0.756,1.27 1.504,2.526 2.246,3.776 0.798,1.224 1.582,2.441 2.354,3.633 1.55,2.415 3.174,4.693 4.766,6.861 1.56,2.201 3.174,4.193 4.678,6.068 1.488,1.888 2.956,3.561 4.277,5.045 1.332,1.484 2.48,2.819 3.503,3.842 2.048,2.096 3.216,3.287 3.216,3.287 0,0 -0.377,-0.729 -1.041,-2.018 -0.645,-1.289 -1.589,-3.086 -2.592,-5.307 -0.999,-2.22 -2.119,-4.791 -3.229,-7.525 -1.068,-2.78 -2.136,-5.723 -3.119,-8.633 -0.934,-2.963 -1.793,-5.898 -2.539,-8.613 -0.709,-2.754 -1.299,-5.313 -1.777,-7.48 -0.488,-2.155 -0.801,-3.998 -1.035,-5.261 -0.218,-1.27 -0.345,-1.985 -0.345,-1.985 0,0 0.681,0.396 1.95,1.146 1.25,0.774 3.187,1.777 5.599,3.105 4.886,2.559 11.992,6.062 20.96,9.212 8.942,3.164 19.828,5.827 31.667,6.726 11.829,0.911 24.558,-0.202 36.611,-3.431 6.032,-1.596 11.904,-3.659 17.468,-6.12 5.566,-2.454 10.836,-5.261 15.742,-8.249 9.801,-6.009 18.121,-12.728 24.759,-18.932 6.65,-6.205 11.647,-11.882 14.99,-15.964 3.337,-4.089 5.013,-6.589 5.013,-6.589 0,0 -1.885,2.351 -5.543,6.12 -3.656,3.763 -9.086,8.952 -16.13,14.479 -7.028,5.533 -15.713,11.387 -25.612,16.341 -4.954,2.461 -10.205,4.7 -15.65,6.569 -5.449,1.868 -11.104,3.326 -16.807,4.322 -11.41,2.031 -23.021,2.025 -33.571,0.293 -10.56,-1.725 -20.062,-4.928 -27.839,-8.457 -7.796,-3.516 -13.929,-7.213 -18.141,-9.908 -2.084,-1.394 -3.747,-2.429 -4.828,-3.242 -1.09,-0.781 -1.676,-1.198 -1.676,-1.198 0,0 0.67,-0.208 1.842,-0.573 1.166,-0.371 2.807,-0.879 4.775,-1.602 1.963,-0.716 4.209,-1.556 6.563,-2.513 2.367,-1.009 4.828,-2.116 7.211,-3.255 2.402,-1.211 4.727,-2.461 6.832,-3.659 2.123,-1.263 4.023,-2.468 5.609,-3.516 1.592,-1.055 2.867,-2.031 3.75,-2.676 0.872,-0.657 1.37,-1.035 1.37,-1.035 0,0 -0.989,0.313 -2.722,0.872 -0.882,0.3 -1.963,0.541 -3.229,0.873 -1.267,0.318 -2.729,0.684 -4.343,0.957 -6.455,1.295 -15.745,2.115 -25.603,1.66 -9.83,-0.385 -20.071,-1.986 -27.793,-3.601 -1.927,-0.41 -3.73,-0.769 -5.296,-1.146 -1.569,-0.391 -2.942,-0.729 -4.069,-1.01 -2.282,-0.57 -3.587,-0.896 -3.587,-0.896 z"
           id="path6384"
           inkscape:connector-curvature="0"
           style="fill:#ff5c60" /><path
           d="m 3260.438,3444.613 c -5.202,0.273 -11.455,0.847 -18.972,1.811 -51.722,6.602 -99.336,-34.219 -115.557,-49.961 -1.133,-0.287 -1.768,-0.443 -1.768,-0.443 0,0 0.378,1.283 1.035,3.542 0.339,1.133 0.752,2.513 1.224,4.102 0.485,1.589 1.094,3.34 1.742,5.3 2.627,7.779 6.676,18.203 12.1,28.555 1.36,2.584 2.75,5.195 4.264,7.708 0.756,1.27 1.504,2.526 2.246,3.776 0.798,1.224 1.582,2.441 2.354,3.633 1.55,2.415 3.174,4.693 4.766,6.861 1.56,2.201 3.174,4.193 4.678,6.068 1.488,1.888 2.956,3.561 4.277,5.045 1.332,1.484 2.48,2.819 3.503,3.842 2.048,2.096 3.216,3.287 3.216,3.287 0,0 -0.377,-0.729 -1.041,-2.018 -0.645,-1.289 -1.589,-3.086 -2.592,-5.307 -0.999,-2.22 -2.119,-4.791 -3.229,-7.525 -1.068,-2.78 -2.136,-5.723 -3.119,-8.633 -0.934,-2.963 -1.793,-5.898 -2.539,-8.613 -0.709,-2.754 -1.299,-5.313 -1.777,-7.48 -0.488,-2.155 -0.801,-3.998 -1.035,-5.261 -0.218,-1.27 -0.345,-1.985 -0.345,-1.985 0,0 0.681,0.396 1.95,1.146 1.25,0.774 3.187,1.777 5.599,3.105 4.886,2.559 11.992,6.062 20.96,9.212 8.942,3.164 19.828,5.827 31.667,6.726 11.829,0.911 24.558,-0.202 36.611,-3.431 3.32,-0.88 6.581,-1.915 9.782,-3.062 z"
           id="path6386"
           inkscape:connector-curvature="0"
           style="opacity:0.1" /><path
           d="m 3326.368,3351.215 c -0.479,-1.588 -1.087,-3.34 -1.738,-5.293 -2.624,-7.786 -6.677,-18.209 -12.1,-28.561 -1.36,-2.578 -2.747,-5.195 -4.265,-7.702 -0.755,-1.27 -1.507,-2.532 -2.246,-3.776 -0.797,-1.23 -1.582,-2.441 -2.354,-3.639 -1.549,-2.416 -3.174,-4.688 -4.766,-6.862 -1.559,-2.194 -3.174,-4.192 -4.678,-6.067 -1.487,-1.889 -2.955,-3.562 -4.277,-5.046 -1.328,-1.478 -2.48,-2.819 -3.506,-3.841 -2.044,-2.09 -3.213,-3.288 -3.213,-3.288 0,0 0.378,0.735 1.042,2.019 0.645,1.289 1.585,3.092 2.591,5.306 1,2.22 2.119,4.792 3.229,7.526 1.067,2.786 2.132,5.729 3.115,8.639 0.938,2.963 1.797,5.893 2.542,8.607 0.71,2.76 1.299,5.318 1.777,7.486 0.488,2.148 0.801,3.998 1.032,5.261 0.222,1.263 0.345,1.985 0.345,1.985 0,0 -0.674,-0.396 -1.946,-1.152 -1.25,-0.774 -3.187,-1.771 -5.599,-3.099 -4.887,-2.565 -11.992,-6.062 -20.961,-9.212 -8.938,-3.164 -19.827,-5.834 -31.666,-6.726 -11.83,-0.918 -24.561,0.195 -36.615,3.425 -6.028,1.602 -11.9,3.665 -17.467,6.119 -1.371,0.605 -2.719,1.23 -4.05,1.875 4.88,-1.074 10.374,-2.246 16.585,-3.528 73.623,-15.215 131.445,47.194 131.445,47.194 0,0 -0.374,-1.289 -1.031,-3.542 -0.336,-1.139 -0.749,-2.519 -1.225,-4.108 z"
           id="path6388"
           inkscape:connector-curvature="0"
           style="opacity:0.1" /></g></g></g></svg>