<?xml version="1.0" encoding="UTF-8" standalone="no"?>
<svg
   xmlns:dc="http://purl.org/dc/elements/1.1/"
   xmlns:cc="http://creativecommons.org/ns#"
   xmlns:rdf="http://www.w3.org/1999/02/22-rdf-syntax-ns#"
   xmlns:svg="http://www.w3.org/2000/svg"
   xmlns="http://www.w3.org/2000/svg"
   xmlns:sodipodi="http://sodipodi.sourceforge.net/DTD/sodipodi-0.dtd"
   xmlns:inkscape="http://www.inkscape.org/namespaces/inkscape"
   width="127.6"
   height="101.4"
   viewBox="0 0 127.6 101.4"
   version="1.1"
   id="svg74"
   sodipodi:docname="data-monetize.svg"
   inkscape:version="0.92.2 5c3e80d, 2017-08-06">
  <metadata
     id="metadata80">
    <rdf:RDF>
      <cc:Work
         rdf:about="">
        <dc:format>image/svg+xml</dc:format>
        <dc:type
           rdf:resource="http://purl.org/dc/dcmitype/StillImage" />
        <dc:title />
      </cc:Work>
    </rdf:RDF>
  </metadata>
  <defs
     id="defs78" />
  <sodipodi:namedview
     pagecolor="#ffffff"
     bordercolor="#666666"
     borderopacity="1"
     objecttolerance="10"
     gridtolerance="10"
     guidetolerance="10"
     inkscape:pageopacity="0"
     inkscape:pageshadow="2"
     inkscape:window-width="1920"
     inkscape:window-height="983"
     id="namedview76"
     showgrid="false"
     inkscape:zoom="2.86"
     inkscape:cx="0.4789269"
     inkscape:cy="15.87454"
     inkscape:window-x="50"
     inkscape:window-y="27"
     inkscape:window-maximized="0"
     inkscape:current-layer="svg74" />
  <style
     id="style2">.st0{fill:#f05135}.st1{fill:#083b54}.st2{fill:#6acad1}.st3{fill:#f59223}.st4{stroke:#f05135;stroke-width:2.5;stroke-miterlimit:10}.st4,.st5,.st6,.st7{fill:none}.st5,.st6,.st7,.st8{stroke-width:2.5;stroke-miterlimit:10}.st5{stroke:#083b54}.st6{stroke:#6acad1}.st7{stroke:#f59223}.st8{fill:#fdd9c8;stroke:#f05135}.st10,.st11,.st12,.st13,.st14,.st15,.st9{stroke-width:2.5;stroke-miterlimit:10}.st9{fill:#d3d5db;stroke:#083b54}.st10{fill:#e0f2f3;stroke:#6acad1}.st11{fill:#fee5cb;stroke:#f59223}.st12{stroke:#f05135}.st12,.st13,.st14,.st15{fill:#fff}.st13{stroke:#083b54}.st14{stroke:#6acad1}.st15{stroke:#f59223}.st16{fill:#e0f2f3}.st17,.st18{stroke-linejoin:round}.st17{stroke:#d3d5db;stroke-miterlimit:10;fill:#d3d5db}.st18{fill:#fff;stroke-width:2.5}.st18,.st19,.st20{stroke:#6acad1;stroke-miterlimit:10}.st19{stroke-linejoin:round;fill:#e0f2f3;stroke-width:2.5}.st20{fill:none;stroke-width:1.5}.st21{fill:#d3d5db}.st22{fill:#fff}.st23,.st24{fill:none;stroke:#f05135;stroke-miterlimit:10}.st24{stroke:#d3d5db;stroke-width:.5}.st25,.st26{stroke:#063b54}.st25,.st26,.st27,.st28{stroke-miterlimit:10}.st25{stroke-linejoin:round;fill:#083b54;stroke-width:.5}.st26{stroke-width:.7}.st26,.st27,.st28{fill:none}.st27{stroke:#d3d5db;stroke-width:.3}.st28{stroke:#6acad1;stroke-width:2.5;stroke-linejoin:round}.st29{fill:#063b54}.st30{fill:none;stroke:#f05135;stroke-width:2.5;stroke-linecap:round}.st30,.st31,.st32{stroke-miterlimit:10}.st31{stroke-linejoin:round;fill:#083b54;stroke:#063b54}.st32,.st33{fill:none;stroke:#e0f2f3}.st33{stroke:#6acad1;stroke-linecap:round}.st33,.st34,.st35{stroke-linejoin:round;stroke-miterlimit:10}.st34{stroke-width:2.5;stroke-linecap:round;fill:none;stroke:#6acad1}.st35{fill:#f05135;stroke:#f05235}.st36{stroke:#f05135;stroke-width:2;stroke-linecap:round}.st36,.st37,.st38,.st39,.st40{fill:none;stroke-miterlimit:10}.st37{stroke-linecap:round;stroke:#e0f2f3;stroke-width:1.5}.st38{stroke:#063b54;stroke-width:2.5}.st39,.st40{stroke:#fcc941;stroke-width:2}.st40{stroke:#f05135}</style>
  <circle
     class="st16"
     cx="64"
     cy="50.7"
     r="50.7"
     id="Layer_3"
     style="fill:#d7d7d7;fill-opacity:1;opacity:1;stroke:none;stroke-opacity:1" />
  <g
     id="stuffs">
    <path
       class="st17"
       d="M126.3 83.1l-22.3-40H24l-22.3 40z"
       id="path5" />
    <path
       class="st18"
       d="M126.3 79.1l-23.3-40H25l-23.3 40z"
       id="path7"
       style="stroke:#6acad1;stroke-opacity:1;fill:#ffffff;fill-opacity:1;stroke-width:2.5;stroke-miterlimit:4;stroke-dasharray:none;opacity:1" />
    <g
       id="stuffs-8"
       transform="translate(-72.263289,50.075802)"
       style="stroke:none;stroke-opacity:1">
      <g
         transform="rotate(23.131171,261.47983,190.62008)"
         id="g325"
         style="stroke:#6acad1;stroke-opacity:1">
        <path
           style="fill:#e0f2f3;stroke:#6acad1;stroke-width:1.29216158;stroke-miterlimit:10;stroke-opacity:1"
           inkscape:connector-curvature="0"
           class="st13"
           d="M 80.790296,68.674985 75.111678,31.822039 c -0.0631,-0.330816 0.189288,-0.727796 0.504766,-0.727796 l 18.802534,-3.175837 c 0.315479,-0.06616 0.694054,0.19849 0.694054,0.529306 l 5.678618,36.852946 c 0.0631,0.330816 -0.18929,0.727796 -0.50477,0.727796 l -18.802531,3.175837 c -0.315478,0.132327 -0.630957,-0.132326 -0.694053,-0.529306 z"
           id="path90" />
        <path
           style="opacity:0.5;fill:#6bcad0;stroke:#6acad1;stroke-width:0.6461131;stroke-opacity:1"
           inkscape:connector-curvature="0"
           class="st14"
           d="M 98.772585,63.051107 93.914212,31.292733 C 93.788021,30.6311 93.157063,30.101794 92.526106,30.234121 L 78.20337,32.615999 c -0.630957,0.132326 -1.135723,0.793959 -1.009532,1.455592 l 4.858373,31.758373 c 0.126192,0.661633 0.757149,1.190939 1.388107,1.058613 l 14.322735,-2.381878 c 0.630958,-0.132327 1.072628,-0.727796 1.009532,-1.455592 z m -11.546522,0.793959 c -0.189288,-1.124776 -1.451203,-1.852572 -2.902405,-1.587919 -0.630957,0.132327 -1.135723,0.39698 -1.514298,0.727796 L 78.771232,36.585795 c 0.504766,0.19849 1.072628,0.264653 1.703585,0.19849 1.388107,-0.264653 2.397639,-1.323265 2.271447,-2.448041 -0.06309,-0.39698 -0.252383,-0.727796 -0.504766,-0.992449 l 6.68815,-1.124776 c -0.189287,0.330816 -0.252383,0.727796 -0.189287,1.124776 0.189287,1.124775 1.451202,1.852571 2.902404,1.587918 0.630958,-0.132326 1.135724,-0.396979 1.514298,-0.727796 l 4.038128,26.399148 c -0.504766,-0.19849 -1.072627,-0.264653 -1.640489,-0.19849 -1.388107,0.264654 -2.397639,1.323266 -2.271447,2.448042 0.0631,0.396979 0.315478,0.793959 0.630957,1.058612 l -6.877437,1.124776 c 0.189288,-0.39698 0.315479,-0.793959 0.189288,-1.190939 z"
           id="path92" />
        <path
           style="opacity:0.5;fill:#6bcad0;stroke:#6acad1;stroke-width:0.6461131;stroke-opacity:1"
           inkscape:connector-curvature="0"
           class="st14"
           d="m 87.352254,44.062246 c -3.217883,0.595469 -5.552426,3.043511 -5.110756,5.557715 0.378575,2.514205 3.344075,4.03596 6.561958,3.440491 3.217884,-0.59547 5.552426,-3.043511 5.110756,-5.557716 -0.378574,-2.448041 -3.344075,-4.03596 -6.561958,-3.44049 z"
           id="path94" />
        <path
           style="fill:#e0f2f3;stroke:#6acad1;stroke-width:1.29216158;stroke-miterlimit:10;stroke-opacity:1"
           inkscape:connector-curvature="0"
           class="st13"
           d="M 76.689072,63.580413 88.109403,28.249222 c 0.126192,-0.330816 0.44167,-0.529306 0.820245,-0.396979 l 18.045382,6.417838 c 0.31548,0.132326 0.50477,0.463143 0.37858,0.860122 L 95.933276,70.461394 c -0.126191,0.330816 -0.44167,0.529306 -0.820244,0.396979 L 77.067647,64.440535 c -0.315479,-0.132326 -0.504766,-0.463143 -0.378575,-0.860122 z"
           id="path96" />
        <path
           style="opacity:0.5;fill:#6bcad0;stroke:#6acad1;stroke-width:0.6461131;stroke-opacity:1"
           inkscape:connector-curvature="0"
           class="st14"
           d="m 95.113032,67.417883 9.842938,-30.435108 c 0.18929,-0.661633 -0.12619,-1.389429 -0.75715,-1.587919 L 90.507042,30.498774 c -0.630958,-0.19849 -1.325011,0.132326 -1.514298,0.793959 l -9.842937,30.435108 c -0.189288,0.661633 0.126191,1.389429 0.757149,1.587919 l 13.691777,4.896082 c 0.567862,0.19849 1.261916,-0.132326 1.514299,-0.793959 z M 84.576041,62.455637 c 0.378575,-1.058612 -0.44167,-2.381878 -1.829777,-2.845021 -0.567861,-0.19849 -1.198819,-0.19849 -1.703585,-0.132326 l 8.202448,-25.340536 c 0.315478,0.39698 0.820244,0.793959 1.388106,0.992449 1.325011,0.463143 2.713117,0 3.091692,-1.058612 0.126191,-0.39698 0.0631,-0.727796 0,-1.124776 l 6.435765,2.315715 c -0.315477,0.19849 -0.56786,0.529306 -0.694052,0.860122 -0.378574,1.058613 0.441671,2.381878 1.829782,2.845021 0.56786,0.19849 1.19881,0.19849 1.70358,0.132327 l -8.202447,25.340535 c -0.315479,-0.396979 -0.820245,-0.793959 -1.388107,-0.992449 -1.325011,-0.463143 -2.713117,0 -3.091692,1.058613 -0.126191,0.396979 -0.126191,0.860122 0.0631,1.257102 l -6.561958,-2.315715 c 0.378575,-0.264653 0.630958,-0.595469 0.757149,-0.992449 z"
           id="path98" />
        <path
           style="opacity:0.5;fill:#6bcad0;stroke:#6acad1;stroke-width:0.6461131;stroke-opacity:1"
           inkscape:connector-curvature="0"
           class="st14"
           d="m 93.472542,45.054695 c -3.091692,-1.058613 -6.246479,0 -7.003628,2.381878 -0.757149,2.381878 1.135723,5.160736 4.290511,6.285511 3.154787,1.124776 6.246479,0 7.003628,-2.381878 0.694053,-2.448041 -1.198819,-5.226899 -4.290511,-6.285511 z"
           id="path100" />
      </g>
      <path
         style="fill:#ffffff;fill-opacity:1;stroke:none;stroke-width:0.83556908px;stroke-linecap:butt;stroke-linejoin:miter;stroke-opacity:1"
         d="m 118.44629,-37.361878 c -0.35713,0.456983 -0.50672,1.009662 -1.0714,1.370934 -0.25252,0.161571 -0.81886,-0.161566 -1.07139,0 -0.17857,0.114249 0.71426,0.228497 0.53569,0.342741 -0.25252,0.161565 -0.81886,-0.161572 -1.07139,0 -0.17857,0.114243 0.42276,0.19823 0.5357,0.34274 0.0798,0.102174 -0.40944,-0.423523 -0.5357,-0.34274 -0.32015,0.204828 -0.89285,-1.113556 -0.89285,-0.400367 0,0.114249 0.76658,0.319587 0.89285,0.400367 0.12627,0.08078 -0.65477,-0.593347 -0.83333,-0.593347 -0.39929,0 0.16121,1.621551 -0.23808,1.621551 -0.25253,0 0.0656,-1.573081 0.17856,-1.428571 0.0798,0.10218 0.0595,0.14975 -0.11905,0.14975 -0.17856,0 0,0.114238 0,0 -0.35713,0.228492 -0.59522,-0.183371 -0.95234,0.04512 -0.17858,0.114243 0.13075,1.154834 0.38328,1.154834 0.17857,0 0.21193,-1.209548 0.21193,-1.09531 0,0.114243 -0.46894,-0.140307 -0.59521,-0.05952 -0.28233,0.180631 -0.91023,-1.278815 -0.65475,0.983089 0.0283,0.250935 -0.31208,0.371551 -0.0595,0.371551 0.17856,0 0.53572,-0.723895 0.53572,-0.609646 0,0.114243 -1.12147,1.063059 -1.24773,1.143837 -1.94208,1.242521 0.42083,-0.563012 0.83107,-0.563012 0.17856,0 1.56838,1.604538 0.65477,-0.550117 -1.16433,-2.745933 -1.56649,1.660685 -1.7262,1.711783 -0.31944,0.102185 0.25254,-0.161566 0,0 -0.17856,0.114243 0.69986,1.83083 0.9524,1.83083 0.17856,0 -1.54041,-2.268756 -1.66667,-2.187973 -0.28235,0.180636 1.23697,-0.422153 0.95463,-0.241511 -0.12627,0.08078 -0.82836,0.160728 -0.95463,0.241511 -0.28234,0.180636 -0.11904,0.713218 -0.11904,0.968681 0,0.114243 -1.19772,-1.763747 0.83331,-0.611538 0.12627,0.08078 -1.74502,1.319847 -1.90474,1.370934 -0.31943,0.102185 0.25253,-0.161566 0,0 -0.17857,0.114254 0.9585,-0.903905 1.07143,-0.759396 0.0798,0.102185 -1.2916,0.843657 -2.59781,0.639972 1.71879,0.611746 1.20994,1.671957 1.05023,1.876327 -0.17857,0.228487 -2.1871,1.309347 0.11904,1.37094 -1.60713,1.192369 0.4352,-1.944966 0.35714,-1.861532 l -1.30952,1.39975 0.95238,0.461782 c 0,0.228487 0.11294,-0.216773 0,0 -0.0798,0.153278 0.0799,0.770284 1e-5,0.923566 -1.12483,0.33581 1.07143,0.29282 1.07143,0.521311 l -1.07143,-0.521311 -0.23809,0.759406 v 0 l 1.30952,0.790105 c 0.0978,0.05902 0.17857,0.342745 0,0.342745 -0.17857,0 0,-0.456983 0,-0.342745 v 0.68547 c 0,0.114243 0.17857,0.342735 0,0.342735 -0.17857,0 -0.17857,-0.342735 0,-0.342735 0.17857,0 0,0.228497 0,0.342735 0,0.114253 0.17857,0.34274 0,0.34274 -0.17857,0 -0.17857,-0.34274 0,-0.34274 0.25253,0 0.42277,0.19823 0.5357,0.34274 0.15971,0.204359 -0.25253,0.523899 0,0.685464 0.12626,0.08079 0.40943,-0.08078 0.53569,0 0.12628,0.08079 -0.17855,0.342741 0,0.342741 0.25255,0 0.35715,-0.456984 0.53571,-0.342741 0.17857,0.114249 -0.42276,0.198231 -0.53571,0.342741 -0.0799,0.102185 -0.17855,0.342735 0,0.342735 0.25255,0 0.28317,-0.342735 0.53571,-0.342735 0.17857,0 -0.0798,0.24055 0,0.342735 0.11294,0.144509 0.71427,0.228486 0.53571,0.342729 -0.17858,0.114254 -0.28317,-0.342729 -0.53571,-0.342729 -0.35713,0 0.35713,0.685469 0,0.685469 -0.71426,0 0.53571,-0.799718 0.53571,-0.34274 0,0.114254 -0.53571,-0.114243 -0.53571,0 0,0.255468 0.40944,0.443121 0.53571,0.68547 0.0565,0.108389 0,0.228492 0,0.342746 0,0.114232 0.17856,0.342729 0,0.342729 -0.17858,0 0,-0.456983 0,-0.342729 v 0.685464 c 0,0.114243 0.17856,0.342735 0,0.342735 -0.17858,0 0,-0.456983 0,-0.342735 0,0.228487 0.15971,0.4811 0,0.68547 -0.0798,0.10218 -0.35714,-2.05641 -0.53571,-2.05641 v 0 l -1.40641,0.543599 v 0 c -2.55191,-2.759587 -0.85405,1.45398 -1.03261,1.45398 -0.17857,0 0.59423,-0.173328 0.67283,-0.09042 l 1.76619,1.862929 c -1.40641,-3.226489 -2.09225,-1.339346 -2.27081,-1.339346 -0.40781,0 0.12798,-0.227929 0.12798,1.429569 0,0.161571 -2.41708,1.523613 -0.27424,1.280719 0.25255,0.16156 0,0 1.34567,0 l -1.2305,-1.358316 1.76619,1.358316 c -0.17855,0 -1.8015,-0.102191 -1.88136,0 -0.15971,0.204359 0.25806,0.917963 0.39329,1.102131 l 0.95238,1.297008 h -0.5357 c 0,0.228487 0.78823,0.181169 0.5357,0.342735 -0.17857,0.114248 -0.5357,-0.504295 -0.5357,-0.342735 0,0.255468 0.40943,0.443121 0.5357,0.68547 0.0564,0.108389 0,0.228492 0,0.34274 v 0.68547 -0.342735 1.028205 -0.34274 1.02821 c 0,0.228486 0.0866,0.463796 0,0.68547 -0.0968,0.247825 -0.25336,0.504833 -0.5357,0.685469 -0.12627,0.08078 0,-0.456978 0,-0.34274 v 0.685481 c 0,0.114238 0.17857,0.342729 0,0.342729 -0.17857,0 0,-0.456978 0,-0.342729 v 0.6854639 -0.3427349 1.7136799 -0.342745 c 0,0.111895 0.11505,1.640065 0,1.71368 -0.17857,0.114243 -0.5357,-0.504301 -0.5357,-0.342735 0,0.255462 0.25336,0.504828 0.5357,0.685464 0.12626,0.08079 0,-0.456972 0,-0.342729 v 0.685475 c 0,0.114238 -0.17857,-0.342746 0,-0.342746 0.17857,0 0,0.228497 0,0.342746 v 0.685464 -0.342735 0.68547 -0.342735 1.370946 -0.342735 0.685464 -0.342729 c 0,0.228486 0.15971,0.481099 0,0.685469 -0.0798,0.10218 -0.40944,-0.08078 -0.5357,0 -0.12627,0.08078 0,0.228487 0,0.34273 v 0.685475 c 0,0.114233 -0.17857,-0.34274 0,-0.34274 0.17857,0 0,0.228492 0,0.34274 v 0.342741 c 0,0.114232 0.17857,0.342724 0,0.342724 -0.17857,0 0,-0.456978 0,-0.342724 0,0.228486 -0.11293,0.468702 0,0.685459 0.66196,1.27055796 0.5357,-0.09464 0.5357,0 v 0.685464 -0.342724 0.68546996 c 0,0.114238 -0.17857,-0.34274596 0,-0.34274596 0.17857,0 0,0.22849696 0,0.34274596 v 0.68547 c 0,0.114243 -0.12627,-0.423518 0,-0.342735 1.35313,0.865712 0.20585,0.395104 0.5357,1.028205 0.12626,0.242354 0.53569,0.43000174 0.53569,0.68546874 0,0.161566 -0.35712,-0.45697774 -0.53569,-0.342735 -0.25253,0.161572 0,0.456984 0,0.68547 0,0.114249 -0.17857,0.34273 0,0.34273 0.25253,0 -0.94159,0.910108 -0.76303,1.024351 0.25254,0.161555 -0.22806,0.552348 -0.0683,0.756718 -1.36709,1.438335 1.99392,-1.507224 1.90279,-1.438334 -1.90279,1.438334 -1.82292,1.336149 -1.90279,1.438334 -0.15971,0.20437 -0.54684,0.249017 -0.54684,0.477509 l 0.54684,-0.477509 v 0 c 0,0 -2.05131,3.133787 -0.0111,1.642421 -1.37821,2.395286 -0.28234,-0.18063 0,0 0.12627,0.08079 -0.58869,0.88668 -0.41013,0.88668 0.25254,0 2.85975,-2.758061 2.85975,-2.596501 0,0.161566 -2.44962,1.54825 -2.44962,1.709821 0,0.114249 0.93431,0.239586 1.01418,0.341771 0.15971,0.204376 -1.42431,0.316412 -1.42431,0.544909 l 1.00305,0.14249 -0.19393,0.135743 c -0.0936,0.06552 -0.93538,-0.359022 -0.80912,-0.278233 0.28234,0.18063 1.22554,0.01695 1.00305,0.14249 -1.98227,1.118523 -0.35152,0.887638 -0.60405,0.887638 -0.12506,0 -0.55201,-0.353129 0,0 0.12626,0.08079 -0.66819,-0.40819 -0.48961,-0.40819 0.17856,0 -1.62937,2.185396 1.36708,0.957917 0.10572,-0.04331 2.29754,-1.434466 2.11897,-1.434466 -0.71427,0 -1.92504,0.909139 -1.92504,1.366112 0,2.125258 -1.28948,-0.135739 -1.01418,-0.135739 0.17856,0 2.8828,-0.996027 2.93922,-0.887638 0.17857,0.228487 0.35713,0.456978 0.5357,0.685465 0,-0.114243 -0.12626,-0.423518 0,-0.342735 0.28235,0.180641 0.5357,0.430018 0.5357,0.68547 0,0.161571 -0.35713,-0.456978 -0.5357,-0.342735 -0.25253,0.161566 -0.25253,0.523898 0,0.685475 0.17857,0.114243 0.30983,-0.270488 0.5357,-0.34274 0.15971,-0.05111 0.5357,-0.114243 0.5357,0 -0.21627,2.3807204 -0.71427,0.228497 -0.5357,0.34274 0.28234,0.180636 0.25337,0.504829 0.5357,0.685464 0.12626,0.08079 -0.12627,-0.261952 0,-0.342729 0.12626,-0.08078 0.45584,-0.102185 0.53571,0 0.15971,0.204365 0,0.456983 0,0.68547 0,0.114243 -0.12628,-0.261952 0,-0.342741 0.12626,-0.08078 0.35713,0 0.5357,0 0.17855,0 0.53569,-0.114243 0.53569,0 0,0.255468 -0.53569,0.430013 -0.53569,0.68547 0,0.161561 0.30982,-0.270477 0.53569,-0.342729 0.15972,-0.05111 0.35713,0 0.5357,0 0.17857,0 0.5357,-0.114249 0.5357,0 0,0.255462 -0.25336,0.504834 -0.5357,0.685464 -0.12626,0.08079 -0.15971,-0.291637 0,-0.342735 0.31943,-0.102174 0.81887,-0.161565 1.0714,0 0.17857,0.114249 -0.5357,0.181169 -0.5357,0.342735 0,0.2284974 1.07141,-0.228486 1.07141,0 0,0.1142494 -0.71427,0 -0.53571,0 h 1.07141 -0.5357 c 0.35713,0 0.81887,-0.161566 1.0714,0 0.17857,0.1142494 -0.71427,0.2284974 -0.5357,0.3427414 0.25252,0.161565 0.71427,0 1.07139,0 0.17857,0 -0.53569,0.114243 -0.53569,0 0,-0.114244 0.40943,-0.08078 0.53569,0 0.12627,0.08079 -0.15971,0.291642 0,0.342735 0.31943,0.102179 0.71427,0 1.0714,0 0.17857,0 -0.5357,0.114243 -0.5357,0 0,-0.114249 0.35714,0 0.5357,0 0.35714,0 0.9117,-0.20437 1.07141,0 0.17856,0.228491 -0.81804,0.504839 -0.5357,0.685469 0.28233,0.180636 0.78906,-0.162099 1.0714,-0.34274 0.12627,-0.08078 -0.71427,0 -0.5357,0 0.88986,0 2.1428,-0.258171 2.1428,0.685475 0,0.161572 -0.71427,-0.228491 -0.5357,-0.342735 0.0607,-0.03888 1.54636,-0.03888 1.6071,0 0.17857,0.114244 -0.71427,0.228492 -0.53569,0.342735 0.25253,0.161572 0.71426,0 1.07139,0 h -0.5357 c 0.35713,0 0.75197,-0.102185 1.0714,0 0.64031,0.204828 -1.03179,0.68547 0.5357,0.68547 0.17857,0 -0.15972,-0.291642 0,-0.342729 0.31943,-0.102191 0.71427,0 1.0714,0 h -0.53569 1.07139 c 0.17857,0 -0.5357,-0.114249 -0.5357,0 0,0.16156 0.42277,0.198219 0.5357,0.342729 0.0799,0.102185 0.17857,0.342741 0,0.342741 -0.17857,0 -0.15971,-0.291654 0,-0.342741 0.31944,-0.102185 0.71427,0 1.0714,0 0.17857,0 -0.5357,-0.114243 -0.5357,0 0,0.260907 1.60326,0.685465 1.60711,0.685465 0.25253,0 -0.71427,-0.228487 -0.53571,-0.342724 3.03564,-0.228492 0.53571,0.114237 0.53571,0 0,-0.114254 0.40943,-0.08078 0.5357,0 0.25253,0.161565 -0.35714,0.685459 0,0.685459 0.39929,0 0.78906,-0.162089 1.0714,-0.342735 0.12626,-0.08078 -0.71427,0 -0.53571,0 h 1.60711 -0.5357 c 0.35713,0 0.81886,-0.161561 1.0714,0 0.17856,0.114254 -0.71427,0.228497 -0.5357,0.342735 0.25254,0.161571 0.81887,-0.161566 1.0714,0 0.17857,0.114254 -0.35714,0.456978 -0.5357,0.34274 -0.17857,-0.114249 0.29612,-0.291643 0.5357,-0.34274 0.33881,-0.07225 0.71427,0 1.0714,0 h -0.5357 1.0714 -0.5357 c 0.35714,0 0.81887,-0.161566 1.0714,0 0.17856,0.114254 -0.71426,0.228491 -0.5357,0.34274 0.25254,0.161571 0.71426,0 1.0714,0 h 1.0714 -0.5357 2.14281 c 0.35713,0 0.81886,0.161571 1.07139,0 0.17858,-0.114249 -0.76156,-0.270477 -0.5357,-0.34274 0.47915,-0.153267 1.0714,0 1.60711,0 0.17856,0 -0.66197,0.08078 -0.53571,0 0.28235,-0.180631 0.67212,-0.342735 1.0714,-0.342735 0.17857,0 -0.17856,0.342735 0,0.342735 0.88836,0 0.37563,-0.480632 0.53571,-0.685459 0.11294,-0.144516 0.42276,-0.198231 0.5357,-0.342741 0.0798,-0.102185 -0.17857,-0.342729 0,-0.342729 0.17857,0 0,0.228486 0,0.342729 0.35713,-0.228492 0.84553,-0.396455 1.07139,-0.68547 0.0798,-0.102185 -0.35712,0 -0.53569,0 0,-0.114243 -0.099,-0.24768 0,-0.342735 0.28016,-0.268867 0.84552,-0.39645 1.07139,-0.685469 0.0798,-0.10218 -0.45583,0.102179 -0.5357,0 -0.23956,-0.30655 0,-0.6854764 0,-1.0282114 0,-0.114237 -0.0798,-0.240555 0,-0.342729 0.11294,-0.14451 0.45585,-0.189458 0.5357,-0.342741 0.11294,-0.216756 0,-0.456978 0,-0.685464 v -0.685475 -3.42735 c 0,-0.571226 -0.17508,-1.153542 0,-1.713674 0.0495,-0.158426 0.45585,-0.189463 0.53571,-0.342735 0.11294,-0.216762 0,-0.456973 0,-0.685465 v -2.05640874 c 0,-0.34274596 -0.12993,-0.69570796 0,-1.02820996 0.0612,-0.156735 0.45584,-0.189452 0.5357,-0.342735 0.0655,-0.125677 0,-1.997605 0,-2.05641 0,-0.228492 -0.11293,-0.468697 0,-0.685464 0.0798,-0.153278 0.45584,-0.189463 0.5357,-0.342741 0.11294,-0.216762 0,-0.456978 0,-0.68547 v -1.02821 c 0,-0.342729 -0.10506,-0.692121 0,-1.028199 0.0784,-0.250497 0.43886,-0.437639 0.5357,-0.685465 0.0866,-0.221673 0,-0.456978 0,-0.68548 v -1.7136699 c 0,-0.228486 -0.0866,-0.463801 0,-0.685469 0.0968,-0.247837 0.40943,-0.443122 0.5357,-0.68547 0.11293,-0.216762 0,-0.456978 0,-0.68547 v -2.056415 -0.685465 c 0,-0.114254 -0.0799,-0.240555 0,-0.34274 0.11293,-0.14451 0.42277,-0.198225 0.5357,-0.342729 0.0798,-0.102191 0,-0.228498 0,-0.342741 v -0.342735 -1.370945 -1.713664 c 0,-0.228491 0.11293,-0.468713 0,-0.685475 -0.0799,-0.153277 -0.42277,-0.198225 -0.5357,-0.342735 -0.1474,-0.188606 0.1396,-1.788463 0,-2.056415 -0.0799,-0.153272 -0.42277,-0.19822 -0.5357,-0.342729 -0.15972,-0.20437 0.25253,-0.523904 0,-0.685476 -0.12627,-0.08078 -0.5357,0.114249 -0.5357,0 0,-0.161565 0.5357,-0.181163 0.5357,-0.342735 0,-0.110505 -0.92257,-0.495032 -1.0714,-0.685469 -0.15971,-0.20436 0.15972,-0.4811 0,-0.68546 -0.11293,-0.144515 -0.42276,-0.198235 -0.5357,-0.342745 -0.0798,-0.102185 0.12627,-0.261952 0,-0.342735 -0.12627,-0.08078 -0.53571,0.114248 -0.53571,0 0,-0.161566 0.53571,-0.181169 0.53571,-0.34273 0,-0.110516 1.09592,-0.663244 0.9471,-0.853681 -0.15971,-0.204365 2.0185,0.517258 0,0 2.17188,-1.226985 0.85213,-1.866252 0.72587,-1.947035 -0.25253,-0.161566 -0.41278,0.407157 -0.57249,0.202787 -0.11294,-0.14451 0.11293,0.144509 0,0 -0.15971,-0.20437 3.24328,0.48669 0,0 -0.78801,-3.195966 0.46839,-1.246949 0.34213,-1.327732 -4.9e-4,-3.34e-4 -2.29183,-2.242016 -2.2928,-2.243573 -0.0798,-0.153277 -1.17965,-0.998958 -1.29259,-1.143468 -0.0798,-0.10218 0.0799,0.102185 0,0 -0.11294,-0.14451 0.2622,-3.384983 -0.95236,-0.744994 -1.2474,2.711396 0.35712,0.05472 0.35712,-0.05952 0,-2.070046 1.00305,1.06543 0.59524,0.804517 0.10462,-0.697279 -1.20929,-0.825737 -1.36901,-1.030102 -0.0799,-0.10218 2.84017,2.17357 2.6616,2.17357 l -2.6616,-2.17357 c -0.0885,-0.07226 -0.34992,-0.469334 -0.47619,-0.550117 -0.28234,-0.180641 -0.0153,0.076 -0.2976,-0.104645 0.58873,-1.597982 0.17857,0 0,0 -0.17856,0 -0.35643,0.282927 -0.4827,0.202145 -0.12626,-0.08079 -0.3434,-0.345045 -0.46966,-0.425828 -0.12627,-0.08079 3.66452,-0.03491 0.46966,0.425828 -0.12627,-0.08078 -1.11719,-0.613856 -1.24346,-0.694636 -0.12627,-0.08078 0.12627,0.08079 0,0 -0.12627,-0.08078 0.12626,0.08079 0,0 -0.28233,-0.180641 -0.0748,-1.709707 -0.77378,-0.818914 -0.12627,-0.08078 0.12626,-0.08079 0,0 -0.12627,0.08078 -0.63443,0.428597 -0.71428,0.326423 -0.15971,-0.204375 0.25253,0.161571 0,0 -0.0388,-0.533454 0.6757,-4.021965 -0.71427,-0.60964 -0.0674,0.165377 -0.41967,0.256247 -0.47617,0.147858 -0.12626,-0.242348 -0.13433,1.028388 -0.41667,0.847747 -0.12627,-0.08078 0.54294,-0.928535 0.41667,-0.847747 -0.12627,0.08078 -0.87251,1.292661 -0.95237,1.190476 -0.15972,-0.204364 0,-0.456983 0,-0.68547 0,-0.114243 0.12626,0.261958 0,0.342741 -0.12627,0.08078 -0.40944,-0.60469 -0.5357,-0.68547 -0.25253,-0.161571 0.35714,0 0,0 -2.04631,0 1.5193,1.314763 -1.0714,-0.342735 -0.12626,-0.08078 0.12627,0.261947 0,0.342735 -0.12626,0.08078 0.49653,-0.67163 0.41668,-0.77381 -0.15971,-0.20437 -0.95238,0.316832 -0.95238,0.08834 0,-0.456973 0.17856,1.256691 -0.5357,0.34274 -0.15972,-0.20437 0.25254,-0.523915 0,-0.685475 -0.17857,-0.114238 -0.30984,0.414992 -0.5357,0.342735 -0.35713,-0.114244 -0.25336,-0.504823 -0.5357,-0.685465 -0.12627,-0.08079 0,0.228492 0,0.34273 -0.17858,0 -0.40944,0.08078 -0.53571,0 -0.28234,-0.180636 -0.25336,-0.504829 -0.53569,-0.68547 -0.12627,-0.08078 0.15971,0.291648 0,0.34274 -3.03565,0.971086 -0.5357,-0.485543 -0.5357,0 0,0.114243 -0.37599,0.05111 -0.53571,0 -0.22587,-0.07226 -0.30983,-0.270483 -0.5357,-0.34274 -0.15971,-0.05105 -0.40943,0.08079 -0.5357,0 -0.12626,-0.08078 0.17857,-0.34273 0,-0.34273 -0.25253,0 -0.30983,0.270478 -0.5357,0.34273 -0.2124,0.06794 -1.49758,-0.07007 -1.6071,0 -0.12627,0.08079 0.12626,0.261952 0,0.34274 -0.25253,0.161566 -0.81887,-0.161576 -1.0714,0 -0.12626,0.08078 0.17857,0.34273 0,0.34273 -0.25253,0 -0.28317,-0.34273 -0.5357,-0.34273 -0.17856,0 0.12627,0.261947 0,0.34273 -0.28234,0.180636 -0.67211,0.342735 -1.0714,0.342735 -0.25253,0 0.78824,-0.342735 0.53571,-0.342735 -0.3993,0 -0.78907,0.162104 -1.07141,0.342735 -0.12627,0.08079 0.40943,-0.08078 0.5357,0 0.12627,0.08079 0.17856,0.34274 0,0.34274 -0.17857,0 0.15972,-0.291642 0,-0.34274 -0.31943,-0.102185 -0.71427,0 -1.0714,0 -0.17858,0 0.5357,-0.114244 0.5357,0 0,0.713189 -0.75125,0.137907 -1.0714,0.34274 -0.12627,0.08078 0.17857,0.342735 0,0.342735 -0.17857,0 0.12627,-0.261952 0,-0.342735 -0.12627,-0.08078 -0.40943,-0.08078 -0.5357,0 -0.12627,0.08078 -0.11183,-0.809482 -0.2381,-0.728694 -0.25253,0.16156 -0.58077,0.909858 -0.83331,1.071429 -0.12626,0.08078 0.17857,0.342729 0,0.342729 -0.17856,0 -0.17856,-0.342729 0,-0.342729 0.17857,0 0.12627,0.261952 0,0.342729 -0.12626,0.08079 -0.41665,-1.130952 -0.59522,-1.130952 -1.27194,0 -0.30293,1.158692 -2.61898,0.788223 z"
         id="path4955"
         inkscape:connector-curvature="0"
         sodipodi:nodetypes="cccccccscsscsccsscssscssccscccscccccccsccccccccssssssssscccsccssccsssscsssssscccccsscsscccccscccscsccccsccsssscccccscssssccccccccccssssssscsccssssccscssccscccsccssscccscsscssssscccsccccccccscssscsscccsssccccssccssscccssccccccscccsscscssscscscscccccccccccccsccsccscssccsccccccsccscsccssccsccssccssccscsccsccscccccssccccssccscccccccsscccsccsccccccccccsccccsccscccsccccccccscccsscccsscssccscsscsccccsscscc" />
      <path
         sodipodi:nodetypes="sssssssssscscsccssscccsccccssscccsccsssss"
         id="path4983"
         d="m 128.516,-40.322594 c -9.87738,0 -20.50465,3.560315 -20.50465,11.383201 V 4.3345806 c 0,7.8193834 10.62727,11.3832024 20.50465,11.3832024 9.87592,0 20.50465,-3.563819 20.50465,-11.3832024 V -28.939393 c 0,-7.822886 -10.6302,-11.383201 -20.50465,-11.383201 z m 17.57542,44.6571746 c 0,4.350135 -7.8694,7.8806784 -17.57542,7.8806784 -9.70749,0 -17.57541,-3.5305434 -17.57541,-7.8806784 v -6.5427137 c 3.0259,3.7284357 10.32555,5.6670827 17.57541,5.6670827 7.24986,0 14.54952,-1.938647 17.57542,-5.6670827 z m 0,-10.5075697 h -0.006 c 0,0.01751 0.006,0.03678 0.006,0.05429 0,4.323865 -7.8694,7.8263887 -17.57542,7.8263887 -9.70602,0 -17.57541,-3.5025237 -17.57541,-7.8263887 0,-0.01751 0.006,-0.03678 0.006,-0.05429 h -0.006 v -6.5427129 c 3.0259,3.7284349 10.32555,5.6670829 17.57541,5.6670829 7.24986,0 14.54952,-1.938648 17.57542,-5.6670829 z m 0,-10.5075709 h -0.006 c 0,0.01751 0.006,0.03678 0.006,0.05429 0,4.323865 -7.8694,7.8263889 -17.57542,7.8263889 -9.70602,0 -17.57541,-3.5025239 -17.57541,-7.8263889 0,-0.01751 0.006,-0.03678 0.006,-0.05429 h -0.006 v -6.017336 c 3.83876,3.49727 10.87478,5.141705 17.57541,5.141705 6.70063,0 13.73665,-1.644435 17.57542,-5.141705 z m -17.45651,-3.307999 c -9.70749,0 -18.52666,-4.719606 -18.52666,-9.069741 0,-4.353635 8.81917,-9.426455 18.52666,-9.426455 9.70602,0 18.28885,5.191726 18.28885,9.545362 0,4.350135 -8.58283,8.950834 -18.28885,8.950834 z"
         inkscape:connector-curvature="0"
         style="fill:#6bcad0;fill-opacity:1;stroke:none;stroke-width:0;stroke-miterlimit:0;stroke-dasharray:none;stroke-dashoffset:0;stroke-opacity:1" />
    </g>
  </g>
  <style
     id="style2-02">.st0{fill:#f05135}.st1{fill:#083b54}.st2{fill:#6acad1}.st3{fill:#f59223}.st4{stroke:#f05135;stroke-width:2.5;stroke-miterlimit:10}.st4,.st5,.st6,.st7{fill:none}.st5,.st6,.st7,.st8{stroke-width:2.5;stroke-miterlimit:10}.st5{stroke:#083b54}.st6{stroke:#6acad1}.st7{stroke:#f59223}.st8{fill:#fdd9c8;stroke:#f05135}.st10,.st11,.st12,.st13,.st14,.st15,.st9{stroke-width:2.5;stroke-miterlimit:10}.st9{fill:#d3d5db;stroke:#083b54}.st10{fill:#e0f2f3;stroke:#6acad1}.st11{fill:#fee5cb;stroke:#f59223}.st12{stroke:#f05135}.st12,.st13,.st14,.st15{fill:#fff}.st13{stroke:#083b54}.st14{stroke:#6acad1}.st15{stroke:#f59223}.st16{fill:#e0f2f3}.st17,.st18{stroke-linejoin:round}.st17{stroke:#d3d5db;stroke-miterlimit:10;fill:#d3d5db}.st18{fill:#fff;stroke-width:2.5}.st18,.st19,.st20{stroke:#6acad1;stroke-miterlimit:10}.st19{stroke-linejoin:round;fill:#e0f2f3;stroke-width:2.5}.st20{fill:none;stroke-width:1.5}.st21{fill:#d3d5db}.st22{fill:#fff}.st23,.st24{fill:none;stroke:#f05135;stroke-miterlimit:10}.st24{stroke:#d3d5db;stroke-width:.5}.st25,.st26{stroke:#063b54}.st25,.st26,.st27,.st28{stroke-miterlimit:10}.st25{stroke-linejoin:round;fill:#083b54;stroke-width:.5}.st26{stroke-width:.7}.st26,.st27,.st28{fill:none}.st27{stroke:#d3d5db;stroke-width:.3}.st28{stroke:#6acad1;stroke-width:2.5;stroke-linejoin:round}.st29{fill:#063b54}.st30{fill:none;stroke:#f05135;stroke-width:2.5;stroke-linecap:round}.st30,.st31,.st32{stroke-miterlimit:10}.st31{stroke-linejoin:round;fill:#083b54;stroke:#063b54}.st32,.st33{fill:none;stroke:#e0f2f3}.st33{stroke:#6acad1;stroke-linecap:round}.st33,.st34,.st35{stroke-linejoin:round;stroke-miterlimit:10}.st34{stroke-width:2.5;stroke-linecap:round;fill:none;stroke:#6acad1}.st35{fill:#f05135;stroke:#f05235}.st36{stroke:#f05135;stroke-width:2;stroke-linecap:round}.st36,.st37,.st38,.st39,.st40{fill:none;stroke-miterlimit:10}.st37{stroke-linecap:round;stroke:#e0f2f3;stroke-width:1.5}.st38{stroke:#063b54;stroke-width:2.5}.st39,.st40{stroke:#fcc941;stroke-width:2}.st40{stroke:#f05135}</style>
  <style
     id="style2-0">.st0{fill:#f05135}.st1{fill:#083b54}.st2{fill:#6acad1}.st3{fill:#f59223}.st4{stroke:#f05135;stroke-width:2.5;stroke-miterlimit:10}.st4,.st5,.st6,.st7{fill:none}.st5,.st6,.st7,.st8{stroke-width:2.5;stroke-miterlimit:10}.st5{stroke:#083b54}.st6{stroke:#6acad1}.st7{stroke:#f59223}.st8{fill:#fdd9c8;stroke:#f05135}.st10,.st11,.st12,.st13,.st14,.st15,.st9{stroke-width:2.5;stroke-miterlimit:10}.st9{fill:#d3d5db;stroke:#083b54}.st10{fill:#e0f2f3;stroke:#6acad1}.st11{fill:#fee5cb;stroke:#f59223}.st12{stroke:#f05135}.st12,.st13,.st14,.st15{fill:#fff}.st13{stroke:#083b54}.st14{stroke:#6acad1}.st15{stroke:#f59223}.st16{fill:#e0f2f3}.st17,.st18{stroke-linejoin:round}.st17{stroke:#d3d5db;stroke-miterlimit:10;fill:#d3d5db}.st18{fill:#fff;stroke-width:2.5}.st18,.st19,.st20{stroke:#6acad1;stroke-miterlimit:10}.st19{stroke-linejoin:round;fill:#e0f2f3;stroke-width:2.5}.st20{fill:none;stroke-width:1.5}.st21{fill:#d3d5db}.st22{fill:#fff}.st23,.st24{fill:none;stroke:#f05135;stroke-miterlimit:10}.st24{stroke:#d3d5db;stroke-width:.5}.st25,.st26{stroke:#063b54}.st25,.st26,.st27,.st28{stroke-miterlimit:10}.st25{stroke-linejoin:round;fill:#083b54;stroke-width:.5}.st26{stroke-width:.7}.st26,.st27,.st28{fill:none}.st27{stroke:#d3d5db;stroke-width:.3}.st28{stroke:#6acad1;stroke-width:2.5;stroke-linejoin:round}.st29{fill:#063b54}.st30{fill:none;stroke:#f05135;stroke-width:2.5;stroke-linecap:round}.st30,.st31,.st32{stroke-miterlimit:10}.st31{stroke-linejoin:round;fill:#083b54;stroke:#063b54}.st32,.st33{fill:none;stroke:#e0f2f3}.st33{stroke:#6acad1;stroke-linecap:round}.st33,.st34,.st35{stroke-linejoin:round;stroke-miterlimit:10}.st34{stroke-width:2.5;stroke-linecap:round;fill:none;stroke:#6acad1}.st35{fill:#f05135;stroke:#f05235}.st36{stroke:#f05135;stroke-width:2;stroke-linecap:round}.st36,.st37,.st38,.st39,.st40{fill:none;stroke-miterlimit:10}.st37{stroke-linecap:round;stroke:#e0f2f3;stroke-width:1.5}.st38{stroke:#063b54;stroke-width:2.5}.st39,.st40{stroke:#fcc941;stroke-width:2}.st40{stroke:#f05135}</style>
  <style
     id="style2-7">.st0{opacity:.19}.st1{fill:#e0f2f3;stroke:#6bcad0;stroke-miterlimit:10}.st1,.st2{stroke-width:2.5}.st2,.st3{stroke:#6bcad0;stroke-miterlimit:10}.st2,.st3{fill:#fff}.st3{stroke-width:2}.st4{fill:#ffe5ca;stroke:#f59223}.st4,.st5,.st6{stroke-miterlimit:10}.st5{stroke-linecap:round;opacity:.5;fill:#fff;stroke:#6bcad0}.st6{opacity:.3;fill:none;stroke:#f59223}.st7{fill:#f05234}.st8{fill:#fff}.st9{opacity:.5}.st10,.st11{fill:#fff;stroke:#083b54;stroke-width:2.5;stroke-miterlimit:10}.st11{fill:#d3d4db}.st12{fill:#083b54}.st13{fill:#e0f2f3;stroke:#6bcad0;stroke-width:1.9999;stroke-miterlimit:10}.st14{opacity:.5;fill:#6bcad0}.st15,.st16{opacity:.2;fill:#083b54}.st16{opacity:.3}.st17{opacity:.5}.st17,.st18,.st19{fill:#083b54}.st18{opacity:.85}.st19{opacity:.7}.st20{fill:#f59223}.st21{fill:#6bcad0}.st22{opacity:.2;fill:none;stroke:#f59223}.st22,.st23,.st24{stroke-miterlimit:10}.st23{stroke-linecap:round;fill:none;stroke:#6bcad0;stroke-width:2}.st24{fill:#f05234;stroke:#ef5434;stroke-width:.7758;stroke-linejoin:round}.st25,.st26,.st27{fill:none;stroke:#6bcad0;stroke-width:2.5;stroke-linecap:round;stroke-miterlimit:10}.st26,.st27{stroke-width:2.4797}.st27{opacity:.3}.st28{opacity:.6}.st28,.st29{fill:none;stroke:#6bcad0;stroke-width:3;stroke-linecap:round;stroke-linejoin:round;stroke-miterlimit:10}</style>
  <style
     id="style2-2">.st0{fill:#f05135}.st1{fill:#083b54}.st2{fill:#6acad1}.st3{fill:#f59223}.st4{stroke:#f05135;stroke-width:2.5;stroke-miterlimit:10}.st4,.st5,.st6,.st7{fill:none}.st5,.st6,.st7,.st8{stroke-width:2.5;stroke-miterlimit:10}.st5{stroke:#083b54}.st6{stroke:#6acad1}.st7{stroke:#f59223}.st8{fill:#fdd9c8;stroke:#f05135}.st10,.st11,.st12,.st13,.st14,.st15,.st9{stroke-width:2.5;stroke-miterlimit:10}.st9{fill:#d3d5db;stroke:#083b54}.st10{fill:#e0f2f3;stroke:#6acad1}.st11{fill:#fee5cb;stroke:#f59223}.st12{stroke:#f05135}.st12,.st13,.st14,.st15{fill:#fff}.st13{stroke:#083b54}.st14{stroke:#6acad1}.st15{stroke:#f59223}.st16{fill:#e0f2f3}.st17,.st18{stroke-linejoin:round}.st17{stroke:#d3d5db;stroke-miterlimit:10;fill:#d3d5db}.st18{fill:#fff;stroke-width:2.5}.st18,.st19,.st20{stroke:#6acad1;stroke-miterlimit:10}.st19{stroke-linejoin:round;fill:#e0f2f3;stroke-width:2.5}.st20{fill:none;stroke-width:1.5}.st21{fill:#d3d5db}.st22{fill:#fff}.st23,.st24{fill:none;stroke:#f05135;stroke-miterlimit:10}.st24{stroke:#d3d5db;stroke-width:.5}.st25,.st26{stroke:#063b54}.st25,.st26,.st27,.st28{stroke-miterlimit:10}.st25{stroke-linejoin:round;fill:#083b54;stroke-width:.5}.st26{stroke-width:.7}.st26,.st27,.st28{fill:none}.st27{stroke:#d3d5db;stroke-width:.3}.st28{stroke:#6acad1;stroke-width:2.5;stroke-linejoin:round}.st29{fill:#063b54}.st30{fill:none;stroke:#f05135;stroke-width:2.5;stroke-linecap:round}.st30,.st31,.st32{stroke-miterlimit:10}.st31{stroke-linejoin:round;fill:#083b54;stroke:#063b54}.st32,.st33{fill:none;stroke:#e0f2f3}.st33{stroke:#6acad1;stroke-linecap:round}.st33,.st34,.st35{stroke-linejoin:round;stroke-miterlimit:10}.st34{stroke-width:2.5;stroke-linecap:round;fill:none;stroke:#6acad1}.st35{fill:#f05135;stroke:#f05235}.st36{stroke:#f05135;stroke-width:2;stroke-linecap:round}.st36,.st37,.st38,.st39,.st40{fill:none;stroke-miterlimit:10}.st37{stroke-linecap:round;stroke:#e0f2f3;stroke-width:1.5}.st38{stroke:#063b54;stroke-width:2.5}.st39,.st40{stroke:#fcc941;stroke-width:2}.st40{stroke:#f05135}</style>
  <style
     id="style2-7-0">.st0{opacity:.19}.st1{fill:#e0f2f3;stroke:#6bcad0;stroke-miterlimit:10}.st1,.st2{stroke-width:2.5}.st2,.st3{stroke:#6bcad0;stroke-miterlimit:10}.st2,.st3{fill:#fff}.st3{stroke-width:2}.st4{fill:#ffe5ca;stroke:#f59223}.st4,.st5,.st6{stroke-miterlimit:10}.st5{stroke-linecap:round;opacity:.5;fill:#fff;stroke:#6bcad0}.st6{opacity:.3;fill:none;stroke:#f59223}.st7{fill:#f05234}.st8{fill:#fff}.st9{opacity:.5}.st10,.st11{fill:#fff;stroke:#083b54;stroke-width:2.5;stroke-miterlimit:10}.st11{fill:#d3d4db}.st12{fill:#083b54}.st13{fill:#e0f2f3;stroke:#6bcad0;stroke-width:1.9999;stroke-miterlimit:10}.st14{opacity:.5;fill:#6bcad0}.st15,.st16{opacity:.2;fill:#083b54}.st16{opacity:.3}.st17{opacity:.5}.st17,.st18,.st19{fill:#083b54}.st18{opacity:.85}.st19{opacity:.7}.st20{fill:#f59223}.st21{fill:#6bcad0}.st22{opacity:.2;fill:none;stroke:#f59223}.st22,.st23,.st24{stroke-miterlimit:10}.st23{stroke-linecap:round;fill:none;stroke:#6bcad0;stroke-width:2}.st24{fill:#f05234;stroke:#ef5434;stroke-width:.7758;stroke-linejoin:round}.st25,.st26,.st27{fill:none;stroke:#6bcad0;stroke-width:2.5;stroke-linecap:round;stroke-miterlimit:10}.st26,.st27{stroke-width:2.4797}.st27{opacity:.3}.st28{opacity:.6}.st28,.st29{fill:none;stroke:#6bcad0;stroke-width:3;stroke-linecap:round;stroke-linejoin:round;stroke-miterlimit:10}</style>
  <style
     id="style2-9">.st0{opacity:.19}.st1{fill:#e0f2f3;stroke:#6bcad0;stroke-miterlimit:10}.st1,.st2{stroke-width:2.5}.st2,.st3{stroke:#6bcad0;stroke-miterlimit:10}.st2,.st3{fill:#fff}.st3{stroke-width:2}.st4{fill:#ffe5ca;stroke:#f59223}.st4,.st5,.st6{stroke-miterlimit:10}.st5{stroke-linecap:round;opacity:.5;fill:#fff;stroke:#6bcad0}.st6{opacity:.3;fill:none;stroke:#f59223}.st7{fill:#f05234}.st8{fill:#fff}.st9{opacity:.5}.st10,.st11{fill:#fff;stroke:#083b54;stroke-width:2.5;stroke-miterlimit:10}.st11{fill:#d3d4db}.st12{fill:#083b54}.st13{fill:#e0f2f3;stroke:#6bcad0;stroke-width:1.9999;stroke-miterlimit:10}.st14{opacity:.5;fill:#6bcad0}.st15,.st16{opacity:.2;fill:#083b54}.st16{opacity:.3}.st17{opacity:.5}.st17,.st18,.st19{fill:#083b54}.st18{opacity:.85}.st19{opacity:.7}.st20{fill:#f59223}.st21{fill:#6bcad0}.st22{opacity:.2;fill:none;stroke:#f59223}.st22,.st23,.st24{stroke-miterlimit:10}.st23{stroke-linecap:round;fill:none;stroke:#6bcad0;stroke-width:2}.st24{fill:#f05234;stroke:#ef5434;stroke-width:.7758;stroke-linejoin:round}.st25,.st26,.st27{fill:none;stroke:#6bcad0;stroke-width:2.5;stroke-linecap:round;stroke-miterlimit:10}.st26,.st27{stroke-width:2.4797}.st27{opacity:.3}.st28{opacity:.6}.st28,.st29{fill:none;stroke:#6bcad0;stroke-width:3;stroke-linecap:round;stroke-linejoin:round;stroke-miterlimit:10}</style>
</svg>
