<?xml version="1.0" encoding="UTF-8" standalone="no"?>
<!-- Generator: Adobe Illustrator 16.0.0, SVG Export Plug-In . SVG Version: 6.00 Build 0)  -->

<svg
   xmlns:dc="http://purl.org/dc/elements/1.1/"
   xmlns:cc="http://creativecommons.org/ns#"
   xmlns:rdf="http://www.w3.org/1999/02/22-rdf-syntax-ns#"
   xmlns:svg="http://www.w3.org/2000/svg"
   xmlns="http://www.w3.org/2000/svg"
   xmlns:xlink="http://www.w3.org/1999/xlink"
   xmlns:sodipodi="http://sodipodi.sourceforge.net/DTD/sodipodi-0.dtd"
   xmlns:inkscape="http://www.inkscape.org/namespaces/inkscape"
   version="1.1"
   x="0px"
   y="0px"
   width="1300"
   height="1300"
   viewBox="0 0 1300 1300"
   enable-background="new 0 0 8000 8000"
   xml:space="preserve"
   id="svg119891"
   sodipodi:docname="data-monetize.svg"
   inkscape:version="0.92.2 5c3e80d, 2017-08-06"><metadata
     id="metadata119897"><rdf:RDF><cc:Work
         rdf:about=""><dc:format>image/svg+xml</dc:format><dc:type
           rdf:resource="http://purl.org/dc/dcmitype/StillImage" /><dc:title /></cc:Work></rdf:RDF></metadata><defs
     id="defs119895" /><sodipodi:namedview
     pagecolor="#ffffff"
     bordercolor="#666666"
     borderopacity="1"
     objecttolerance="10"
     gridtolerance="10"
     guidetolerance="10"
     inkscape:pageopacity="0"
     inkscape:pageshadow="2"
     inkscape:window-width="1920"
     inkscape:window-height="983"
     id="namedview119893"
     showgrid="false"
     inkscape:zoom="0.1668772"
     inkscape:cx="1562.3297"
     inkscape:cy="1649.3082"
     inkscape:window-x="0"
     inkscape:window-y="1"
     inkscape:window-maximized="1"
     inkscape:current-layer="svg119891" /><g
     id="Layer_5"
     style="display:inline"
     transform="translate(-2145.29,-1097.0776)"><circle
       id="Background_2_25_"
       cx="2825.5879"
       cy="1756.877"
       r="532"
       style="display:inline;fill:#e8e8e8" /><g
       id="g118959"
       style="display:inline"
       transform="translate(-596.24683,-128.83725)"><g
         id="g118867"><g
           id="g118865"><path
             d="m 3199.348,2199.779 h -0.063 v -42.728 h 0.134 c -0.035,-0.387 -0.07,-0.773 -0.07,-1.166 0,-1.2 0.164,-2.385 0.463,-3.555 -0.299,-1.165 -0.463,-2.353 -0.463,-3.552 h -0.063 v -42.729 h 0.103 c -0.032,-0.387 -0.067,-0.771 -0.067,-1.163 0,-1.218 0.172,-2.418 0.475,-3.604 -0.29,-1.149 -0.447,-2.32 -0.447,-3.501 h -0.063 v -42.728 h 0.177 c -0.042,-0.393 -0.142,-0.773 -0.142,-1.165 0,-0.714 0.073,-1.423 0.178,-2.128 -0.01,-0.088 -0.031,-0.176 -0.037,-0.263 -0.042,-0.389 -0.142,-0.771 -0.142,-1.164 0,-16.288 28.082,-29.771 64.696,-32.119 -1.45,-9.299 -4.166,-19.206 -8.879,-28.999 -9.473,-19.686 -26.973,-38.901 -58.305,-51.826 -23.062,-9.515 -43.068,-10.875 -60.094,-7.601 -46.881,9.021 -71.15,53.234 -74.343,59.426 -0.244,0.475 -0.361,0.724 -0.361,0.724 0,0 -0.185,-0.255 -0.553,-0.724 -2.294,-2.887 -11.875,-13.8 -30.487,-20.447 -15.265,-5.452 -36.605,-8.025 -65,-0.929 -16.413,4.106 -28.618,11.896 -37.704,21.376 -28.877,30.122 -26.196,77.271 -26.196,77.271 0,0 -90.25,-5.718 -90.25,75.393 0,0.137 0,0.255 0,0.387 0.255,80.706 79.967,77.298 79.967,77.298 h 323.3 c -9.878,-5.475 -15.768,-12.333 -15.768,-19.782 z"
             id="path118863"
             style="fill:#ac9d93;fill-opacity:1"
             inkscape:connector-curvature="0" /></g></g><g
         id="g118897"><g
           id="g118877"><path
             d="m 3357.574,2199.605 v -43.72 l -152.206,1.166 v 42.728 h 0.066 c 0,17.933 34.061,32.475 76.076,32.475 42.016,0 76.078,-14.542 76.078,-32.475 0,-0.059 -0.014,-0.117 -0.014,-0.174 z"
             id="path118869"
             inkscape:connector-curvature="0"
             style="fill:#61c4b7" /><g
             id="g118875"><path
               d="m 3357.588,2155.886 c 0,17.936 -34.062,32.478 -76.078,32.478 -42.015,0 -76.076,-14.542 -76.076,-32.478 0,-17.941 34.061,-32.479 76.076,-32.479 42.016,0 76.078,14.537 76.078,32.479 z"
               id="path118871"
               inkscape:connector-curvature="0"
               style="fill:#fffdf5" /><path
               d="m 3281.511,2130.321 c 39.587,0 69.166,13.496 69.166,25.564 0,12.065 -29.579,25.56 -69.166,25.56 -39.585,0 -69.165,-13.495 -69.165,-25.56 0,-12.068 29.579,-25.564 69.165,-25.564 m 0,-6.914 c -42.015,0 -76.076,14.538 -76.076,32.479 0,17.936 34.061,32.478 76.076,32.478 42.016,0 76.078,-14.542 76.078,-32.478 -10e-4,-17.942 -34.063,-32.479 -76.078,-32.479 z"
               id="path118873"
               inkscape:connector-curvature="0"
               style="fill:#fffdf5" /></g></g><path
           d="m 3357.574,2148.607 v -43.721 l -152.206,1.165 v 42.729 h 0.066 c 0,17.935 34.061,32.476 76.076,32.476 42.016,0 76.078,-14.542 76.078,-32.476 0,-0.058 -0.014,-0.117 -0.014,-0.173 z"
           id="path118879"
           inkscape:connector-curvature="0"
           style="fill:#61c4b7" /><g
           id="g118885"><path
             d="m 3357.564,2104.886 c 0,17.936 -34.062,32.478 -76.083,32.478 -42.014,0 -76.077,-14.542 -76.077,-32.478 0,-17.94 34.063,-32.479 76.077,-32.479 42.021,0 76.083,14.539 76.083,32.479 z"
             id="path118881"
             inkscape:connector-curvature="0"
             style="fill:#fffdf5" /><path
             d="m 3281.481,2079.322 c 39.592,0 69.167,13.494 69.167,25.563 0,12.065 -29.576,25.561 -69.167,25.561 -39.583,0 -69.159,-13.496 -69.159,-25.561 0,-12.069 29.575,-25.563 69.159,-25.563 m 0,-6.915 c -42.014,0 -76.077,14.539 -76.077,32.479 0,17.936 34.063,32.478 76.077,32.478 42.021,0 76.083,-14.542 76.083,-32.478 0,-17.94 -34.062,-32.479 -76.083,-32.479 z"
             id="path118883"
             inkscape:connector-curvature="0"
             style="fill:#fffdf5" /></g><g
           id="g118893"><path
             d="m 3357.574,2097.608 v -43.721 h -0.01 c 0,17.935 -34.062,32.475 -76.083,32.475 -41.099,0 -74.494,-13.917 -75.934,-31.311 h -0.179 v 42.728 h 0.066 c 0,17.934 34.061,32.477 76.076,32.477 42.016,0 76.078,-14.543 76.078,-32.477 0,-0.057 -0.015,-0.116 -0.015,-0.171 z"
             id="path118887"
             inkscape:connector-curvature="0"
             style="fill:#61c4b7" /><path
             d="m 3281.118,2026.051 c -39.585,0 -75.602,16.17 -68.796,31.197 0.143,0.333 0.112,0.74 0.167,1.108 1.728,11.769 30.616,24.451 68.993,24.451 39.527,0 69.074,-13.457 69.16,-25.508 0,-0.019 0,-0.037 0.01,-0.051 6.062,-15.866 -29.943,-31.197 -69.531,-31.197 z"
             id="path118889"
             inkscape:connector-curvature="0"
             style="display:inline;fill:#fffdf5" /><path
             d="m 3281.481,2021.408 c -42.014,0 -76.077,14.539 -76.077,32.479 0,0.392 0.101,0.771 0.143,1.165 1.44,17.394 34.835,31.311 75.934,31.311 42.021,0 76.083,-14.54 76.083,-32.475 0,-17.941 -34.062,-32.48 -76.083,-32.48 z m 0,58.038 c -38.376,0 -67.265,-12.682 -68.993,-24.448 -0.054,-0.371 -0.167,-0.743 -0.167,-1.111 0,-12.07 29.576,-25.566 69.159,-25.566 39.592,0 69.167,13.496 69.167,25.566 0,0.019 -0.01,0.035 -0.01,0.054 -0.085,12.051 -29.632,25.505 -69.159,25.505 z"
             id="path118891"
             inkscape:connector-curvature="0"
             style="display:inline;fill:#fffdf5" /></g><path
           d="m 3281.481,2017.851 c -42.014,0 -76.077,14.542 -76.077,32.482 0,0.393 0.101,0.775 0.143,1.164 1.44,17.392 34.835,31.311 75.934,31.311 42.021,0 76.083,-14.538 76.083,-32.475 0,-17.94 -34.062,-32.482 -76.083,-32.482 z m 0,58.04 c -38.376,0 -67.265,-12.681 -68.993,-24.446 -0.054,-0.375 -0.167,-0.745 -0.167,-1.113 0,-12.069 29.576,-25.564 69.159,-25.564 39.592,0 69.167,13.495 69.167,25.564 0,0.016 -0.01,0.035 -0.01,0.054 -0.085,12.051 -29.632,25.505 -69.159,25.505 z"
           id="path118895"
           inkscape:connector-curvature="0"
           style="fill:#61c4b7" /></g><g
         id="g118909"><g
           id="g118907"><path
             d="m 3031.804,2055.148 49.663,-41.378 c -0.266,-0.049 -0.505,-0.157 -0.787,-0.157 h -97.752 c -0.267,0 -0.513,0.108 -0.78,0.157 z"
             id="path118899"
             inkscape:connector-curvature="0"
             style="fill:#483737" /><path
             d="m 3085.121,2018.055 c 0,-0.468 -0.131,-0.897 -0.267,-1.322 l -35.209,29.339 35.265,35.268 c 0.084,-0.359 0.211,-0.699 0.211,-1.081 z"
             id="path118901"
             inkscape:connector-curvature="0"
             style="fill:#483737" /><path
             d="m 2978.76,2016.725 c -0.14,0.426 -0.272,0.858 -0.272,1.33 v 62.204 c 0,0.383 0.127,0.727 0.221,1.083 l 35.269,-35.266 z"
             id="path118903"
             inkscape:connector-curvature="0"
             style="fill:#483737" /><path
             d="m 3046.213,2048.928 -12.986,10.82 c -0.407,0.344 -0.909,0.514 -1.423,0.514 -0.502,0 -1.004,-0.169 -1.42,-0.514 l -12.979,-10.813 -35.549,35.544 c 0.347,0.095 0.697,0.22 1.071,0.22 h 97.752 c 0.387,0 0.731,-0.125 1.09,-0.22 z"
             id="path118905"
             inkscape:connector-curvature="0"
             style="fill:#483737" /></g></g><g
         id="g118921"
         style="display:none"
         inkscape:label="gear"><g
           id="g118917"
           style="display:inline"><g
             id="g118915"><g
               id="g118913"><path
                 d="m 2930.447,2200.897 17.151,-10.268 -5.869,-9.803 c 1.137,-1.148 2.182,-2.367 3.152,-3.632 l 10.521,4.487 7.836,-18.394 -10.516,-4.483 c 0.24,-1.585 0.371,-3.181 0.412,-4.784 l 11.156,-2.559 -4.464,-19.485 -11.151,2.553 c -0.363,-0.701 -0.752,-1.402 -1.167,-2.093 -0.415,-0.695 -0.85,-1.368 -1.298,-2.017 l 7.517,-8.634 -15.064,-13.134 -7.524,8.628 c -1.431,-0.719 -2.902,-1.358 -4.412,-1.896 l 1.006,-11.394 -19.905,-1.771 -1.016,11.392 c -1.568,0.265 -3.138,0.611 -4.686,1.067 l -5.872,-9.807 -17.152,10.27 5.873,9.804 c -1.136,1.15 -2.18,2.374 -3.155,3.633 l -10.524,-4.485 -7.841,18.385 10.521,4.489 c -0.241,1.585 -0.368,3.18 -0.417,4.788 l -11.157,2.555 4.464,19.482 11.158,-2.55 c 0.365,0.703 0.75,1.402 1.164,2.097 0.415,0.692 0.852,1.363 1.301,2.016 l -7.521,8.627 15.064,13.136 7.521,-8.625 c 1.44,0.718 2.906,1.357 4.421,1.895 l -1.018,11.387 19.915,1.779 1.017,-11.395 c 1.572,-0.259 3.14,-0.602 4.687,-1.064 z m -27.391,-41.847 c -3.401,-5.681 -1.549,-13.052 4.134,-16.454 5.684,-3.403 13.049,-1.551 16.45,4.13 3.403,5.683 1.557,13.052 -4.125,16.454 -5.682,3.403 -13.057,1.553 -16.459,-4.13 z"
                 id="path118911"
                 inkscape:connector-curvature="0"
                 style="display:inline;fill:#f6b53d" /></g></g></g><path
           d="m 2887.994,2168.065 c -8.369,-13.981 -3.804,-32.166 10.176,-40.534 13.98,-8.371 32.164,-3.806 40.535,10.173 8.371,13.981 3.806,32.165 -10.176,40.535 -13.98,8.369 -32.163,3.806 -40.535,-10.174 z m 48.417,-28.986 c -7.614,-12.717 -24.151,-16.869 -36.87,-9.255 -12.716,7.613 -16.867,24.154 -9.254,36.867 7.615,12.721 24.153,16.869 36.87,9.257 12.717,-7.615 16.869,-24.156 9.254,-36.869 z"
           id="path118919"
           inkscape:connector-curvature="0"
           style="fill:#fffdf5" /></g><path
         d="m 3163.738,2150.168 c -0.669,-12.648 -5.959,-24.068 -14.219,-32.615 l -29.166,32.615 -2.94,3.304 0.826,2.154 16.792,43.135 c 16.26,-7.855 27.699,-24.104 28.707,-43.135 0.047,-0.902 0.075,-1.81 0.075,-2.716 0,-0.921 -0.028,-1.834 -0.075,-2.742 z"
         id="path118923"
         inkscape:connector-curvature="0"
         style="fill:#f41414" /><path
         d="m 3110.038,2156.163 h -4.231 -45.784 -0.328 c 0.702,13.366 6.581,25.374 15.657,34.058 1.316,1.253 2.696,2.437 4.143,3.566 8.59,6.618 19.36,10.57 31.047,10.57 0.217,0 0.429,-0.012 0.643,-0.014 5.768,-0.072 11.303,-1.102 16.457,-2.944 l -16.666,-42.833 z"
         id="path118925"
         inkscape:connector-curvature="0"
         style="fill:#177007" /><path
         d="m 3109.205,2148.354 h 2.77 l 0.059,-0.068 2.084,-2.332 30.35,-33.949 c -8.84,-7.388 -20.218,-11.851 -32.64,-11.835 -0.563,0 -1.122,0.013 -1.68,0.031 -0.16,0 -0.323,0.011 -0.481,0.019 -0.406,0.017 -0.806,0.039 -1.207,0.067 -0.284,0.017 -0.567,0.038 -0.851,0.062 -0.378,0.032 -0.755,0.065 -1.13,0.105 -0.258,0.025 -0.508,0.057 -0.761,0.087 -0.323,0.037 -0.646,0.08 -0.966,0.125 -0.201,0.027 -0.403,0.054 -0.602,0.083 -0.538,0.082 -1.077,0.17 -1.609,0.27 -0.051,0.01 -0.103,0.019 -0.152,0.03 -0.569,0.106 -1.133,0.226 -1.692,0.351 -0.291,0.064 -0.581,0.13 -0.871,0.2 -0.142,0.033 -0.287,0.073 -0.429,0.108 -3.752,0.931 -7.338,2.275 -10.715,3.966 -15.969,7.992 -27.259,23.933 -28.66,42.646 0,0.012 0,0.024 0,0.035 v 0 h 49.183 z"
         id="path118927"
         inkscape:connector-curvature="0"
         style="fill:#f49e14" /><g
         id="g118957"
         style="display:none"><g
           id="g118937"><path
             d="m 2884.29,2012.758 v -23.56 l -82.021,0.63 v 23.023 h 0.036 c 0,9.665 18.355,17.501 40.996,17.501 22.642,0 40.998,-7.836 40.998,-17.501 0,-0.032 -0.01,-0.062 -0.01,-0.093 z"
             id="path118929"
             inkscape:connector-curvature="0"
             style="fill:#61c4b7" /><g
             id="g118935"><ellipse
               cx="2843.301"
               cy="1989.198"
               rx="40.997002"
               ry="17.500999"
               id="ellipse118931"
               style="fill:#fffdf5" /><path
               d="m 2843.3,1975.422 c 21.332,0 37.274,7.274 37.274,13.776 0,6.502 -15.942,13.775 -37.274,13.775 -21.333,0 -37.272,-7.273 -37.272,-13.775 0,-6.502 15.939,-13.776 37.272,-13.776 m 0,-3.726 c -22.641,0 -40.996,7.834 -40.996,17.502 0,9.666 18.355,17.501 40.996,17.501 22.642,0 40.998,-7.835 40.998,-17.501 0,-9.667 -18.357,-17.502 -40.998,-17.502 z"
               id="path118933"
               inkscape:connector-curvature="0"
               style="fill:#fffdf5" /></g></g><path
           d="m 2884.29,1985.277 v -23.562 l -82.021,0.628 v 23.025 h 0.036 c 0,9.666 18.355,17.501 40.996,17.501 22.642,0 40.998,-7.835 40.998,-17.501 0,-0.028 -0.01,-0.06 -0.01,-0.091 z"
           id="path118939"
           inkscape:connector-curvature="0"
           style="fill:#61c4b7" /><g
           id="g118945"><path
             d="m 2884.284,1961.715 c 0,9.667 -18.356,17.503 -41,17.503 -22.64,0 -40.996,-7.837 -40.996,-17.503 0,-9.666 18.356,-17.502 40.996,-17.502 22.644,0 41,7.836 41,17.502 z"
             id="path118941"
             inkscape:connector-curvature="0"
             style="fill:#fffdf5" /><path
             d="m 2843.284,1947.941 c 21.334,0 37.273,7.272 37.273,13.774 0,6.503 -15.939,13.775 -37.273,13.775 -21.33,0 -37.268,-7.272 -37.268,-13.775 0,-6.502 15.938,-13.774 37.268,-13.774 m 0,-3.728 c -22.64,0 -40.996,7.836 -40.996,17.502 0,9.667 18.356,17.503 40.996,17.503 22.644,0 41,-7.837 41,-17.503 0,-9.666 -18.356,-17.502 -41,-17.502 z"
             id="path118943"
             inkscape:connector-curvature="0"
             style="fill:#fffdf5" /></g><g
           id="g118953"><path
             d="m 2884.29,1957.794 v -23.561 h -0.01 c 0,9.664 -18.356,17.5 -41,17.5 -22.147,0 -40.143,-7.5 -40.92,-16.874 h -0.096 v 23.025 h 0.036 c 0,9.665 18.355,17.501 40.996,17.501 22.642,0 40.998,-7.836 40.998,-17.501 0,-0.029 -0.01,-0.061 -0.01,-0.09 z"
             id="path118947"
             inkscape:connector-curvature="0"
             style="fill:#61c4b7" /><path
             d="m 2843.088,1919.233 c -21.331,0 -40.74,8.713 -37.072,16.812 0.075,0.179 0.059,0.399 0.089,0.598 0.932,6.341 16.499,13.175 37.179,13.175 21.3,0 37.223,-7.252 37.269,-13.746 0,-0.01 0,-0.02 0,-0.027 3.268,-8.551 -16.135,-16.812 -37.469,-16.812 z"
             id="path118949"
             inkscape:connector-curvature="0"
             style="fill:#fffdf5" /><path
             d="m 2843.284,1916.73 c -22.64,0 -40.996,7.834 -40.996,17.503 0,0.211 0.054,0.416 0.076,0.626 0.777,9.374 18.772,16.874 40.92,16.874 22.644,0 41,-7.837 41,-17.5 0,-9.668 -18.356,-17.503 -41,-17.503 z m 0,31.276 c -20.68,0 -36.247,-6.834 -37.179,-13.173 -0.03,-0.2 -0.089,-0.399 -0.089,-0.599 0,-6.505 15.938,-13.777 37.268,-13.777 21.334,0 37.273,7.272 37.273,13.777 0,0.01 0,0.02 0,0.028 -0.046,6.495 -15.969,13.744 -37.269,13.744 z"
             id="path118951"
             inkscape:connector-curvature="0"
             style="fill:#fffdf5" /></g><path
           d="m 2843.284,1914.813 c -22.64,0 -40.996,7.837 -40.996,17.505 0,0.211 0.054,0.417 0.076,0.626 0.777,9.372 18.772,16.873 40.92,16.873 22.644,0 41,-7.835 41,-17.5 0,-9.667 -18.356,-17.504 -41,-17.504 z m 0,31.278 c -20.68,0 -36.247,-6.834 -37.179,-13.173 -0.03,-0.202 -0.089,-0.401 -0.089,-0.599 0,-6.505 15.938,-13.777 37.268,-13.777 21.334,0 37.273,7.272 37.273,13.777 0,0.01 0,0.018 0,0.029 -0.046,6.492 -15.969,13.743 -37.269,13.743 z"
           id="path118955"
           inkscape:connector-curvature="0"
           style="fill:#61c4b7" /></g></g><g
       id="g119041"
       style="display:inline"
       transform="matrix(1.1803137,0,0,1.2455797,-603.30007,-282.07302)"><defs
         id="defs118962"><circle
           id="Background_2_31_"
           cx="2825.5869"
           cy="1756.876"
           r="531.99902" /></defs><clipPath
         id="Background_2_32_"><use
           xlink:href="#Background_2_31_"
           overflow="visible"
           id="use118964"
           style="overflow:visible"
           x="0"
           y="0"
           width="100%"
           height="100%" /></clipPath><g
         clip-path="url(#Background_2_32_)"
         id="g119039"
         transform="matrix(1.013888,0,0,1,-44.10827,-69.758876)"><polygon
           points="3503.689,1564.8 3138.72,1570.277 3138.72,1666.546 3503.689,1672.023 "
           id="polygon118967"
           style="display:inline;fill:#ffd38d" /><path
           d="m 2900.8,1577.864 c 0.736,-4.123 53.611,-41.884 72.877,-40.208 19.268,1.674 58.639,10.888 58.639,10.888 l 75.391,24.294 31.012,60.314 v 33.394 c 0,0 -28.639,5.977 -68.776,9.326 -40.142,3.352 -68.78,0.889 -68.78,0.889 0,0 -57.641,-11.775 -66.018,-14.291 -8.376,-2.514 -9.216,-50.262 -9.216,-50.262 0,0 -27.643,-20.297 -25.129,-34.344"
           id="path118969"
           inkscape:connector-curvature="0"
           style="fill:#ffd38d" /><path
           d="m 3138.72,1657.894 c -32.97,14.053 -118.34,18.375 -73.566,-7.553 17.309,-10.03 18.865,-84.689 18.865,-84.689 l -154.49,85.136 c 1.331,6.24 3.143,10.941 5.615,11.682 8.377,2.512 66.018,14.291 66.018,14.291 0,0 28.642,2.465 68.778,-0.887 40.14,-3.352 68.78,-9.328 68.78,-9.328 z"
           id="path118971"
           inkscape:connector-curvature="0"
           style="fill:#e2af79" /><rect
           x="2867.8279"
           y="1480.309"
           transform="matrix(0.8544,0.5196,-0.5196,0.8544,1229.1779,-1323.0535)"
           width="215.588"
           height="103.348"
           id="rect118973"
           style="fill:#86d670" /><path
           d="m 3044.838,1610.666 32.489,-53.426 c -4.495,-2.733 -5.331,-9.568 -1.867,-15.267 l -154.64,-94.041 c -3.467,5.698 -9.921,8.102 -14.417,5.367 l -32.487,53.426 c 4.496,2.731 5.331,9.569 1.867,15.265 l 154.642,94.039 c 3.465,-5.694 9.917,-8.096 14.413,-5.363"
           id="path118975"
           inkscape:connector-curvature="0"
           style="display:inline;fill:#44843a" /><path
           d="m 2996.927,1544.938 c -7.156,11.768 -22.496,15.504 -34.262,8.35 -11.766,-7.154 -15.502,-22.494 -8.348,-34.262 7.156,-11.766 22.494,-15.505 34.258,-8.348 11.769,7.155 15.508,22.495 8.352,34.26"
           id="path118977"
           inkscape:connector-curvature="0"
           style="display:inline;fill:#86d670" /><g
           id="g118989"
           style="opacity:0.4"><g
             id="g118987"><defs
               id="defs118980"><rect
                 id="SVGID_2_"
                 x="2864.4351"
                 y="1524.847"
                 width="223.078"
                 height="107.295" /></defs><clipPath
               id="SVGID_3_"><use
                 xlink:href="#SVGID_2_"
                 overflow="visible"
                 id="use118982"
                 style="overflow:visible"
                 x="0"
                 y="0"
                 width="100%"
                 height="100%" /></clipPath><path
               clip-path="url(#SVGID_3_)"
               d="m 3040.875,1632.142 46.636,-76.69 c -13.776,-11.357 -32.313,-24.93 -41.513,-25.057 -15.592,-0.214 -34.106,13.68 -34.106,13.68 l -147.456,-19.229 z"
               id="path118985"
               inkscape:connector-curvature="0" /></g></g><rect
           x="2845.676"
           y="1539.769"
           transform="matrix(0.9934,0.1149,-0.1149,0.9934,202.4956,-328.9257)"
           width="215.588"
           height="103.347"
           id="rect118991"
           style="fill:#86d670" /><path
           d="m 3049.236,1633.996 7.188,-62.115 c -5.229,-0.604 -8.844,-6.463 -8.078,-13.087 l -179.789,-20.804 c -0.769,6.622 -5.626,11.503 -10.852,10.898 l -7.19,62.114 c 5.229,0.605 8.845,6.467 8.077,13.088 l 179.793,20.805 c 0.765,-6.624 5.624,-11.502 10.851,-10.899"
           id="path118993"
           inkscape:connector-curvature="0"
           style="fill:#44843a" /><path
           d="m 2978.24,1594.309 c -1.584,13.679 -13.957,23.486 -27.637,21.901 -13.68,-1.58 -23.486,-13.952 -21.902,-27.633 1.581,-13.682 13.954,-23.486 27.637,-21.904 13.676,1.585 23.484,13.957 21.902,27.636"
           id="path118995"
           inkscape:connector-curvature="0"
           style="fill:#86d670" /><g
           id="g119007"
           style="opacity:0.35"><g
             id="g119005"><defs
               id="defs118998"><rect
                 id="SVGID_4_"
                 x="2853.502"
                 y="1546.517"
                 width="212.987"
                 height="108.647" /></defs><clipPath
               id="SVGID_5_"><use
                 xlink:href="#SVGID_4_"
                 overflow="visible"
                 id="use119000"
                 style="overflow:visible"
                 x="0"
                 y="0"
                 width="100%"
                 height="100%" /></clipPath><path
               clip-path="url(#SVGID_5_)"
               d="m 3054.61,1655.164 11.878,-102.663 -51.709,-5.98 c -6.121,4.811 -25.555,20.397 -29.674,27.528 -3.447,5.972 -84.072,38.86 -131.603,57.846 z"
               id="path119003"
               inkscape:connector-curvature="0" /></g></g><rect
           x="2862.2219"
           y="1591.684"
           transform="matrix(0.9166,-0.3997,0.3997,0.9166,-409.2935,1324.1595)"
           width="215.58701"
           height="103.347"
           id="rect119009"
           style="fill:#86d670" /><path
           d="m 3074.197,1632.032 -24.994,-57.313 c -4.824,2.101 -10.895,-1.147 -13.559,-7.26 l -165.904,72.347 c 2.665,6.112 0.916,12.774 -3.906,14.874 l 24.994,57.32 c 4.822,-2.107 10.895,1.145 13.56,7.258 l 165.903,-72.35 c -2.667,-6.111 -0.918,-12.771 3.906,-14.876"
           id="path119011"
           inkscape:connector-curvature="0"
           style="fill:#44843a" /><path
           d="m 2992.871,1633.39 c 5.506,12.623 -0.266,27.321 -12.889,32.823 -12.623,5.506 -27.319,-0.262 -32.822,-12.889 -5.504,-12.622 0.266,-27.319 12.889,-32.823 12.622,-5.505 27.317,0.266 32.822,12.889"
           id="path119013"
           inkscape:connector-curvature="0"
           style="fill:#86d670" /><g
           id="g119025"
           style="opacity:0.3"><g
             id="g119023"><defs
               id="defs119016"><rect
                 id="SVGID_6_"
                 x="2992.4131"
                 y="1552.902"
                 width="79.612999"
                 height="54.715" /></defs><clipPath
               id="SVGID_7_"><use
                 xlink:href="#SVGID_6_"
                 overflow="visible"
                 id="use119018"
                 style="overflow:visible"
                 x="0"
                 y="0"
                 width="100%"
                 height="100%" /></clipPath><path
               clip-path="url(#SVGID_7_)"
               d="m 3048.166,1552.904 -55.755,24.313 2.546,7.156 c 0,0 4.443,8.921 27.313,3.351 22.87,-5.572 19.468,9.912 49.759,19.894 z"
               id="path119021"
               inkscape:connector-curvature="0" /></g></g><path
           d="m 3138.72,1570.278 c 0,0 -19.006,-18.662 -33.525,-26.479 -14.52,-7.818 -42.442,-15.636 -59.197,-13.401 -16.753,2.23 -45.967,30.286 -53.133,43.254 -5.256,9.507 6.702,15.857 17.871,13.623 11.169,-2.232 33.873,-16.389 33.873,-16.389 0,0 25.605,5.336 29.262,21.697 3.393,15.175 5.673,50.621 64.85,52.855 v -75.16 z"
           id="path119027"
           inkscape:connector-curvature="0"
           style="fill:#ffd38d" /><path
           d="m 2991.619,1578.328 c -0.043,-1.444 0.323,-3.009 1.248,-4.679 2.169,-3.926 6.37,-9.239 11.625,-14.796 0.031,0 10.108,0.568 12.014,8.573 1.248,5.244 -6.68,17.309 -15.056,14.676 -4.222,-1.327 -7.74,-2.802 -9.831,-3.774"
           id="path119029"
           inkscape:connector-curvature="0"
           style="fill:#fff5e6" /><path
           d="m 3019.679,1584.224 c 0,0 15.882,-10.316 22.459,-17.179 6.578,-6.86 33.783,13.628 36.952,18.249 3.167,4.624 -4.897,28.197 15.896,47.852 -17.16,-12.307 -18.911,-30.706 -21.113,-40.559 -3.66,-16.365 -29.262,-21.701 -29.262,-21.701 0,0 -13.604,8.479 -24.932,13.348 z"
           id="path119031"
           inkscape:connector-curvature="0"
           style="fill:#eac088" /><path
           d="m 3013.836,1572.717 c 1.355,-2.62 2.354,-6.098 2.313,-6.405 0.135,0.358 0.262,0.72 0.355,1.117 0.956,4.016 -3.478,12.006 -9.36,14.358 4.275,-3.774 5.27,-6.319 6.692,-9.07"
           id="path119033"
           inkscape:connector-curvature="0"
           style="fill:#efd9bb" /><path
           d="m 3503.693,1637.694 c -57.787,14.18 -346.592,18.319 -361.615,19.756 -1.052,0.102 -2.178,0.254 -3.357,0.443 v 8.65 l 364.973,5.479 v -34.328 z"
           id="path119035"
           inkscape:connector-curvature="0"
           style="fill:#eac088" /><path
           d="m 3144.626,1635.378 c 0,0 6.345,0.217 24.167,0 17.82,-0.214 32.32,1.898 32.32,1.898 0,0 -7.855,2.462 -19.634,2.594 -11.78,0.128 -27.187,1.163 -36.853,-4.492"
           id="path119037"
           inkscape:connector-curvature="0"
           style="fill:#eac088" /></g></g><g
       id="g119133"
       style="display:none"
       inkscape:label="data and hands"><rect
         x="2239.426"
         y="1501.183"
         width="391.961"
         height="458.979"
         id="rect119043"
         style="fill:#ffffff" /><g
         id="g119061"><rect
           x="2261.886"
           y="1821.187"
           width="168.435"
           height="9.96"
           id="rect119045"
           style="fill:#8a8488" /><rect
           x="2261.886"
           y="1836.637"
           width="168.435"
           height="9.96"
           id="rect119047"
           style="fill:#8a8488" /><rect
           x="2261.886"
           y="1852.089"
           width="168.435"
           height="9.9639997"
           id="rect119049"
           style="fill:#8a8488" /><rect
           x="2261.886"
           y="1867.545"
           width="168.435"
           height="9.9610004"
           id="rect119051"
           style="fill:#8a8488" /><rect
           x="2261.886"
           y="1882.9919"
           width="168.435"
           height="9.9630003"
           id="rect119053"
           style="fill:#8a8488" /><rect
           x="2261.886"
           y="1898.448"
           width="168.435"
           height="9.96"
           id="rect119055"
           style="fill:#8a8488" /><rect
           x="2261.886"
           y="1913.9"
           width="168.435"
           height="9.9639997"
           id="rect119057"
           style="fill:#8a8488" /><rect
           x="2261.886"
           y="1929.354"
           width="168.435"
           height="9.9610004"
           id="rect119059"
           style="fill:#8a8488" /></g><g
         id="g119079"><rect
           x="2448.6411"
           y="1821.187"
           width="168.437"
           height="9.96"
           id="rect119063"
           style="fill:#8a8488" /><rect
           x="2448.6411"
           y="1836.637"
           width="168.437"
           height="9.96"
           id="rect119065"
           style="fill:#8a8488" /><rect
           x="2448.6411"
           y="1852.089"
           width="168.437"
           height="9.9639997"
           id="rect119067"
           style="fill:#8a8488" /><rect
           x="2448.6411"
           y="1867.545"
           width="168.437"
           height="9.9610004"
           id="rect119069"
           style="fill:#8a8488" /><rect
           x="2448.6411"
           y="1882.9919"
           width="168.437"
           height="9.9630003"
           id="rect119071"
           style="fill:#8a8488" /><rect
           x="2448.6411"
           y="1898.448"
           width="168.437"
           height="9.96"
           id="rect119073"
           style="fill:#8a8488" /><rect
           x="2448.6411"
           y="1913.9"
           width="168.437"
           height="9.9639997"
           id="rect119075"
           style="fill:#8a8488" /><rect
           x="2448.6411"
           y="1929.354"
           width="168.437"
           height="9.9610004"
           id="rect119077"
           style="fill:#8a8488" /></g><rect
         x="2261.886"
         y="1756.424"
         width="31.009001"
         height="22.771"
         id="rect119081"
         style="fill:#eba8a0" /><rect
         x="2261.886"
         y="1789.5551"
         width="31.009001"
         height="22.774"
         id="rect119083"
         style="fill:#84d0f0" /><rect
         x="2443.3059"
         y="1756.424"
         width="31.004999"
         height="22.771"
         id="rect119085"
         style="fill:#c8db56" /><rect
         x="2443.3059"
         y="1789.5551"
         width="31.004999"
         height="22.771"
         id="rect119087"
         style="fill:#f5be5a" /><rect
         x="2309.6479"
         y="1763.543"
         width="36.452999"
         height="9.2480001"
         id="rect119089"
         style="fill:#c1c1c1" /><rect
         x="2309.6479"
         y="1797.696"
         width="36.452999"
         height="8.5419998"
         id="rect119091"
         style="fill:#c1c1c1" /><rect
         x="2487.344"
         y="1763.543"
         width="36.452"
         height="9.2480001"
         id="rect119093"
         style="fill:#c1c1c1" /><rect
         x="2487.344"
         y="1797.696"
         width="36.452"
         height="8.5450001"
         id="rect119095"
         style="fill:#c1c1c1" /><g
         id="g119107"><g
           id="g119105"><path
             d="m 2389.559,1533.453 c 2.383,-0.322 5.489,-0.508 8.773,-0.508 5.449,0 8.988,0.834 11.753,2.609 2.98,1.879 4.854,4.881 4.854,9.187 0,4.663 -2.005,7.88 -4.769,9.87 -3.019,2.138 -7.623,3.152 -13.244,3.152 -3.365,0 -5.748,-0.185 -7.368,-0.366 v -23.944 z m 6.515,19.894 c 0.556,0.107 1.445,0.107 2.259,0.107 5.879,0.037 9.708,-2.712 9.708,-8.538 0.044,-5.059 -3.445,-7.738 -9.031,-7.738 -1.439,0 -2.38,0.107 -2.936,0.219 z"
             id="path119097"
             inkscape:connector-curvature="0"
             style="fill:#8a8488" /><path
             d="m 2425.209,1551.253 -2.044,6.255 h -6.732 l 8.776,-24.377 h 8.515 l 8.903,24.377 h -6.985 l -2.215,-6.255 z m 7.278,-4.128 -1.786,-5.174 c -0.512,-1.441 -1.021,-3.25 -1.445,-4.703 h -0.088 c -0.424,1.453 -0.847,3.298 -1.32,4.703 l -1.701,5.174 z"
             id="path119099"
             inkscape:connector-curvature="0"
             style="fill:#8a8488" /><path
             d="m 2448.462,1537.756 h -7.707 v -4.625 h 22.062 v 4.625 h -7.839 v 19.752 h -6.516 z"
             id="path119101"
             inkscape:connector-curvature="0"
             style="fill:#8a8488" /><path
             d="m 2469.889,1551.253 -2.044,6.255 h -6.734 l 8.778,-24.377 h 8.517 l 8.902,24.377 h -6.988 l -2.212,-6.255 z m 7.279,-4.128 -1.785,-5.174 c -0.513,-1.441 -1.023,-3.25 -1.454,-4.703 h -0.08 c -0.427,1.453 -0.857,3.298 -1.322,4.703 l -1.708,5.174 z"
             id="path119103"
             inkscape:connector-curvature="0"
             style="fill:#8a8488" /></g></g><g
         id="g119113"><g
           id="g119111"><path
             d="m 2257.588,1577.802 v 165.102 h 44.479 302.131 12.879 v -165.102 z m 221.814,7.634 h 55.992 v 31.051 h -55.992 z m -137.627,0 h 55.959 v 31.051 h -55.959 z m -12.942,149.743 h -0.101 -15.782 -15.017 -23.537 -4.635 v -6.776 -11.346 -6.686 -4.179 -0.132 h 40.035 c -0.084,0.041 -0.158,0.084 -0.24,0.132 h 18.866 c 0.081,-0.048 0.155,-0.091 0.235,-0.132 h 0.175 v 29.119 z m 0,-39.838 c -0.467,0.266 -0.939,0.538 -1.415,0.811 v 2.245 h -3.955 -52.004 -1.697 l -0.024,-33.259 h 1.722 v -0.084 h 55.959 v 0.084 h 1.415 v 30.203 z m 0.043,-37.907 h -59.115 v -33.289 h 59.115 z m 0,-40.948 h -59.115 v -31.051 h 59.115 z m 68.858,118.693 h -55.959 v -29.118 h 55.959 z m 0.137,-36.783 h -0.156 -55.449 -0.353 v -10.44 c -0.051,0.026 -0.093,0.05 -0.138,0.077 v -22.896 h 0.138 v -0.084 h 55.958 z m 0,-41.013 h -2.265 c -0.024,0.02 -0.061,0.03 -0.084,0.051 h -53.747 v -33.26 h 55.939 v 2.158 h 0.156 v 31.051 z m 68.701,77.796 h -55.983 v -29.118 h 55.983 z m 0,-36.783 h -55.983 v -32.751 h 0.017 v -0.592 h 55.96 v 13.726 h 0.01 v 19.617 z m 0,-40.962 h -55.667 l -0.316,-0.041 v -33.248 h 55.983 z m 0,-40.948 h -55.983 v -31.051 h 55.983 z m 68.822,118.693 h -55.992 v -29.118 h 55.992 z m 0.304,-39.001 h -0.304 v 2.219 h -55.992 v -16.605 l 0.34,0.077 v -8.235 l -0.34,-0.081 v -8.414 h 0.34 v -0.01 h 55.956 z m -0.304,-38.744 h -9.789 -46.203 v -33.289 h 55.992 v 1.754 z m 68.805,77.745 h -55.936 v -29.118 h 55.936 z m 0,-36.783 h -55.936 v -33.259 h 55.936 z m 0.901,-43.078 0.023,2.152 -0.925,-0.037 h -55.936 v -33.289 h 10.841 l -0.124,0.127 h 15.085 l 0.122,-0.127 h 30.012 v 0.127 h 0.901 v 31.047 z m 0,-38.832 h -0.901 v 0.027 h -22.229 l 0.021,-0.027 h -15.156 -17.691 -0.879 v -31.051 h 0.879 49.028 6.93 v 31.051 z"
             id="path119109"
             inkscape:connector-curvature="0"
             style="fill:#8a8488" /></g></g><polygon
         points="2611.708,1685.411 2606.525,1690.194 2524.587,1626.205 2475.164,1692.756 2439.542,1666.224 2373.617,1706.333 2334.958,1690.339 2269.296,1733.252 2264.634,1728.1 2334.048,1682.732 2372.862,1698.79 2440.022,1657.934 2473.466,1682.85 2523.011,1616.141 "
         id="polygon119115"
         style="fill:#eba8a0" /><polygon
         points="2301.972,1666.58 2354.246,1646.092 2383.105,1649.046 2433.74,1630.555 2508.066,1673.475 2609.93,1627.993 2613.49,1633.748 2507.558,1681.048 2432.906,1637.937 2384.234,1655.709 2355.486,1652.764 2304.465,1672.758 2265.5,1680.43 2263.771,1674.093 "
         id="polygon119117"
         style="fill:#84d0f0" /><polygon
         points="2494.785,1708.545 2568.385,1671.673 2610.707,1661.895 2612.714,1668.163 2571.39,1677.72 2495.018,1715.975 2438.586,1691.025 2368.636,1720.586 2302.109,1688.121 2263.606,1704.619 2260.16,1698.816 2302.344,1680.735 2368.896,1713.215 2438.669,1683.734 "
         id="polygon119119"
         style="fill:#c8db56" /><polygon
         points="2524.37,1638.424 2609.561,1589.389 2613.853,1594.764 2523.234,1646.936 2486.981,1613.811 2387.458,1682.648 2364.475,1675.307 2265.424,1715.614 2262.11,1709.752 2364.119,1668.247 2386.036,1675.246 2487.712,1604.92 "
         id="polygon119121"
         style="fill:#f5be5a" /><rect
         x="2257.5879"
         y="1590.337"
         width="12.173"
         height="146.963"
         id="rect119123"
         style="fill:#8a8488" /><rect
         x="2603.9641"
         y="1577.802"
         width="13.113"
         height="165.10201"
         id="rect119125"
         style="fill:#8a8488" /><g
         id="g119129"><path
           d="m 2318.819,1683.791 c -23.518,-5.778 -29.69,20.371 -29.69,20.371 l -24.928,93.931 c 0,0 -13.829,7.903 -24.693,4.444 -2.088,-0.662 -1.53,-4.71 0.705,-10.787 v -66.447 c -20.736,17.735 -50.011,42.937 -54.391,54.98 -3.515,9.668 -4.78,29.518 -5.501,55.496 -0.55,19.617 -0.79,42.725 -1.454,67.6 -0.286,10.821 -5.037,23.975 -12.567,38.204 15.921,14.889 47.73,44.635 68.321,63.89 7.346,6.86 17.563,8.713 26.464,5.707 35.636,-25.903 26.929,-37.185 37.249,-56.352 10.796,-20.045 30.021,-70.882 26.17,-120.223 -3.759,-48.093 0.452,-36.063 8.515,-89.686 0.212,-1.388 0.423,-2.789 0.637,-4.269 8.483,-58.59 -14.837,-56.859 -14.837,-56.859 z"
           id="path119127"
           inkscape:connector-curvature="0"
           style="fill:#fdd5b6" /></g><path
         d="m 2685.484,1953.577 h 0.032 c -0.865,-6.652 -1.604,-14.512 -2.072,-23.742 -2.077,-41.246 6.256,-57.499 -0.412,-86.653 -6.667,-29.162 -18.745,-15.41 -31.657,-27.911 -12.922,-12.498 -19.58,-4.579 -37.498,-9.167 -17.91,-4.585 -12.908,-16.246 -28.734,-28.324 -15.836,-12.088 -29.57,1.657 -29.57,1.657 0,0 -21.24,-62.067 -32.906,-94.144 -11.666,-32.072 -27.058,-31.665 -33.296,-14.998 -6.249,16.662 26.3,103.729 29.212,127.893 2.91,24.162 3.437,80.4 3.437,80.4 -8.54,-12.494 -12.29,-23.355 -18.125,-45.854 -5.831,-22.492 -31.657,-39.192 -47.492,-29.194 -15.824,10 1.667,6.595 5.002,34.919 2.797,23.786 5.007,19.903 14.02,44.127 1.729,4.646 3.702,10.313 5.983,17.416 0.457,1.422 0.908,2.794 1.358,4.114 12.908,37.989 23.722,37.102 53.431,70.612 l 19.689,26.022 c 1.057,1.203 2.406,2.073 3.886,2.555 1.459,0.471 3.038,0.571 4.592,0.234 15.044,-3.25 68.096,-14.713 100.438,-21.705 13.206,-2.857 21.938,-15.134 20.679,-28.271 0,0.01 0,0.011 0,0.014 z"
         id="path119131"
         inkscape:connector-curvature="0"
         style="fill:#fdd5b6" /></g></g><g
     inkscape:label="chats"
     style="display:inline"
     id="g8469"
     transform="matrix(0.345961,0,0,0.32484457,-2230.8616,-792.96892)"><g
       id="g8449"><path
         style="fill:#ff3e03"
         inkscape:connector-curvature="0"
         id="path8433"
         d="m 6985.156,5192.031 c 82.539,0 149.453,51.217 149.453,114.4 0,44.089 -32.611,82.331 -80.346,101.433 5.352,11.81 15.319,26.797 33.64,37.93 0,0 -33.21,-13.933 -50.657,-32.116 -16.225,4.623 -33.77,7.155 -52.09,7.155 -82.539,0 -149.453,-51.218 -149.453,-114.401 0,-63.183 66.914,-114.401 149.453,-114.401 z" /><g
         id="g8445"><path
           style="opacity:0.1"
           inkscape:connector-curvature="0"
           id="path8435"
           d="m 7062.552,5306.432 c 0,7.006 5.671,12.676 12.669,12.676 7.006,0 12.683,-5.67 12.683,-12.676 0,-6.998 -5.677,-12.676 -12.683,-12.676 -6.998,0 -12.669,5.678 -12.669,12.676 z" /><path
           style="opacity:0.1"
           inkscape:connector-curvature="0"
           id="path8437"
           d="m 7014.173,5306.432 c 0,7.006 5.671,12.676 12.676,12.676 6.999,0 12.676,-5.67 12.676,-12.676 0,-6.998 -5.677,-12.676 -12.676,-12.676 -7.005,0 -12.676,5.678 -12.676,12.676 z" /><path
           style="opacity:0.1"
           inkscape:connector-curvature="0"
           id="path8439"
           d="m 6969.141,5306.432 c 0,7.006 5.677,12.676 12.676,12.676 7.005,0 12.682,-5.67 12.682,-12.676 0,-6.998 -5.677,-12.676 -12.682,-12.676 -7,0 -12.676,5.678 -12.676,12.676 z" /><path
           style="opacity:0.1"
           inkscape:connector-curvature="0"
           id="path8441"
           d="m 6924.439,5306.432 c 0,7.006 5.678,12.676 12.676,12.676 7.006,0 12.676,-5.67 12.676,-12.676 0,-6.998 -5.67,-12.676 -12.676,-12.676 -6.998,0 -12.676,5.678 -12.676,12.676 z" /><path
           style="opacity:0.1"
           inkscape:connector-curvature="0"
           id="path8443"
           d="m 6877.07,5306.432 c 0,7.006 5.677,12.676 12.676,12.676 7.005,0 12.676,-5.67 12.676,-12.676 0,-6.998 -5.671,-12.676 -12.676,-12.676 -6.999,0 -12.676,5.678 -12.676,12.676 z" /></g><path
         style="opacity:0.1"
         inkscape:connector-curvature="0"
         id="path8447"
         d="m 7134.609,5306.432 c -0.01,44.089 -32.611,82.331 -80.346,101.433 5.352,11.81 15.319,26.797 33.64,37.93 0,0 -33.21,-13.933 -50.657,-32.116 -16.225,4.623 -33.77,7.155 -52.09,7.155 -82.539,0 -149.453,-51.218 -149.453,-114.401 h 298.906 z" /></g><g
       style="display:inline"
       id="g8467"><path
         style="display:inline;fill:#ffffff"
         inkscape:connector-curvature="0"
         id="path8451"
         d="m 6924.439,5157.337 c -82.539,0 -149.446,51.218 -149.446,114.401 0,44.088 32.604,82.33 80.339,101.432 -5.352,11.811 -15.319,26.797 -33.64,37.93 0,0 33.21,-13.932 50.657,-32.115 16.225,4.622 33.77,7.154 52.09,7.154 82.539,0 149.453,-51.217 149.453,-114.4 0,-63.183 -66.913,-114.402 -149.453,-114.402 z" /><g
         style="display:inline"
         id="g8463"><path
           style="opacity:0.1"
           inkscape:connector-curvature="0"
           id="path8453"
           d="m 6847.044,5271.738 c 0,7.005 -5.671,12.676 -12.669,12.676 -7.006,0 -12.683,-5.671 -12.683,-12.676 0,-6.999 5.677,-12.676 12.683,-12.676 6.998,0 12.669,5.677 12.669,12.676 z" /><path
           style="opacity:0.1"
           inkscape:connector-curvature="0"
           id="path8455"
           d="m 6895.43,5271.738 c 0,7.005 -5.678,12.676 -12.683,12.676 -6.999,0 -12.676,-5.671 -12.676,-12.676 0,-6.999 5.677,-12.676 12.676,-12.676 7.005,0 12.683,5.677 12.683,12.676 z" /><path
           style="opacity:0.1"
           inkscape:connector-curvature="0"
           id="path8457"
           d="m 6940.455,5271.738 c 0,7.005 -5.677,12.676 -12.676,12.676 -7.005,0 -12.682,-5.671 -12.682,-12.676 0,-6.999 5.677,-12.676 12.682,-12.676 6.999,0 12.676,5.677 12.676,12.676 z" /><path
           style="opacity:0.1"
           inkscape:connector-curvature="0"
           id="path8459"
           d="m 6985.156,5271.738 c 0,7.005 -5.678,12.676 -12.676,12.676 -7.006,0 -12.676,-5.671 -12.676,-12.676 0,-6.999 5.67,-12.676 12.676,-12.676 6.999,0 12.676,5.677 12.676,12.676 z" /><path
           style="opacity:0.1"
           inkscape:connector-curvature="0"
           id="path8461"
           d="m 7032.525,5271.738 c 0,7.005 -5.677,12.676 -12.676,12.676 -7.005,0 -12.676,-5.671 -12.676,-12.676 0,-6.999 5.671,-12.676 12.676,-12.676 7,0 12.676,5.677 12.676,12.676 z" /></g><path
         style="display:inline;opacity:0.1"
         inkscape:connector-curvature="0"
         id="path8465"
         d="m 6774.993,5271.738 c 0,44.088 32.604,82.33 80.339,101.432 -5.352,11.811 -15.319,26.797 -33.64,37.93 0,0 33.21,-13.932 50.657,-32.115 16.225,4.622 33.77,7.154 52.09,7.154 82.539,0 149.453,-51.217 149.453,-114.4 h -298.899 z" /></g></g><g
     id="g8426"
     style="display:inline"
     inkscape:label="document"
     transform="matrix(1,0,0,0.87577308,-5366.2213,-2791.8002)"><path
       style="fill:#3f3f3f"
       inkscape:connector-curvature="0"
       id="path8418"
       d="m 5559.531,3672.63 c 0,0 5.865,-30.397 7.467,-30.397 1.596,0 7.468,0.892 31.999,7.109 24.531,6.224 45.332,11.556 45.332,11.556 0,0 9.069,2.669 11.204,-3.464 2.136,-6.139 1.068,-6.139 13.334,-2.936 12.266,3.197 30.931,8.535 30.931,8.535 0,0 5.866,2.129 5.866,6.4 0,4.264 0,7.467 0,7.467 l 19.205,4.798 c 0,0 7.461,1.602 3.725,14.401 -3.725,12.799 -45.859,160 -45.859,160 z" /><path
       style="fill:#d38d5f"
       inkscape:connector-curvature="0"
       id="path8420"
       d="m 5556.328,3669.434 c 0,0 5.872,-30.404 7.474,-30.404 1.602,0 7.461,0.892 31.999,7.116 24.531,6.218 45.332,11.55 45.332,11.55 0,0 9.063,2.669 11.197,-3.464 2.136,-6.133 1.068,-6.133 13.334,-2.936 12.266,3.203 30.938,8.535 30.938,8.535 0,0 5.859,2.135 5.859,6.4 0,4.264 0,7.467 0,7.467 l 19.205,4.798 c 0,0 7.461,1.602 3.737,14.401 -3.737,12.799 -45.872,160 -45.872,160 z" /><path
       style="fill:#4c4c4c"
       inkscape:connector-curvature="0"
       id="path8422"
       d="m 5685.885,3845.091 -30.352,-143.659 c 0,0 1.602,-6.4 -8.541,-10.137 -10.131,-3.73 -15.99,-4.264 -15.99,-4.264 0,0 1.777,-10.664 -9.244,-13.867 -11.029,-3.197 -43.562,-13.333 -43.562,-13.333 l -4.798,3.203 v 3.73 l -63.464,-19.733 -6.224,2.311 37.154,135.82 141.869,70.938 z" /><path
       style="fill:#aa4400"
       inkscape:connector-curvature="0"
       id="path8424"
       d="m 5682.734,3856.1 -32.006,-151.465 c 0,0 1.602,-6.406 -8.528,-10.137 -10.137,-3.73 -16.003,-4.264 -16.003,-4.264 0,0 1.784,-10.671 -9.244,-13.867 -11.022,-3.203 -43.555,-13.333 -43.555,-13.333 l -4.805,6.934 -63.464,-19.733 c 0,0 -3.203,-5.339 0,10.13 3.203,15.469 30.938,128.001 30.938,128.001 z" /></g></svg>