<?xml version="1.0" encoding="UTF-8" standalone="no"?>
<svg
   xmlns:dc="http://purl.org/dc/elements/1.1/"
   xmlns:cc="http://creativecommons.org/ns#"
   xmlns:rdf="http://www.w3.org/1999/02/22-rdf-syntax-ns#"
   xmlns:svg="http://www.w3.org/2000/svg"
   xmlns="http://www.w3.org/2000/svg"
   xmlns:sodipodi="http://sodipodi.sourceforge.net/DTD/sodipodi-0.dtd"
   xmlns:inkscape="http://www.inkscape.org/namespaces/inkscape"
   width="103"
   height="101.4"
   viewBox="0 0 103 101.4"
   version="1.1"
   id="svg1230"
   sodipodi:docname="model-blockchain.svg"
   inkscape:version="0.92.2 5c3e80d, 2017-08-06">
  <metadata
     id="metadata1236">
    <rdf:RDF>
      <cc:Work
         rdf:about="">
        <dc:format>image/svg+xml</dc:format>
        <dc:type
           rdf:resource="http://purl.org/dc/dcmitype/StillImage" />
        <dc:title />
      </cc:Work>
    </rdf:RDF>
  </metadata>
  <defs
     id="defs1234" />
  <sodipodi:namedview
     pagecolor="#ffffff"
     bordercolor="#666666"
     borderopacity="1"
     objecttolerance="10"
     gridtolerance="10"
     guidetolerance="10"
     inkscape:pageopacity="0"
     inkscape:pageshadow="2"
     inkscape:window-width="1920"
     inkscape:window-height="983"
     id="namedview1232"
     showgrid="false"
     inkscape:zoom="4.98"
     inkscape:cx="8.6323524"
     inkscape:cy="50.7"
     inkscape:window-x="28"
     inkscape:window-y="0"
     inkscape:window-maximized="0"
     inkscape:current-layer="svg1230" />
  <style
     id="style1204">.st0{fill:#f05135}.st1{fill:#083b54}.st2{fill:#6acad1}.st3{fill:#f59223}.st4{stroke:#f05135;stroke-width:2.5;stroke-miterlimit:10}.st4,.st5,.st6,.st7{fill:none}.st5,.st6,.st7,.st8{stroke-width:2.5;stroke-miterlimit:10}.st5{stroke:#083b54}.st6{stroke:#6acad1}.st7{stroke:#f59223}.st8{fill:#fdd9c8;stroke:#f05135}.st10,.st11,.st12,.st13,.st14,.st15,.st9{stroke-width:2.5;stroke-miterlimit:10}.st9{fill:#d3d5db;stroke:#083b54}.st10{fill:#e0f2f3;stroke:#6acad1}.st11{fill:#fee5cb;stroke:#f59223}.st12{stroke:#f05135}.st12,.st13,.st14,.st15{fill:#fff}.st13{stroke:#083b54}.st14{stroke:#6acad1}.st15{stroke:#f59223}.st16{fill:#e0f2f3}.st17,.st18{stroke-linejoin:round}.st17{stroke:#d3d5db;stroke-miterlimit:10;fill:#d3d5db}.st18{fill:#fff;stroke-width:2.5}.st18,.st19,.st20{stroke:#6acad1;stroke-miterlimit:10}.st19{stroke-linejoin:round;fill:#e0f2f3;stroke-width:2.5}.st20{fill:none;stroke-width:1.5}.st21{fill:#d3d5db}.st22{fill:#fff}.st23,.st24{fill:none;stroke:#f05135;stroke-miterlimit:10}.st24{stroke:#d3d5db;stroke-width:.5}.st25,.st26{stroke:#063b54}.st25,.st26,.st27,.st28{stroke-miterlimit:10}.st25{stroke-linejoin:round;fill:#083b54;stroke-width:.5}.st26{stroke-width:.7}.st26,.st27,.st28{fill:none}.st27{stroke:#d3d5db;stroke-width:.3}.st28{stroke:#6acad1;stroke-width:2.5;stroke-linejoin:round}.st29{fill:#063b54}.st30{fill:none;stroke:#f05135;stroke-width:2.5;stroke-linecap:round}.st30,.st31,.st32{stroke-miterlimit:10}.st31{stroke-linejoin:round;fill:#083b54;stroke:#063b54}.st32,.st33{fill:none;stroke:#e0f2f3}.st33{stroke:#6acad1;stroke-linecap:round}.st33,.st34,.st35{stroke-linejoin:round;stroke-miterlimit:10}.st34{stroke-width:2.5;stroke-linecap:round;fill:none;stroke:#6acad1}.st35{fill:#f05135;stroke:#f05235}.st36{stroke:#f05135;stroke-width:2;stroke-linecap:round}.st36,.st37,.st38,.st39,.st40{fill:none;stroke-miterlimit:10}.st37{stroke-linecap:round;stroke:#e0f2f3;stroke-width:1.5}.st38{stroke:#063b54;stroke-width:2.5}.st39,.st40{stroke:#fcc941;stroke-width:2}.st40{stroke:#f05135}</style>
  <circle
     class="st16"
     cx="51.7"
     cy="50.7"
     r="50.7"
     id="Layer_3"
     style="fill:#d7d7d7;fill-opacity:1" />
  <g
     id="stuffs">
    <path
       class="st29"
       d="M84.9 56.1H17.8c-.6 0-1-.5-1-1V22.3c0-.5.4-1 1-1h67.1c.5 0 1 .5 1 1v32.8c0 .6-.4 1-1 1z"
       id="path1207" />
    <path
       class="st17"
       d="M101.3 88.5V94c0 .7-.5 1.2-1.1 1.2H3.1c-.6 0-1.1-.6-1.1-1.2v-5.5"
       id="path1209" />
    <path
       class="st22"
       d="M90.6 15H12.2c-.6 0-1.1.6-1.1 1.2V63h80.7V16.3c-.1-.7-.6-1.3-1.2-1.3zm-3.5 42.8c-.7.7-7.1 1-8.9 1-5.2 0-23.2-.5-23.7-.5h-9.6c-.6 0-27.3.6-28.1-.1-.7-.7-1.4-2.9-1.2-4 0-.4-.5-31.5.1-32.1 1.5-1.3 3.3-1.8 5.1-2 .7-.1 1.4-.1 2.2-.2 7.1-.5 49.6-.5 55.5-.4 10.6.3 8.6 2.1 8.3 8.5-.3 8 1.3 28.8.3 29.8zm14.2 26.5l-9-19.9c0-.7-.5-1.2-1.1-1.2H11.6c-.6 0-1.1.6-1.1 1.2L2 84.3v4.4c0 .7.5 1.2 1.1 1.2h97.1c.6 0 1.1-.6 1.1-1.2v-4.1h-.1c.1-.1.1-.2.1-.3zm-35.6-4.8l-.3.3c-.2.4-.5.7-1.1.8H64c-1 .3-2.2.3-3.2.3-3.4.1-6.8-.1-10.3-.3-4.9.9-9.7 1.8-14.5-.1-.6-.2-1.1-.8-.9-1.5.1-.4.3-.9.5-1.6.1-1.5.4-2.6 1-3.4.1-.2.1-.4.1-.5.1-1.1 1.4-1.5 2.1-1 1.2-.4 2.8-.5 4.6-.4 4.2.1 8.3.6 12.5.3 2.2-.1 4.7-.6 6.8.2 2.6 1 5.1 4.3 3 6.9z"
       id="path1211" />
    <path
       class="st18"
       d="M101.3 84.3v5.5c0 .7-.5 1.2-1.1 1.2H3.1c-.6 0-1.1-.6-1.1-1.2v-5.5"
       id="path1213" />
    <path
       class="st40"
       d="M22 36.6h-3.6c-2.2 0-4-1.8-4-4v-.3c0-2.2 1.8-4 4-4H22c2.2 0 4 1.8 4 4v.3c0 2.2-1.8 4-4 4zm63 0h-3.6c-2.2 0-4-1.8-4-4v-.3c0-2.2 1.8-4 4-4H85c2.2 0 4 1.8 4 4v.3c0 2.2-1.8 4-4 4zm-47.3 0H34c-2.2 0-4-1.8-4-4v-.3c0-2.2 1.8-4 4-4h3.6c2.2 0 4 1.8 4 4v.3c.1 2.2-1.7 4-3.9 4z"
       id="path1215" />
    <path
       class="st0"
       d="M33.4 33.9H22.5c-.6 0-1.1-.5-1.1-1.1 0-.6.5-1.1 1.1-1.1h10.9c.6 0 1.1.5 1.1 1.1 0 .6-.5 1.1-1.1 1.1zm15.6 0H38c-.6 0-1.1-.5-1.1-1.1 0-.6.5-1.1 1.1-1.1h11c.6 0 1.1.5 1.1 1.1-.1.6-.5 1.1-1.1 1.1zm15.7 0H53.8c-.6 0-1.1-.5-1.1-1.1 0-.6.5-1.1 1.1-1.1h10.9c.6 0 1.1.5 1.1 1.1 0 .6-.5 1.1-1.1 1.1zm15.8 0H69.6c-.6 0-1.1-.5-1.1-1.1 0-.6.5-1.1 1.1-1.1h10.9c.6 0 1.1.5 1.1 1.1 0 .6-.5 1.1-1.1 1.1z"
       id="path1217" />
    <path
       class="st40"
       d="M53.2 36.6h-3.6c-2.2 0-4-1.8-4-4v-.3c0-2.2 1.8-4 4-4h3.6c2.2 0 4 1.8 4 4v.3c0 2.2-1.8 4-4 4zm15.7 0h-3.6c-2.2 0-4-1.8-4-4v-.3c0-2.2 1.8-4 4-4h3.6c2.2 0 4 1.8 4 4v.3c0 2.2-1.8 4-4 4zM76.8 50h-3.6c-2.2 0-4-1.8-4-4v-.3c0-2.2 1.8-4 4-4h3.6c2.2 0 4 1.8 4 4v.3c0 2.2-1.8 4-4 4zm-47.3 0h-3.6c-2.2 0-4-1.8-4-4v-.3c0-2.2 1.8-4 4-4h3.6c2.2 0 4 1.8 4 4v.3c0 2.2-1.8 4-4 4z"
       id="path1219" />
    <path
       class="st0"
       d="M25.2 47.3H14.3c-.6 0-1.1-.5-1.1-1.1 0-.6.5-1.1 1.1-1.1h10.9c.6 0 1.1.5 1.1 1.1 0 .6-.5 1.1-1.1 1.1zm15.6 0h-11c-.6 0-1.1-.5-1.1-1.1 0-.6.5-1.1 1.1-1.1h10.9c.6 0 1.1.5 1.1 1.1.1.6-.4 1.1-1 1.1zm15.7 0H45.6c-.6 0-1.1-.5-1.1-1.1 0-.6.5-1.1 1.1-1.1h10.9c.6 0 1.1.5 1.1 1.1 0 .6-.5 1.1-1.1 1.1zm15.8 0H61.4c-.6 0-1.1-.5-1.1-1.1 0-.6.5-1.1 1.1-1.1h10.9c.6 0 1.1.5 1.1 1.1 0 .6-.5 1.1-1.1 1.1zm17.1 0h-11c-.6 0-1.1-.5-1.1-1.1 0-.6.5-1.1 1.1-1.1h10.9c.6 0 1.1.5 1.1 1.1 0 .6-.5 1.1-1 1.1z"
       id="path1221" />
    <path
       class="st40"
       d="M45 50h-3.6c-2.2 0-4-1.8-4-4v-.3c0-2.2 1.8-4 4-4H45c2.2 0 4 1.8 4 4v.3c0 2.2-1.8 4-4 4zm15.7 0H57c-2.2 0-4-1.8-4-4v-.3c0-2.2 1.8-4 4-4h3.6c2.2 0 4 1.8 4 4v.3c.1 2.2-1.7 4-3.9 4z"
       id="path1223" />
    <path
       class="st18"
       d="M100.2 85.5H3.1c-.6 0-1.1-.5-1.1-1.2l8.5-19.9c0-.7.5-1.2 1.1-1.2h79.6c.6 0 1.1.6 1.1 1.2l9 19.9c0 .7-.5 1.2-1.1 1.2zM90.6 15H12.2c-.6 0-1.1.6-1.1 1.2V63h80.7V16.3c-.1-.7-.6-1.3-1.2-1.3zm-4.7 39.7c0 1.3-1.1 2.3-2.3 2.3H19.2c-1.3 0-2.3-1.1-2.3-2.3V23.3c0-1.3 1.1-2.3 2.3-2.3h64.4c1.3 0 2.3 1.1 2.3 2.3v31.4z"
       id="path1225" />
    <path
       class="st10"
       d="M65.5 80.2H35.4c-.5 0-1-.7-1-1.6l1.4-6c0-.9.4-1.6 1-1.6H64c.5 0 1 .7 1 1.6l1.4 6c.1.9-.4 1.6-.9 1.6z"
       id="path1227" />
  </g>
</svg>
