<?xml version="1.0" encoding="UTF-8" standalone="no"?>
<!-- Generator: Adobe Illustrator 16.0.0, SVG Export Plug-In . SVG Version: 6.00 Build 0)  -->

<svg
   xmlns:dc="http://purl.org/dc/elements/1.1/"
   xmlns:cc="http://creativecommons.org/ns#"
   xmlns:rdf="http://www.w3.org/1999/02/22-rdf-syntax-ns#"
   xmlns:svg="http://www.w3.org/2000/svg"
   xmlns="http://www.w3.org/2000/svg"
   xmlns:sodipodi="http://sodipodi.sourceforge.net/DTD/sodipodi-0.dtd"
   xmlns:inkscape="http://www.inkscape.org/namespaces/inkscape"
   version="1.1"
   x="0px"
   y="0px"
   width="1300"
   height="1300"
   viewBox="0 0 1300 1300"
   enable-background="new 0 0 8000 8000"
   xml:space="preserve"
   id="svg133817"
   sodipodi:docname="model-blockchain.svg"
   inkscape:version="0.92.2 5c3e80d, 2017-08-06"><metadata
     id="metadata133823"><rdf:RDF><cc:Work
         rdf:about=""><dc:format>image/svg+xml</dc:format><dc:type
           rdf:resource="http://purl.org/dc/dcmitype/StillImage" /><dc:title /></cc:Work></rdf:RDF></metadata><defs
     id="defs133821" /><sodipodi:namedview
     pagecolor="#ffffff"
     bordercolor="#666666"
     borderopacity="1"
     objecttolerance="10"
     gridtolerance="10"
     guidetolerance="10"
     inkscape:pageopacity="0"
     inkscape:pageshadow="2"
     inkscape:window-width="1920"
     inkscape:window-height="983"
     id="namedview133819"
     showgrid="false"
     inkscape:zoom="0.22250293"
     inkscape:cx="343.80254"
     inkscape:cy="1113.6545"
     inkscape:window-x="0"
     inkscape:window-y="1"
     inkscape:window-maximized="1"
     inkscape:current-layer="svg133817" /><g
     id="Layer_4"
     transform="translate(-2939.8036,-504.45338)"><circle
       id="Background_2_24_"
       cx="3613"
       cy="1149"
       r="531.99902"
       style="fill:#e8e8e8" /><path
       d="m 3552.047,982.632 c -18.398,-15.202 -30.396,-15.202 -31.998,-11.205 -1.602,4.004 12.799,18.405 0,36.003 -12.8,17.598 -22.402,24.798 -17.598,39.199 4.798,14.401 -20.117,27.2 -1.257,40 18.854,12.799 14.856,12.799 28.45,11.999 13.373,-0.788 11.621,20.352 10.639,23.262 15.56,-37.389 24.166,-78.405 24.166,-121.432 0,-1.322 -0.039,-2.63 -0.052,-3.939 -2.252,-3.744 -5.696,-8.392 -12.35,-13.887 z"
       id="path132715"
       inkscape:connector-curvature="0"
       style="fill:#e2e2e2" /><path
       d="m 3988.336,1432.567 c 0,17.461 -12.975,31.614 -28.99,31.614 h -698.308 c -16.016,0 -28.997,-14.153 -28.997,-31.614 v -561.1 c 0,-17.461 12.981,-31.614 28.997,-31.614 h 698.308 c 16.016,0 28.99,14.153 28.99,31.614 z"
       id="path132717"
       inkscape:connector-curvature="0"
       style="fill:#b3cce7" /><linearGradient
       id="SVGID_1_"
       gradientUnits="userSpaceOnUse"
       x1="3232.041"
       y1="916.90631"
       x2="3988.3359"
       y2="916.90631"><stop
         offset="0"
         style="stop-color:#6CB5E4"
         id="stop132719" /><stop
         offset="0.0915"
         style="stop-color:#63B0E1"
         id="stop132721" /><stop
         offset="0.2435"
         style="stop-color:#49A3D9"
         id="stop132723" /><stop
         offset="0.4362"
         style="stop-color:#208DCC"
         id="stop132725" /><stop
         offset="0.5674"
         style="stop-color:#007CC2"
         id="stop132727" /><stop
         offset="1"
         style="stop-color:#0059A9"
         id="stop132729" /></linearGradient><path
       d="m 3959.346,839.853 h -698.308 c -16.016,0 -28.997,14.153 -28.997,31.614 V 993.96 h 756.295 V 871.467 c 0,-17.461 -12.975,-31.614 -28.99,-31.614 z"
       id="path132732"
       style="fill:#b3cce7;fill-opacity:1"
       inkscape:connector-curvature="0" /><path
       d="m 3864.33,892.958 c 0,8.724 -6.491,15.801 -14.492,15.801 -8.008,0 -14.506,-7.077 -14.506,-15.801 0,-8.73 6.498,-15.808 14.506,-15.808 8.001,0 14.492,7.078 14.492,15.808 z"
       id="path132734"
       inkscape:connector-curvature="0"
       style="fill:#ff614f" /><path
       d="m 3912.253,892.958 c 0,8.724 -6.491,15.801 -14.499,15.801 -8.001,0 -14.492,-7.077 -14.492,-15.801 0,-8.73 6.491,-15.808 14.492,-15.808 8.008,0 14.499,7.078 14.499,15.808 z"
       id="path132736"
       inkscape:connector-curvature="0"
       style="fill:#f7d546" /><path
       d="m 3962.194,892.958 c 0,8.724 -6.491,15.801 -14.499,15.801 -8.008,0 -14.498,-7.077 -14.498,-15.801 0,-8.73 6.49,-15.808 14.498,-15.808 8.008,0 14.499,7.078 14.499,15.808 z"
       id="path132738"
       inkscape:connector-curvature="0"
       style="fill:#11c1a7" /><path
       d="m 3799.866,892.431 c 0,13.522 -10.052,24.479 -22.448,24.479 h -441.979 c -12.402,0 -22.455,-10.957 -22.455,-24.479 v 0 c 0,-13.516 10.053,-24.473 22.455,-24.473 h 441.979 c 12.396,0 22.448,10.957 22.448,24.473 z"
       id="path132740"
       inkscape:connector-curvature="0"
       style="fill:#ffffff" /><rect
       x="3269.488"
       y="1022.938"
       width="682.20801"
       height="401.198"
       id="rect132742"
       style="fill:#ffffff" /><g
       id="Security_3_"><path
         d="m 3887.262,1055.269 -234.153,101.126 v 250.801 c 0,0 13.815,174.642 234.153,271.608 220.332,-96.966 234.154,-271.608 234.154,-271.608 v -250.801 z"
         id="path132744"
         inkscape:connector-curvature="0"
         style="fill:#f7d546" /><path
         d="m 3887.262,1118.98 -186.309,80.462 v 199.544 c 0,0 10.996,138.958 186.309,216.107 175.307,-77.148 186.303,-216.107 186.303,-216.107 v -199.544 z"
         id="path132746"
         inkscape:connector-curvature="0"
         style="fill:#34495e" /><path
         d="m 4121.416,1407.196 v -250.801 l -234.154,-101.126 v 623.535 c 220.332,-96.966 234.154,-271.608 234.154,-271.608 z"
         id="path132748"
         inkscape:connector-curvature="0"
         style="opacity:0.1;fill:#231f20" /><polygon
         points="3885.986,1423.928 3886.162,1424.136 3886.168,1424.136 3886.318,1424.006 4033.316,1298.277 4011.233,1272.457 3889.417,1376.649 3838.812,1319.709 3813.421,1342.281 "
         id="polygon132750"
         style="fill:#eaeaea" /></g><g
       id="g132785"><g
         id="g132767"
         style="display:inline;fill:#4d4d4d"><path
           d="m 3869.625,944.282 1.797,-7.898 c 0,0 -6.074,-1.251 -12.213,-2.293 -3.073,-0.524 -6.152,-0.999 -8.483,-1.326 -1.172,-0.154 -2.148,-0.283 -2.832,-0.376 -0.71,-0.08 -1.12,-0.129 -1.12,-0.129 l -0.963,8.021 c 0,0 1.471,0.191 3.672,0.475 2.232,0.308 5.228,0.777 8.216,1.283 5.976,1.016 11.926,2.243 11.926,2.243 z"
           id="path132753"
           inkscape:connector-curvature="0"
           style="fill:#4d4d4d" /><path
           d="m 3904.671,953.086 2.559,-7.707 c 0,0 -5.925,-1.788 -11.921,-3.366 -5.982,-1.603 -12.023,-3.021 -12.023,-3.021 l -2.059,7.836 c 0,0 5.912,1.393 11.771,2.959 5.865,1.548 11.673,3.299 11.673,3.299 z"
           id="path132755"
           inkscape:connector-curvature="0"
           style="fill:#4d4d4d" /><path
           d="m 3938.668,964.937 3.34,-7.436 c 0,0 -1.432,-0.567 -3.587,-1.424 -2.155,-0.857 -5.059,-1.924 -7.949,-3.015 -5.813,-2.109 -11.687,-4.057 -11.687,-4.057 l -2.813,7.627 c 0,0 5.749,1.905 11.433,3.964 2.825,1.073 5.657,2.108 7.761,2.947 2.103,0.839 3.502,1.394 3.502,1.394 z"
           id="path132757"
           inkscape:connector-curvature="0"
           style="fill:#4d4d4d" /><path
           d="m 3971.129,980.036 4.199,-7.035 c 0,0 -1.36,-0.721 -3.404,-1.807 -2.045,-1.067 -4.818,-2.423 -7.572,-3.811 -2.793,-1.313 -5.566,-2.651 -7.676,-3.607 -2.115,-0.943 -3.528,-1.566 -3.528,-1.566 l -3.606,7.319 c 0,0 1.373,0.61 3.438,1.529 2.057,0.925 4.759,2.238 7.48,3.515 2.682,1.344 5.357,2.694 7.369,3.705 1.985,1.055 3.3,1.758 3.3,1.758 z"
           id="path132759"
           inkscape:connector-curvature="0"
           style="fill:#4d4d4d" /><path
           d="m 4001.324,998.712 5.144,-6.443 c 0,0 -1.218,-0.931 -3.138,-2.213 -1.914,-1.276 -4.401,-3.077 -7.019,-4.698 -2.585,-1.665 -5.169,-3.33 -7.168,-4.489 -1.979,-1.19 -3.294,-1.985 -3.294,-1.985 l -4.499,6.868 c 0,0 1.282,0.771 3.196,1.924 1.94,1.122 4.447,2.737 6.947,4.347 2.539,1.572 4.941,3.311 6.797,4.55 1.856,1.239 3.034,2.139 3.034,2.139 z"
           id="path132761"
           inkscape:connector-curvature="0"
           style="fill:#4d4d4d" /><path
           d="m 4028.226,1021.284 6.159,-5.586 c 0,0 -4.323,-4.316 -8.926,-8.348 -2.266,-2.053 -4.668,-3.965 -6.406,-5.457 -0.873,-0.746 -1.635,-1.332 -2.162,-1.745 -0.527,-0.413 -0.826,-0.647 -0.826,-0.647 l -5.476,6.19 c 0,0 0.286,0.228 0.801,0.629 0.508,0.395 1.243,0.962 2.083,1.683 1.674,1.437 3.991,3.28 6.172,5.253 4.427,3.885 8.581,8.028 8.581,8.028 z"
           id="path132763"
           inkscape:connector-curvature="0"
           style="fill:#4d4d4d" /><path
           d="m 4050.621,1047.752 7.129,-4.439 c 0,0 -0.892,-1.221 -2.227,-3.064 -0.67,-0.918 -1.451,-1.991 -2.285,-3.138 -0.846,-1.147 -1.822,-2.312 -2.76,-3.508 -0.943,-1.184 -1.895,-2.374 -2.78,-3.483 -0.938,-1.079 -1.81,-2.084 -2.559,-2.947 -1.497,-1.721 -2.5,-2.867 -2.5,-2.867 l -6.484,5.247 c 0,0 0.957,1.097 2.396,2.75 0.717,0.82 1.557,1.788 2.448,2.817 0.853,1.067 1.758,2.201 2.663,3.342 0.898,1.141 1.836,2.257 2.643,3.354 0.801,1.097 1.543,2.127 2.188,3.002 1.276,1.763 2.128,2.934 2.128,2.934 z"
           id="path132765"
           inkscape:connector-curvature="0"
           style="fill:#4d4d4d" /></g><g
         id="g132783"
         style="display:inline;fill:#4d4d4d"><path
           d="m 4067.275,1077.735 7.896,-3.04 c 0,0 -0.13,-0.358 -0.403,-0.956 -0.28,-0.598 -0.671,-1.449 -1.146,-2.473 -0.99,-2.028 -2.129,-4.809 -3.601,-7.448 -1.438,-2.651 -2.734,-5.371 -3.952,-7.288 -1.152,-1.949 -1.92,-3.25 -1.92,-3.25 l -7.409,3.996 c 0,0 0.735,1.245 1.836,3.107 1.165,1.831 2.396,4.433 3.776,6.967 1.406,2.515 2.486,5.179 3.438,7.115 0.455,0.98 0.833,1.794 1.1,2.361 0.261,0.576 0.385,0.909 0.385,0.909 z"
           id="path132769"
           inkscape:connector-curvature="0"
           style="fill:#4d4d4d" /><path
           d="m 4077.535,1110.216 8.366,-1.591 c 0,0 -0.339,-1.449 -0.853,-3.631 -0.514,-2.177 -1.133,-5.093 -2.031,-7.954 -0.859,-2.861 -1.582,-5.759 -2.383,-7.868 -0.736,-2.121 -1.225,-3.539 -1.225,-3.539 l -8.086,2.565 c 0,0 0.469,1.356 1.172,3.385 0.769,2.01 1.459,4.791 2.279,7.528 0.859,2.738 1.451,5.537 1.946,7.621 0.49,2.09 0.815,3.484 0.815,3.484 z"
           id="path132771"
           inkscape:connector-curvature="0"
           style="fill:#4d4d4d" /><path
           d="m 4081.52,1144.003 8.522,-0.259 c 0,0 -0.046,-1.48 -0.104,-3.706 -0.11,-2.22 -0.384,-5.179 -0.605,-8.138 -0.162,-2.966 -0.638,-5.907 -0.898,-8.12 -0.279,-2.213 -0.475,-3.687 -0.475,-3.687 l -8.444,1.128 c 0,0 0.183,1.418 0.456,3.545 0.254,2.127 0.709,4.957 0.865,7.812 0.209,2.854 0.476,5.703 0.58,7.843 0.063,2.145 0.103,3.582 0.103,3.582 z"
           id="path132773"
           inkscape:connector-curvature="0"
           style="fill:#4d4d4d" /><path
           d="m 4080.049,1178.098 8.482,0.864 c 0,0 0.163,-1.468 0.41,-3.675 0.293,-2.201 0.476,-5.155 0.664,-8.108 0.17,-2.954 0.456,-5.9 0.443,-8.126 0.039,-2.22 0.071,-3.699 0.071,-3.699 l -8.528,-0.142 c 0,0 -0.026,1.43 -0.072,3.582 0.02,2.146 -0.267,5.006 -0.43,7.867 -0.176,2.867 -0.352,5.728 -0.645,7.867 -0.233,2.14 -0.395,3.57 -0.395,3.57 z"
           id="path132775"
           inkscape:connector-curvature="0"
           style="fill:#4d4d4d" /><path
           d="m 4074.078,1211.867 8.32,1.763 c 0,0 0.346,-1.437 0.866,-3.594 0.547,-2.146 1.042,-5.068 1.641,-7.96 0.56,-2.904 1.211,-5.79 1.497,-7.991 0.346,-2.195 0.573,-3.656 0.573,-3.656 l -8.438,-1.184 c 0,0 -0.222,1.424 -0.554,3.558 -0.279,2.14 -0.918,4.957 -1.465,7.787 -0.586,2.824 -1.061,5.666 -1.602,7.769 -0.499,2.102 -0.838,3.508 -0.838,3.508 z"
           id="path132777"
           inkscape:connector-curvature="0"
           style="fill:#4d4d4d" /><path
           d="m 4064.554,1245.013 8.118,2.466 c 0,0 1.811,-5.629 3.62,-11.259 0.925,-2.812 1.634,-5.685 2.266,-7.812 0.599,-2.133 1.003,-3.557 1.003,-3.557 l -8.262,-2.01 c 0,0 -0.391,1.393 -0.983,3.483 -0.612,2.078 -1.309,4.89 -2.214,7.646 -1.778,5.519 -3.548,11.043 -3.548,11.043 z"
           id="path132779"
           inkscape:connector-curvature="0"
           style="fill:#4d4d4d" /><path
           d="m 4052.093,1277.333 7.903,3.027 c 0,0 0.593,-1.357 1.479,-3.392 0.865,-2.046 1.934,-4.802 3.033,-7.552 1.094,-2.75 2.188,-5.5 3.008,-7.559 0.749,-2.09 1.25,-3.478 1.25,-3.478 l -8.047,-2.669 c 0,0 -0.494,1.369 -1.23,3.416 -0.807,2.028 -1.881,4.735 -2.955,7.442 -1.088,2.701 -2.136,5.414 -2.982,7.423 -0.88,2.01 -1.459,3.342 -1.459,3.342 z"
           id="path132781"
           inkscape:connector-curvature="0"
           style="fill:#4d4d4d" /></g></g></g><g
     style="display:inline"
     id="g8506"
     transform="translate(-5070.8358,-4953.9433)"
     inkscape:label="maps"><g
       id="g8438"
       style="display:inline"
       transform="translate(76.403489,87.639295)"><polygon
         style="fill:#ffb927;fill-opacity:1"
         id="polygon8418"
         points="5089.557,5584.258 5245.352,5584.258 5245.352,5405.195 5210.709,5369.01 5089.557,5369.01 " /><polygon
         style="opacity:0.1"
         id="polygon8420"
         points="5246.523,5404.121 5221.028,5389.766 5211.36,5404.121 5246.523,5439.283 " /><polygon
         style="fill:#e8e8e8"
         id="polygon8422"
         points="5210.703,5369.01 5245.352,5405.195 5210.703,5405.742 " /><g
         id="g8436"
         style="display:inline"><rect
           style="fill:#0f3854"
           id="rect8424"
           height="19.733"
           width="19.726999"
           y="5410.6958"
           x="5111.146" /><rect
           style="fill:#00b09e"
           id="rect8426"
           height="4.4390001"
           width="19.726999"
           y="5434.8442"
           x="5111.146" /><rect
           style="fill:#dd3401"
           id="rect8428"
           height="4.4390001"
           width="26.745001"
           y="5434.8442"
           x="5130.8721" /><rect
           style="fill:#0f3854"
           id="rect8430"
           height="4.4390001"
           width="27.368999"
           y="5434.8442"
           x="5157.6172" /><rect
           style="opacity:0.8;fill:#0f3854"
           id="rect8432"
           height="19.733"
           width="19.733"
           y="5410.6958"
           x="5137.8838" /><rect
           style="opacity:0.7;fill:#0f3854"
           id="rect8434"
           height="19.733"
           width="19.726999"
           y="5410.6958"
           x="5165.2598" /></g></g><g
       style="display:none"
       id="g8460"><polygon
         style="fill:#ffb927"
         id="polygon8440"
         points="6202.142,5406.119 6149.85,5351.497 5966.946,5351.497 5966.946,5676.445 6202.142,5676.445 " /><polygon
         style="opacity:0.1"
         id="polygon8442"
         points="6203.912,5404.492 6165.43,5382.818 6150.833,5404.492 6203.912,5457.578 " /><polygon
         style="fill:#e8e8e8"
         id="polygon8444"
         points="6202.142,5406.119 6149.844,5406.939 6149.844,5351.497 " /><g
         id="g8458"><rect
           style="fill:#0f3854"
           id="rect8446"
           height="29.785"
           width="29.785"
           y="5414.4268"
           x="5999.5371" /><rect
           style="fill:#00b09e"
           id="rect8448"
           height="6.7059999"
           width="29.785"
           y="5450.8721"
           x="5999.5371" /><rect
           style="fill:#dd3401"
           id="rect8450"
           height="6.7059999"
           width="40.377998"
           y="5450.8721"
           x="6029.3218" /><rect
           style="fill:#0f3854"
           id="rect8452"
           height="6.7059999"
           width="41.314999"
           y="5450.8721"
           x="6069.7002" /><rect
           style="opacity:0.8;fill:#0f3854"
           id="rect8454"
           height="29.785"
           width="29.792"
           y="5414.4268"
           x="6039.9082" /><rect
           style="opacity:0.7;fill:#0f3854"
           id="rect8456"
           height="29.785"
           width="29.785"
           y="5414.4268"
           x="6081.23" /></g></g><g
       style="display:inline"
       id="g8482"
       transform="translate(-141.57117,92.133618)"><polygon
         style="fill:#00f5c5"
         id="polygon8462"
         points="5601.751,5662.408 5418.854,5662.408 5418.854,5987.356 5654.049,5987.356 5654.049,5717.031 " /><polygon
         style="opacity:0.1"
         id="polygon8464"
         points="5655.813,5715.41 5617.337,5693.73 5602.734,5715.41 5655.813,5768.489 " /><polygon
         style="fill:#e8e8e8"
         id="polygon8466"
         points="5601.751,5662.408 5654.049,5717.031 5601.751,5717.852 " /><g
         id="g8480"><rect
           style="fill:#0f3854"
           id="rect8468"
           height="29.785"
           width="29.785"
           y="5725.3379"
           x="5451.4448" /><rect
           style="fill:#00b09e"
           id="rect8470"
           height="6.6989999"
           width="29.785"
           y="5761.79"
           x="5451.4448" /><rect
           style="fill:#dd3401"
           id="rect8472"
           height="6.6989999"
           width="40.370998"
           y="5761.79"
           x="5481.23" /><rect
           style="fill:#0f3854"
           id="rect8474"
           height="6.6989999"
           width="41.320999"
           y="5761.79"
           x="5521.6021" /><rect
           style="opacity:0.8;fill:#0f3854"
           id="rect8476"
           height="29.785"
           width="29.785"
           y="5725.3379"
           x="5491.8159" /><rect
           style="opacity:0.7;fill:#0f3854"
           id="rect8478"
           height="29.785"
           width="29.785"
           y="5725.3379"
           x="5533.1382" /></g></g><g
       style="display:inline"
       id="g8504"
       transform="translate(107.86375,-94.380782)"><polygon
         style="fill:#22b5dd"
         id="polygon8484"
         points="5444.439,5471.699 5679.635,5471.699 5679.635,5201.373 5627.344,5146.751 5444.439,5146.751 " /><polygon
         style="opacity:0.1"
         id="polygon8486"
         points="5681.406,5252.832 5681.406,5199.752 5642.93,5178.072 5628.32,5199.752 " /><polygon
         style="fill:#e8e8e8"
         id="polygon8488"
         points="5679.635,5201.373 5627.344,5202.193 5627.344,5146.751 " /><g
         id="g8502"
         style="display:inline"><rect
           style="fill:#0f3854"
           id="rect8490"
           height="29.785"
           width="29.791"
           y="5209.6812"
           x="5477.0308" /><rect
           style="fill:#00b09e"
           id="rect8492"
           height="6.6989999"
           width="29.791"
           y="5246.1328"
           x="5477.0308" /><rect
           style="fill:#dd3401"
           id="rect8494"
           height="6.6989999"
           width="40.365002"
           y="5246.1328"
           x="5506.8218" /><rect
           style="fill:#0f3854"
           id="rect8496"
           height="6.6989999"
           width="41.327999"
           y="5246.1328"
           x="5547.188" /><rect
           style="opacity:0.8;fill:#0f3854"
           id="rect8498"
           height="29.785"
           width="29.778999"
           y="5209.6812"
           x="5517.4082" /><rect
           style="opacity:0.7;fill:#0f3854"
           id="rect8500"
           height="29.785"
           width="29.792"
           y="5209.6812"
           x="5558.7241" /></g></g></g><g
     style="display:inline"
     id="g8540"
     transform="translate(-4954.2856,-4949.7763)"
     inkscape:label="connectors"><g
       id="g8510"
       style="display:inline"
       transform="translate(6.7414843,78.65065)"><polygon
         style="fill:#231f20"
         id="polygon8508"
         points="5410.872,5483.379 5447.832,5520.338 5441.041,5527.129 5406.9,5492.981 5165.26,5492.981 5165.26,5483.379 " /><path
         style="display:inline;fill:#231f20"
         inkscape:connector-curvature="0"
         id="path8514"
         d="m 5463.105,5523.919 c 0,10.313 -8.354,18.665 -18.666,18.665 -10.312,0 -18.672,-8.353 -18.672,-18.665 0,-10.306 8.359,-18.665 18.672,-18.665 10.313,0 18.666,8.359 18.666,18.665 z" /><path
         style="display:inline;fill:#231f20"
         inkscape:connector-curvature="0"
         id="path8512"
         d="m 5183.919,5486.588 c 0,10.307 -8.353,18.666 -18.659,18.666 -10.313,0 -18.672,-8.359 -18.672,-18.666 0,-10.313 8.359,-18.672 18.672,-18.672 10.306,0 18.659,8.359 18.659,18.672 z" /></g><path
       style="display:inline;fill:#231f20"
       inkscape:connector-curvature="0"
       id="path8518"
       d="m 5565.859,5523.919 c 0,10.313 -8.359,18.665 -18.672,18.665 -10.307,0 -18.659,-8.353 -18.659,-18.665 0,-10.306 8.353,-18.665 18.659,-18.665 10.313,0 18.672,8.359 18.672,18.665 z" /><path
       style="display:none;fill:#231f20"
       inkscape:connector-curvature="0"
       id="path8522"
       d="m 6103.216,5520.611 c 0,10.307 -8.359,18.666 -18.672,18.666 -10.313,0 -18.665,-8.359 -18.665,-18.666 0,-10.313 8.353,-18.672 18.665,-18.672 10.312,0 18.672,8.36 18.672,18.672 z" /><path
       style="display:none;fill:#231f20"
       inkscape:connector-curvature="0"
       id="path8524"
       d="m 5566.692,5584.258 c 0,10.313 -8.359,18.665 -18.665,18.665 -10.307,0 -18.666,-8.353 -18.666,-18.665 0,-10.307 8.359,-18.666 18.666,-18.666 10.306,0 18.665,8.359 18.665,18.666 z" /><path
       style="display:inline;fill:#231f20"
       inkscape:connector-curvature="0"
       id="path8526"
       d="m 5565.859,5318.555 c 0,10.313 -8.359,18.665 -18.672,18.665 -10.307,0 -18.659,-8.353 -18.659,-18.665 0,-10.307 8.353,-18.666 18.659,-18.666 10.313,0 18.672,8.359 18.672,18.666 z" /><g
       id="g8530"
       style="display:inline"><rect
         style="fill:#231f20"
         id="rect8528"
         height="198.58701"
         width="9.5970001"
         y="5325.332"
         x="5542.396" /></g><g
       id="g8534"
       style="display:none"><polygon
         style="fill:#231f20"
         id="polygon8532"
         points="5609.993,5515.508 6081.23,5515.508 6081.23,5525.104 5613.971,5525.104 5551.419,5587.649 5544.635,5580.865 " /></g><g
       id="g8538"
       style="display:inline"
       inkscape:label="line"
       transform="matrix(1,0,0,-0.80594074,-94.38078,10417.371)"><path
         style="display:inline;fill:#231f20"
         inkscape:connector-curvature="0"
         id="path8516"
         d="m 5555.117,5848.001 c 0,10.306 -8.359,18.665 -18.672,18.665 -10.307,0 -18.666,-8.359 -18.666,-18.665 0,-10.313 8.359,-18.672 18.666,-18.672 10.313,0 18.672,8.359 18.672,18.672 z"
         inkscape:label="b2" /><path
         style="display:inline;fill:#231f20"
         inkscape:connector-curvature="0"
         id="path8520"
         d="m 5463.105,5584.258 c 0,10.313 -8.354,18.665 -18.666,18.665 -10.312,0 -18.672,-8.353 -18.672,-18.665 0,-10.307 8.359,-18.666 18.672,-18.666 10.313,0 18.666,8.359 18.666,18.666 z"
         inkscape:label="b1" /><polygon
         style="fill:#231f20"
         id="polygon8536"
         points="5532.656,5679.264 5441.041,5587.649 5447.832,5580.865 5542.259,5675.286 5542.259,5848.001 5532.656,5848.001 " /></g></g></svg>