<?xml version="1.0" encoding="UTF-8" standalone="no"?>
<svg
   xmlns:dc="http://purl.org/dc/elements/1.1/"
   xmlns:cc="http://creativecommons.org/ns#"
   xmlns:rdf="http://www.w3.org/1999/02/22-rdf-syntax-ns#"
   xmlns:svg="http://www.w3.org/2000/svg"
   xmlns="http://www.w3.org/2000/svg"
   xmlns:sodipodi="http://sodipodi.sourceforge.net/DTD/sodipodi-0.dtd"
   xmlns:inkscape="http://www.inkscape.org/namespaces/inkscape"
   width="127.6"
   height="101.4"
   viewBox="0 0 127.6 101.4"
   version="1.1"
   id="svg74"
   sodipodi:docname="usecase-researchers.svg"
   inkscape:version="0.92.2 5c3e80d, 2017-08-06">
  <metadata
     id="metadata80">
    <rdf:RDF>
      <cc:Work
         rdf:about="">
        <dc:format>image/svg+xml</dc:format>
        <dc:type
           rdf:resource="http://purl.org/dc/dcmitype/StillImage" />
        <dc:title></dc:title>
      </cc:Work>
    </rdf:RDF>
  </metadata>
  <defs
     id="defs78" />
  <sodipodi:namedview
     pagecolor="#ffffff"
     bordercolor="#666666"
     borderopacity="1"
     objecttolerance="10"
     gridtolerance="10"
     guidetolerance="10"
     inkscape:pageopacity="0"
     inkscape:pageshadow="2"
     inkscape:window-width="1440"
     inkscape:window-height="803"
     id="namedview76"
     showgrid="false"
     inkscape:zoom="1.97"
     inkscape:cx="56.907241"
     inkscape:cy="61.999651"
     inkscape:window-x="0"
     inkscape:window-y="1"
     inkscape:window-maximized="1"
     inkscape:current-layer="g6158" />
  <style
     id="style2">.st0{fill:#f05135}.st1{fill:#083b54}.st2{fill:#6acad1}.st3{fill:#f59223}.st4{stroke:#f05135;stroke-width:2.5;stroke-miterlimit:10}.st4,.st5,.st6,.st7{fill:none}.st5,.st6,.st7,.st8{stroke-width:2.5;stroke-miterlimit:10}.st5{stroke:#083b54}.st6{stroke:#6acad1}.st7{stroke:#f59223}.st8{fill:#fdd9c8;stroke:#f05135}.st10,.st11,.st12,.st13,.st14,.st15,.st9{stroke-width:2.5;stroke-miterlimit:10}.st9{fill:#d3d5db;stroke:#083b54}.st10{fill:#e0f2f3;stroke:#6acad1}.st11{fill:#fee5cb;stroke:#f59223}.st12{stroke:#f05135}.st12,.st13,.st14,.st15{fill:#fff}.st13{stroke:#083b54}.st14{stroke:#6acad1}.st15{stroke:#f59223}.st16{fill:#e0f2f3}.st17,.st18{stroke-linejoin:round}.st17{stroke:#d3d5db;stroke-miterlimit:10;fill:#d3d5db}.st18{fill:#fff;stroke-width:2.5}.st18,.st19,.st20{stroke:#6acad1;stroke-miterlimit:10}.st19{stroke-linejoin:round;fill:#e0f2f3;stroke-width:2.5}.st20{fill:none;stroke-width:1.5}.st21{fill:#d3d5db}.st22{fill:#fff}.st23,.st24{fill:none;stroke:#f05135;stroke-miterlimit:10}.st24{stroke:#d3d5db;stroke-width:.5}.st25,.st26{stroke:#063b54}.st25,.st26,.st27,.st28{stroke-miterlimit:10}.st25{stroke-linejoin:round;fill:#083b54;stroke-width:.5}.st26{stroke-width:.7}.st26,.st27,.st28{fill:none}.st27{stroke:#d3d5db;stroke-width:.3}.st28{stroke:#6acad1;stroke-width:2.5;stroke-linejoin:round}.st29{fill:#063b54}.st30{fill:none;stroke:#f05135;stroke-width:2.5;stroke-linecap:round}.st30,.st31,.st32{stroke-miterlimit:10}.st31{stroke-linejoin:round;fill:#083b54;stroke:#063b54}.st32,.st33{fill:none;stroke:#e0f2f3}.st33{stroke:#6acad1;stroke-linecap:round}.st33,.st34,.st35{stroke-linejoin:round;stroke-miterlimit:10}.st34{stroke-width:2.5;stroke-linecap:round;fill:none;stroke:#6acad1}.st35{fill:#f05135;stroke:#f05235}.st36{stroke:#f05135;stroke-width:2;stroke-linecap:round}.st36,.st37,.st38,.st39,.st40{fill:none;stroke-miterlimit:10}.st37{stroke-linecap:round;stroke:#e0f2f3;stroke-width:1.5}.st38{stroke:#063b54;stroke-width:2.5}.st39,.st40{stroke:#fcc941;stroke-width:2}.st40{stroke:#f05135}</style>
  <circle
     class="st16"
     cx="64"
     cy="50.7"
     r="50.7"
     id="Layer_3"
     style="fill:#d7d7d7;fill-opacity:1" />
  <g
     id="stuffs">
    <path
       class="st17"
       d="M126.3 83.1l-22.3-40H24l-22.3 40z"
       id="path5" />
    <path
       class="st18"
       d="M126.3 79.1l-23.3-40H25l-23.3 40z"
       id="path7" />
    <g
       id="g6158"
       transform="translate(-3.2967033,8.0062794)">
      <path
         inkscape:connector-curvature="0"
         id="path6109"
         d="m 58.14805,45.603188 -8.383529,13.881586 0.627944,1.726844 9.419152,1.255887 L 82.103611,62.31052 87.265759,61.078303 84.929356,56.031085 78.449991,45.771294 71.1146,47.08289 68.916797,46.768918 65.55911,43.70132 Z"
         style="fill:#ffffff;fill-opacity:0.91538457;stroke:none;stroke-width:1px;stroke-linecap:butt;stroke-linejoin:miter;stroke-opacity:1" />
      <g
         style="fill:#6acad1;fill-opacity:1;stroke:#6acad1;stroke-opacity:1"
         transform="matrix(0.0775733,0,0,0.07146515,87.471143,1.1799285)"
         id="g6066">
        <g
           style="fill:#6acad1;fill-opacity:1;stroke:#6acad1;stroke-opacity:1"
           id="g5987" />
        <g
           style="fill:#6acad1;fill-opacity:1;stroke:#6acad1;stroke-opacity:1"
           id="g5989" />
        <g
           style="fill:#6acad1;fill-opacity:1;stroke:#6acad1;stroke-opacity:1"
           id="g5991" />
        <g
           style="fill:#6acad1;fill-opacity:1;stroke:#6acad1;stroke-opacity:1"
           id="g5993" />
        <g
           style="fill:#6acad1;fill-opacity:1;stroke:#6acad1;stroke-opacity:1"
           id="g5995" />
        <g
           style="fill:#6acad1;fill-opacity:1;stroke:#6acad1;stroke-opacity:1"
           id="g5997" />
        <g
           style="fill:#6acad1;fill-opacity:1;stroke:#6acad1;stroke-opacity:1"
           id="g5999" />
        <g
           style="fill:#6acad1;fill-opacity:1;stroke:#6acad1;stroke-opacity:1"
           id="g6001" />
        <g
           style="fill:#6acad1;fill-opacity:1;stroke:#6acad1;stroke-opacity:1"
           id="g6003" />
        <g
           style="fill:#6acad1;fill-opacity:1;stroke:#6acad1;stroke-opacity:1"
           id="g6005" />
        <g
           style="fill:#6acad1;fill-opacity:1;stroke:#6acad1;stroke-opacity:1"
           id="g6007" />
        <g
           style="fill:#6acad1;fill-opacity:1;stroke:#6acad1;stroke-opacity:1"
           id="g6009" />
        <g
           style="fill:#6acad1;fill-opacity:1;stroke:#6acad1;stroke-opacity:1"
           id="g6011" />
        <g
           style="fill:#6acad1;fill-opacity:1;stroke:#6acad1;stroke-opacity:1"
           id="g6013" />
        <g
           style="fill:#6acad1;fill-opacity:1;stroke:#6acad1;stroke-opacity:1"
           id="g6015" />
        <g
           transform="matrix(1.2474821,0,0,1.3126544,-567.25923,213.21689)"
           id="g6107">
          <g
             id="g5937"
             style="fill:#6acad1;fill-opacity:1;stroke:#6acad1;stroke-opacity:1">
            <g
               id="g5935"
               style="fill:#6acad1;fill-opacity:1;stroke:#6acad1;stroke-opacity:1">
              <path
                 id="path5933"
                 d="m 254.926,48.383 h -0.075 c -5.523,0 -9.962,4.477 -9.962,10 0,5.523 4.515,10 10.038,10 5.523,0 9.999,-4.477 9.999,-10 0,-5.523 -4.477,-10 -10,-10 z"
                 inkscape:connector-curvature="0"
                 style="fill:#6acad1;fill-opacity:1;stroke:#6acad1;stroke-opacity:1" />
            </g>
          </g>
          <g
             id="g5943"
             style="fill:#6acad1;fill-opacity:1;stroke:#6acad1;stroke-opacity:1">
            <g
               id="g5941"
               style="fill:#6acad1;fill-opacity:1;stroke:#6acad1;stroke-opacity:1">
              <path
                 id="path5939"
                 d="m 293.265,382.644 -0.101,-0.103 c -3.878,-3.934 -10.209,-3.98 -14.142,-0.102 -3.934,3.877 -3.979,10.209 -0.102,14.142 l 0.101,0.103 c 1.957,1.985 4.539,2.98 7.122,2.98 2.535,0 5.072,-0.958 7.02,-2.878 3.934,-3.877 3.979,-10.209 0.102,-14.142 z"
                 inkscape:connector-curvature="0"
                 style="fill:#6acad1;fill-opacity:1;stroke:#6acad1;stroke-opacity:1" />
            </g>
          </g>
          <g
             id="g5949"
             style="fill:#6acad1;fill-opacity:1;stroke:#6acad1;stroke-opacity:1">
            <g
               id="g5947"
               style="fill:#6acad1;fill-opacity:1;stroke:#6acad1;stroke-opacity:1">
              <path
                 id="path5945"
                 d="m 302.764,338 c -0.001,0 0,0 -0.001,0 -16.813,0 -31.339,12.53 -33.786,29.145 -0.805,5.464 2.972,10.545 8.436,11.35 5.461,0.802 10.545,-2.972 11.35,-8.436 1.013,-6.876 7.032,-12.06 14.001,-12.06 7.803,0 14.152,6.348 14.152,14.15 -10e-4,6.938 -4.953,12.807 -11.777,13.954 -5.446,0.916 -9.12,6.074 -8.204,11.52 0.822,4.886 5.056,8.344 9.85,8.344 0.551,0 1.109,-0.045 1.67,-0.139 16.491,-2.772 28.461,-16.935 28.461,-33.678 C 336.915,353.319 321.594,338 302.764,338 Z"
                 inkscape:connector-curvature="0"
                 style="fill:#6acad1;fill-opacity:1;stroke:#6acad1;stroke-opacity:1" />
            </g>
          </g>
          <g
             id="g5955"
             style="fill:#6acad1;fill-opacity:1;stroke:#6acad1;stroke-opacity:1">
            <g
               id="g5953"
               style="fill:#6acad1;fill-opacity:1;stroke:#6acad1;stroke-opacity:1">
              <path
                 id="path5951"
                 d="m 242.28,241.058 -0.046,-0.046 c -3.86,-3.951 -10.192,-4.023 -14.141,-0.163 -3.95,3.86 -4.023,10.191 -0.163,14.141 l 0.207,0.21 c 1.952,1.953 4.512,2.929 7.071,2.929 2.56,0 5.119,-0.976 7.072,-2.928 3.905,-3.906 3.905,-10.238 0,-14.143 z"
                 inkscape:connector-curvature="0"
                 style="fill:#6acad1;fill-opacity:1;stroke:#6acad1;stroke-opacity:1" />
            </g>
          </g>
          <g
             id="g5961"
             style="fill:#6acad1;fill-opacity:1;stroke:#6acad1;stroke-opacity:1">
            <g
               id="g5959"
               style="fill:#6acad1;fill-opacity:1;stroke:#6acad1;stroke-opacity:1">
              <path
                 id="path5957"
                 d="m 255.965,186.099 c -0.001,0 0,0 0,0 -19.773,0 -36.854,14.733 -39.731,34.271 -0.805,5.464 2.972,10.546 8.436,11.35 5.456,0.807 10.546,-2.972 11.35,-8.436 1.443,-9.798 10.018,-17.186 19.946,-17.186 11.117,-0.001 20.161,9.043 20.161,20.159 0,9.884 -7.058,18.245 -16.783,19.88 -5.447,0.916 -9.12,6.074 -8.204,11.52 0.822,4.886 5.056,8.344 9.85,8.344 0.55,0 1.109,-0.045 1.669,-0.139 19.391,-3.261 33.467,-19.916 33.467,-39.604 0,-22.144 -18.017,-40.159 -40.161,-40.159 z"
                 inkscape:connector-curvature="0"
                 style="fill:#6acad1;fill-opacity:1;stroke:#6acad1;stroke-opacity:1" />
            </g>
          </g>
          <g
             id="g5967"
             style="fill:#6acad1;fill-opacity:1;stroke:#6acad1;stroke-opacity:1">
            <g
               id="g5965"
               style="fill:#6acad1;fill-opacity:1;stroke:#6acad1;stroke-opacity:1">
              <path
                 id="path5963"
                 d="m 197.913,347.061 c -8.271,0 -15,6.729 -15,15 0,8.271 6.729,15 15,15 8.271,0 15,-6.729 15,-15 0,-8.271 -6.729,-15 -15,-15 z"
                 inkscape:connector-curvature="0"
                 style="fill:#6acad1;fill-opacity:1;stroke:#6acad1;stroke-opacity:1" />
            </g>
          </g>
          <g
             id="g5973"
             style="fill:#6acad1;fill-opacity:1;stroke:#6acad1;stroke-opacity:1">
            <g
               id="g5971"
               style="fill:#6acad1;fill-opacity:1;stroke:#6acad1;stroke-opacity:1">
              <path
                 id="path5969"
                 d="m 240.927,126 c -8.271,0 -15,6.729 -15,15 0,8.271 6.729,15 15,15 8.271,0 15,-6.729 15,-15 0,-8.271 -6.729,-15 -15,-15 z"
                 inkscape:connector-curvature="0"
                 style="fill:#6acad1;fill-opacity:1;stroke:#6acad1;stroke-opacity:1" />
            </g>
          </g>
          <g
             id="g5979"
             style="fill:#6acad1;fill-opacity:1;stroke:#6acad1;stroke-opacity:1">
            <g
               id="g5977"
               style="fill:#6acad1;fill-opacity:1;stroke:#6acad1;stroke-opacity:1">
              <path
                 id="path5975"
                 d="m 171.579,405.089 c -17.277,0 -31.333,14.056 -31.333,31.333 0,17.277 14.056,31.333 31.333,31.333 17.277,0 31.333,-14.056 31.333,-31.333 0,-17.277 -14.056,-31.333 -31.333,-31.333 z m 0,42.665 c -6.249,0 -11.333,-5.084 -11.333,-11.333 0,-6.249 5.083,-11.333 11.333,-11.333 6.25,0 11.333,5.084 11.333,11.333 0,6.249 -5.084,11.333 -11.333,11.333 z"
                 inkscape:connector-curvature="0"
                 style="fill:#6acad1;fill-opacity:1;stroke:#6acad1;stroke-opacity:1" />
            </g>
          </g>
          <g
             id="g6076">
            <path
               inkscape:connector-curvature="0"
               id="path6070"
               d="M 176.79976,13.158753 167.44985,43.169638 206,68.383 205.94636,164.39334 204.284,233.351 58.587668,439.01352 50.205815,477.56174 66.395496,497.33184 440.78184,499.52851 452.60098,476.082 467.52893,434.03201 361.50199,312.91001 349.979,295.866 307.78179,228.92609 306,68.383 341.7199,32.360643 320.60012,11.485291 Z"
               style="fill:#ffffff;fill-opacity:0.87692308;stroke:none;stroke-width:13.43064022px;stroke-linecap:butt;stroke-linejoin:miter;stroke-opacity:1"
               sodipodi:nodetypes="cccccccccccccccccc" />
            <g
               style="fill:#6acad1;fill-opacity:1;stroke:#6acad1;stroke-opacity:1"
               id="g5985">
              <g
                 style="fill:#6acad1;fill-opacity:1;stroke:#6acad1;stroke-opacity:1"
                 id="g5983">
                <path
                   style="fill:#6acad1;fill-opacity:1;stroke:#6acad1;stroke-opacity:1"
                   inkscape:connector-curvature="0"
                   d="M 467.529,434.032 326,224.687 V 68.383 h 1.808 C 346.662,68.383 362,53.045 362,34.192 362,15.338 346.662,0 327.808,0 H 184.192 C 165.338,0 150,15.338 150,34.192 c 0,18.853 15.338,34.191 34.192,34.191 H 186 V 224.687 L 44.472,434.032 C 33.934,449.618 32.911,468.845 41.735,485.462 50.559,502.079 67.06,512 85.875,512 h 340.25 c 18.815,0 35.316,-9.921 44.14,-26.538 8.824,-16.617 7.801,-35.844 -2.736,-51.43 z M 204.284,233.351 C 205.402,231.697 206,229.747 206,227.75 V 68.383 h 10.671 c 5.523,0 10,-4.477 10,-10 0,-5.523 -4.477,-10 -10,-10 H 184.192 C 176.366,48.383 170,42.017 170,34.191 170,26.366 176.366,20 184.192,20 h 143.616 c 7.826,0 14.192,6.367 14.192,14.192 0,7.825 -6.366,14.191 -14.192,14.191 h -32.137 c -5.523,0 -10,4.477 -10,10 0,5.523 4.477,10 10,10 H 306 V 227.75 c 0,1.996 0.598,3.947 1.716,5.601 l 42.263,62.515 c -10.065,3.595 -21.029,6.18 -36.9,6.18 -23.174,0 -37.009,-5.583 -51.657,-11.493 -15.138,-6.108 -30.791,-12.425 -55.75,-12.425 -13.942,0 -25.079,1.968 -34.886,4.772 z M 452.601,476.082 C 447.308,486.049 437.411,492 426.125,492 H 85.875 c -11.286,0 -21.183,-5.951 -26.476,-15.918 -5.293,-9.967 -4.679,-21.5 1.641,-30.849 l 90.669,-134.115 c 1.57,-0.615 3.132,-1.235 4.691,-1.855 14.389,-5.727 27.98,-11.136 49.273,-11.136 21.076,0 34.283,5.33 48.266,10.972 15.773,6.365 32.083,12.946 59.141,12.946 21.442,0 35.552,-4.117 48.422,-9.135 l 89.458,132.323 c 6.32,9.35 6.934,20.882 1.641,30.849 z"
                   id="path5981" />
              </g>
            </g>
          </g>
        </g>
      </g>
      <path
         style="fill:#efd58e;fill-opacity:0.33461537;stroke:none;stroke-width:1px;stroke-linecap:butt;stroke-linejoin:miter;stroke-opacity:1"
         d="m 87.598116,59.484774 -9.148125,-13.71348 -3.881702,0.840639 -5.651492,0.156985 -3.357687,-3.067598 -7.41106,1.901868 -9.011472,11.997756 0.755573,5.470786 4.581946,-1.075182 20.094192,0.156986 h 9.733124 l 2.964346,-1.075231 z"
         id="path6179"
         inkscape:connector-curvature="0"
         sodipodi:nodetypes="ccccccccccccc" />
    </g>
  </g>
</svg>
