<?xml version="1.0" encoding="UTF-8" standalone="no"?>
<!-- Generator: Adobe Illustrator 16.0.0, SVG Export Plug-In . SVG Version: 6.00 Build 0)  -->

<svg
   xmlns:dc="http://purl.org/dc/elements/1.1/"
   xmlns:cc="http://creativecommons.org/ns#"
   xmlns:rdf="http://www.w3.org/1999/02/22-rdf-syntax-ns#"
   xmlns:svg="http://www.w3.org/2000/svg"
   xmlns="http://www.w3.org/2000/svg"
   xmlns:xlink="http://www.w3.org/1999/xlink"
   xmlns:sodipodi="http://sodipodi.sourceforge.net/DTD/sodipodi-0.dtd"
   xmlns:inkscape="http://www.inkscape.org/namespaces/inkscape"
   version="1.1"
   x="0px"
   y="0px"
   width="1300"
   height="1300"
   viewBox="0 0 1300 1300"
   enable-background="new 0 0 8000 8000"
   xml:space="preserve"
   id="svg6957"
   sodipodi:docname="usecase-healthcare.svg"
   inkscape:version="0.92.2 5c3e80d, 2017-08-06"><metadata
     id="metadata6963"><rdf:RDF><cc:Work
         rdf:about=""><dc:format>image/svg+xml</dc:format><dc:type
           rdf:resource="http://purl.org/dc/dcmitype/StillImage" /><dc:title /></cc:Work></rdf:RDF></metadata><defs
     id="defs6961" /><sodipodi:namedview
     pagecolor="#ffffff"
     bordercolor="#666666"
     borderopacity="1"
     objecttolerance="10"
     gridtolerance="10"
     guidetolerance="10"
     inkscape:pageopacity="0"
     inkscape:pageshadow="2"
     inkscape:window-width="1920"
     inkscape:window-height="983"
     id="namedview6959"
     showgrid="false"
     inkscape:zoom="0.44500588"
     inkscape:cx="87.143555"
     inkscape:cy="658.77926"
     inkscape:window-x="0"
     inkscape:window-y="1"
     inkscape:window-maximized="1"
     inkscape:current-layer="svg6957" /><g
     id="Layer_7"
     transform="translate(0,-6700)"><circle
       id="Background_2_27_"
       cx="642.03528"
       cy="7347.3022"
       r="531.99902"
       style="fill:#e8e8e8" /><g
       id="g6396"
       transform="translate(-3101.0826,3586.4695)"><path
         d="m 3907.466,4066.574 c 0,17.278 -14.138,31.416 -31.417,31.416 h -265.863 c -17.278,0 -31.416,-14.138 -31.416,-31.416 v -611.48 c 0,-17.281 14.138,-31.42 31.416,-31.42 h 265.863 c 17.28,0 31.417,14.139 31.417,31.42 z"
         id="path6394"
         inkscape:connector-curvature="0"
         style="fill:#01122c" /></g><g
       id="g6400"
       transform="translate(-3101.0826,3586.4695)"><rect
         x="3598.9089"
         y="3510.6841"
         width="286.806"
         height="509.164"
         id="rect6398"
         style="fill:#fe3718" /></g><path
       d="m 640.82838,7622.3095 c -13.171,0 -23.886,10.713 -23.886,23.884 0,13.167 10.715,23.883 23.886,23.883 13.174,0 23.886,-10.716 23.886,-23.883 0,-13.171 -10.713,-23.884 -23.886,-23.884 z m 0,45.272 c -11.794,0 -21.389,-9.596 -21.389,-21.389 0,-11.794 9.595,-21.39 21.389,-21.39 11.795,0 21.388,9.596 21.388,21.39 0,11.794 -9.593,21.389 -21.388,21.389 z"
       id="path6402"
       inkscape:connector-curvature="0"
       style="fill:#f2f2f2" /><g
       id="g6416"
       transform="translate(-3101.0826,3586.4695)"><g
         id="g6406"><path
           d="m 3769.148,3471.025 c 0,1.878 -1.521,3.4 -3.401,3.4 h -47.883 c -1.878,0 -3.399,-1.521 -3.399,-3.4 v 0 c 0,-1.877 1.521,-3.399 3.399,-3.399 h 47.883 c 1.881,0 3.401,1.521 3.401,3.399 z"
           id="path6404"
           inkscape:connector-curvature="0"
           style="fill:#ffffff" /></g><g
         id="g6410"><path
           d="m 3697.699,3472.16 c 0,3.667 -2.977,6.643 -6.648,6.643 -3.669,0 -6.644,-2.977 -6.644,-6.643 0,-3.673 2.975,-6.647 6.644,-6.647 3.671,0 6.648,2.974 6.648,6.647 z"
           id="path6408"
           inkscape:connector-curvature="0"
           style="fill:#ffffff" /></g><g
         id="g6414"><circle
           cx="3743.8311"
           cy="3450.3191"
           r="4.7670002"
           id="circle6412"
           style="fill:#ffffff" /></g></g><path
       d="m 517.52738,7108.3705 c 0,1.338 -1.081,2.418 -2.417,2.418 -1.334,0 -2.417,-1.08 -2.417,-2.418 0,-1.333 1.082,-2.415 2.417,-2.415 1.337,0 2.417,1.082 2.417,2.415 z"
       id="path6418"
       inkscape:connector-curvature="0"
       style="fill:#fcfcfa" /><path
       d="m 525.34238,7108.3705 c 0,1.338 -1.085,2.418 -2.418,2.418 -1.334,0 -2.417,-1.08 -2.417,-2.418 0,-1.333 1.083,-2.415 2.417,-2.415 1.333,0 2.418,1.082 2.418,2.415 z"
       id="path6420"
       inkscape:connector-curvature="0"
       style="fill:#808080" /><path
       d="m 525.34238,7108.3705 c 0,1.338 -1.085,2.418 -2.418,2.418 -1.334,0 -2.417,-1.08 -2.417,-2.418 0,-1.333 1.083,-2.415 2.417,-2.415 1.333,0 2.418,1.082 2.418,2.415 z"
       id="path6422"
       inkscape:connector-curvature="0"
       style="fill:#fcfcfa" /><path
       d="m 533.15438,7108.3705 c 0,1.338 -1.082,2.418 -2.417,2.418 -1.335,0 -2.418,-1.08 -2.418,-2.418 0,-1.333 1.083,-2.415 2.418,-2.415 1.335,0 2.417,1.082 2.417,2.415 z"
       id="path6424"
       inkscape:connector-curvature="0"
       style="fill:#808080" /><path
       d="m 533.15438,7108.3705 c 0,1.338 -1.082,2.418 -2.417,2.418 -1.335,0 -2.418,-1.08 -2.418,-2.418 0,-1.333 1.083,-2.415 2.418,-2.415 1.335,0 2.417,1.082 2.417,2.415 z"
       id="path6426"
       inkscape:connector-curvature="0"
       style="fill:#fcfcfa" /><path
       d="m 540.96638,7108.3705 c 0,1.338 -1.081,2.418 -2.415,2.418 -1.337,0 -2.417,-1.08 -2.417,-2.418 0,-1.333 1.08,-2.415 2.417,-2.415 1.335,0 2.415,1.082 2.415,2.415 z"
       id="path6428"
       inkscape:connector-curvature="0"
       style="fill:#fcfcfa" /><rect
       x="742.79724"
       y="7104.9482"
       width="11.991"
       height="5.8400002"
       id="rect6430"
       style="fill:#fcfcfa" /><rect
       x="741.18542"
       y="7106.3125"
       width="9.6719999"
       height="3.1140001"
       id="rect6432"
       style="fill:#fcfcfa" /><rect
       x="744.3114"
       y="7104.8716"
       width="44.844002"
       height="31.018999"
       id="rect6434"
       style="fill:none" /><text
       font-size="7.2507"
       id="text6436"
       style="font-size:7.2507px;font-family:OpenSans-Bold;fill:#fcfcfa"
       x="758.28308"
       y="7110.0205">100%</text>
<polygon
       points="3885.715,3510.684 3885.715,4019.848 3598.909,4019.848 "
       id="polygon6438"
       style="fill:#d10510"
       transform="translate(-3101.0826,3586.4695)" /><circle
       cx="641.23035"
       cy="7351.7334"
       r="85.545998"
       id="circle6440"
       style="fill:#d8d8d8" /><path
       d="m 566.65438,7309.8235 c -23.146,41.19 -8.52,93.341 32.667,116.487 l 83.82,-149.15 c -41.187,-23.149 -93.341,-8.523 -116.487,32.663 z"
       id="path6442"
       inkscape:connector-curvature="0"
       style="fill:#fcfcfa" /><polygon
       points="3723.159,3748.459 3690.918,3748.459 3690.918,3784.283 3723.159,3784.283 3723.159,3816.523 3758.981,3816.523 3758.981,3784.283 3791.225,3784.283 3791.225,3748.459 3758.981,3748.459 3758.981,3716.217 3723.159,3716.217 "
       id="polygon6444"
       style="fill:#01122c"
       transform="translate(-3101.0826,3586.4695)" /><path
       stroke-miterlimit="10"
       d="m 747.65138,7579.1025 c 0,4.344 -3.525,7.866 -7.868,7.866 h -199.587 c -4.345,0 -7.868,-3.522 -7.868,-7.866 v 0 c 0,-4.346 3.523,-7.87 7.868,-7.87 h 199.587 c 4.343,0 7.868,3.524 7.868,7.87 z"
       id="path6446"
       inkscape:connector-curvature="0"
       style="fill:#fcfcfa;stroke:#01122c;stroke-miterlimit:10" /><path
       d="m 540.19638,7574.3025 c -2.646,0 -4.798,2.154 -4.798,4.799 0,2.644 2.152,4.796 4.798,4.796 h 88.788 v -9.596 h -88.788 z"
       id="path6448"
       inkscape:connector-curvature="0"
       style="fill:#fe3718" /><rect
       x="497.8273"
       y="7459.3384"
       width="286.80801"
       height="144.995"
       id="rect6450"
       style="fill:none" /><text
       font-size="42.9878"
       id="text6452"
       style="font-size:42.9878006px;font-family:OpenSans-Bold;display:inline;fill:#fcfcfa"
       x="558.724"
       y="7543.8853">healthy</text>
<g
       id="g6476"
       transform="translate(-3101.0826,3586.4695)"><g
         id="g6474"><defs
           id="defs6455"><path
             id="SVGID_8_"
             d="m 4137.061,3352.387 c -16.096,0 -30.582,6.876 -40.736,17.871 -10.14,-10.995 -24.638,-17.871 -40.742,-17.871 -30.692,0 -55.583,24.997 -55.583,55.836 0,8.282 1.47,16.235 3.995,23.854 0,0 2.334,6.869 4.373,10.659 23.433,48.339 87.957,79.691 87.957,79.691 0,0 64.522,-31.352 87.951,-79.691 0,0 3.021,-6.45 4.365,-10.659 2.424,-7.646 4.002,-15.573 4.002,-23.854 0,-30.84 -24.881,-55.836 -55.582,-55.836 z"
             inkscape:connector-curvature="0" /></defs><clipPath
           id="SVGID_9_"><use
             xlink:href="#SVGID_8_"
             overflow="visible"
             id="use6457"
             style="overflow:visible"
             x="0"
             y="0"
             width="100%"
             height="100%" /></clipPath><g
           clip-path="url(#SVGID_9_)"
           id="g6470"><path
             d="m 4055.582,3352.387 c -30.692,0 -55.583,24.997 -55.583,55.836 0,8.282 1.47,16.235 3.995,23.854 0,0 2.334,6.869 4.373,10.659 23.433,48.339 87.957,79.691 87.957,79.691 v -152.17 c -10.139,-10.994 -24.637,-17.87 -40.742,-17.87 z"
             id="path6460"
             inkscape:connector-curvature="0"
             style="fill:#fe3718" /><path
             d="m 3119.186,3981.913 c -30.692,0 -55.583,24.996 -55.583,55.835 0,8.283 1.471,16.234 3.996,23.857 0,0 2.333,6.869 4.371,10.656 23.433,48.34 87.958,79.693 87.958,79.693 v -152.172 c -10.14,-10.993 -24.638,-17.869 -40.742,-17.869 z"
             id="path6462"
             inkscape:connector-curvature="0"
             style="fill:#fe3718" /><path
             d="m 4137.061,3352.387 c -16.096,0 -30.582,6.876 -40.736,17.871 v 152.17 c 0,0 64.522,-31.352 87.951,-79.691 0,0 3.021,-6.45 4.365,-10.659 2.424,-7.646 4.002,-15.573 4.002,-23.854 0,-30.841 -24.881,-55.837 -55.582,-55.837 z"
             id="path6464"
             inkscape:connector-curvature="0"
             style="fill:#ed1c24" /><path
             d="m 4137.061,3352.387 c -16.096,0 -30.582,6.876 -40.736,17.871 v 152.17 c 0,0 64.522,-31.352 87.951,-79.691 0,0 3.021,-6.45 4.365,-10.659 2.424,-7.646 4.002,-15.573 4.002,-23.854 0,-30.841 -24.881,-55.837 -55.582,-55.837 z"
             id="path6466"
             inkscape:connector-curvature="0"
             style="fill:#d10510" /><path
             d="m 3201.104,3981.913 c -16.095,0 -30.582,6.876 -40.735,17.87 v 152.172 c 0,0 64.522,-31.354 87.951,-79.693 0,0 3.021,-6.449 4.365,-10.656 2.423,-7.65 4.002,-15.574 4.002,-23.857 0,-30.841 -24.881,-55.836 -55.583,-55.836 z"
             id="path6468"
             inkscape:connector-curvature="0"
             style="fill:#d10510" /></g><polyline
           clip-path="url(#SVGID_9_)"
           stroke-miterlimit="10"
           points="     3980.528,3439.366 4053.76,3439.366 4071.483,3397.581 4094.439,3483.845 4118.975,3416.073 4129.73,3438.104 4219.002,3438.104         "
           id="polyline6472"
           style="fill:none;stroke:#f2f2f2;stroke-width:3;stroke-miterlimit:10" /></g></g><g
       id="g6526"
       transform="translate(-3101.0826,3586.4695)"><rect
         x="3322.543"
         y="3504.0901"
         width="132.55099"
         height="189.08299"
         id="rect6478"
         style="fill:#d1aaaf" /><circle
         cx="3356.894"
         cy="3540.28"
         r="24.018999"
         id="circle6480"
         style="fill:#fe3718" /><polygon
         points="3340.925,3545.983 3351.188,3545.983 3351.188,3556.252 3362.595,3556.252 3362.595,3545.983 3372.862,3545.983 3372.862,3534.578 3362.595,3534.578 3362.595,3524.312 3351.188,3524.312 3351.188,3534.578 3340.925,3534.578 "
         id="polygon6482"
         style="fill:#fcfcfa" /><rect
         x="3332.875"
         y="3577.3521"
         width="110.833"
         height="105.873"
         id="rect6484"
         style="fill:#fcfcfa" /><rect
         x="3394.6941"
         y="3524.312"
         width="29.219"
         height="5.6020002"
         id="rect6486"
         style="fill:#d8d8d8" /><rect
         x="3429.0991"
         y="3524.312"
         width="14.609"
         height="5.6020002"
         id="rect6488"
         style="fill:#d8d8d8" /><rect
         x="3402.001"
         y="3534.679"
         width="14.609"
         height="5.6020002"
         id="rect6490"
         style="fill:#d8d8d8" /><rect
         x="3387.3931"
         y="3534.679"
         width="9.5030003"
         height="5.6020002"
         id="rect6492"
         style="fill:#d8d8d8" /><rect
         x="3419.5129"
         y="3534.679"
         width="24.195"
         height="5.6020002"
         id="rect6494"
         style="fill:#d8d8d8" /><rect
         x="3360.374"
         y="3596.2539"
         width="29.216999"
         height="5.6030002"
         id="rect6496"
         style="fill:#d8d8d8" /><rect
         x="3340.5801"
         y="3596.2539"
         width="14.608"
         height="5.6030002"
         id="rect6498"
         style="fill:#d8d8d8" /><rect
         x="3408.229"
         y="3596.2539"
         width="14.608"
         height="5.6030002"
         id="rect6500"
         style="fill:#d8d8d8" /><rect
         x="3367.678"
         y="3585.887"
         width="14.608"
         height="5.6030002"
         id="rect6502"
         style="fill:#d8d8d8" /><rect
         x="3387.3931"
         y="3585.887"
         width="9.5030003"
         height="5.6030002"
         id="rect6504"
         style="fill:#d8d8d8" /><rect
         x="3393.677"
         y="3596.2539"
         width="9.5019999"
         height="5.6030002"
         id="rect6506"
         style="fill:#d8d8d8" /><rect
         x="3340.5801"
         y="3585.887"
         width="24.190001"
         height="5.6030002"
         id="rect6508"
         style="fill:#d8d8d8" /><rect
         x="3355.1631"
         y="3616.989"
         width="14.609"
         height="5.6020002"
         id="rect6510"
         style="fill:#d8d8d8" /><rect
         x="3367.678"
         y="3606.6221"
         width="14.608"
         height="5.6020002"
         id="rect6512"
         style="fill:#d8d8d8" /><rect
         x="3340.6069"
         y="3616.989"
         width="9.5030003"
         height="5.6020002"
         id="rect6514"
         style="fill:#d8d8d8" /><rect
         x="3373.1221"
         y="3616.989"
         width="15.698"
         height="5.6020002"
         id="rect6516"
         style="fill:#d8d8d8" /><rect
         x="3404.2241"
         y="3606.6221"
         width="15.842"
         height="5.6020002"
         id="rect6518"
         style="fill:#d8d8d8" /><rect
         x="3386.0701"
         y="3606.6221"
         width="14.358"
         height="5.6020002"
         id="rect6520"
         style="fill:#d8d8d8" /><rect
         x="3340.5801"
         y="3606.6221"
         width="24.190001"
         height="5.6020002"
         id="rect6522"
         style="fill:#d8d8d8" /><rect
         x="3402.001"
         y="3585.887"
         width="24.188999"
         height="5.6030002"
         id="rect6524"
         style="fill:#d8d8d8" /></g><g
       id="g6546"
       transform="translate(-3101.0826,3586.4695)"><path
         d="m 4112.801,3785.182 h -93.202 c -6.912,0 -12.566,5.656 -12.566,12.567 v 6.073 h 6.283 v -6.073 c 0,-3.464 2.82,-6.284 6.283,-6.284 h 93.202 c 3.466,0 6.284,2.82 6.284,6.284 v 6.073 h 6.283 v -6.073 c 0,-6.911 -5.655,-12.567 -12.567,-12.567 z"
         id="path6528"
         inkscape:connector-curvature="0"
         style="fill:#d8d8d8" /><path
         d="m 4112.801,3778.899 h -93.202 c -10.393,0 -18.85,8.456 -18.85,18.85 v 6.073 h 6.283 v -6.073 c 0,-6.911 5.654,-12.567 12.566,-12.567 h 93.202 c 6.912,0 12.567,5.656 12.567,12.567 v 6.073 h 6.283 v -6.073 c 0,-10.394 -8.455,-18.85 -18.849,-18.85 z"
         id="path6530"
         inkscape:connector-curvature="0"
         style="fill:#fcfcfa" /><g
         id="g6544"><rect
           x="3984.0991"
           y="3818.7959"
           width="164.203"
           height="103.957"
           id="rect6532"
           style="fill:#fcfcfa" /><polygon
           points="4148.302,3818.796 4138.249,3802.88 3994.151,3802.88 3984.099,3818.796 "
           id="polygon6534"
           style="fill:#d8d8d8" /><circle
           cx="4066.2"
           cy="3870.7739"
           r="36.022999"
           id="circle6536"
           style="fill:#fe3718" /><polygon
           points="4058.539,3878.435 4058.539,3892.222 4073.859,3892.222 4073.859,3878.435 4087.647,3878.435 4087.647,3863.114 4073.859,3863.114 4073.859,3849.329 4058.539,3849.329 4058.539,3863.114 4044.753,3863.114 4044.753,3878.435 "
           id="polygon6538"
           style="fill:#fcfcfa" /><polygon
           points="4007.032,3802.88 3994.151,3802.88 3988.31,3812.13 "
           id="polygon6540"
           style="fill:#fcfcfa" /><polygon
           points="4125.368,3802.88 4138.249,3802.88 4144.091,3812.13 "
           id="polygon6542"
           style="fill:#fcfcfa" /></g></g><g
       id="g6624"
       transform="translate(-3101.0826,3586.4695)"><g
         id="g6552"><g
           id="g6550"><path
             d="m 3506.802,4027.761 h -42.613 c -12.416,0 -22.479,10.066 -22.479,22.48 v 64.469 19.356 18.73 c 0,2.068 1.714,3.746 3.83,3.746 h 18.65 42.613 18.65 c 2.116,0 3.829,-1.678 3.829,-3.746 v -18.73 -19.356 -64.469 c 0,-12.414 -10.067,-22.48 -22.48,-22.48 z"
             id="path6548"
             inkscape:connector-curvature="0"
             style="fill:#fcfcfa" /></g></g><g
         id="g6558"><g
           id="g6556"><path
             d="m 3506.802,4027.761 h -21.307 v 128.782 h 21.307 18.65 c 2.116,0 3.829,-1.678 3.829,-3.746 v -18.73 -19.356 -64.469 c 0,-12.415 -10.066,-22.481 -22.479,-22.481 z"
             id="path6554"
             inkscape:connector-curvature="0"
             style="fill:#d8d8d8" /></g></g><g
         id="g6564"><g
           id="g6562"><rect
             x="3441.709"
             y="4077.2451"
             width="43.747002"
             height="39.647999"
             id="rect6560"
             style="fill:#fe3718" /></g></g><g
         id="g6570"><g
           id="g6568"><rect
             x="3485.5149"
             y="4077.2451"
             width="43.743999"
             height="39.647999"
             id="rect6566"
             style="fill:#d10510" /></g></g><g
         id="g6576"><g
           id="g6574"><rect
             x="3455.095"
             y="4010.6709"
             width="60.799"
             height="18.965"
             id="rect6572"
             style="fill:#d10510" /></g></g><g
         id="g6622"><g
           id="g6580"><rect
             x="3457.4351"
             y="4013.011"
             width="1.875"
             height="14.205"
             id="rect6578"
             style="fill:#fe3718" /></g><g
           id="g6584"><rect
             x="3462.853"
             y="4013.011"
             width="1.873"
             height="14.205"
             id="rect6582"
             style="fill:#fe3718" /></g><g
           id="g6588"><rect
             x="3468.27"
             y="4013.011"
             width="1.873"
             height="14.205"
             id="rect6586"
             style="fill:#fe3718" /></g><g
           id="g6592"><rect
             x="3473.6851"
             y="4013.011"
             width="1.874"
             height="14.205"
             id="rect6590"
             style="fill:#fe3718" /></g><g
           id="g6596"><rect
             x="3479.1021"
             y="4013.011"
             width="1.873"
             height="14.205"
             id="rect6594"
             style="fill:#fe3718" /></g><g
           id="g6600"><rect
             x="3484.5181"
             y="4013.011"
             width="1.874"
             height="14.205"
             id="rect6598"
             style="fill:#fe3718" /></g><g
           id="g6604"><rect
             x="3489.936"
             y="4013.011"
             width="1.873"
             height="14.205"
             id="rect6602"
             style="fill:#fe3718" /></g><g
           id="g6608"><rect
             x="3495.3511"
             y="4013.011"
             width="1.874"
             height="14.205"
             id="rect6606"
             style="fill:#fe3718" /></g><g
           id="g6612"><rect
             x="3500.7681"
             y="4013.011"
             width="1.873"
             height="14.205"
             id="rect6610"
             style="fill:#fe3718" /></g><g
           id="g6616"><rect
             x="3506.1851"
             y="4013.011"
             width="1.873"
             height="14.205"
             id="rect6614"
             style="fill:#fe3718" /></g><g
           id="g6620"><rect
             x="3511.6011"
             y="4013.011"
             width="1.875"
             height="14.205"
             id="rect6618"
             style="fill:#fe3718" /></g></g></g></g></svg>