<?xml version="1.0" encoding="UTF-8" standalone="no"?>
<!-- Generator: Adobe Illustrator 16.0.0, SVG Export Plug-In . SVG Version: 6.00 Build 0)  -->

<svg
   xmlns:dc="http://purl.org/dc/elements/1.1/"
   xmlns:cc="http://creativecommons.org/ns#"
   xmlns:rdf="http://www.w3.org/1999/02/22-rdf-syntax-ns#"
   xmlns:svg="http://www.w3.org/2000/svg"
   xmlns="http://www.w3.org/2000/svg"
   xmlns:sodipodi="http://sodipodi.sourceforge.net/DTD/sodipodi-0.dtd"
   xmlns:inkscape="http://www.inkscape.org/namespaces/inkscape"
   version="1.1"
   x="0px"
   y="0px"
   width="1300"
   height="1300"
   viewBox="0 0 1300 1300"
   enable-background="new 0 0 8000 8000"
   xml:space="preserve"
   id="svg6957"
   sodipodi:docname="usecase-researchers.svg"
   inkscape:version="0.92.2 5c3e80d, 2017-08-06"><metadata
     id="metadata6963"><rdf:RDF><cc:Work
         rdf:about=""><dc:format>image/svg+xml</dc:format><dc:type
           rdf:resource="http://purl.org/dc/dcmitype/StillImage" /><dc:title /></cc:Work></rdf:RDF></metadata><defs
     id="defs6961" /><sodipodi:namedview
     pagecolor="#ffffff"
     bordercolor="#666666"
     borderopacity="1"
     objecttolerance="10"
     gridtolerance="10"
     guidetolerance="10"
     inkscape:pageopacity="0"
     inkscape:pageshadow="2"
     inkscape:window-width="1920"
     inkscape:window-height="983"
     id="namedview6959"
     showgrid="false"
     inkscape:zoom="0.3337544"
     inkscape:cx="-216.0803"
     inkscape:cy="510.88365"
     inkscape:window-x="0"
     inkscape:window-y="1"
     inkscape:window-maximized="1"
     inkscape:current-layer="svg6957" /><g
     id="Layer_8"
     transform="translate(-2167.5235,-3209.4145)"
     style="display:inline"><circle
       id="Background_2_28_"
       cx="2806.386"
       cy="3851"
       r="531.99902"
       style="fill:#e8e8e8" /><g
       id="Coding_4_"><path
         d="m 2959.989,3904.599 c 0,15.651 -12.695,28.34 -28.347,28.34 h -566.8 c -15.651,0 -28.34,-12.688 -28.34,-28.34 v -350.703 c 0,-15.657 12.689,-28.346 28.34,-28.346 h 566.8 c 15.651,0 28.347,12.689 28.347,28.346 z"
         id="path6628"
         inkscape:connector-curvature="0"
         style="clip-rule:evenodd;fill:#154f77;fill-rule:evenodd" /><rect
         x="2364.3611"
         y="3552.4241"
         width="570.172"
         height="352.064"
         id="rect6630"
         style="clip-rule:evenodd;fill:#0d3858;fill-rule:evenodd" /><path
         d="m 2214.583,3930.875 c -0.368,2.513 -0.573,5.098 -0.573,7.747 0,22.396 13.584,40.547 30.342,40.547 h 810.195 c 16.751,0 30.338,-18.151 30.338,-40.547 0,-2.649 -0.208,-5.234 -0.572,-7.747 z"
         id="path6632"
         inkscape:connector-curvature="0"
         style="clip-rule:evenodd;fill:#fffefe;fill-rule:evenodd" /><path
         d="m 2216.617,3955.021 c 4.717,14.219 15.348,24.147 27.734,24.147 h 810.195 c 12.383,0 23.014,-9.929 27.734,-24.147 z"
         id="path6634"
         inkscape:connector-curvature="0"
         style="opacity:0.1" /><g
         id="g6674"><rect
           x="2393.905"
           y="3585.406"
           width="142.754"
           height="7.0960002"
           id="rect6636"
           style="fill:#aec647" /><rect
           x="2393.905"
           y="3606.6951"
           width="142.754"
           height="7.1030002"
           id="rect6638"
           style="fill:#f3ae1b" /><rect
           x="2393.905"
           y="3626.415"
           width="142.754"
           height="7.0970001"
           id="rect6640"
           style="fill:#df3f11" /><rect
           x="2393.905"
           y="3809.657"
           width="142.754"
           height="7.1030002"
           id="rect6642"
           style="fill:#aec647" /><rect
           x="2393.905"
           y="3786.2661"
           width="142.754"
           height="7.0960002"
           id="rect6644"
           style="fill:#aec647" /><rect
           x="2393.905"
           y="3833.844"
           width="142.754"
           height="7.0960002"
           id="rect6646"
           style="fill:#aec647" /><rect
           x="2564.2671"
           y="3671.3701"
           width="142.754"
           height="7.1030002"
           id="rect6648"
           style="fill:#f3ae1b" /><rect
           x="2413.6221"
           y="3671.3701"
           width="142.757"
           height="7.1030002"
           id="rect6650"
           style="fill:#aec647" /><rect
           x="2413.6221"
           y="3691.0901"
           width="142.757"
           height="7.0960002"
           id="rect6652"
           style="fill:#f3ae1b" /><rect
           x="2564.2671"
           y="3691.0901"
           width="67.038002"
           height="7.0960002"
           id="rect6654"
           style="fill:#aec647" /><rect
           x="2413.6221"
           y="3729.2471"
           width="142.757"
           height="7.0970001"
           id="rect6656"
           style="fill:#aec647" /><rect
           x="2564.2671"
           y="3729.2471"
           width="67.038002"
           height="7.0970001"
           id="rect6658"
           style="fill:#f3ae1b" /><rect
           x="2734.6279"
           y="3710.0161"
           width="67.041"
           height="7.1030002"
           id="rect6660"
           style="fill:#f3ae1b" /><rect
           x="2413.6221"
           y="3648.499"
           width="308.38599"
           height="7.1030002"
           id="rect6662"
           style="fill:#bcdede" /><rect
           x="2413.6221"
           y="3710.0161"
           width="308.38599"
           height="7.1030002"
           id="rect6664"
           style="fill:#bcdede" /><rect
           x="2734.6279"
           y="3751.8191"
           width="67.041"
           height="7.1030002"
           id="rect6666"
           style="fill:#aec647" /><rect
           x="2413.6221"
           y="3751.8191"
           width="308.38599"
           height="7.1030002"
           id="rect6668"
           style="fill:#aec647" /><rect
           x="2714.9109"
           y="3853.563"
           width="67.038002"
           height="7.0970001"
           id="rect6670"
           style="fill:#c84119" /><rect
           x="2393.905"
           y="3853.563"
           width="308.38599"
           height="7.0970001"
           id="rect6672"
           style="fill:#6bb5ce" /></g><g
         id="g6684"><circle
           cx="2395.8469"
           cy="3942.9451"
           r="5.6199999"
           id="circle6676"
           style="fill:#00d0e5" /><circle
           cx="2360.1589"
           cy="3942.9451"
           r="5.6220002"
           id="circle6678"
           style="fill:#ff81ed" /><path
           d="m 2383.326,3942.945 c 0,3.105 -2.513,5.618 -5.615,5.618 -3.105,0 -5.625,-2.513 -5.625,-5.618 0,-3.105 2.52,-5.619 5.625,-5.619 3.102,0 5.615,2.514 5.615,5.619 z"
           id="path6680"
           inkscape:connector-curvature="0"
           style="fill:#00c982" /><path
           d="m 2346.259,3942.945 c 0,2.832 -2.295,5.13 -5.127,5.13 h -43.776 c -2.826,0 -5.124,-2.298 -5.124,-5.13 v 0 c 0,-2.832 2.298,-5.124 5.124,-5.124 h 43.776 c 2.832,0 5.127,2.292 5.127,5.124 z"
           id="path6682"
           inkscape:connector-curvature="0"
           style="opacity:0.7" /></g><circle
         cx="2649.448"
         cy="3538.876"
         r="8.2989998"
         id="circle6686"
         style="opacity:0.4" /></g><path
       d="m 3384.572,4212.887 c 21.823,16.842 25.859,48.177 9.011,69.993 v 0 c -16.836,21.81 -48.177,25.833 -69.987,9.004 l -215.938,-166.687 c -21.81,-16.842 -25.846,-48.17 -9.01,-69.986 v 0 c 16.836,-21.816 48.177,-25.84 69.986,-9.011 z"
       id="path6689"
       inkscape:connector-curvature="0"
       style="fill:#ce6405" /><path
       d="m 3363.57,4206.232 c 18.509,14.277 21.927,40.866 7.643,59.362 v 0 c -14.283,18.516 -40.859,21.94 -59.368,7.649 l -183.184,-141.387 c -18.503,-14.283 -21.927,-40.872 -7.644,-59.375 v 0 c 14.284,-18.509 40.873,-21.934 59.375,-7.643 z"
       id="path6691"
       inkscape:connector-curvature="0"
       style="opacity:0.2;fill:#ffffff" /><path
       d="m 3135.973,4035.881 c -14.174,0.619 -27.982,7.227 -37.324,19.33 -8.151,10.553 -11.367,23.333 -10.085,35.631 10.501,0.307 24.226,-7.695 34.733,-21.309 8.789,-11.387 13.189,-23.951 12.676,-33.652 z"
       id="path6693"
       inkscape:connector-curvature="0"
       style="opacity:0.1" /><path
       d="m 3018.173,3703.792 c -100.13,-77.279 -243.938,-58.77 -321.221,41.354 -77.285,100.124 -58.766,243.933 41.354,321.224 92.75,71.589 222.945,60.912 303.063,-20.625 l 47.006,36.283 c 0,0 42.884,-4.121 38.502,-44.727 l -49.896,-38.516 c 56.055,-97.702 32.872,-224.225 -58.808,-294.993 z m 1.848,290.729 c -60.449,78.301 -172.923,92.786 -251.224,32.344 -78.311,-60.442 -92.79,-172.923 -32.344,-251.224 60.439,-78.314 172.923,-92.787 251.23,-32.351 78.296,60.443 92.775,172.923 32.338,251.231 z"
       id="path6695"
       inkscape:connector-curvature="0"
       style="fill:#0cc1b0" /><path
       d="m 2806.386,3719.82 c -26.953,11.634 -51.419,30.045 -70.628,54.935 -57.334,74.277 -47.21,179.265 20.807,241.458 -87.728,-146.133 -5.211,-249.101 49.821,-296.393 z"
       id="path6697"
       inkscape:connector-curvature="0"
       style="opacity:0.2" /><path
       d="m 3043.439,3808.629 c 42.943,90.162 4.662,198.066 -85.494,241.021 -90.163,42.943 -198.073,4.668 -241.019,-85.488 -42.956,-90.162 -4.678,-198.079 85.485,-241.021 90.163,-42.956 198.073,-4.675 241.028,85.488 z"
       id="path6699"
       inkscape:connector-curvature="0"
       style="opacity:0.3;fill:#ffffff" /></g></svg>